<svg width="40" height="45" viewBox="0 0 40 45" fill="none" xmlns="http://www.w3.org/2000/svg">
<g clip-path="url(#clip0_10_13818)">
<path d="M1.27634 20.6249L2.00981 20.1359C2.07358 20.094 2.14749 20.0701 2.22372 20.0668C2.29995 20.0635 2.37565 20.0809 2.44281 20.1171C2.50997 20.1533 2.56609 20.207 2.60521 20.2725C2.64433 20.338 2.66501 20.4129 2.66505 20.4892V22.6309L1.27634 20.6249Z" fill="#F2BF63"/>
<path d="M11.8662 20.6249L11.1327 20.1359C11.069 20.094 10.9951 20.0701 10.9188 20.0668C10.8426 20.0635 10.7669 20.0809 10.6997 20.1171C10.6326 20.1533 10.5765 20.207 10.5373 20.2725C10.4982 20.338 10.4776 20.4129 10.4775 20.4892V22.6309L11.8662 20.6249Z" fill="#F2BF63"/>
<path d="M0.243556 21.3093L1.28142 20.6247C1.39427 20.55 1.53109 20.5205 1.66471 20.542C1.79833 20.5635 1.91897 20.6345 2.00266 20.7409C2.54616 21.4327 3.23988 21.9918 4.03132 22.376C4.82276 22.7602 5.69121 22.9593 6.57097 22.9584C7.45092 22.9594 8.31958 22.7603 9.11123 22.3761C9.90289 21.992 10.5968 21.4328 11.1405 20.7409C11.2242 20.6345 11.3448 20.5635 11.4785 20.542C11.6121 20.5205 11.7489 20.55 11.8617 20.6247L12.8996 21.3093C12.962 21.3504 13.0151 21.404 13.0558 21.4666C13.0966 21.5292 13.1239 21.5995 13.1362 21.6732C13.1485 21.7469 13.1454 21.8223 13.1272 21.8947C13.109 21.9671 13.0761 22.035 13.0304 22.0941C11.9163 23.5436 10.3892 24.6214 8.65036 25.1857C8.38998 24.9339 8.73227 24.3874 6.57219 24.3874C4.41212 24.3874 4.74951 24.9669 4.49402 25.2322C2.74836 24.7175 1.23985 23.5623 0.11642 22.0941C0.0704279 22.0353 0.0370913 21.9676 0.0185089 21.8953C-7.34329e-05 21.823 -0.00350285 21.7476 0.0084362 21.6739C0.0203753 21.6002 0.0474262 21.5298 0.0878878 21.467C0.128348 21.4043 0.181348 21.3506 0.243556 21.3093Z" fill="#F2BF63"/>
<path d="M5.53242 25.1562H7.60937C7.89631 25.1562 8.12891 25.3889 8.12891 25.6758V25.8323C8.12891 26.1192 7.89631 26.3518 7.60937 26.3518H5.53242C5.24549 26.3518 5.01288 26.1192 5.01288 25.8323V25.6758C5.01288 25.3889 5.24549 25.1562 5.53242 25.1562Z" fill="#F2BF63"/>
<path d="M5.53242 26.9355H7.60937C7.89631 26.9355 8.12891 27.1682 8.12891 27.4551V27.6116C8.12891 27.8985 7.89631 28.1311 7.60937 28.1311H5.53242C5.24549 28.1311 5.01288 27.8985 5.01288 27.6116V27.4551C5.01288 27.1682 5.24549 26.9355 5.53242 26.9355Z" fill="#F2BF63"/>
<path d="M5.53242 28.7168H7.60937C7.89631 28.7168 8.12891 28.9494 8.12891 29.2363V29.3928C8.12891 29.6797 7.89631 29.9124 7.60937 29.9124H5.53242C5.24549 29.9124 5.01288 29.6797 5.01288 29.3928V29.2363C5.01288 28.9494 5.24549 28.7168 5.53242 28.7168Z" fill="#F2BF63"/>
<path d="M5.53242 30.4961H7.60937C7.89631 30.4961 8.12891 30.7287 8.12891 31.0156V31.1721C8.12891 31.459 7.89631 31.6917 7.60937 31.6917H5.53242C5.24549 31.6917 5.01288 31.459 5.01288 31.1721V31.0156C5.01288 30.7287 5.24549 30.4961 5.53242 30.4961Z" fill="#F2BF63"/>
<path d="M5.19627 32.4071C5.23321 32.3704 5.27813 32.3426 5.32753 32.3261C5.37693 32.3096 5.42949 32.3047 5.4811 32.3117H5.53244H7.61061H7.66195C7.71357 32.3047 7.76612 32.3096 7.81552 32.3261C7.86492 32.3426 7.90984 32.3704 7.94678 32.4071C8.27489 32.7545 8.45808 33.214 8.45899 33.6919C8.45899 34.7322 7.6155 35.7896 6.57642 35.7896C5.53733 35.7896 4.69262 34.7322 4.69262 33.6919C4.69121 33.2152 4.87128 32.7558 5.19627 32.4071Z" fill="#F2BF63"/>
<path d="M4.15058 2.92827C4.67501 2.07255 5.75566 0.507812 6.57225 0.507812C7.38885 0.507812 8.46828 2.07867 8.99393 2.92827C9.19719 3.25929 9.30507 3.64003 9.30566 4.02848V19.9204C9.30702 20.1789 9.20797 20.4278 9.02938 20.6147C8.66881 20.9889 8.22777 21.2761 7.73969 21.4545C7.67002 21.478 7.59576 21.4846 7.52306 21.4737C7.45035 21.4628 7.38128 21.4347 7.32156 21.3918C7.26184 21.3489 7.21318 21.2925 7.17961 21.2271C7.14603 21.1617 7.1285 21.0892 7.12847 21.0157V5.14335C7.13073 5.00341 7.08118 4.86757 6.98933 4.76196C6.89748 4.65634 6.76984 4.58842 6.63093 4.57125C6.55387 4.56282 6.47589 4.57074 6.4021 4.5945C6.3283 4.61825 6.26035 4.6573 6.20267 4.7091C6.14499 4.7609 6.09888 4.82428 6.06735 4.8951C6.03582 4.96593 6.01959 5.0426 6.01971 5.12013V21.0206C6.01967 21.0941 6.00215 21.1665 5.96857 21.2319C5.93499 21.2974 5.88633 21.3538 5.82661 21.3967C5.76689 21.4396 5.69782 21.4676 5.62512 21.4785C5.55241 21.4894 5.47815 21.4829 5.40848 21.4594C4.92041 21.281 4.47936 20.9938 4.11879 20.6196C3.94021 20.4327 3.84116 20.1838 3.84252 19.9252V4.03336C3.84059 3.64354 3.94726 3.26088 4.15058 2.92827Z" fill="#F2BF63"/>
</g>
<g clip-path="url(#clip1_10_13818)">
<path d="M14.4189 29.5311L15.1524 29.0421C15.2161 29.0002 15.2901 28.9764 15.3663 28.9731C15.4425 28.9697 15.5182 28.9871 15.5854 29.0233C15.6525 29.0595 15.7087 29.1132 15.7478 29.1787C15.7869 29.2443 15.8076 29.3191 15.8076 29.3954V31.5372L14.4189 29.5311Z" fill="#F2BF63"/>
<path d="M25.0088 29.5311L24.2753 29.0421C24.2116 29.0002 24.1376 28.9764 24.0614 28.9731C23.9852 28.9697 23.9095 28.9871 23.8423 29.0233C23.7752 29.0595 23.719 29.1132 23.6799 29.1787C23.6408 29.2443 23.6201 29.3191 23.6201 29.3954V31.5372L25.0088 29.5311Z" fill="#F2BF63"/>
<path d="M13.3861 30.2156L14.424 29.531C14.5368 29.4563 14.6737 29.4267 14.8073 29.4483C14.9409 29.4698 15.0615 29.5408 15.1452 29.6471C15.6887 30.3389 16.3824 30.8981 17.1739 31.2822C17.9653 31.6664 18.8338 31.8656 19.7135 31.8647C20.5935 31.8657 21.4621 31.6666 22.2538 31.2824C23.0455 30.8982 23.7394 30.339 24.2831 29.6471C24.3668 29.5408 24.4874 29.4698 24.621 29.4483C24.7546 29.4267 24.8915 29.4563 25.0043 29.531L26.0422 30.2156C26.1045 30.2567 26.1577 30.3102 26.1984 30.3728C26.2391 30.4354 26.2665 30.5058 26.2787 30.5794C26.291 30.6531 26.288 30.7285 26.2698 30.8009C26.2516 30.8734 26.2186 30.9413 26.173 31.0004C25.0589 32.4498 23.5318 33.5277 21.7929 34.092C21.5325 33.8401 21.8748 33.2937 19.7148 33.2937C17.5547 33.2937 17.8921 33.8731 17.6366 34.1384C15.8909 33.6238 14.3824 32.4685 13.259 31.0004C13.213 30.9416 13.1797 30.8739 13.1611 30.8016C13.1425 30.7293 13.1391 30.6539 13.151 30.5802C13.1629 30.5065 13.19 30.436 13.2305 30.3733C13.2709 30.3106 13.3239 30.2568 13.3861 30.2156Z" fill="#F2BF63"/>
<path d="M18.675 34.0625H20.7519C21.0389 34.0625 21.2715 34.2951 21.2715 34.582V34.7385C21.2715 35.0255 21.0389 35.2581 20.7519 35.2581H18.675C18.3881 35.2581 18.1555 35.0255 18.1555 34.7385V34.582C18.1555 34.2951 18.3881 34.0625 18.675 34.0625Z" fill="#F2BF63"/>
<path d="M18.675 35.8418H20.7519C21.0389 35.8418 21.2715 36.0744 21.2715 36.3613V36.5178C21.2715 36.8047 21.0389 37.0374 20.7519 37.0374H18.675C18.3881 37.0374 18.1555 36.8047 18.1555 36.5178V36.3613C18.1555 36.0744 18.3881 35.8418 18.675 35.8418Z" fill="#F2BF63"/>
<path d="M18.675 37.623H20.7519C21.0389 37.623 21.2715 37.8557 21.2715 38.1426V38.2991C21.2715 38.586 21.0389 38.8186 20.7519 38.8186H18.675C18.3881 38.8186 18.1555 38.586 18.1555 38.2991V38.1426C18.1555 37.8557 18.3881 37.623 18.675 37.623Z" fill="#F2BF63"/>
<path d="M18.675 39.4023H20.7519C21.0389 39.4023 21.2715 39.635 21.2715 39.9219V40.0784C21.2715 40.3653 21.0389 40.5979 20.7519 40.5979H18.675C18.3881 40.5979 18.1555 40.3653 18.1555 40.0784V39.9219C18.1555 39.635 18.3881 39.4023 18.675 39.4023Z" fill="#F2BF63"/>
<path d="M18.3388 41.3133C18.3758 41.2766 18.4207 41.2489 18.4701 41.2324C18.5195 41.2158 18.5721 41.2109 18.6237 41.218H18.675H20.7532H20.8045C20.8561 41.2109 20.9087 41.2158 20.9581 41.2324C21.0075 41.2489 21.0524 41.2766 21.0894 41.3133C21.4175 41.6608 21.6006 42.1203 21.6016 42.5981C21.6016 43.6384 20.7581 44.6959 19.719 44.6959C18.6799 44.6959 17.8352 43.6384 17.8352 42.5981C17.8338 42.1214 18.0139 41.6621 18.3388 41.3133Z" fill="#F2BF63"/>
<path d="M17.2931 11.8345C17.8176 10.9788 18.8982 9.41406 19.7148 9.41406C20.5314 9.41406 21.6108 10.9849 22.1365 11.8345C22.3398 12.1655 22.4476 12.5463 22.4482 12.9347V28.8266C22.4496 29.0851 22.3505 29.3341 22.172 29.521C21.8114 29.8952 21.3703 30.1824 20.8823 30.3608C20.8126 30.3843 20.7383 30.3908 20.6656 30.3799C20.5929 30.369 20.5239 30.3409 20.4641 30.2981C20.4044 30.2552 20.3558 30.1987 20.3222 30.1333C20.2886 30.0679 20.2711 29.9954 20.271 29.9219V14.0496C20.2733 13.9097 20.2237 13.7738 20.1319 13.6682C20.0401 13.5626 19.9124 13.4947 19.7735 13.4775C19.6964 13.4691 19.6185 13.477 19.5447 13.5007C19.4709 13.5245 19.4029 13.5636 19.3452 13.6154C19.2876 13.6671 19.2414 13.7305 19.2099 13.8014C19.1784 13.8722 19.1622 13.9489 19.1623 14.0264V29.9268C19.1622 30.0003 19.1447 30.0728 19.1111 30.1382C19.0776 30.2036 19.0289 30.2601 18.9692 30.303C18.9095 30.3458 18.8404 30.3739 18.7677 30.3848C18.695 30.3957 18.6207 30.3891 18.5511 30.3657C18.063 30.1873 17.6219 29.9001 17.2614 29.5259C17.0828 29.3389 16.9837 29.09 16.9851 28.8315V12.9396C16.9832 12.5498 17.0898 12.1671 17.2931 11.8345Z" fill="#F2BF63"/>
</g>
<g clip-path="url(#clip2_10_13818)">
<path d="M27.5615 20.6249L28.295 20.1359C28.3587 20.094 28.4326 20.0701 28.5089 20.0668C28.5851 20.0635 28.6608 20.0809 28.728 20.1171C28.7951 20.1533 28.8512 20.207 28.8904 20.2725C28.9295 20.338 28.9502 20.4129 28.9502 20.4892V22.6309L27.5615 20.6249Z" fill="#F2BF63"/>
<path d="M38.1514 20.6249L37.4179 20.1359C37.3541 20.094 37.2802 20.0701 37.204 20.0668C37.1278 20.0635 37.0521 20.0809 36.9849 20.1171C36.9177 20.1533 36.8616 20.207 36.8225 20.2725C36.7834 20.338 36.7627 20.4129 36.7627 20.4892V22.6309L38.1514 20.6249Z" fill="#F2BF63"/>
<path d="M26.5287 21.3093L27.5666 20.6247C27.6794 20.55 27.8162 20.5205 27.9499 20.542C28.0835 20.5635 28.2041 20.6345 28.2878 20.7409C28.8313 21.4327 29.525 21.9918 30.3165 22.376C31.1079 22.7602 31.9764 22.9593 32.8561 22.9584C33.7361 22.9594 34.6047 22.7603 35.3964 22.3761C36.188 21.992 36.882 21.4328 37.4256 20.7409C37.5093 20.6345 37.63 20.5635 37.7636 20.542C37.8972 20.5205 38.034 20.55 38.1469 20.6247L39.1848 21.3093C39.2471 21.3504 39.3003 21.404 39.341 21.4666C39.3817 21.5292 39.409 21.5995 39.4213 21.6732C39.4336 21.7469 39.4305 21.8223 39.4123 21.8947C39.3941 21.9671 39.3612 22.035 39.3156 22.0941C38.2015 23.5436 36.6744 24.6214 34.9355 25.1857C34.6751 24.9339 35.0174 24.3874 32.8573 24.3874C30.6973 24.3874 31.0347 24.9669 30.7792 25.2322C29.0335 24.7175 27.525 23.5623 26.4016 22.0941C26.3556 22.0353 26.3222 21.9676 26.3037 21.8953C26.2851 21.823 26.2816 21.7476 26.2936 21.6739C26.3055 21.6002 26.3326 21.5298 26.373 21.467C26.4135 21.4043 26.4665 21.3506 26.5287 21.3093Z" fill="#F2BF63"/>
<path d="M31.8176 25.1562H33.8945C34.1815 25.1562 34.4141 25.3889 34.4141 25.6758V25.8323C34.4141 26.1192 34.1815 26.3518 33.8945 26.3518H31.8176C31.5306 26.3518 31.298 26.1192 31.298 25.8323V25.6758C31.298 25.3889 31.5306 25.1562 31.8176 25.1562Z" fill="#F2BF63"/>
<path d="M31.8176 26.9355H33.8945C34.1815 26.9355 34.4141 27.1682 34.4141 27.4551V27.6116C34.4141 27.8985 34.1815 28.1311 33.8945 28.1311H31.8176C31.5306 28.1311 31.298 27.8985 31.298 27.6116V27.4551C31.298 27.1682 31.5306 26.9355 31.8176 26.9355Z" fill="#F2BF63"/>
<path d="M31.8176 28.7168H33.8945C34.1815 28.7168 34.4141 28.9494 34.4141 29.2363V29.3928C34.4141 29.6797 34.1815 29.9124 33.8945 29.9124H31.8176C31.5306 29.9124 31.298 29.6797 31.298 29.3928V29.2363C31.298 28.9494 31.5306 28.7168 31.8176 28.7168Z" fill="#F2BF63"/>
<path d="M31.8176 30.4961H33.8945C34.1815 30.4961 34.4141 30.7287 34.4141 31.0156V31.1721C34.4141 31.459 34.1815 31.6917 33.8945 31.6917H31.8176C31.5306 31.6917 31.298 31.459 31.298 31.1721V31.0156C31.298 30.7287 31.5306 30.4961 31.8176 30.4961Z" fill="#F2BF63"/>
<path d="M31.4814 32.4071C31.5184 32.3704 31.5633 32.3426 31.6127 32.3261C31.6621 32.3096 31.7146 32.3047 31.7662 32.3117H31.8176H33.8958H33.9471C33.9987 32.3047 34.0513 32.3096 34.1007 32.3261C34.1501 32.3426 34.195 32.3704 34.2319 32.4071C34.56 32.7545 34.7432 33.214 34.7441 33.6919C34.7441 34.7322 33.9006 35.7896 32.8616 35.7896C31.8225 35.7896 30.9778 34.7322 30.9778 33.6919C30.9764 33.2152 31.1564 32.7558 31.4814 32.4071Z" fill="#F2BF63"/>
<path d="M30.4357 2.92827C30.9602 2.07255 32.0408 0.507812 32.8574 0.507812C33.674 0.507812 34.7534 2.07867 35.2791 2.92827C35.4823 3.25929 35.5902 3.64003 35.5908 4.02848V19.9204C35.5922 20.1789 35.4931 20.4278 35.3145 20.6147C34.954 20.9889 34.5129 21.2761 34.0248 21.4545C33.9552 21.478 33.8809 21.4846 33.8082 21.4737C33.7355 21.4628 33.6664 21.4347 33.6067 21.3918C33.547 21.3489 33.4983 21.2925 33.4648 21.2271C33.4312 21.1617 33.4136 21.0892 33.4136 21.0157V5.14335C33.4159 5.00341 33.3663 4.86757 33.2745 4.76196C33.1826 4.65634 33.055 4.58842 32.9161 4.57125C32.839 4.56282 32.761 4.57074 32.6872 4.5945C32.6134 4.61825 32.5455 4.6573 32.4878 4.7091C32.4301 4.7609 32.384 4.82428 32.3525 4.8951C32.321 4.96593 32.3047 5.0426 32.3049 5.12013V21.0206C32.3048 21.0941 32.2873 21.1665 32.2537 21.2319C32.2201 21.2974 32.1715 21.3538 32.1118 21.3967C32.052 21.4396 31.983 21.4676 31.9103 21.4785C31.8376 21.4894 31.7633 21.4829 31.6936 21.4594C31.2056 21.281 30.7645 20.9938 30.4039 20.6196C30.2254 20.4327 30.1263 20.1838 30.1277 19.9252V4.03336C30.1257 3.64354 30.2324 3.26088 30.4357 2.92827Z" fill="#F2BF63"/>
</g>
<defs>
<clipPath id="clip0_10_13818">
<rect width="13.1426" height="35.2824" fill="white" transform="matrix(-1 0 0 1 13.1426 0.507812)"/>
</clipPath>
<clipPath id="clip1_10_13818">
<rect width="13.1426" height="35.2824" fill="white" transform="matrix(-1 0 0 1 26.2852 9.41406)"/>
</clipPath>
<clipPath id="clip2_10_13818">
<rect width="13.1426" height="35.2824" fill="white" transform="matrix(-1 0 0 1 39.4277 0.507812)"/>
</clipPath>
</defs>
</svg>
