<svg width="1176" height="54" viewBox="0 0 1176 54" fill="none" xmlns="http://www.w3.org/2000/svg">
<line y1="26.5" x2="1176" y2="26.5" stroke="#353535"/>
<g clip-path="url(#clip0_56_111)">
<path d="M592.63 26.8704L614.69 0.410416C614.733 0.364187 614.757 0.303467 614.757 0.240417C614.757 0.177368 614.733 0.116648 614.69 0.0704193C614.646 0.0282207 614.587 0.00469971 614.525 0.00469971C614.464 0.00469971 614.405 0.0282207 614.36 0.0704193L587.89 22.0704L561.42 0.0704193C561.375 0.0253325 561.314 -8.07611e-09 561.25 0C561.186 8.07617e-09 561.125 0.0253325 561.08 0.0704193C561.035 0.115506 561.01 0.176655 561.01 0.240417C561.01 0.30418 561.035 0.365329 561.08 0.410416L583.13 26.8704L561.08 53.3404C561.035 53.3855 561.01 53.4466 561.01 53.5104C561.01 53.5742 561.035 53.6353 561.08 53.6804C561.125 53.7255 561.186 53.7508 561.25 53.7508C561.314 53.7508 561.375 53.7255 561.42 53.6804L587.89 31.6204L614.36 53.6804C614.405 53.7226 614.464 53.7461 614.525 53.7461C614.587 53.7461 614.646 53.7226 614.69 53.6804C614.733 53.6342 614.757 53.5735 614.757 53.5104C614.757 53.4474 614.733 53.3866 614.69 53.3404L592.63 26.8704Z" fill="#353535"/>
</g>
<defs>
<clipPath id="clip0_56_111">
<rect width="53.74" height="53.74" fill="white" transform="translate(561)"/>
</clipPath>
</defs>
</svg>
