<svg width="79" height="97" viewBox="0 0 79 97" fill="none" xmlns="http://www.w3.org/2000/svg">
<path d="M21.5069 49.7487C21.5069 41.953 21.5069 31.3226 21.5069 23.5377C21.5069 22.8963 21.4821 22.2514 21.4573 21.61C21.4481 21.531 21.4229 21.4548 21.3833 21.3859C21.3436 21.317 21.2903 21.2569 21.2266 21.2093C21.1629 21.1617 21.0902 21.1276 21.0129 21.1091C20.9356 21.0906 20.8553 21.088 20.777 21.1015C18.3664 21.6181 16.1723 22.8616 14.4909 24.6645C14.0958 25.0844 13.6954 25.5061 13.2648 25.8905C11.9077 27.1006 8.92054 26.9854 7.70514 24.8682C7.40639 24.3681 7.24133 23.7994 7.22581 23.217C7.2103 22.6347 7.34485 22.0581 7.61655 21.5427C7.81882 21.14 8.08712 20.7741 8.41029 20.4602C10.019 18.8833 11.897 17.8256 14.1773 17.6024C15.3307 17.4907 16.4805 17.2657 17.641 17.3526C19.5031 17.489 21.3723 17.5793 23.2202 17.822C24.753 18.0163 26.2958 18.1216 27.8409 18.1374C29.5795 18.1658 31.3176 18.1463 33.0551 18.079C37.1112 17.9197 41.136 17.2985 45.0515 16.2275C46.4168 15.8498 47.7556 15.3823 49.0591 14.8278C50.4889 14.2237 51.8248 13.4565 52.9445 12.3474C53.266 12.0312 53.6159 11.7453 53.9899 11.4934C55.4072 10.5438 56.9486 10.2142 58.5875 10.705C60.2263 11.1958 61.4063 12.2358 61.8404 13.9579C62.1806 15.3133 61.805 16.5056 60.8943 17.535C60.2423 18.2703 59.4096 18.7611 58.5255 19.1668C57.2265 19.7399 55.8556 20.1339 54.4505 20.3379C51.6388 20.7915 48.8093 20.8198 45.9746 20.7684C43.6571 20.7259 41.3415 20.6444 39.0258 20.5913C38.8988 20.5945 38.7772 20.6431 38.6829 20.7282C38.5887 20.8134 38.5281 20.9295 38.512 21.0555C38.4961 21.2486 38.4713 21.4399 38.4713 21.633C38.4713 24.2729 38.4713 29.7476 38.4713 32.3875C38.4713 32.6444 38.5138 32.8995 38.5386 33.1546C38.5628 33.2446 38.6195 33.3224 38.6976 33.3731C38.7758 33.4238 38.87 33.4438 38.962 33.4292C39.2012 33.3353 39.4422 33.2521 39.6707 33.1422C41.5612 32.3052 43.5744 31.7788 45.6326 31.5831C48.2642 31.3135 50.9232 31.5541 53.4636 32.2918C56.0768 33.0345 58.4773 34.3847 60.4691 36.2321C62.6066 38.2025 64.3502 40.5612 65.6071 43.1826C66.96 45.9663 67.9057 48.93 68.4153 51.9828C68.7076 53.6996 68.8636 55.4288 69.0071 57.158C69.1683 59.0928 69.0195 61.0169 68.7732 62.9374C68.6899 63.5823 68.5818 63.6851 67.9564 63.7985C64.9711 64.33 62.8184 66.0557 61.2362 68.5644C59.6633 71.0296 58.9328 73.9386 59.1544 76.8544C59.2767 79.1224 60.0588 81.3054 61.4046 83.1352C62.8733 85.1124 64.8594 86.1754 67.2867 86.4306C68.3958 86.5475 69.4641 86.28 70.5148 85.954C71.1278 85.7644 71.7337 85.5429 72.3379 85.3232C73.1334 85.0455 73.9815 84.9522 74.8183 85.0504C77.1446 85.2807 78.4929 86.8328 78.8845 88.5939C79.4 90.9166 78.1563 93.2358 75.814 94.1819C75.3385 94.3818 74.8397 94.5211 74.3293 94.5965C72.1483 94.8764 69.9744 94.9243 67.8076 94.3839C65.8627 93.8978 64.0482 92.9906 62.4924 91.7263C60.4148 90.0765 58.7533 87.9623 57.6414 85.5536C56.8824 83.9156 56.3295 82.1897 55.9955 80.4156C55.2389 76.4177 55.2992 72.3081 56.1726 68.3341C56.4787 66.9511 56.8608 65.5859 57.3172 64.245C57.9461 62.3507 58.4551 60.4186 58.8409 58.4602C59.4488 55.4893 59.6438 52.4487 59.4202 49.4244C59.2076 46.7845 58.7363 44.1943 57.6308 41.7528C56.8579 39.9765 55.7284 38.3778 54.3123 37.056C52.4236 35.3285 50.2072 34.4161 47.6559 34.3984C44.7662 34.3736 42.036 35.0132 39.5503 36.5422C39.3855 36.6432 39.2243 36.7495 39.0648 36.8593C38.8986 36.9591 38.7601 37.0989 38.662 37.2661C38.5639 37.4332 38.5093 37.6223 38.5032 37.8161C38.4925 38.331 38.4872 38.846 38.4872 39.361C38.4872 42.2596 38.4872 45.1575 38.4872 48.0549V73.3641C38.4872 73.8796 38.5102 74.3952 38.4872 74.909C38.45 75.6177 38.6537 76.1492 39.2969 76.5177C39.9143 76.8741 40.456 77.3477 40.8914 77.9121C41.1805 78.2608 41.379 78.6755 41.4693 79.1193C41.5595 79.5632 41.5388 80.0224 41.4088 80.4563C41.3234 80.8023 41.1653 81.1261 40.945 81.4062C40.7248 81.6863 40.4474 81.9163 40.1314 82.081C38.8911 82.7188 37.6509 82.717 36.4763 81.9162C36.1124 81.6503 35.7635 81.3646 35.431 81.0605C33.5618 79.4429 31.356 78.635 28.9252 78.4029C28.0269 78.3196 27.1286 78.2505 26.2304 78.1761C26.103 78.1587 25.9744 78.151 25.8459 78.153C23.6613 78.2824 21.4768 78.3905 19.3773 79.124C17.666 79.7026 16.0744 80.5881 14.6805 81.7373C14.3424 82.0377 13.9874 82.3187 13.6174 82.5788C12.0229 83.6419 9.6505 82.6657 9.31387 80.5963C9.21873 80.0869 9.24762 79.562 9.39811 79.0662C9.5486 78.5703 9.81627 78.1179 10.1785 77.7473C11.05 76.7842 12.1979 76.1141 13.465 75.8285C14.4663 75.5778 15.4944 75.4499 16.5266 75.4476C17.8129 75.4819 19.0997 75.5191 20.3872 75.5592C20.5148 75.5592 20.6423 75.5823 20.7699 75.5894C20.8663 75.5916 20.9621 75.5741 21.0515 75.538C21.1409 75.502 21.2219 75.448 21.2898 75.3795C21.3576 75.311 21.4107 75.2294 21.446 75.1397C21.4812 75.05 21.4977 74.954 21.4945 74.8576C21.5122 74.28 21.5193 73.6989 21.5193 73.1196C21.5122 65.331 21.5081 57.5407 21.5069 49.7487ZM36.5844 57.2803V41.8343C36.5844 41.3205 36.5844 40.805 36.5844 40.2894C36.5844 40.0998 36.5365 39.9102 36.5153 39.7207C36.4976 39.5648 36.4125 39.4726 36.2584 39.4815C36.1379 39.4815 35.9731 39.4815 35.904 39.5577C35.4289 40.0797 34.9812 40.6262 34.5628 41.1947C33.2323 43.1153 32.3092 45.2325 31.6093 47.456C31.3569 48.2525 31.229 49.0832 31.2302 49.9187C31.2408 57.8325 31.2408 65.7462 31.2302 73.6599C31.2302 74.0444 31.2674 74.4289 31.294 74.8116C31.3198 74.936 31.3858 75.0485 31.4818 75.1318C31.5779 75.215 31.6986 75.2644 31.8255 75.2722C33.1755 75.2651 34.5256 75.2545 35.8757 75.2403C36.0361 75.2327 36.1887 75.1692 36.3072 75.0608C36.4256 74.9523 36.5024 74.8059 36.5241 74.6468C36.5507 74.0692 36.572 73.4916 36.572 72.9123C36.5885 67.7046 36.5926 62.4915 36.5844 57.2732V57.2803ZM31.3028 31.8843H31.2816C31.2816 34.3239 31.2816 36.7654 31.2816 39.2051C31.294 39.5233 31.326 39.8404 31.3773 40.1547C31.3773 40.1884 31.457 40.2345 31.5013 40.2398C31.5636 40.2484 31.6268 40.2332 31.6784 40.1972C31.8191 40.0695 31.9461 39.9276 32.0576 39.7738C33.1348 38.1651 34.3502 36.6786 35.8473 35.4366C35.9465 35.3551 36.0404 35.2594 36.1326 35.1779C36.3709 34.9582 36.5187 34.6575 36.5472 34.3346C36.5702 34.0795 36.5755 33.8208 36.5755 33.5639C36.5755 30.6104 36.5755 24.8222 36.5755 21.8705C36.5755 21.6136 36.5595 21.3567 36.5418 21.1015C36.5224 20.9416 36.4507 20.7927 36.3379 20.6777C36.2252 20.5627 36.0777 20.4881 35.9182 20.4655C34.701 20.4088 33.4821 20.3538 32.2631 20.3237C31.4676 20.3025 31.2497 20.5363 31.232 21.3478C31.232 21.6685 31.232 21.9892 31.232 22.3099C31.2585 24.5546 31.2816 29.6342 31.3028 31.8843Z" fill="#F2BF63"/>
<path d="M54.2135 53.4519C53.9424 53.8824 53.6536 54.3023 53.4038 54.7452C53.2142 55.0783 53.1008 55.4539 52.9042 55.7835C52.7235 56.0457 52.524 56.2945 52.3071 56.5276C52.3284 56.5691 52.3577 56.6059 52.3934 56.6361C52.429 56.6662 52.4702 56.689 52.5146 56.7031C52.5591 56.7173 52.6059 56.7225 52.6524 56.7185C52.6988 56.7146 52.7441 56.7015 52.7855 56.68C53.3811 56.4239 53.8883 55.9981 54.2436 55.4557C54.7025 54.7594 55.1117 54.0383 55.7531 53.4661C55.814 53.3931 55.8584 53.3078 55.8832 53.216C55.908 53.1243 55.9126 53.0282 55.8966 52.9345C55.802 52.3638 55.6519 51.8036 55.4484 51.262C55.2235 50.6897 54.8603 50.1821 54.3913 49.7845C53.9223 49.3869 53.362 49.1117 52.7606 48.9836C52.1337 48.8474 51.4863 48.8342 50.8543 48.9446C48.551 49.2865 46.0263 51.4888 45.3211 53.8098C44.7453 55.7002 44.5186 57.6048 44.7896 59.5271C45.0318 61.385 45.6646 63.1705 46.6464 64.7662C46.7261 64.8636 46.8185 64.95 46.921 65.0231C46.9635 64.9097 47.061 64.7839 47.0415 64.6829C46.8236 63.6039 46.8112 62.5125 46.7864 61.4176C46.7722 60.778 46.712 60.1384 46.6801 59.497C46.6801 59.4421 46.7297 59.3464 46.7722 59.3358C46.8856 59.3092 47.0468 59.2667 47.1159 59.3216C48.078 60.0746 49.0382 60.8188 49.7558 61.841C51.2104 63.9122 51.6196 66.1836 51.1856 68.6374C51.0964 69.0788 50.9726 69.5124 50.8153 69.9343C50.7497 70.1115 50.5602 70.1806 50.3281 70.1363C49.7965 67.833 48.9815 65.5918 48.512 63.2549C48.4295 62.7821 48.2391 62.3347 47.9557 61.9473C47.8242 62.6978 47.8386 63.4666 47.9982 64.2116C48.2339 65.4111 48.4624 66.6123 48.9567 67.7444C49.1129 68.0971 49.2374 68.4629 49.3288 68.8376C49.3688 69.0877 49.3777 69.3418 49.3554 69.5941C49.3536 69.6248 49.3438 69.6545 49.327 69.6803C49.3103 69.7061 49.287 69.7271 49.2597 69.7412C49.2265 69.7439 49.1932 69.7388 49.1624 69.7261C49.1316 69.7135 49.1042 69.6938 49.0825 69.6685C48.8575 69.3585 48.6325 69.0467 48.4234 68.726C47.6846 67.5956 46.9387 66.467 46.2212 65.3225C44.4494 62.5019 43.6664 59.435 44.0685 56.1095C44.2348 54.8297 44.6038 53.5845 45.1617 52.4207C45.5735 51.5418 46.1844 50.7708 46.9458 50.1689C48.4979 48.9287 50.2253 48.1349 52.261 48.2784C53.7883 48.3847 54.9771 49.1041 55.707 50.4346C56.4689 51.8254 56.7577 53.3314 56.3519 54.9083C55.9976 56.3168 55.1117 57.3143 53.7599 57.8104C52.7553 58.1789 51.7313 58.1753 50.8242 57.4826C50.6346 57.31 50.4663 57.1156 50.3227 56.9032C50.2734 56.822 50.2565 56.7251 50.2752 56.6319C50.2939 56.5388 50.3469 56.456 50.4237 56.4C50.9959 56.0937 51.4253 55.5753 51.6197 54.9561C51.7166 54.6498 51.8575 54.3592 52.0378 54.0933C52.5374 53.4111 53.2054 53.11 54.0558 53.342C54.1373 53.3598 54.171 53.4165 54.2135 53.4519Z" fill="#F2BF63"/>
<path d="M60.2496 31.6626C60.278 31.5279 60.2691 31.3454 60.3435 31.264C60.7599 30.8051 61.1957 30.3781 61.628 29.9281C63.3415 28.1566 64.7474 26.1117 65.788 23.8776C67.2391 20.8426 67.5049 17.5915 67.1842 14.2234C66.5322 10.8731 65.1715 8.02239 62.707 5.96541C62.1075 5.4362 61.4011 5.04222 60.6359 4.81024C58.4283 4.20785 56.2065 3.92436 53.9511 4.53206C52.4568 4.91213 51.1097 5.72881 50.0816 6.87786C49.2709 7.75141 48.5689 8.7199 47.991 9.76222C47.797 10.0645 47.6942 10.4164 47.6951 10.7757C47.6951 10.8022 47.7979 10.8554 47.8316 10.8394C48.1469 10.6959 48.3383 10.3894 48.5243 10.0935C49.1694 9.09847 49.9004 8.1618 50.7088 7.29421C51.2669 6.67765 51.8782 6.14258 52.6152 5.83076C52.6434 5.82536 52.6725 5.8269 52.7 5.83523C52.7274 5.84357 52.7525 5.85845 52.7729 5.8786C52.8172 5.91935 52.8774 5.99907 52.8703 6.05577C52.5355 8.11807 51.7028 9.7764 49.9895 10.7261C49.931 10.7579 49.869 10.7774 49.8123 10.8093C48.4198 11.5676 48.4198 11.5676 47.2929 12.7759C46.9475 12.6643 46.8128 12.3295 46.6657 12.007C46.4672 11.6115 46.3826 11.1686 46.4212 10.7278C46.7278 8.16767 47.7412 6.12131 49.8017 4.90944C50.0875 4.75123 50.3932 4.63205 50.7106 4.5551C51.4601 4.34958 52.2343 4.25922 52.9465 3.8907C54.7874 3.53635 56.6247 3.14303 58.5009 3.53635C59.2592 3.69226 60.0335 3.77908 60.7758 4.00409C62.6556 4.57105 64.112 5.90339 65.2867 7.61311C67.1689 10.3083 68.128 13.5405 68.0204 16.8261C67.9389 20.0843 67.154 23.052 65.5577 25.7592C64.3489 27.8727 62.7811 29.7594 60.9247 31.3348C60.8326 31.4288 60.7222 31.5026 60.6002 31.5517C60.4782 31.6008 60.3474 31.6241 60.216 31.6201L60.2496 31.6626Z" fill="#F2BF63"/>
<path d="M42.8475 67.9958C42.4222 68.3643 42.3283 68.382 42.0608 68.1375C41.8234 67.9214 41.5913 67.6981 41.3521 67.482C40.8223 67.0009 40.4515 66.37 40.2891 65.6731C39.956 64.2982 39.6495 62.9145 39.7576 61.4811C39.7729 61.4194 39.7961 61.3598 39.8267 61.304C39.8798 61.3234 39.9542 61.327 39.9808 61.3642C40.0972 61.5142 40.197 61.6764 40.2785 61.8479C41.3911 64.6206 43.1132 67.0302 44.8513 69.4256C45.4926 70.3114 46.1783 71.1636 46.8268 72.046C48.2283 73.9766 49.2725 76.1428 49.9096 78.4419C50.5873 80.7988 50.714 83.28 50.2799 85.6936C49.9255 87.7524 49.1796 89.6446 48.2849 91.5013C48.2512 91.574 48.3646 91.7157 48.4089 91.8256C48.4621 91.7972 48.5312 91.7795 48.5648 91.7352C48.8176 91.4466 49.0497 91.1405 49.2593 90.8192C49.4861 90.433 49.6403 90.0042 49.8405 89.602C50.2108 88.8526 50.5651 88.0943 50.9726 87.3643C51.4758 86.4643 52.064 85.6139 52.9091 84.9902C53.1231 84.8558 53.3513 84.7453 53.5895 84.6607C53.6409 84.6394 53.7489 84.6394 53.7666 84.6713C53.8287 84.7688 53.9279 84.9105 53.8978 84.9902C53.5286 85.8818 53.279 86.8184 53.1554 87.7754C53.0719 88.3478 52.9487 88.9138 52.7869 89.4692C52.3386 91.2143 51.3252 92.4474 49.5517 92.9701C49.522 92.9715 49.4924 92.9662 49.4651 92.9545C49.4378 92.9429 49.4135 92.9252 49.394 92.9028C49.3818 92.8805 49.3753 92.8555 49.3753 92.8301C49.3753 92.8047 49.3818 92.7798 49.394 92.7575C50.5066 91.8043 51.1108 90.534 51.6211 89.214C51.7593 88.8597 51.8709 88.4841 51.9931 88.1191C52.0853 87.8445 52.0463 87.5114 51.9382 87.5876C51.8405 87.6387 51.7552 87.7107 51.6884 87.7984C51.4102 88.3052 51.1569 88.8207 50.8769 89.331C50.5757 89.8997 50.3011 90.4844 49.961 91.0283C48.9741 92.6105 47.6294 93.7532 45.808 94.2723C45.7655 94.2847 45.6911 94.228 45.6503 94.1855C45.6096 94.143 45.5848 94.0704 45.6025 94.0438C45.7742 93.7758 45.9611 93.5179 46.1624 93.2713C48.4957 90.5889 49.5783 87.4246 49.8033 83.9183C50.046 80.1977 48.9706 76.7995 47.0695 73.6423C46.5948 72.8768 46.079 72.1375 45.5245 71.4276C44.7113 70.3522 43.7953 69.3529 43.1274 68.1694C43.0813 68.0897 42.9095 68.0791 42.7978 68.0348C42.8776 67.4217 42.5799 67.0621 42.0218 66.876C42.0353 66.75 42.0287 66.6226 42.0023 66.4987C41.8206 66.0166 41.5488 65.5735 41.2015 65.1929C41.1785 65.1699 41.097 65.1592 41.0864 65.1752C41.0545 65.223 41.0119 65.2939 41.0261 65.34C41.1648 65.8369 41.4063 66.2993 41.7348 66.6971C41.8075 66.7786 41.9527 66.7963 42.0644 66.8442C42.0345 67.0982 42.0972 67.3545 42.2411 67.5661C42.3849 67.7776 42.6002 67.9302 42.8475 67.9958Z" fill="#F2BF63"/>
<path d="M17.9406 52.114C16.6082 50.934 15.0863 49.6513 13.6317 48.2835C11.8299 46.5879 10.2885 44.6249 8.88527 42.5413C7.82223 40.9698 6.81058 39.3628 5.78297 37.7665C3.59666 34.3719 2.5035 30.5786 2.21825 26.4788C2.09969 24.7461 2.12933 23.0064 2.30684 21.2788C2.5547 18.8732 3.38078 16.5633 4.71462 14.5462C5.10476 13.9312 5.62148 13.4065 6.23035 13.0069C6.83922 12.6073 7.52625 12.342 8.24568 12.2288C8.66299 12.1599 9.08985 12.1747 9.50139 12.2723C9.91294 12.3699 10.3009 12.5485 10.6428 12.7975C10.7993 12.9217 10.9213 13.084 10.9972 13.2688C11.0326 13.3485 10.9617 13.5841 10.898 13.6054C10.2885 13.8127 9.67016 13.9916 9.0536 14.1723C8.17554 14.4548 7.37458 14.9363 6.71313 15.5791C4.9414 17.202 3.77029 19.2377 3.15904 21.6455C3.03557 22.1855 2.96437 22.7361 2.94643 23.2897C2.76069 26.6875 3.25707 30.0881 4.40634 33.2911C4.81307 34.4541 5.34787 35.5683 6.00089 36.6131C7.24111 38.562 8.4512 40.5269 9.73216 42.4403C11.2625 44.7316 13.0454 46.8438 15.0474 48.737C16.2557 49.878 17.5384 50.934 18.6316 52.2167C18.6399 52.2397 18.6429 52.2643 18.6401 52.2886C18.6373 52.3129 18.629 52.3362 18.6156 52.3567C18.5943 52.3767 18.5687 52.3917 18.5408 52.4006C18.5129 52.4095 18.4834 52.4121 18.4544 52.4081C18.2779 52.3195 18.1064 52.2213 17.9406 52.114Z" fill="#F2BF63"/>
<path d="M43.2268 71.0928C43.3437 71.1335 43.4925 71.1424 43.5705 71.2221C44.5739 72.2229 45.4776 73.3188 46.2688 74.4945C47.7125 76.6426 48.5437 79.1435 48.6731 81.7285C48.7581 83.4719 48.6731 85.2046 48.2266 86.9019C48.08 87.5277 47.8876 88.1418 47.6508 88.7392C46.518 91.4299 44.5722 93.6991 42.0858 95.2291C39.7046 96.7102 37.1249 97.0008 34.4815 96.184C32.2899 95.5125 30.3923 94.3255 28.9537 92.4882C28.1393 91.4834 27.5909 90.2898 27.3591 89.0174C27.3543 88.953 27.3448 88.889 27.3308 88.826C26.8684 87.4671 27.1678 86.1684 27.6072 84.8627C28.1387 83.3018 29.2141 82.2582 30.7077 81.6239C30.8254 81.5663 30.9567 81.5424 31.0871 81.5549C31.2176 81.5674 31.342 81.6159 31.4465 81.6948C31.1896 82.0881 30.7378 82.1856 30.3675 82.4141C29.5456 82.932 28.8909 83.6765 28.4824 84.5579C27.5735 86.42 27.6444 88.2786 28.4009 90.1619C28.9714 91.5793 29.9459 92.6937 31.1312 93.5973C32.3498 94.5538 33.7602 95.2367 35.2664 95.5994C37.435 96.0972 39.5061 95.874 41.4054 94.7135C44.6264 92.7522 46.7879 89.9954 47.5905 86.2411C48.0211 84.3541 48.0998 82.4038 47.8226 80.4883C47.5019 78.4437 46.8375 76.4877 45.6505 74.7585C44.9577 73.7521 44.2118 72.7812 43.4872 71.7979C43.3099 71.6099 43.2132 71.36 43.2179 71.1016L43.2268 71.0928Z" fill="#F2BF63"/>
<path d="M10.9318 71.6246C8.78622 71.6246 7.34226 71.0028 6.12153 69.8529C5.41672 69.1886 4.85223 68.3898 4.46142 67.5036C3.92915 66.3246 3.76371 65.0129 3.9866 63.7387C4.50217 60.5761 6.09497 58.1258 8.70296 56.2974C9.70131 55.5859 10.8408 55.0971 12.0444 54.8641C12.5494 54.7684 13.0455 54.616 13.5539 54.5576C15.6676 54.3095 17.6396 54.7737 19.4892 55.7978C19.5424 55.8279 19.5708 55.897 19.615 55.9448C19.7284 56.0671 19.7355 56.1769 19.615 56.2584C19.5904 56.2782 19.5619 56.2925 19.5314 56.3004C19.5009 56.3084 19.469 56.3098 19.4379 56.3045C18.6583 56.0157 17.8858 55.7092 17.1027 55.4275C16.8039 55.3099 16.4913 55.2307 16.1726 55.1918C13.0171 54.896 10.1859 55.5958 7.81532 57.8353C6.11268 59.444 5.11519 61.3787 4.66163 63.6678C4.01849 66.9012 6.43335 70.5563 10.1894 70.9159C11.2242 71.007 12.2617 70.7729 13.1571 70.2462C14.3087 69.5907 15.1928 68.68 15.6145 67.3867C15.6734 67.2034 15.7225 67.0171 15.7615 66.8286C15.861 66.4197 15.8477 65.9914 15.7228 65.5895C15.598 65.1876 15.3665 64.8272 15.0528 64.5466C14.2963 63.8184 13.4441 63.2638 12.3633 63.1682C12.312 63.1682 12.2074 63.2319 12.2092 63.255C12.2234 63.3684 12.2322 63.5296 12.3049 63.5792C12.7319 63.8609 13.1907 64.0912 13.6071 64.3871C14.1359 64.7609 14.5559 65.2683 14.8243 65.8576C14.9595 66.1516 15.0027 66.4795 14.9483 66.7984C14.9164 66.9756 14.7198 67.1634 14.5497 67.1191C13.841 66.9331 13.2315 66.6142 12.8098 65.9994C12.521 65.5759 12.2535 65.1383 11.97 64.7096C11.6865 64.2808 11.1143 64.1568 10.7298 63.8237C10.6719 63.7496 10.6405 63.6582 10.6405 63.5641C10.6405 63.4701 10.6719 63.3787 10.7298 63.3046C10.884 63.0978 11.0805 62.9263 11.3063 62.8017C11.5321 62.677 11.782 62.602 12.0391 62.5817C12.2944 62.5545 12.5521 62.5593 12.8063 62.5959C13.6689 62.7353 14.4716 63.1249 15.1148 63.7164C15.7579 64.3079 16.2132 65.0752 16.4242 65.9232C16.486 66.2385 16.486 66.5628 16.4242 66.8782C16.1354 68.4834 15.2619 69.7129 13.9225 70.6218C12.8984 71.3376 11.7362 71.653 10.9318 71.6246Z" fill="#F2BF63"/>
<path d="M69.3419 14.9642C69.0726 14.4894 69.1648 14.0288 69.0939 13.6018C69.023 13.1748 68.9167 12.7425 68.8334 12.3137C68.4033 10.1308 67.4282 8.09216 65.9987 6.38728C64.4102 4.45927 62.3642 2.95967 60.0474 2.02528C58.2536 1.26895 56.3361 0.848567 54.3903 0.785067C50.0301 0.671676 45.9958 1.8977 42.4967 5.02658C41.5176 5.91216 40.6715 6.93435 39.9843 8.06156C38.8722 9.85916 38.2527 11.9177 38.1878 14.0305C38.1488 14.9855 38.1772 15.944 38.1595 16.9007C38.1418 17.0292 38.0918 17.1511 38.0142 17.2551C37.9628 17.3401 37.6598 17.0194 37.6191 16.8299C37.5543 16.5446 37.5052 16.2559 37.472 15.9652C37.1531 11.4385 38.6307 7.76213 41.5594 4.80334C43.4838 2.85375 45.884 1.44052 48.5223 0.703552C50.8814 0.0304796 53.3515 -0.162303 55.7864 0.136607C58.4557 0.448406 61.0122 1.39228 63.2436 2.88988C64.5526 3.76027 65.7116 4.83731 66.6755 6.079C68.0967 7.89778 69.0243 10.0526 69.3685 12.335C69.528 13.205 69.519 14.0976 69.3419 14.9642Z" fill="#F2BF63"/>
<path d="M39.1553 87.9506C39.0865 87.9864 39.0148 88.016 38.9409 88.0392C37.6334 88.2997 36.6855 87.917 36.1646 86.6024C35.9307 86.0106 35.5356 85.4844 35.2362 84.9174C35.2025 84.8501 35.284 84.6765 35.3602 84.6109C35.4639 84.5358 35.5868 84.4916 35.7146 84.4834C36.7478 84.3568 37.7891 84.644 38.6114 85.2824C39.6463 86.0685 40.404 87.1638 40.7746 88.4095C41.137 89.5247 41.0739 90.7345 40.5975 91.8059C40.5053 92.0115 40.6063 92.3268 40.7215 92.3038C40.8367 92.2807 40.9713 92.2542 41.0918 92.2187C41.1527 92.197 41.2096 92.1652 41.2601 92.1248C41.5684 91.8927 41.8873 91.673 42.1796 91.4161C42.687 91.0095 43.0579 90.4574 43.2427 89.834C43.6112 88.5347 43.9655 87.2355 44.3057 85.9362C44.3323 85.837 44.2348 85.7023 44.1888 85.5659C43.6395 86.2391 43.4801 87.063 43.2108 87.8443C43.046 88.328 42.8954 88.8152 42.7306 89.3007C42.7162 89.3219 42.6965 89.339 42.6736 89.3505C42.6507 89.362 42.6252 89.3674 42.5995 89.3663C42.5361 89.3516 42.48 89.3145 42.4418 89.2617C42.3224 89.1121 42.2295 88.9431 42.1672 88.7621C41.8129 87.001 42.2186 85.4436 43.4783 84.1379C43.8326 83.7676 44.1994 83.4026 44.5732 83.0483C44.6663 82.9625 44.7886 82.9156 44.9152 82.9171C44.9931 82.9171 45.103 83.066 45.1172 83.1599C45.2128 83.7959 45.3067 84.4338 45.3616 85.0734C45.5167 86.6216 45.1873 88.1797 44.4191 89.5328C43.1789 91.6961 41.4072 93.1843 38.9108 93.7176C38.785 93.7321 38.6575 93.7194 38.5369 93.6804C38.5072 93.6702 38.4798 93.6541 38.4564 93.6331C38.4329 93.6121 38.414 93.5866 38.4005 93.5582C38.374 93.505 38.3527 93.3987 38.381 93.381C38.6149 93.1719 38.8612 92.9753 39.1075 92.7786C39.7021 92.2791 40.1339 91.6135 40.3477 90.8669C40.499 90.4391 40.5351 89.979 40.4522 89.5328C40.0978 87.8302 39.3112 86.3933 37.745 85.5003C37.5136 85.3891 37.2706 85.3041 37.0203 85.247C36.9925 85.2449 36.9646 85.2484 36.9381 85.2572C36.9117 85.2661 36.8872 85.28 36.8662 85.2984C36.8662 85.41 36.8503 85.5659 36.914 85.6279C37.5643 86.2498 38.2358 86.8504 38.886 87.474C38.9994 87.6183 39.0902 87.779 39.1553 87.9506Z" fill="#F2BF63"/>
<path d="M51.7739 40.6189C51.657 41.0193 51.315 41.2266 51.028 41.4746C49.7696 42.5778 48.6214 43.8008 47.5997 45.1262C46.1474 46.9345 44.9696 48.9469 44.1041 51.0987C42.7558 54.5518 42.4741 58.0828 43.4786 61.6883C43.6203 62.2489 43.8335 62.789 44.1129 63.2953C44.8925 64.6276 45.6295 65.9883 46.4835 67.271C48.133 69.7515 49.4582 72.3772 50.6417 75.0932C51.305 76.6299 51.7465 78.2532 51.9528 79.9141C52.0432 80.6051 52.1034 81.3173 51.8749 82.0048C51.8749 82.0048 51.7207 82.0048 51.6977 81.9605C51.5903 81.8093 51.5178 81.6363 51.4851 81.4537C51.4355 78.8227 50.5992 76.4096 49.5096 74.055C48.53 71.8856 47.3851 69.7947 46.0849 67.8008C45.2681 66.5606 44.531 65.2849 43.7656 64.0199C42.982 62.6825 42.5227 61.1801 42.4245 59.6331C42.2215 57.1933 42.3863 54.7368 42.9135 52.346C42.9867 52.0329 43.0845 51.726 43.2058 51.4282C43.7287 50.0431 44.3918 48.7151 45.1848 47.4649C46.3798 45.6321 47.7263 43.9027 49.2102 42.2949C49.8205 41.6314 50.5242 41.0602 51.2991 40.5994C51.4174 40.5513 51.5421 40.5209 51.6693 40.509L51.7739 40.6189Z" fill="#F2BF63"/>
<path d="M32.3856 91.9847C32.3165 91.5471 31.9019 91.4195 31.6397 91.1591C31.3385 90.8596 31.1772 90.5602 31.4058 90.1456C31.4596 90.0685 31.4817 89.9736 31.4675 89.8806C31.4533 89.7876 31.404 89.7036 31.3296 89.646C30.4437 88.8718 30.3711 87.8743 30.6209 86.8272C30.6418 86.6683 30.6945 86.5151 30.7757 86.3769C30.857 86.2388 30.9652 86.1183 31.094 86.0228C31.2623 86.3205 31.1631 86.6429 31.1932 86.9512C31.2124 87.2066 31.2515 87.4602 31.3101 87.7095C31.4 88.0195 31.5797 88.2959 31.8267 88.5037C32.0736 88.7115 32.3766 88.8415 32.6974 88.8771C33.2696 88.9267 33.8437 88.9462 34.4159 88.9869C34.4491 88.9866 34.4818 88.9948 34.511 89.0106C34.5401 89.0265 34.5647 89.0495 34.5825 89.0776C34.6002 89.1056 34.6105 89.1377 34.6124 89.1708C34.6142 89.2039 34.6076 89.237 34.5931 89.2668C34.5242 89.507 34.4432 89.7436 34.3504 89.9755C34.2352 90.2626 33.9234 90.4645 33.973 90.826C33.9104 90.8134 33.846 90.8134 33.7835 90.826C33.6984 90.8774 33.6183 90.9368 33.5443 91.0031C33.601 91.0226 33.686 91.074 33.7073 91.0545C33.79 90.9697 33.8658 90.8785 33.934 90.7817C34.1875 90.7817 34.4404 90.7562 34.6888 90.7055C35.1128 90.5518 35.5697 90.5115 36.0141 90.5886C36.7729 90.7471 37.5622 90.666 38.273 90.3565C38.4502 90.2856 38.6433 90.4876 38.6096 90.6842C38.597 90.8745 38.5589 91.0622 38.4963 91.2423C37.8673 92.5711 36.7777 93.294 35.3497 93.4765C33.4256 93.7228 31.7938 92.9999 30.4863 91.664C29.246 90.4043 28.8368 88.7903 29.0529 87.0433C29.1652 86.0178 29.552 85.0415 30.1727 84.2174C30.6717 83.541 31.3858 83.0544 32.1978 82.8372C32.3197 82.8282 32.442 82.8514 32.5521 82.9046C32.5929 82.9187 32.6265 82.9949 32.6371 83.0463C32.6478 83.0977 32.6531 83.2093 32.6212 83.2235C32.3501 83.4006 32.0755 83.5566 31.7938 83.7036C31.3379 83.9446 30.947 84.2923 30.6546 84.717C28.9519 87.1301 29.6996 90.4557 31.6857 91.7721C31.7877 91.8486 31.9045 91.9028 32.0287 91.9311C32.153 91.9595 32.2818 91.9615 32.4068 91.9369C32.4546 92.0467 32.4741 92.2097 32.5574 92.2575C33.9978 93.0601 35.3762 92.8865 36.6962 91.9617C36.7424 91.917 36.7807 91.8649 36.8096 91.8075C36.7263 91.7508 36.6324 91.6303 36.5615 91.6463C35.2505 92.0148 33.9146 92.0432 32.5698 91.9528C32.5075 91.9576 32.4458 91.9683 32.3856 91.9847Z" fill="#F2BF63"/>
<path d="M16.9466 53.5244C16.6295 53.558 16.4328 53.6342 16.2698 53.5881C14.5867 53.1293 12.9301 53.4659 11.2983 53.8096C10.168 54.047 9.13329 54.6175 8.1553 55.2518C7.83284 55.4626 7.51039 55.6753 7.18616 55.8826C7.05151 55.9694 6.80701 55.8294 6.74146 55.6398C6.44712 54.7811 6.4565 53.8473 6.76804 52.9946C6.85258 52.7517 6.96244 52.5183 7.0958 52.2983C7.73363 51.2353 8.26159 50.6666 9.78883 51.2353C9.96878 51.3017 10.1587 51.337 10.3505 51.3398C10.4426 51.3398 10.5454 51.2424 10.6233 51.1627C10.6464 51.1414 10.6145 51.0262 10.5755 50.9855C10.354 50.7569 10.1077 50.5479 9.90222 50.3069C9.87816 50.2547 9.86782 50.1972 9.87216 50.1398C9.8765 50.0825 9.89538 50.0272 9.92703 49.9791C10.1878 49.7962 10.4769 49.6573 10.7828 49.5681C11.1622 49.4965 11.5493 49.4744 11.9344 49.5025C12.1905 49.5119 12.4415 49.5772 12.6697 49.6939C13.575 50.19 14.4414 50.7428 15.1501 51.5206C15.1696 51.5453 15.1839 51.5738 15.1921 51.6042C15.2003 51.6347 15.2023 51.6665 15.1979 51.6977C15.1678 51.8359 15.0668 51.8572 14.9145 51.8271C14.4705 51.7445 14.0416 51.5952 13.6423 51.3841C13.1923 51.1379 12.7317 50.9075 12.271 50.6754C12.0336 50.5585 11.8281 50.7357 11.8423 51.0298C11.8706 51.5719 11.8139 51.6658 11.4401 51.7491C11.2505 51.7898 11.0592 51.8164 10.8714 51.8625C10.4338 51.9652 9.9855 52.0397 9.56029 52.1903C9.00751 52.3798 8.49724 52.658 8.19959 53.2019C8.1553 53.2852 8.1996 53.4269 8.22972 53.5332C8.24753 53.5565 8.27117 53.5746 8.29823 53.5858C8.32529 53.597 8.35482 53.6009 8.38386 53.597C8.91537 53.3933 9.4593 53.1753 9.99967 52.9698C10.2926 52.8365 10.5991 52.7355 10.9139 52.6686C12.7778 52.3993 14.6345 52.3143 16.4222 53.0779C16.5763 53.1682 16.7128 53.333 16.9466 53.5244Z" fill="#F2BF63"/>
<path d="M73.0077 34.2584C72.9935 34.2088 72.9935 34.1344 72.9634 34.1185C70.9791 33.0856 68.8884 32.6036 66.6454 32.9119C65.4318 33.0535 64.245 33.3692 63.1214 33.8492C62.5385 34.1132 61.9344 34.3293 61.3355 34.5579C61.2983 34.572 61.1956 34.5224 61.1903 34.4905C61.1708 34.3789 61.1336 34.1982 61.1903 34.1592C61.821 33.7021 62.5474 33.4505 63.2827 33.2078C63.9559 32.9934 64.6256 32.7702 65.3042 32.5735C65.6767 32.489 66.0348 32.3505 66.3673 32.1625C67.4799 31.4538 68.7095 31.4874 69.9107 31.7727C71.7467 32.185 73.3895 33.2058 74.5721 34.6695C74.7514 34.9328 74.9012 35.215 75.0186 35.5111C75.0306 35.5391 75.0368 35.5692 75.0368 35.5997C75.0368 35.6301 75.0306 35.6602 75.0186 35.6882C75.0055 35.7188 74.9865 35.7466 74.9626 35.7698C74.9387 35.7929 74.9104 35.8112 74.8795 35.8234C74.8485 35.8356 74.8154 35.8415 74.7821 35.8408C74.7488 35.8401 74.716 35.8328 74.6855 35.8193C73.8369 35.4242 72.9475 35.4189 72.0439 35.5217C71.725 35.5571 71.4043 35.5872 71.0889 35.6439C69.3172 35.9593 67.8024 35.4437 66.4966 34.2407C66.4704 34.22 66.4488 34.1942 66.4331 34.1647C66.4174 34.1353 66.4079 34.103 66.4052 34.0697C66.4026 34.0365 66.4068 34.003 66.4177 33.9715C66.4285 33.9399 66.4457 33.911 66.4682 33.8864C66.5347 33.7858 66.6344 33.7118 66.7499 33.6773C67.8396 33.5551 68.9185 33.5303 69.9869 33.8952C70.6013 34.0822 71.23 34.2185 71.8667 34.3027C72.2494 34.3771 72.6392 34.4462 73.0077 34.2584Z" fill="#F2BF63"/>
<path d="M10.8959 34.8892C11.0944 34.9901 11.3017 35.0344 11.4275 35.1691C12.2983 36.0868 13.2186 36.9562 14.1843 37.7735C14.4341 37.9917 14.6669 38.2286 14.8806 38.4822C15.2978 38.9416 15.5729 39.5121 15.6725 40.1246C15.8285 41.216 16.0145 42.3074 15.9897 43.4201C15.9897 43.4608 15.9241 43.5334 15.8905 43.5334C15.8253 43.5244 15.764 43.4974 15.7133 43.4555C15.6549 43.4211 15.6075 43.3707 15.5769 43.3102C15.0737 41.8662 14.2658 40.6154 13.4224 39.3858C13.0025 38.7746 12.6074 38.1456 12.1964 37.5237C12.1698 37.4865 12.1025 37.4812 12.0564 37.4599C12.0228 37.5857 11.9306 37.7399 11.9678 37.832C12.6376 39.4886 13.3852 41.0938 14.4146 42.5377C15.0011 43.3651 15.5361 44.2333 16.1261 45.0536C16.5194 45.601 16.9818 46.09 17.3964 46.6198C17.8482 47.1991 18.424 47.6686 18.7518 48.3596C18.7578 48.3904 18.7573 48.422 18.7503 48.4526C18.7433 48.4831 18.7299 48.5118 18.7111 48.5368C18.6946 48.5553 18.6732 48.569 18.6495 48.5762C18.6257 48.5833 18.6004 48.5838 18.5764 48.5776C18.462 48.5125 18.3565 48.4326 18.2628 48.3401C17.1112 47.1283 15.9454 45.9324 14.8186 44.6939C13.3457 43.0879 12.202 41.2087 11.4523 39.1626C11.0253 37.9915 10.7028 36.7973 10.7719 35.5217C10.7995 35.3084 10.8409 35.0971 10.8959 34.8892Z" fill="#F2BF63"/>
<path d="M0.877142 28.9769C0.992305 29.0637 1.14645 29.1169 1.17834 29.2161C1.26865 29.4738 1.32348 29.7427 1.34134 30.0152C1.49016 33.082 2.54257 35.8087 4.07866 38.3299C5.35438 40.3965 6.77534 42.3699 8.33081 44.2351C8.96863 45.0093 9.5976 45.7889 10.2 46.5295C10.1858 46.7917 10.122 46.8165 9.99092 46.6889C7.74259 44.4973 5.79724 42.0133 3.97945 39.4071C2.8085 37.7211 1.95916 35.8332 1.47421 33.8385C1.44237 33.7074 1.40213 33.5784 1.35374 33.4523C1.33956 33.4187 1.27578 33.408 1.21731 33.3761C1.05181 33.9784 1.05487 34.6145 1.22617 35.2152C1.64784 36.9869 2.28921 38.6275 3.52942 39.9369C3.59264 40.0406 3.63535 40.1554 3.65522 40.2753C3.69774 40.4099 3.34162 40.4223 3.1237 40.3036C2.65369 40.0635 2.22823 39.7447 1.86576 39.361C1.26813 38.7081 0.815827 37.9357 0.538736 37.095C0.0698019 35.7874 -0.0961852 34.3905 0.0532829 33.0094C0.198565 31.8454 0.443061 30.6955 0.659212 29.5421C0.713013 29.347 0.786018 29.1577 0.877142 28.9769Z" fill="#F2BF63"/>
<path d="M68.7558 24.9815C68.6513 25.0541 68.4954 25.0949 68.4511 25.1994C67.1436 28.2344 64.959 30.2471 62.4857 31.9143C62.3581 32.0011 62.1402 31.9143 61.839 31.9019C62.2429 31.5298 62.5371 31.2481 62.8418 30.9806C65.6571 28.5108 67.4359 25.2526 68.3554 21.3636C68.7462 19.6632 69.2566 17.9924 69.8827 16.3638C70.0379 15.891 70.2874 15.4547 70.6162 15.0811C70.6682 15.0436 70.7294 15.0209 70.7933 15.0155C70.9262 14.9801 71.013 15.0616 71.0201 15.2565C71.0436 16.5809 71.1365 17.9033 71.2983 19.2181C71.3549 19.7303 71.346 20.2477 71.2717 20.7577C71.1211 21.9837 70.5825 22.9511 69.6665 23.6261C69.6204 23.6598 69.5407 23.6261 69.4751 23.6261L69.5265 23.6828C69.5371 23.4685 69.5704 23.2559 69.6258 23.0485C69.7516 22.7155 69.95 22.4196 70.074 22.0865C70.4283 21.1333 70.6303 20.1518 70.3468 19.1206C70.3124 18.987 70.2433 18.8648 70.1466 18.7663C70.0775 18.7025 69.989 18.8159 69.95 18.9984C69.849 19.4927 69.7055 19.9817 69.6506 20.4831C69.5336 21.5674 69.0925 22.5755 69.0925 23.6828L69.1438 23.6049C69.046 23.6849 68.9653 23.7839 68.9069 23.896C68.8484 24.008 68.8133 24.1308 68.8037 24.2569C68.7736 24.5155 68.7417 24.776 68.7115 25.0364L68.7558 24.9815Z" fill="#F2BF63"/>
<path d="M64.3689 19.5035C64.0145 19.8082 63.8604 20.2299 63.6903 20.6143C63.0224 22.1256 62.1897 23.5395 61.6493 25.1252C61.5961 25.2811 61.2949 25.212 61.1674 25.0348C60.965 24.7761 60.8303 24.4709 60.7756 24.147C60.7208 23.8231 60.7477 23.4907 60.8538 23.1798C60.9893 22.7713 61.1612 22.3758 61.3676 21.9981C61.5675 21.6275 61.805 21.2784 62.0763 20.9563C63.2101 19.6648 64.0251 18.1252 64.4557 16.4614C64.4699 16.4012 64.5585 16.3144 64.5939 16.325C64.6913 16.3551 64.8225 16.4012 64.8668 16.4898C65.2047 17.2169 65.4191 17.9953 65.501 18.793C65.703 20.4602 65.4107 22.0282 64.5354 23.4084C63.7399 24.661 62.9214 25.8888 62.1064 27.129C61.114 28.6322 59.9219 29.9935 58.5629 31.1756C58.4167 31.3129 58.2499 31.4265 58.0686 31.5123C57.9474 31.5401 57.8201 31.5191 57.7142 31.4538C57.6871 31.433 57.665 31.4061 57.6499 31.3754C57.6347 31.3447 57.6268 31.3109 57.6268 31.2766C57.6268 31.2424 57.6347 31.2086 57.6499 31.1778C57.665 31.1471 57.6871 31.1203 57.7142 31.0995C58.6125 30.1498 59.5498 29.2444 60.4108 28.254C61.0947 27.4588 61.7256 26.6196 62.2995 25.7417C63.4051 24.0728 64.0854 22.1664 64.4752 20.1271C64.5035 19.9499 64.4132 19.732 64.3689 19.5035Z" fill="#F2BF63"/>
<path d="M48.1965 2.34949C48.154 2.47351 48.1434 2.65777 48.0637 2.70383C47.5693 3.04401 47.0485 3.3328 46.5559 3.67829C45.4415 4.45785 44.5592 5.52088 43.8239 6.74869C43.4787 7.30212 43.2563 7.92324 43.1719 8.57003C43.0674 9.44527 42.9398 10.317 42.8388 11.1904C42.768 11.7893 42.6298 12.381 42.263 12.8009C41.4401 13.759 40.7429 14.8182 40.1883 15.9528C40.1582 16.0149 39.9651 15.9847 39.8499 15.967C39.818 15.9551 39.7892 15.9362 39.7655 15.9117C39.7419 15.8872 39.7241 15.8576 39.7135 15.8253C39.1288 14.2148 39.1961 11.5377 39.9119 10.0317C40.3228 9.1289 40.841 8.27884 41.4551 7.4999C41.8095 8.07394 41.3541 8.50271 41.3063 8.98816C41.2514 9.57106 41.0954 10.1398 41.0193 10.7191C40.9555 11.2117 40.8421 11.7184 41.1291 12.2641C41.3204 11.4314 41.5561 10.6695 41.6216 9.86163C41.7109 8.99475 41.9871 8.15754 42.4313 7.40779C43.6343 5.24628 45.213 3.55782 47.2983 2.55856C47.5818 2.42214 47.9219 2.44694 48.2373 2.39733L48.1965 2.34949Z" fill="#F2BF63"/>
<path d="M17.1381 32.3375C17.0566 32.5147 16.9609 32.6263 16.9609 32.7326C16.9609 33.6326 16.945 34.5362 17.1859 35.4168C17.1911 35.4789 17.181 35.5414 17.1567 35.5988C17.1323 35.6563 17.0943 35.7069 17.046 35.7463C16.9869 35.7666 16.9237 35.7723 16.862 35.7627C16.8003 35.7531 16.7418 35.7286 16.6916 35.6914C16.533 35.5696 16.4035 35.4141 16.3125 35.2361C16.0764 34.735 15.9364 34.1942 15.8997 33.6415C15.8873 33.4324 15.8996 33.2234 15.8819 33.0161C15.8429 32.4651 15.827 31.907 15.742 31.3631C15.6516 30.7819 15.0988 30.5162 14.8703 30.0201C14.8498 29.9581 14.8367 29.8938 14.8313 29.8287C14.931 29.7442 15.052 29.6889 15.1812 29.6689C15.3103 29.6489 15.4425 29.6649 15.563 29.7153C16.2958 30.0055 16.9789 30.4077 17.5881 30.9077C18.1852 31.3787 18.6177 32.0269 18.8233 32.759C19.0289 33.4912 18.9972 34.2697 18.7327 34.9827C18.504 35.5609 18.3752 36.1738 18.3517 36.7952C18.3163 37.4862 18.2029 38.1736 18.1427 38.8646C17.9318 41.3166 18.0009 43.7227 19.188 45.9355C19.2057 45.971 19.1561 46.0631 19.1189 46.1127C19.0817 46.1623 19.0161 46.1818 18.9931 46.1659C18.8788 46.0994 18.7764 46.0144 18.6901 45.9143C17.8149 44.7272 17.4499 43.3276 17.372 41.8517C17.2768 40.5345 17.3255 39.2109 17.5172 37.9043C17.6944 36.8714 17.6643 35.8296 17.6767 34.7878C17.6926 33.9391 17.4712 33.1596 17.1381 32.3375Z" fill="#F2BF63"/>
<path d="M47.0981 27.1218C45.934 26.9269 44.9029 26.3706 43.8345 25.9312C43.6653 25.8341 43.5098 25.715 43.3721 25.5769C43.2481 25.4812 43.2552 25.1074 43.3863 25.056C43.8664 24.8788 44.3377 24.6591 44.8302 24.5245C45.1092 24.4402 45.4027 24.4156 45.6918 24.4522C45.9809 24.4888 46.259 24.5859 46.5081 24.7371C46.8521 24.9201 47.1809 25.1305 47.4914 25.366C48.17 25.9312 48.9088 26.2519 49.7946 26.2023C49.8523 26.2117 49.9067 26.2352 49.9531 26.2708C49.9995 26.3063 50.0363 26.3528 50.0604 26.406C50.0737 26.5336 50.0535 26.6625 50.0019 26.7799C49.9798 26.8419 49.9441 26.8982 49.8974 26.9446C49.2846 27.6294 48.4278 28.0467 47.5109 28.1069C45.6283 28.2659 43.7491 27.7648 42.1957 26.6895C41.1394 26.0073 40.2989 25.0389 39.772 23.8973C39.7528 23.7692 39.7832 23.6387 39.857 23.5323C39.9101 23.4402 40.0466 23.4703 40.16 23.589C40.4753 23.9221 40.7978 24.2498 41.0954 24.6024C42.2931 26.0198 43.8416 26.7728 45.5655 27.1945C46.0723 27.3225 46.6057 27.2972 47.0981 27.1218Z" fill="#F2BF63"/>
<path d="M8.05251 59.8903C8.05341 60.0172 8.03671 60.1436 8.0029 60.2659C7.90154 60.5022 7.78311 60.7307 7.64855 60.9498C6.73788 62.4611 6.63335 64.1176 6.87253 65.7955C7.04971 66.9648 7.56883 67.9924 8.64427 68.6302C8.67234 68.6419 8.70244 68.6479 8.73285 68.6479C8.76326 68.6479 8.79337 68.6419 8.82144 68.6302C8.95786 68.5576 8.94545 68.4531 8.85864 68.3113C8.35547 67.491 7.83105 66.6849 7.50859 65.7654C7.22554 64.9748 7.20196 64.1146 7.44126 63.3097C7.48379 63.1662 7.66983 63.0634 7.83637 62.8951C7.87003 63.1662 7.90368 63.354 7.91431 63.5454C7.9352 64.1301 8.17337 64.686 8.58226 65.1045C9.24312 65.7618 9.6134 66.5733 9.85967 67.4414C10.1059 68.3096 10.494 69.1175 11.2771 69.6685C11.355 69.7234 11.2895 69.8775 11.1477 69.9378C10.9775 70.0256 10.7913 70.078 10.6003 70.0919C9.50071 70.0824 8.43297 69.7217 7.55288 69.0625C6.31267 68.1536 5.86973 66.8461 5.79709 65.3738C5.78289 64.7298 5.8837 64.0884 6.09475 63.4798C6.42197 62.3723 6.88244 61.3085 7.46607 60.312C7.59541 60.1011 7.74955 59.8814 8.05074 59.8832L8.05251 59.8903Z" fill="#F2BF63"/>
<path d="M42.855 64.8915C42.7469 64.8419 42.591 64.8207 42.5343 64.7356C41.8022 63.6009 41.2634 62.3526 40.9397 61.0416C40.2352 58.2886 40.278 55.3975 41.0637 52.6666C41.458 51.1769 41.9962 49.7291 42.6707 48.3436C43.2749 47.1406 43.8188 45.911 44.5293 44.7576C45.8509 42.6248 47.4606 40.6848 49.3129 38.9924C49.926 38.4272 50.5531 37.8726 51.3274 37.5307C51.3849 37.5117 51.447 37.5117 51.5046 37.5307C51.6924 37.5838 51.7136 37.6831 51.5683 37.8071C51.1325 38.1845 50.7037 38.5707 50.2573 38.9339C48.7496 40.1387 47.4211 41.552 46.3116 43.1311C45.3974 44.4529 44.4424 45.7498 43.7515 47.2061C42.816 49.1745 41.8646 51.1482 41.4695 53.315C41.2252 54.5098 41.0682 55.7207 41 56.9382C40.9291 59.0785 41.3862 61.1479 42.1764 63.1393C42.3412 63.5556 42.5821 63.9419 42.7522 64.3565C42.8017 64.5401 42.825 64.7298 42.8213 64.9199L42.855 64.8915Z" fill="#F2BF63"/>
<path d="M7.68209 32.5308C7.58173 32.8641 7.58917 33.2206 7.70335 33.5495C8.79474 36.8219 10.0987 39.9738 12.1327 42.7164C12.813 43.6324 13.4774 44.5644 14.1454 45.4928C14.1681 45.5496 14.1681 45.613 14.1454 45.6699C14.0869 45.8471 13.9841 45.8595 13.8495 45.7248C13.7025 45.592 13.5624 45.4519 13.4296 45.3049C12.1431 43.7413 10.9814 42.079 9.95523 40.3335C9.16858 38.9816 8.40496 37.6263 7.85041 36.1398C7.37515 34.8486 6.99441 33.5246 6.71119 32.1782C6.52161 31.2923 6.56768 30.4065 6.51453 29.4869C6.72536 29.5259 6.85824 29.5117 6.94151 29.5738C7.30649 29.8519 7.63602 30.1939 8.02049 30.4384C8.62465 30.8211 8.92407 31.4252 9.08353 32.1002C9.30717 32.9011 9.36207 33.7397 9.24476 34.5629C9.23413 34.6249 9.15441 34.7401 9.14023 34.7242C9.03925 34.6799 8.90281 34.6391 8.85851 34.547C8.55378 33.9411 8.27739 33.3174 7.97265 32.7115C7.92835 32.6229 7.75827 32.6087 7.64665 32.5609C7.64064 32.4422 7.62823 32.3239 7.60946 32.2065C7.59882 32.1516 7.53858 32.0559 7.52618 32.0612C7.49779 32.0683 7.47159 32.0822 7.44991 32.1019C7.42823 32.1215 7.41174 32.1462 7.40192 32.1737C7.39209 32.2013 7.38924 32.2308 7.39361 32.2597C7.39798 32.2886 7.40943 32.316 7.42696 32.3394C7.48011 32.4298 7.59528 32.4688 7.68209 32.5308Z" fill="#F2BF63"/>
<path d="M70.8339 82.1234C70.4795 81.7301 70.3856 81.2127 70.189 80.7432C70.0175 80.3271 69.7432 79.9613 69.3917 79.6802C68.5484 78.9868 67.5934 78.4416 66.5676 78.0679C65.8446 77.7987 65.0801 77.6578 64.3086 77.6516C63.2846 77.6622 62.2587 77.6728 61.2329 77.6693C61.1567 77.6693 61.0823 77.547 61.0061 77.4921C61.0522 77.4478 61.0912 77.3823 61.1443 77.3646C62.1829 77.024 63.2756 76.8792 64.3671 76.9376C65.2613 77.006 66.1603 76.9751 67.0477 76.8454C67.6058 76.7533 68.1976 76.8189 68.7698 76.8649C70.235 76.9819 71.0571 77.873 71.5018 79.2001C71.8314 80.1798 71.6382 81.0905 71.1351 81.9569C71.0837 82.0313 70.9367 82.065 70.8339 82.1234ZM70.4512 79.4764C70.4919 79.4251 70.5575 79.379 70.561 79.3276C70.5801 79.2088 70.5697 79.0872 70.5309 78.9733C70.3386 78.5756 70.0454 78.2354 69.6805 77.9864C69.3238 77.7245 68.8781 77.6137 68.4403 77.6782C68.4098 77.6861 68.3813 77.7001 68.3563 77.7193C68.3314 77.7384 68.3105 77.7624 68.295 77.7898C68.2883 77.815 68.288 77.8416 68.2942 77.8669C68.3004 77.8923 68.3128 77.9157 68.3304 77.935C69.032 78.4524 69.7425 78.9626 70.4512 79.4764Z" fill="#F2BF63"/>
<path d="M43.0478 39.7031C42.5177 40.5063 42.0752 41.364 41.7278 42.2615C41.4514 42.9117 41.2087 43.5761 40.9376 44.2263C40.8794 44.3347 40.7954 44.4272 40.6931 44.4956C40.6329 44.5435 40.4965 44.2369 40.4858 44.035C40.4414 42.9387 40.6858 41.8499 41.1945 40.8777C41.2512 40.7626 41.3097 40.6474 41.3717 40.5358C42.0395 39.44 42.6423 38.3059 43.1771 37.1394C43.2001 37.088 43.2852 37.0189 43.3224 37.0295C43.4251 37.0579 43.5616 37.0986 43.6076 37.1784C44.4315 38.6046 44.5892 40.0893 43.8876 41.6077C43.2747 42.9519 42.4936 44.2128 41.5631 45.3602C41.5442 45.3711 41.5228 45.3768 41.5011 45.3768C41.4793 45.3768 41.4579 45.3711 41.439 45.3602C41.4001 45.3159 41.3505 45.245 41.3611 45.1954C41.5699 44.2568 41.8543 43.3367 42.2115 42.444C42.5127 41.6662 42.8316 40.8955 43.124 40.1141C43.1682 40.0131 43.0868 39.8714 43.0478 39.7031Z" fill="#F2BF63"/>
<path d="M19.4732 57.7547C19.4413 57.7937 19.4112 57.8645 19.3758 57.8663C19.1925 57.9021 19.0046 57.9081 18.8195 57.884C18.1958 57.7317 17.5792 57.5882 16.9397 57.4819C15.7947 57.2998 14.6254 57.3395 13.4954 57.5988C13.4245 57.6147 13.3767 57.7441 13.3182 57.8202C13.3731 57.8557 13.4245 57.9142 13.4812 57.9195C14.8856 58.0553 16.2912 58.1882 17.6979 58.3181C18.1745 58.3642 18.3304 58.4474 18.2791 58.6158C18.194 58.8957 17.9637 59.0002 17.7281 59.0995C15.8784 59.8755 15.8128 59.8932 13.8763 59.149C13.0985 58.8496 12.3013 58.5998 11.5128 58.327C11.4698 58.3131 11.4308 58.2888 11.3996 58.256C11.3683 58.2233 11.3458 58.1832 11.334 58.1396C11.3222 58.0959 11.3215 58.0499 11.332 58.0059C11.3425 57.9619 11.3639 57.9212 11.3941 57.8876C11.5651 57.694 11.7531 57.5161 11.9558 57.3561C13.5503 56.293 15.3079 56.1159 17.1292 56.5482C17.8733 56.7253 18.6192 56.9574 19.2411 57.4482C19.3303 57.5409 19.4082 57.6438 19.4732 57.7547Z" fill="#F2BF63"/>
<path d="M44.4031 76.8877C44.1161 77.3661 43.6767 77.3803 43.232 77.2102C42.9335 77.0968 42.6602 76.9258 42.4276 76.707C42.0998 76.403 41.8159 76.0548 41.5843 75.6723C40.9801 74.6093 40.7179 73.4187 40.6276 72.1997C40.6316 72.1678 40.6428 72.1372 40.6603 72.1103C40.6778 72.0833 40.7011 72.0606 40.7285 72.0438C40.7561 72.0301 40.7864 72.0229 40.8171 72.0229C40.8479 72.0229 40.8782 72.0301 40.9057 72.0438C41.139 72.1419 41.3616 72.2636 41.5701 72.407C43.0436 73.5471 44.2465 74.9992 45.0923 76.6592C45.4662 77.3998 45.801 78.1652 46.1004 78.9394C46.7182 80.5625 46.9073 82.3174 46.6497 84.0349C46.6373 84.12 46.5186 84.1908 46.4512 84.2688C46.4087 84.2209 46.3343 84.1749 46.329 84.1235C46.3024 83.8064 46.2812 83.4874 46.2758 83.1685C46.2254 81.1146 45.7156 79.0981 44.784 77.2669C44.7487 77.1789 44.6905 77.1019 44.6155 77.0439C44.5404 76.986 44.4512 76.9492 44.3571 76.9373C44.3613 76.8117 44.3458 76.6861 44.311 76.5653C43.76 75.4246 42.9631 74.4201 41.9776 73.6242C41.951 73.603 41.8483 73.6242 41.8447 73.6366C41.8111 73.75 41.7402 73.8953 41.781 73.9803C42.3697 75.1731 43.2773 76.1794 44.4031 76.8877Z" fill="#F2BF63"/>
<path d="M46.7136 48.3063C46.7278 48.1203 46.6852 47.9023 46.7632 47.7482C47.851 45.6221 49.5324 44.0807 51.6107 42.9645C52.4677 42.5118 53.4421 42.3302 54.4047 42.4436C54.4631 42.4436 54.5535 42.495 54.5641 42.5393C54.5889 42.6421 54.6226 42.8104 54.5641 42.8565C53.9862 43.3695 53.506 43.9829 53.1468 44.6672C52.7357 45.4006 52.1092 45.9901 51.352 46.3556C50.5091 46.8186 49.5717 47.0828 48.6111 47.1281L48.6359 47.1582C48.6339 47.0371 48.6556 46.9167 48.6997 46.8039C49.0539 46.3512 49.4925 45.9715 49.9913 45.6859C50.3669 45.4449 50.7602 45.2359 51.1358 44.9949C51.8935 44.53 52.559 43.9294 53.0989 43.2232C53.1054 43.1997 53.1061 43.175 53.1009 43.1512C53.0956 43.1275 53.0846 43.1053 53.0688 43.0868C53.0478 43.0645 53.0225 43.0466 52.9946 43.0342C52.9666 43.0217 52.9364 43.0149 52.9058 43.0141C52.4129 43.1422 51.9451 43.3524 51.5221 43.636C50.0816 44.5963 48.783 45.7072 47.8174 47.1653L47.8528 47.1192C47.6154 47.4187 47.378 47.7199 47.1441 48.0193C47.096 48.1004 47.0283 48.1682 46.9472 48.2165C46.8661 48.2648 46.7742 48.292 46.6799 48.2957L46.7136 48.3063Z" fill="#F2BF63"/>
<path d="M64.4914 11.2578C64.3869 11.8743 64.6101 12.4129 64.8086 12.9551C65.0318 13.5646 65.3224 14.1457 65.3401 14.8278C65.3378 14.8625 65.328 14.8962 65.3115 14.9268C65.295 14.9573 65.2721 14.984 65.2444 15.005C65.2175 15.0205 65.1869 15.0287 65.1558 15.0287C65.1247 15.0287 65.0942 15.0205 65.0672 15.005C64.8033 14.6861 64.557 14.3512 64.293 14.0305C63.9284 13.5834 63.6844 13.0503 63.5843 12.482C63.5436 12.2676 63.4603 12.0621 63.4302 11.8442C63.2458 10.6268 62.8374 9.45418 62.2254 8.38578C62.1137 8.20319 62.0171 8.01181 61.9366 7.81351C61.8944 7.69093 61.902 7.55668 61.9579 7.43968C62.0014 7.39689 62.0553 7.36608 62.1143 7.35025C62.1733 7.33442 62.2354 7.3341 62.2945 7.34932C62.9146 7.60445 63.3947 8.08991 63.827 8.64092C65.1058 10.292 65.9621 12.2303 66.3216 14.2874C66.4972 15.1669 66.4766 16.0744 66.2614 16.945C66.0612 16.6527 66.1126 16.3231 66.0842 16.0255C65.9225 14.5066 65.5194 13.0234 64.8901 11.6316C64.8015 11.4279 64.6686 11.2773 64.4525 11.2967C64.4604 11.161 64.4604 11.025 64.4525 10.8892C64.4312 10.7121 64.3178 10.6058 64.2753 10.6749C64.244 10.7277 64.2235 10.7862 64.215 10.8471C64.2064 10.9079 64.2101 10.9698 64.2257 11.0292C64.2682 11.1249 64.3993 11.1816 64.4914 11.2578Z" fill="#F2BF63"/>
<path d="M27.1304 80.9432C26.799 81.1699 26.4748 81.3684 26.1754 81.6005C25.5502 82.0539 25.0721 82.6811 24.8005 83.4041C24.7949 83.4348 24.7955 83.4664 24.8025 83.4969C24.8095 83.5274 24.8227 83.5561 24.8413 83.5813C24.8643 83.6149 24.9511 83.6486 24.9671 83.6344C25.3982 83.2517 25.8246 82.8661 26.2463 82.4775C26.952 81.8201 27.8247 81.369 28.7692 81.1735C28.8737 81.154 29.0013 81.2426 29.1236 81.2904C29.1236 81.2904 29.1094 81.4127 29.074 81.4339C28.0233 82.0735 27.203 82.9736 26.3721 83.8559C25.6699 84.6175 24.7132 85.0959 23.6826 85.2006C23.5583 85.212 23.4338 85.1822 23.3282 85.1156C23.2396 85.0518 23.1227 84.8711 23.1511 84.8179C23.594 84.0431 24.0163 83.257 24.4178 82.4598C24.7186 81.889 25.1695 81.4112 25.7218 81.0778C26.0373 80.8538 26.4199 80.7444 26.8061 80.7678C26.8965 80.7678 26.9904 80.8634 27.1304 80.9432Z" fill="#F2BF63"/>
<path d="M39.9364 53.5954C39.759 53.1045 39.7454 52.5693 39.8975 52.07C40.1422 51.1393 40.4488 50.226 40.8152 49.3362C41.5594 47.4907 42.4125 45.691 43.3701 43.9466C44.2688 42.3152 45.4105 40.8301 46.7558 39.5421C46.777 39.5226 46.8025 39.5085 46.8303 39.5011C46.8581 39.4937 46.8873 39.4932 46.9153 39.4995C46.9464 39.5101 46.9743 39.5283 46.9967 39.5524C47.019 39.5764 47.035 39.6057 47.0433 39.6375C47.0515 39.6692 47.0518 39.7026 47.044 39.7345C47.0362 39.7664 47.0206 39.7958 46.9986 39.8202C46.8533 40.0293 46.7098 40.2419 46.5468 40.4385C45.195 42.074 44.0324 43.857 43.0813 45.7537C42.2113 47.4705 41.3219 49.1803 40.7355 51.0229C40.4821 51.8077 40.243 52.6033 39.9364 53.5954Z" fill="#F2BF63"/>
<path d="M64.633 74.4593C64.1405 74.5568 63.57 74.6595 63.0119 74.7835C62.5743 74.8792 62.1402 75.005 61.7026 75.106C61.6601 75.1166 61.5821 75.0599 61.5485 75.0121C61.5314 74.9863 61.5203 74.957 61.516 74.9263C61.5117 74.8957 61.5143 74.8644 61.5236 74.8349C61.5845 74.7269 61.652 74.6228 61.7256 74.5231C62.5831 73.1961 63.8269 73.1908 65.1415 73.6372C65.8697 73.88 66.5589 74.2113 67.3367 74.3158C67.3792 74.3158 67.4519 74.3955 67.4448 74.4239C67.4331 74.5512 67.3886 74.6733 67.3155 74.7782C66.7981 75.292 66.1674 75.6641 65.4463 75.68C64.0873 75.7226 62.7674 75.9972 61.4351 76.2116C61.2756 76.2381 61.1959 76.146 61.2349 76.006C61.2438 75.9778 61.2582 75.9517 61.2774 75.9292C61.2966 75.9067 61.3201 75.8882 61.3465 75.8749C62.0596 75.5799 62.8114 75.389 63.5789 75.308C64.346 75.2389 65.1043 75.0901 65.8644 74.9678C65.9228 74.9468 65.9735 74.9085 66.0097 74.858C66.0983 74.7552 66.0469 74.6684 65.8626 74.64C65.4764 74.5621 65.1008 74.5142 64.633 74.4593Z" fill="#F2BF63"/>
<path d="M69.4732 23.6317C69.5246 23.9861 69.5671 24.3404 69.6344 24.6948C69.6371 24.7297 69.6474 24.7635 69.6647 24.794C69.682 24.8244 69.7058 24.8506 69.7344 24.8707C69.763 24.8909 69.7958 24.9045 69.8302 24.9105C69.8647 24.9165 69.9001 24.9149 69.9338 24.9056C70.1765 24.8401 70.4122 24.7409 70.6531 24.6611C70.7477 24.6341 70.8489 24.6428 70.9375 24.6856C71.026 24.7284 71.0957 24.8023 71.1333 24.8932C71.1989 25.0194 71.2483 25.1533 71.2803 25.2919C71.4416 26.4506 70.9597 27.5756 70.0897 28.0309C69.684 28.2435 69.257 28.3977 68.8371 28.5625C68.3056 28.7839 67.7546 28.993 67.2142 29.2145C66.8599 29.3562 66.6278 29.3473 66.6951 29.2145C66.7637 29.0347 66.8672 28.8703 66.9998 28.7308C67.4043 28.3816 67.8278 28.0551 68.2684 27.7528C68.778 27.4221 69.2379 27.0207 69.6344 26.5604C69.6767 26.5034 69.7002 26.4347 69.7017 26.3638C69.7017 26.1954 69.6149 26.1511 69.4625 26.1972C69.3402 26.2295 69.215 26.2496 69.0887 26.2574C68.8867 26.2716 68.7344 26.1033 68.7344 25.8482C68.7344 25.5576 68.7485 25.2653 68.7556 24.9729L68.7095 25.0385C69.0781 24.6505 69.0639 24.1136 69.1418 23.6069L69.0905 23.6849H69.5245L69.4732 23.6317Z" fill="#F2BF63"/>
<path d="M53.6057 81.2095L54.1709 81.2893C54.1089 81.7747 53.6996 81.998 53.4764 82.3523C53.2036 82.7811 52.9024 83.1903 52.6295 83.6173C52.3903 83.9894 52.1724 84.3738 51.9208 84.7813C51.8588 84.6237 51.7578 84.4996 51.7844 84.4128C52.059 83.4827 52.5941 82.6995 53.2018 81.959C53.3984 81.7198 53.6713 81.5231 53.6607 81.1635L53.6057 81.2095Z" fill="#F2BF63"/>
<path d="M16.3425 47.7144C17.0937 48.4744 17.8786 49.2699 18.6599 50.069C18.6989 50.1079 18.7414 50.2019 18.7255 50.2337C18.7144 50.2654 18.6955 50.2937 18.6706 50.3162C18.6457 50.3386 18.6155 50.3545 18.5829 50.3622C18.5503 50.37 18.5162 50.3694 18.4838 50.3606C18.4515 50.3518 18.4219 50.335 18.3977 50.3117C17.4941 49.6632 16.7323 48.8394 15.9651 48.0244C15.85 47.9004 15.8411 47.7462 15.9474 47.7002C16.0789 47.6809 16.2128 47.6857 16.3425 47.7144Z" fill="#F2BF63"/>
<path d="M43.218 71.1017C43.1542 71.1017 43.0745 71.1017 43.0302 71.0751C42.2645 70.5051 41.5885 69.8237 41.0246 69.0535C41.0086 69.034 41.0511 68.949 41.0866 68.9224C41.133 68.8898 41.1895 68.8747 41.246 68.8799C41.311 68.8833 41.3731 68.9076 41.4232 68.949C42.0043 69.539 42.5855 70.129 43.1506 70.7349C43.2233 70.8111 43.2056 70.9723 43.2286 71.0893L43.218 71.1017Z" fill="#F2BF63"/>
<path d="M53.6638 81.1613C53.4866 80.9717 53.3094 80.7697 53.5167 80.5164C53.7199 80.2775 53.9395 80.0531 54.174 79.8449C54.195 79.8222 54.2209 79.8045 54.2498 79.7934C54.2786 79.7822 54.3096 79.7778 54.3405 79.7806C54.3713 79.7833 54.4011 79.7931 54.4275 79.8092C54.4539 79.8252 54.4763 79.8472 54.4929 79.8733C54.516 79.9034 54.4929 79.9955 54.461 80.0309C54.252 80.263 54.0181 80.4721 53.8268 80.7166C53.7309 80.8702 53.6558 81.0358 53.6035 81.2091L53.6638 81.1613Z" fill="#F2BF63"/>
<path d="M42.8192 64.9271C42.9273 64.9803 43.0779 65.0069 43.1381 65.0937C43.3897 65.4657 43.6271 65.8502 43.8468 66.2453C43.8929 66.3304 43.8309 66.4756 43.8202 66.5997C43.7777 66.5997 43.7139 66.5996 43.6945 66.5695C43.4322 66.2046 43.1629 65.8484 42.9291 65.4604C42.8422 65.3116 42.8777 65.0901 42.8582 64.9023L42.8192 64.9271Z" fill="#F2BF63"/>
<path d="M48.905 37.6069C48.9174 37.6565 48.9582 37.7221 48.9404 37.7522C48.6451 38.2454 48.2253 38.6523 47.7233 38.9322C47.6985 38.9464 47.6205 38.8968 47.5904 38.8578C47.5603 38.8188 47.5213 38.7373 47.539 38.7054C47.8095 38.1963 48.2335 37.7853 48.7508 37.5307C48.7827 37.5219 48.8536 37.5857 48.905 37.6069Z" fill="#F2BF63"/>
<path d="M8.05253 59.8901C8.00115 59.3586 8.40687 59.1318 8.73996 58.8643C8.76185 58.8403 8.78937 58.8222 8.82005 58.8115C8.85072 58.8009 8.88356 58.7981 8.9156 58.8034C8.94763 58.8087 8.97785 58.8219 9.00349 58.8418C9.02913 58.8617 9.04937 58.8877 9.0624 58.9175C9.08189 58.9494 9.05 59.0291 9.01811 59.0681C8.74526 59.3976 8.53621 59.8069 8.05253 59.8901Z" fill="#F2BF63"/>
<path d="M49.619 36.985C49.5835 36.9442 49.5091 36.8751 49.5162 36.8645C49.6934 36.6182 49.8706 36.3843 50.216 36.3755C50.2443 36.3802 50.2713 36.3906 50.2954 36.4061C50.3195 36.4217 50.3401 36.442 50.356 36.4658C50.3669 36.4844 50.3727 36.5055 50.3727 36.527C50.3727 36.5485 50.3669 36.5696 50.356 36.5881C50.03 36.9176 49.9308 36.969 49.619 36.985Z" fill="#F2BF63"/>
<path d="M46.6959 48.2831C46.7437 48.6374 46.5541 48.8802 46.3274 49.1087C46.2831 49.1548 46.2193 49.2469 46.198 49.238C46.1672 49.2299 46.1389 49.214 46.1159 49.1919C46.0928 49.1698 46.0758 49.1422 46.0664 49.1117C46.057 49.0812 46.0556 49.0489 46.0622 49.0176C46.0688 48.9864 46.0832 48.9574 46.1041 48.9333C46.2813 48.6924 46.3185 48.3203 46.7207 48.3061L46.6959 48.2831Z" fill="#F2BF63"/>
<path d="M52.8632 39.7739C52.6861 40.3054 52.2679 40.5074 51.7736 40.6208L51.6726 40.511C51.7765 40.2794 51.9507 40.0863 52.1704 39.9591C52.3901 39.8319 52.6443 39.7771 52.8969 39.8023L52.8632 39.7739Z" fill="#F2BF63"/>
<path d="M48.2371 5.00721C48.3037 4.89719 48.4007 4.80874 48.5163 4.75248C48.632 4.69622 48.7614 4.67454 48.8891 4.69006C48.9741 4.70069 49.0503 4.80522 49.1301 4.86723C49.0761 4.90234 49.016 4.92698 48.9529 4.93988C48.7013 4.95228 48.4479 4.95228 48.1946 4.95759L48.2371 5.00721Z" fill="#F2BF63"/>
<path d="M39.6304 60.2106C39.618 60.2478 39.5985 60.301 39.5808 60.3541C39.5339 60.2753 39.5009 60.189 39.4834 60.099C39.4992 60.0143 39.5318 59.9336 39.5791 59.8616C39.6001 59.9144 39.6167 59.969 39.6287 60.0246C39.6338 60.0865 39.6344 60.1486 39.6304 60.2106Z" fill="#F2BF63"/>
<path d="M44.5395 67.6718C44.5278 67.6246 44.5195 67.5767 44.5146 67.5283C44.5146 67.5194 44.566 67.5088 44.5944 67.4982C44.6075 67.5451 44.6164 67.5932 44.621 67.6417C44.621 67.6417 44.5696 67.6612 44.5395 67.6718Z" fill="#F2BF63"/>
<path d="M60.2177 31.6627C60.1663 31.7584 60.1344 31.8895 60.0547 31.9373C60.007 31.9556 59.9557 31.9623 59.905 31.9571C59.8542 31.9519 59.8053 31.9348 59.7624 31.9072C59.6915 31.8558 59.7624 31.7389 59.913 31.707C60.0249 31.6963 60.1376 31.6963 60.2496 31.707L60.2177 31.6627Z" fill="#F2BF63"/>
<path d="M52.8968 39.8108C52.9464 39.7151 52.9729 39.5787 53.0527 39.5309C53.1018 39.5115 53.1547 39.5033 53.2074 39.507C53.2602 39.5106 53.3114 39.5261 53.3574 39.5521C53.4371 39.6017 53.368 39.7151 53.2121 39.7488C53.0948 39.7663 52.9764 39.7745 52.8578 39.7736L52.8968 39.8108Z" fill="#F2BF63"/>
<path d="M48.6251 47.125C48.625 47.1691 48.6152 47.2127 48.5966 47.2526C48.5779 47.2926 48.5508 47.3281 48.5171 47.3565C48.4834 47.385 48.4439 47.4058 48.4014 47.4175C48.3589 47.4293 48.3143 47.4316 48.2708 47.4244C48.1804 47.4165 48.0942 47.3823 48.0231 47.3259C47.9519 47.2695 47.8988 47.1935 47.8704 47.1073L47.835 47.1534H48.6446L48.6251 47.125Z" fill="#F2BF63"/>
<path d="M34.74 59.4899C34.6656 59.9753 34.9969 60.3279 35.151 60.7301C35.1537 60.7582 35.1496 60.7865 35.1391 60.8127C35.1286 60.8389 35.1121 60.8622 35.0908 60.8807C35.0635 60.8953 35.0331 60.9029 35.0022 60.9029C34.9713 60.9029 34.9408 60.8953 34.9136 60.8807C33.0976 58.9743 32.3145 56.6923 32.4598 54.0755C32.4757 53.776 32.8974 53.567 33.1844 53.7211C33.3022 53.7701 33.4154 53.8294 33.5228 53.8983C34.2498 54.4344 34.7752 55.1995 35.0146 56.0704C35.3262 57.1187 35.3051 58.2379 34.9543 59.2737C34.9189 59.3783 34.7772 59.4509 34.6904 59.5342C34.788 59.164 34.7744 58.7734 34.6514 58.4109C34.3892 57.564 34.1151 56.7207 33.8293 55.8809C33.7335 55.6476 33.6148 55.4245 33.4749 55.2147C33.4466 55.1651 33.3704 55.1456 33.3173 55.1119C33.2623 55.2147 33.1578 55.3192 33.1631 55.4202C33.2128 56.8757 33.6966 58.283 34.5522 59.4615C34.584 59.4899 34.678 59.4775 34.74 59.4899Z" fill="#F2BF63"/>
<path d="M33.4078 62.5687C34.0686 62.985 34.7826 63.5166 35.2876 64.282C35.2876 64.282 35.1848 64.4042 35.1618 64.3936C34.3018 63.9969 33.5483 63.4018 32.9631 62.6573C32.9383 62.6254 32.9631 62.5368 32.9861 62.4943C33.0038 62.4756 33.0253 62.4611 33.0492 62.4516C33.073 62.4421 33.0987 62.4379 33.1243 62.4394C33.2229 62.473 33.3178 62.5163 33.4078 62.5687Z" fill="#F2BF63"/>
<path d="M56.0114 25.736C55.657 26.0124 55.3115 26.2941 54.9572 26.567C54.8491 26.6502 54.5851 26.5386 54.5408 26.4128C54.4379 26.12 54.4017 25.8078 54.4348 25.4991C54.4679 25.1905 54.5695 24.8931 54.7322 24.6287C54.9424 24.2256 55.2462 23.8787 55.618 23.6171C56.3675 23.121 57.1222 22.6355 57.877 22.1483C57.9833 22.081 58.2118 22.2262 58.2685 22.3751C58.5024 22.9899 58.4085 23.5976 58.2207 24.1964C58.0009 24.8364 57.6829 25.4383 57.2781 25.9805C56.6356 26.9127 55.7399 27.6418 54.6967 28.0818C53.0047 28.81 51.2737 29.1856 49.4347 28.8614C49.2726 28.8281 49.119 28.7624 48.9829 28.6683C48.9315 28.6346 48.9492 28.4911 48.9315 28.3795C49.2735 28.3972 49.6101 28.4131 49.9467 28.4326C51.1312 28.4869 52.3155 28.3199 53.4388 27.9401C53.7623 27.8472 54.0665 27.6972 54.3371 27.4971C54.9058 27.04 55.4338 26.5351 55.9635 26.0337C56.0167 25.9841 55.9635 25.83 55.9635 25.7236C56.207 25.6355 56.4153 25.4708 56.5571 25.2541C56.6012 25.1929 56.6236 25.1186 56.6208 25.0432C56.6179 24.9678 56.5898 24.8955 56.5411 24.8378C56.6208 24.7722 56.7023 24.7049 56.7856 24.6393C56.9132 24.5384 56.9167 24.4622 56.7856 24.4515C56.7519 24.4515 56.6917 24.5047 56.6758 24.5472C56.641 24.6457 56.6126 24.7463 56.5907 24.8484C56.4572 24.9449 56.3289 25.0484 56.2063 25.1585C56.0539 25.3037 55.9281 25.4809 56.0114 25.736Z" fill="#F2BF63"/>
</svg>
