<svg width="75" height="93" viewBox="0 0 75 93" fill="none" xmlns="http://www.w3.org/2000/svg">
<path d="M20.4185 47.5605C20.4185 40.1596 20.4185 30.0674 20.4185 22.6766C20.4185 22.0677 20.395 21.4555 20.3714 20.8466C20.3627 20.7716 20.3388 20.6992 20.3011 20.6338C20.2635 20.5684 20.2129 20.5114 20.1524 20.4662C20.0919 20.421 20.0229 20.3886 19.9495 20.371C19.8761 20.3534 19.7999 20.351 19.7255 20.3638C17.437 20.8542 15.3541 22.0348 13.7577 23.7464C13.3826 24.145 13.0025 24.5454 12.5938 24.9104C11.3053 26.0592 8.46944 25.9498 7.31557 23.9398C7.03195 23.465 6.87525 22.9252 6.86052 22.3723C6.84579 21.8193 6.97353 21.2719 7.23147 20.7827C7.4235 20.4004 7.67821 20.053 7.98502 19.755C9.5123 18.258 11.2952 17.2538 13.46 17.0419C14.555 16.9359 15.6466 16.7223 16.7484 16.8047C18.5162 16.9342 20.2907 17.02 22.045 17.2504C23.5003 17.4348 24.965 17.5348 26.4318 17.5498C28.0824 17.5767 29.7325 17.5582 31.382 17.4943C35.2327 17.3431 39.0537 16.7534 42.7709 15.7366C44.0671 15.378 45.3381 14.9342 46.5757 14.4078C47.9331 13.8342 49.2013 13.1059 50.2643 12.053C50.5695 11.7528 50.9017 11.4814 51.2567 11.2422C52.6024 10.3407 54.0657 10.0278 55.6216 10.4937C57.1775 10.9597 58.2977 11.947 58.7098 13.5819C59.0327 14.8687 58.6761 16.0007 57.8116 16.9779C57.1926 17.676 56.402 18.1419 55.5627 18.5271C54.3295 19.0712 53.028 19.4452 51.6941 19.6389C49.0247 20.0695 46.3385 20.0964 43.6473 20.0476C41.4472 20.0073 39.2488 19.9299 37.0504 19.8794C36.9298 19.8825 36.8143 19.9286 36.7249 20.0095C36.6354 20.0903 36.5778 20.2005 36.5626 20.3201C36.5475 20.5035 36.5239 20.6851 36.5239 20.8685C36.5239 23.3747 36.5239 28.5721 36.5239 31.0783C36.5239 31.3222 36.5643 31.5644 36.5878 31.8066C36.6108 31.8921 36.6646 31.966 36.7388 32.0141C36.813 32.0622 36.9024 32.0812 36.9898 32.0674C37.2169 31.9782 37.4456 31.8992 37.6626 31.7949C39.4574 31.0003 41.3686 30.5005 43.3226 30.3147C45.821 30.0588 48.3453 30.2872 50.7572 30.9875C53.238 31.6926 55.517 32.9744 57.4079 34.7283C59.4372 36.599 61.0925 38.8382 62.2858 41.3269C63.5702 43.9696 64.468 46.7833 64.9518 49.6815C65.2293 51.3114 65.3773 52.953 65.5136 54.5947C65.6666 56.4315 65.5253 58.2581 65.2915 60.0814C65.2125 60.6937 65.1099 60.7913 64.5161 60.8989C61.6819 61.4035 59.6382 63.0418 58.1362 65.4236C56.6429 67.7639 55.9494 70.5256 56.1598 73.2937C56.2759 75.447 57.0184 77.5194 58.296 79.2565C59.6904 81.1336 61.5759 82.1429 63.8803 82.3851C64.9333 82.4961 65.9475 82.2421 66.945 81.9326C67.5269 81.7526 68.1022 81.5424 68.6758 81.3338C69.4309 81.0701 70.2362 80.9816 71.0306 81.0748C73.2391 81.2934 74.5191 82.7669 74.8908 84.4388C75.3803 86.644 74.1995 88.8457 71.9759 89.7439C71.5244 89.9337 71.0508 90.0659 70.5664 90.1375C68.4958 90.4033 66.432 90.4487 64.3748 89.9357C62.5284 89.4742 60.8058 88.6129 59.3288 87.4126C57.3564 85.8464 55.779 83.8392 54.7234 81.5525C54.0028 79.9974 53.4779 78.3589 53.1608 76.6746C52.4426 72.8792 52.4998 68.9776 53.329 65.2049C53.6196 63.8919 53.9823 62.5959 54.4156 61.3228C55.0127 59.5244 55.4959 57.6902 55.8621 55.831C56.4393 53.0105 56.6244 50.1238 56.4121 47.2527C56.2103 44.7464 55.7629 42.2873 54.7133 39.9695C53.9795 38.2831 52.9073 36.7654 51.5629 35.5105C49.7698 33.8705 47.6656 33.0043 45.2435 32.9874C42.5001 32.9639 39.9081 33.5711 37.5483 35.0227C37.3918 35.1186 37.2388 35.2195 37.0874 35.3238C36.9296 35.4185 36.7982 35.5513 36.705 35.7099C36.6119 35.8686 36.56 36.0482 36.5542 36.2321C36.5441 36.721 36.539 37.2099 36.539 37.6988C36.539 40.4506 36.539 43.2018 36.539 45.9525V69.9801C36.539 70.4696 36.5609 70.9591 36.539 71.4469C36.5037 72.1197 36.6971 72.6243 37.3077 72.9742C37.8938 73.3124 38.4081 73.7621 38.8215 74.2979C39.096 74.6289 39.2844 75.0226 39.3701 75.444C39.4558 75.8654 39.4361 76.3014 39.3127 76.7133C39.2316 77.0417 39.0815 77.3491 38.8724 77.6151C38.6633 77.881 38.4 78.0994 38.0999 78.2557C36.9225 78.8612 35.7451 78.8595 34.6299 78.0993C34.2845 77.8469 33.9532 77.5756 33.6376 77.2869C31.863 75.7512 29.7689 74.9842 27.4612 74.7638C26.6084 74.6848 25.7556 74.6192 24.9028 74.5485C24.7819 74.532 24.6598 74.5247 24.5378 74.5267C22.4639 74.6494 20.3899 74.752 18.3967 75.4484C16.7721 75.9977 15.261 76.8384 13.9377 77.9294C13.6167 78.2146 13.2798 78.4814 12.9285 78.7283C11.4147 79.7376 9.16243 78.8108 8.84285 76.8462C8.75253 76.3626 8.77995 75.8643 8.92282 75.3935C9.06569 74.9228 9.31981 74.4933 9.66368 74.1415C10.4911 73.2272 11.5809 72.5909 12.7838 72.3198C13.7344 72.0818 14.7104 71.9604 15.6904 71.9582C16.9115 71.9907 18.1332 72.026 19.3555 72.0642C19.4766 72.0642 19.5977 72.086 19.7188 72.0928C19.8103 72.0949 19.9013 72.0783 19.9861 72.0441C20.071 72.0098 20.148 71.9586 20.2124 71.8936C20.2768 71.8285 20.3272 71.7511 20.3606 71.6659C20.3941 71.5807 20.4098 71.4896 20.4068 71.3981C20.4236 70.8498 20.4303 70.298 20.4303 69.748C20.4236 62.3539 20.4196 54.958 20.4185 47.5605ZM34.7326 54.7108V40.0469C34.7326 39.5591 34.7326 39.0696 34.7326 38.5802C34.7326 38.4002 34.6871 38.2202 34.667 38.0402C34.6501 37.8922 34.5694 37.8047 34.423 37.8131C34.3087 37.8131 34.1522 37.8132 34.0866 37.8855C33.6356 38.3811 33.2106 38.8999 32.8134 39.4397C31.5502 41.263 30.6738 43.273 30.0094 45.3839C29.7698 46.1401 29.6483 46.9287 29.6495 47.7219C29.6596 55.235 29.6596 62.748 29.6495 70.2611C29.6495 70.6261 29.6848 70.9911 29.71 71.3544C29.7345 71.4725 29.7972 71.5793 29.8884 71.6584C29.9795 71.7374 30.0942 71.7842 30.2146 71.7917C31.4963 71.785 32.778 71.7749 34.0597 71.7614C34.212 71.7542 34.3569 71.6939 34.4694 71.5909C34.5818 71.488 34.6547 71.349 34.6753 71.198C34.7006 70.6496 34.7208 70.1013 34.7208 69.5512C34.7365 64.6072 34.7404 59.6581 34.7326 54.704V54.7108ZM29.7184 30.6006H29.6983C29.6983 32.9168 29.6983 35.2346 29.6983 37.5508C29.7101 37.8529 29.7404 38.1539 29.7891 38.4523C29.7891 38.4843 29.8648 38.528 29.9068 38.5331C29.966 38.5413 30.026 38.5268 30.075 38.4927C30.2085 38.3714 30.3291 38.2367 30.435 38.0907C31.4576 36.5634 32.6115 35.1522 34.0328 33.9731C34.127 33.8957 34.2162 33.8049 34.3036 33.7275C34.5299 33.5189 34.6702 33.2335 34.6972 32.9269C34.7191 32.6847 34.7241 32.4391 34.7241 32.1952C34.7241 29.3913 34.7241 23.8961 34.7241 21.0939C34.7241 20.85 34.709 20.6061 34.6922 20.3638C34.6737 20.2121 34.6057 20.0706 34.4986 19.9614C34.3916 19.8523 34.2515 19.7815 34.1001 19.76C32.9446 19.7062 31.7873 19.654 30.6301 19.6254C29.8749 19.6053 29.668 19.8273 29.6511 20.5976C29.6511 20.9021 29.6511 21.2065 29.6511 21.511C29.6764 23.6421 29.6982 28.4645 29.7184 30.6006Z" fill="#808080"/>
<path d="M51.4686 51.0758C51.2113 51.4846 50.9371 51.8832 50.6999 52.3037C50.52 52.6199 50.4123 52.9765 50.2256 53.2893C50.0541 53.5383 49.8647 53.7744 49.6588 53.9958C49.679 54.0352 49.7069 54.0702 49.7407 54.0988C49.7745 54.1274 49.8136 54.149 49.8558 54.1624C49.898 54.1759 49.9424 54.1808 49.9865 54.1771C50.0307 54.1733 50.0736 54.1609 50.1129 54.1405C50.6784 53.8973 51.1599 53.4931 51.4972 52.9782C51.9328 52.3171 52.3214 51.6326 52.9303 51.0893C52.9881 51.02 53.0303 50.939 53.0538 50.8519C53.0773 50.7648 53.0817 50.6736 53.0665 50.5847C52.9767 50.0428 52.8342 49.511 52.641 48.9968C52.4275 48.4535 52.0827 47.9716 51.6375 47.5941C51.1922 47.2166 50.6603 46.9554 50.0894 46.8337C49.4941 46.7045 48.8795 46.6919 48.2795 46.7967C46.0929 47.1214 43.696 49.2121 43.0265 51.4156C42.4799 53.2103 42.2646 55.0185 42.5219 56.8435C42.7518 58.6072 43.3526 60.3023 44.2847 61.8172C44.3604 61.9097 44.4481 61.9917 44.5454 62.0611C44.5858 61.9535 44.6783 61.834 44.6598 61.7381C44.4529 60.7138 44.4411 59.6777 44.4176 58.6382C44.4041 58.031 44.3469 57.4238 44.3167 56.8149C44.3167 56.7627 44.3638 56.6719 44.4041 56.6618C44.5118 56.6366 44.6648 56.5962 44.7304 56.6484C45.6438 57.3632 46.5554 58.0697 47.2366 59.0402C48.6176 61.0065 49.0061 63.1628 48.594 65.4924C48.5094 65.9114 48.3918 66.3231 48.2425 66.7237C48.1803 66.8919 48.0003 66.9575 47.7799 66.9154C47.2753 64.7288 46.5016 62.601 46.0559 60.3824C45.9775 59.9336 45.7967 59.5088 45.5277 59.1411C45.4029 59.8536 45.4166 60.5835 45.5681 61.2907C45.7918 62.4295 46.0088 63.5699 46.4781 64.6447C46.6263 64.9795 46.7445 65.3268 46.8313 65.6825C46.8693 65.92 46.8777 66.1612 46.8565 66.4007C46.8548 66.4299 46.8455 66.4581 46.8296 66.4826C46.8137 66.507 46.7916 66.5269 46.7657 66.5403C46.7342 66.5429 46.7025 66.538 46.6733 66.526C46.6441 66.5141 46.6181 66.4953 46.5975 66.4714C46.3839 66.177 46.1702 65.881 45.9718 65.5765C45.2704 64.5034 44.5622 63.432 43.881 62.3454C42.199 59.6676 41.4555 56.756 41.8374 53.5989C41.9952 52.3838 42.3455 51.2017 42.8752 50.0969C43.2662 49.2624 43.8461 48.5305 44.569 47.959C46.0424 46.7816 47.6824 46.0281 49.615 46.1643C51.0649 46.2652 52.1936 46.9481 52.8866 48.2113C53.6098 49.5317 53.884 50.9614 53.4988 52.4584C53.1624 53.7956 52.3214 54.7426 51.038 55.2136C50.0843 55.5635 49.1121 55.5601 48.2509 54.9024C48.071 54.7386 47.9112 54.554 47.7749 54.3524C47.7281 54.2752 47.712 54.1833 47.7297 54.0949C47.7475 54.0064 47.7978 53.9278 47.8708 53.8747C48.414 53.5839 48.8216 53.0917 49.0061 52.5039C49.0982 52.2131 49.2319 51.9372 49.4031 51.6847C49.8774 51.0371 50.5115 50.7512 51.3189 50.9715C51.3963 50.9884 51.4283 51.0422 51.4686 51.0758Z" fill="#808080"/>
<path d="M57.1994 30.389C57.2263 30.2611 57.2179 30.0879 57.2885 30.0105C57.6838 29.5749 58.0976 29.1695 58.508 28.7423C60.1347 27.0605 61.4694 25.1192 62.4574 22.9982C63.8349 20.1169 64.0873 17.0304 63.7828 13.8328C63.1638 10.6521 61.872 7.94576 59.5323 5.99293C58.9632 5.49052 58.2926 5.11648 57.5661 4.89625C55.4703 4.32436 53.361 4.05523 51.2198 4.63216C49.8012 4.99298 48.5223 5.76832 47.5462 6.85918C46.7765 7.6885 46.1101 8.60795 45.5615 9.5975C45.3772 9.88451 45.2797 10.2186 45.2806 10.5596C45.2806 10.5849 45.3781 10.6353 45.4101 10.6202C45.7095 10.4839 45.8911 10.1929 46.0677 9.91203C46.6802 8.96736 47.3742 8.07811 48.1417 7.25445C48.6715 6.66911 49.2518 6.16113 49.9515 5.8651C49.9783 5.85997 50.0059 5.86144 50.032 5.86935C50.0581 5.87726 50.0818 5.89139 50.1012 5.91052C50.1433 5.9492 50.2005 6.02489 50.1937 6.07872C49.8758 8.03659 49.0853 9.61096 47.4588 10.5125C47.4033 10.5428 47.3444 10.5613 47.2906 10.5916C45.9685 11.3115 45.9685 11.3115 44.8987 12.4586C44.5707 12.3527 44.4429 12.0348 44.3033 11.7286C44.1148 11.3532 44.0345 10.9327 44.0712 10.5142C44.3622 8.08369 45.3243 6.14094 47.2805 4.99043C47.5518 4.84023 47.842 4.72708 48.1434 4.65403C48.8549 4.45891 49.5899 4.37313 50.2661 4.02327C52.0137 3.68687 53.7579 3.31346 55.5392 3.68687C56.2591 3.83488 56.9942 3.91731 57.6989 4.13092C59.4835 4.66917 60.8662 5.93405 61.9814 7.5572C63.7683 10.1159 64.6788 13.1844 64.5767 16.3037C64.4993 19.397 63.7542 22.2144 62.2387 24.7845C61.0911 26.791 59.6027 28.5822 57.8402 30.0778C57.7529 30.167 57.648 30.2371 57.5322 30.2837C57.4164 30.3303 57.2922 30.3524 57.1674 30.3486L57.1994 30.389Z" fill="#808080"/>
<path d="M40.6781 64.8833C40.2744 65.2331 40.1852 65.2499 39.9312 65.0178C39.7058 64.8126 39.4855 64.6007 39.2584 64.3955C38.7554 63.9388 38.4034 63.3398 38.2492 62.6781C37.933 61.3729 37.642 60.0592 37.7446 58.6985C37.7592 58.6398 37.7812 58.5833 37.8102 58.5303C37.8607 58.5488 37.9313 58.5521 37.9565 58.5875C38.067 58.7299 38.1618 58.8838 38.2391 59.0466C39.2954 61.679 40.9303 63.9666 42.5804 66.2407C43.1893 67.0817 43.8402 67.8907 44.4559 68.7284C45.7865 70.5612 46.7777 72.6178 47.3826 74.8005C48.026 77.038 48.1463 79.3936 47.7341 81.685C47.3977 83.6395 46.6896 85.4359 45.8402 87.1987C45.8082 87.2676 45.9159 87.4022 45.9579 87.5065C46.0084 87.4796 46.074 87.4628 46.1059 87.4207C46.3459 87.1467 46.5662 86.8561 46.7653 86.5511C46.9806 86.1844 47.1269 85.7774 47.317 85.3955C47.6685 84.684 48.0049 83.9641 48.3918 83.2711C48.8695 82.4167 49.4279 81.6093 50.2302 81.0172C50.4334 80.8896 50.6501 80.7847 50.8762 80.7044C50.9249 80.6842 51.0275 80.6842 51.0444 80.7145C51.1032 80.807 51.1974 80.9415 51.1688 81.0172C50.8184 81.8637 50.5814 82.7528 50.4641 83.6614C50.3848 84.2048 50.2679 84.7421 50.1142 85.2694C49.6886 86.9262 48.7265 88.0969 47.0428 88.5931C47.0147 88.5944 46.9866 88.5894 46.9606 88.5783C46.9347 88.5672 46.9116 88.5504 46.8931 88.5292C46.8815 88.508 46.8754 88.4843 46.8754 88.4602C46.8754 88.4361 46.8815 88.4124 46.8931 88.3912C47.9494 87.4863 48.523 86.2803 49.0074 85.0272C49.1386 84.6908 49.2446 84.3342 49.3607 83.9877C49.4481 83.727 49.4111 83.4108 49.3085 83.4831C49.2157 83.5316 49.1348 83.5999 49.0714 83.6833C48.8073 84.1643 48.5667 84.6538 48.301 85.1382C48.015 85.6781 47.7543 86.2332 47.4314 86.7496C46.4945 88.2516 45.2178 89.3365 43.4887 89.8294C43.4483 89.8411 43.3777 89.7873 43.339 89.7469C43.3003 89.7066 43.2768 89.6376 43.2936 89.6124C43.4566 89.358 43.6341 89.1131 43.8251 88.879C46.0403 86.3324 47.0681 83.3283 47.2817 79.9996C47.5121 76.4674 46.4911 73.2412 44.6863 70.2439C44.2356 69.5171 43.746 68.8153 43.2196 68.1414C42.4475 67.1204 41.5779 66.1717 40.9438 65.0481C40.9001 64.9724 40.7369 64.9623 40.631 64.9203C40.7066 64.3383 40.4241 63.9968 39.8942 63.8202C39.907 63.7006 39.9008 63.5797 39.8757 63.462C39.7032 63.0043 39.4452 62.5836 39.1154 62.2223C39.0936 62.2004 39.0162 62.1904 39.0061 62.2055C38.9758 62.2509 38.9355 62.3182 38.9489 62.3619C39.0806 62.8337 39.3098 63.2726 39.6217 63.6503C39.6907 63.7277 39.8286 63.7445 39.9346 63.79C39.9062 64.0312 39.9658 64.2745 40.1024 64.4753C40.2389 64.6761 40.4433 64.821 40.6781 64.8833V64.8833Z" fill="#808080"/>
<path d="M17.0329 49.8056C15.768 48.6853 14.3231 47.4675 12.9422 46.169C11.2316 44.5593 9.76822 42.6956 8.43606 40.7176C7.42685 39.2256 6.46642 37.7 5.49085 36.1845C3.41523 32.9618 2.37742 29.3606 2.10662 25.4684C1.99406 23.8234 2.0222 22.1718 2.19072 20.5316C2.42603 18.2479 3.21029 16.055 4.47658 14.1399C4.84698 13.5561 5.33753 13.0579 5.91557 12.6786C6.49361 12.2992 7.14585 12.0474 7.82885 11.9399C8.22504 11.8744 8.63028 11.8885 9.02099 11.9812C9.4117 12.0739 9.78006 12.2434 10.1046 12.4798C10.2531 12.5977 10.369 12.7518 10.441 12.9272C10.4747 13.0029 10.4074 13.2266 10.3468 13.2468C9.76822 13.4436 9.18121 13.6135 8.59586 13.785C7.76227 14.0532 7.00186 14.5103 6.37391 15.1206C4.69189 16.6613 3.58007 18.5939 2.99977 20.8798C2.88255 21.3924 2.81496 21.9151 2.79793 22.4407C2.62159 25.6665 3.09284 28.895 4.18391 31.9357C4.57005 33.0399 5.07778 34.0976 5.69773 35.0895C6.87515 36.9398 8.02397 38.8051 9.24007 40.6217C10.693 42.797 12.3856 44.8022 14.2861 46.5996C15.4333 47.6828 16.6511 48.6853 17.6889 49.9031C17.6968 49.9249 17.6996 49.9483 17.697 49.9713C17.6943 49.9944 17.6864 50.0165 17.6737 50.036C17.6535 50.055 17.6292 50.0693 17.6027 50.0777C17.5762 50.0861 17.5482 50.0886 17.5207 50.0848C17.3531 50.0006 17.1903 49.9074 17.0329 49.8056Z" fill="#808080"/>
<path d="M41.0382 67.8232C41.1492 67.8619 41.2905 67.8703 41.3645 67.946C42.3171 68.8961 43.175 69.9366 43.9262 71.0527C45.2968 73.0921 46.0859 75.4663 46.2087 77.9204C46.2895 79.5755 46.2087 81.2205 45.7849 82.8319C45.6457 83.426 45.463 84.009 45.2382 84.5762C44.1628 87.1307 42.3155 89.2849 39.955 90.7374C37.6943 92.1436 35.2453 92.4195 32.7357 91.644C30.6551 91.0066 28.8536 89.8796 27.4878 88.1353C26.7146 87.1814 26.194 86.0483 25.974 84.8403C25.9694 84.7792 25.9604 84.7184 25.9471 84.6586C25.5081 83.3685 25.7923 82.1356 26.2095 80.8959C26.7141 79.4141 27.7351 78.4233 29.153 77.8212C29.2647 77.7665 29.3894 77.7438 29.5132 77.7557C29.6371 77.7675 29.7552 77.8135 29.8544 77.8885C29.6105 78.2619 29.1816 78.3544 28.8301 78.5714C28.0497 79.063 27.4282 79.7698 27.0404 80.6066C26.1775 82.3744 26.2448 84.1389 26.963 85.9269C27.5046 87.2725 28.4297 88.3305 29.555 89.1883C30.712 90.0964 32.0509 90.7446 33.4809 91.089C35.5396 91.5616 37.5059 91.3497 39.3091 90.248C42.367 88.386 44.4191 85.7687 45.181 82.2045C45.5898 80.4131 45.6645 78.5616 45.4013 76.743C45.0969 74.802 44.4661 72.945 43.3392 71.3033C42.6815 70.3479 41.9734 69.4262 41.2854 68.4927C41.1171 68.3142 41.0253 68.077 41.0298 67.8317L41.0382 67.8232Z" fill="#808080"/>
<path d="M10.3775 68.3277C8.34056 68.3277 6.96971 67.7373 5.8108 66.6457C5.14167 66.015 4.60576 65.2566 4.23474 64.4153C3.72942 63.2961 3.57236 62.0507 3.78396 60.841C4.27343 57.8386 5.78558 55.5124 8.26152 53.7765C9.20932 53.101 10.2911 52.637 11.4338 52.4158C11.9132 52.325 12.3841 52.1803 12.8669 52.1248C14.8735 51.8893 16.7456 52.33 18.5017 53.3022C18.5521 53.3308 18.579 53.3964 18.6211 53.4418C18.7287 53.5579 18.7355 53.6622 18.6211 53.7395C18.5977 53.7583 18.5707 53.7719 18.5417 53.7794C18.5127 53.787 18.4824 53.7883 18.4529 53.7833C17.7128 53.5091 16.9794 53.2181 16.236 52.9507C15.9523 52.839 15.6555 52.7639 15.3529 52.7269C12.3572 52.4461 9.66937 53.1105 7.41882 55.2365C5.8024 56.7638 4.85541 58.6006 4.42481 60.7737C3.81424 63.8434 6.10683 67.3135 9.67271 67.6549C10.6551 67.7413 11.64 67.5191 12.4901 67.0191C13.5834 66.3967 14.4227 65.5322 14.8231 64.3043C14.879 64.1303 14.9257 63.9535 14.9627 63.7745C15.0572 63.3863 15.0444 62.9797 14.926 62.5982C14.8075 62.2166 14.5876 61.8744 14.2899 61.608C13.5717 60.9167 12.7626 60.3902 11.7366 60.2994C11.6878 60.2994 11.5885 60.36 11.5902 60.3818C11.6037 60.4895 11.6121 60.6425 11.6811 60.6896C12.0864 60.9571 12.5221 61.1758 12.9173 61.4567C13.4193 61.8115 13.8181 62.2933 14.0729 62.8527C14.2013 63.1318 14.2423 63.4431 14.1906 63.7459C14.1604 63.9141 13.9737 64.0924 13.8122 64.0503C13.1394 63.8737 12.5608 63.571 12.1604 62.9873C11.8863 62.5853 11.6323 62.1698 11.3632 61.7628C11.094 61.3557 10.5507 61.238 10.1857 60.9218C10.1308 60.8514 10.1009 60.7646 10.1009 60.6753C10.1009 60.586 10.1308 60.4993 10.1857 60.4289C10.3321 60.2326 10.5187 60.0698 10.7331 59.9515C10.9474 59.8331 11.1846 59.7619 11.4288 59.7427C11.6711 59.7169 11.9158 59.7214 12.1571 59.7561C12.976 59.8884 13.7381 60.2583 14.3487 60.8199C14.9593 61.3814 15.3915 62.1099 15.5918 62.915C15.6505 63.2143 15.6505 63.5222 15.5918 63.8216C15.3176 65.3455 14.4884 66.5128 13.2167 67.3757C12.2445 68.0552 11.1411 68.3546 10.3775 68.3277Z" fill="#808080"/>
<path d="M65.831 14.5366C65.5753 14.0858 65.6628 13.6485 65.5955 13.2431C65.5282 12.8378 65.4273 12.4274 65.3482 12.0203C64.9399 9.94794 64.0141 8.0125 62.657 6.39395C61.1489 4.56356 59.2065 3.13989 57.0071 2.25281C55.304 1.53477 53.4836 1.13568 51.6364 1.07539C47.4969 0.967745 43.667 2.1317 40.345 5.10215C39.4155 5.94288 38.6122 6.91332 37.9598 7.98345C36.904 9.69003 36.3158 11.6444 36.2543 13.6502C36.2173 14.5568 36.2442 15.4668 36.2273 16.3751C36.2105 16.4971 36.1631 16.6128 36.0894 16.7115C36.0407 16.7922 35.753 16.4878 35.7143 16.3078C35.6529 16.0369 35.6062 15.7629 35.5747 15.487C35.272 11.1894 36.6748 7.69919 39.4552 4.89021C41.2821 3.03933 43.5607 1.69766 46.0655 0.998007C48.3051 0.359014 50.6502 0.175993 52.9618 0.459768C55.4959 0.75578 57.9229 1.65186 60.0414 3.07364C61.2841 3.89995 62.3844 4.92245 63.2995 6.10128C64.6487 7.82796 65.5294 9.87369 65.8562 12.0405C66.0076 12.8665 65.9991 13.7139 65.831 14.5366V14.5366Z" fill="#808080"/>
<path d="M37.1734 83.8265C37.1081 83.8605 37.04 83.8886 36.9698 83.9106C35.7285 84.1579 34.8286 83.7946 34.3341 82.5465C34.1121 81.9847 33.737 81.4851 33.4527 80.9469C33.4208 80.883 33.4982 80.7181 33.5705 80.6559C33.6689 80.5846 33.7856 80.5426 33.9069 80.5348C34.8878 80.4146 35.8764 80.6873 36.657 81.2934C37.6395 82.0397 38.3589 83.0795 38.7107 84.2622C39.0547 85.3209 38.9948 86.4694 38.5425 87.4866C38.4551 87.6817 38.5509 87.9811 38.6603 87.9592C38.7696 87.9374 38.8974 87.9121 39.0118 87.8785C39.0696 87.8578 39.1236 87.8277 39.1716 87.7894C39.4643 87.569 39.767 87.3604 40.0446 87.1165C40.5262 86.7305 40.8784 86.2064 41.0538 85.6145C41.4037 84.381 41.7401 83.1475 42.063 81.9141C42.0882 81.8199 41.9957 81.692 41.952 81.5625C41.4306 82.2017 41.2792 82.9838 41.0235 83.7256C40.8671 84.1848 40.7241 84.6473 40.5677 85.1082C40.554 85.1283 40.5353 85.1446 40.5135 85.1555C40.4918 85.1664 40.4676 85.1715 40.4432 85.1705C40.383 85.1566 40.3298 85.1213 40.2935 85.0712C40.1801 84.9292 40.0919 84.7687 40.0328 84.5969C39.6964 82.9249 40.0816 81.4465 41.2775 80.2068C41.6139 79.8553 41.9621 79.5088 42.317 79.1724C42.4054 79.091 42.5215 79.0465 42.6416 79.0479C42.7156 79.0479 42.8199 79.1892 42.8334 79.2783C42.9242 79.8822 43.0133 80.4877 43.0655 81.0949C43.2126 82.5647 42.9 84.044 42.1707 85.3286C40.9932 87.3823 39.3112 88.7952 36.9413 89.3015C36.8218 89.3152 36.7007 89.3032 36.5863 89.2662C36.5581 89.2565 36.5321 89.2412 36.5098 89.2212C36.4876 89.2013 36.4696 89.1771 36.4568 89.1501C36.4316 89.0997 36.4114 88.9987 36.4383 88.9819C36.6603 88.7834 36.8942 88.5967 37.128 88.41C37.6925 87.9359 38.1025 87.3039 38.3054 86.5951C38.4491 86.189 38.4833 85.7521 38.4046 85.3286C38.0682 83.7121 37.3214 82.348 35.8345 81.5003C35.6148 81.3947 35.3841 81.314 35.1465 81.2597C35.1201 81.2578 35.0936 81.2611 35.0685 81.2695C35.0433 81.2779 35.0202 81.2911 35.0002 81.3085C35.0002 81.4145 34.9851 81.5625 35.0456 81.6214C35.6629 82.2118 36.3004 82.782 36.9177 83.374C37.0254 83.511 37.1116 83.6636 37.1734 83.8265Z" fill="#808080"/>
<path d="M49.1522 38.8924C49.0412 39.2725 48.7165 39.4693 48.444 39.7048C47.2494 40.7521 46.1593 41.9131 45.1893 43.1714C43.8106 44.8882 42.6924 46.7988 41.8707 48.8415C40.5907 52.1198 40.3232 55.4721 41.2769 58.895C41.4115 59.4272 41.6139 59.9399 41.8791 60.4206C42.6192 61.6855 43.3189 62.9773 44.1297 64.1951C45.6956 66.5499 46.9538 69.0426 48.0774 71.6212C48.7071 73.0801 49.1262 74.6211 49.3221 76.198C49.4079 76.854 49.465 77.5301 49.2481 78.1827C49.2481 78.1827 49.1017 78.1827 49.0799 78.1407C48.9779 77.9972 48.909 77.8329 48.878 77.6596C48.8309 75.1618 48.037 72.8709 47.0026 70.6355C46.0726 68.5759 44.9856 66.5909 43.7512 64.698C42.9758 63.5206 42.2761 62.3095 41.5494 61.1085C40.8055 59.8388 40.3694 58.4125 40.2762 56.9438C40.0835 54.6275 40.24 52.2954 40.7404 50.0257C40.81 49.7284 40.9028 49.4371 41.0179 49.1544C41.5144 47.8394 42.1439 46.5786 42.8967 45.3917C44.0312 43.6518 45.3095 42.01 46.7183 40.4836C47.2977 39.8536 47.9657 39.3113 48.7014 38.8739C48.8137 38.8282 48.9322 38.7993 49.0529 38.7881L49.1522 38.8924Z" fill="#808080"/>
<path d="M30.7464 87.6568C30.6808 87.2413 30.2872 87.1202 30.0382 86.873C29.7523 86.5887 29.5992 86.3045 29.8162 85.9109C29.8673 85.8376 29.8883 85.7475 29.8748 85.6592C29.8613 85.571 29.8145 85.4912 29.7439 85.4365C28.9029 84.7015 28.8339 83.7545 29.0711 82.7604C29.0909 82.6096 29.1409 82.4642 29.2181 82.333C29.2952 82.2018 29.398 82.0875 29.5202 81.9968C29.68 82.2794 29.5858 82.5855 29.6144 82.8782C29.6326 83.1207 29.6697 83.3614 29.7254 83.5981C29.8107 83.8924 29.9813 84.1548 30.2158 84.3521C30.4502 84.5494 30.7379 84.6727 31.0424 84.7065C31.5857 84.7536 32.1307 84.7721 32.674 84.8108C32.7055 84.8105 32.7365 84.8183 32.7642 84.8333C32.7918 84.8484 32.8152 84.8703 32.832 84.8969C32.8489 84.9235 32.8587 84.954 32.8604 84.9854C32.8622 85.0169 32.8559 85.0482 32.8422 85.0766C32.7768 85.3046 32.6999 85.5291 32.6117 85.7494C32.5024 86.0219 32.2064 86.2136 32.2535 86.5568C32.1941 86.5448 32.1329 86.5448 32.0735 86.5568C31.9927 86.6056 31.9167 86.6619 31.8464 86.725C31.9002 86.7435 31.981 86.7922 32.0012 86.7737C32.0797 86.6933 32.1517 86.6066 32.2165 86.5147C32.4571 86.5147 32.6972 86.4905 32.933 86.4424C33.3356 86.2965 33.7693 86.2582 34.1912 86.3314C34.9116 86.4818 35.661 86.4048 36.3357 86.111C36.5039 86.0437 36.6873 86.2355 36.6553 86.4222C36.6434 86.6028 36.6071 86.781 36.5477 86.952C35.9505 88.2135 34.9161 88.8998 33.5604 89.0731C31.7337 89.3069 30.1846 88.6206 28.9432 87.3524C27.7658 86.1564 27.3773 84.6241 27.5825 82.9656C27.6891 81.992 28.0563 81.0652 28.6455 80.2828C29.1193 79.6407 29.7972 79.1787 30.5681 78.9725C30.6839 78.9639 30.7999 78.986 30.9045 79.0364C30.9432 79.0499 30.9751 79.1222 30.9852 79.171C30.9953 79.2198 31.0004 79.3257 30.9701 79.3392C30.7127 79.5074 30.452 79.6554 30.1846 79.795C29.7518 80.0238 29.3807 80.3539 29.103 80.7571C27.4866 83.0481 28.1964 86.2052 30.082 87.455C30.1787 87.5276 30.2897 87.579 30.4076 87.606C30.5256 87.6329 30.6479 87.6348 30.7666 87.6114C30.812 87.7157 30.8305 87.8704 30.9095 87.9158C32.277 88.6778 33.5856 88.513 34.8387 87.6349C34.8826 87.5926 34.919 87.5431 34.9464 87.4886C34.8673 87.4348 34.7782 87.3204 34.7109 87.3355C33.4662 87.6854 32.198 87.7123 30.9213 87.6265C30.8622 87.6311 30.8036 87.6413 30.7464 87.6568V87.6568Z" fill="#808080"/>
<path d="M16.089 51.1448C15.7879 51.1768 15.6012 51.2491 15.4465 51.2054C13.8485 50.7697 12.2758 51.0893 10.7267 51.4156C9.65356 51.641 8.67127 52.1826 7.74279 52.7848C7.43666 52.985 7.13054 53.1868 6.82273 53.3836C6.69489 53.466 6.46277 53.3332 6.40054 53.1532C6.1211 52.3379 6.13001 51.4514 6.42577 50.6419C6.50604 50.4113 6.61033 50.1897 6.73694 49.9809C7.34247 48.9717 7.8437 48.4317 9.29361 48.9717C9.46445 49.0347 9.64475 49.0682 9.82682 49.0709C9.91428 49.0709 10.0118 48.9784 10.0859 48.9027C10.1077 48.8825 10.0774 48.7732 10.0404 48.7345C9.83018 48.5175 9.59638 48.3191 9.40126 48.0903C9.37842 48.0407 9.3686 47.9861 9.37272 47.9316C9.37684 47.8772 9.39477 47.8247 9.42481 47.7791C9.67241 47.6054 9.94688 47.4736 10.2372 47.3889C10.5974 47.3209 10.965 47.3 11.3306 47.3267C11.5737 47.3355 11.8119 47.3975 12.0286 47.5083C12.8881 47.9793 13.7106 48.5041 14.3834 49.2425C14.4019 49.266 14.4155 49.293 14.4233 49.3219C14.4311 49.3508 14.433 49.381 14.4288 49.4107C14.4002 49.5419 14.3044 49.5621 14.1597 49.5335C13.7382 49.4551 13.331 49.3134 12.952 49.113C12.5248 48.8792 12.0875 48.6605 11.6501 48.4402C11.4247 48.3291 11.2296 48.4973 11.2431 48.7766C11.27 49.2913 11.2162 49.3804 10.8613 49.4594C10.6813 49.4981 10.4996 49.5234 10.3213 49.5671C9.90588 49.6647 9.48033 49.7353 9.07664 49.8783C8.55185 50.0583 8.06742 50.3223 7.78484 50.8387C7.74279 50.9178 7.78485 51.0523 7.81344 51.1533C7.83035 51.1753 7.8528 51.1925 7.87849 51.2032C7.90418 51.2138 7.93221 51.2175 7.95978 51.2138C8.46438 51.0204 8.98076 50.8135 9.49378 50.6184C9.77184 50.4918 10.0629 50.3959 10.3617 50.3324C12.1312 50.0768 13.894 49.996 15.5911 50.721C15.7374 50.8067 15.867 50.9632 16.089 51.1448Z" fill="#808080"/>
<path d="M69.3102 32.8539C69.2967 32.8068 69.2967 32.7362 69.2681 32.721C67.3843 31.7404 65.3995 31.2829 63.27 31.5756C62.1179 31.71 60.9912 32.0097 59.9245 32.4654C59.3711 32.716 58.7975 32.9212 58.229 33.1382C58.1937 33.1516 58.0961 33.1045 58.0911 33.0743C58.0726 32.9683 58.0373 32.7967 58.0911 32.7597C58.6899 32.3258 59.3795 32.0869 60.0775 31.8565C60.7167 31.653 61.3525 31.441 61.9967 31.2543C62.3503 31.174 62.6903 31.0426 63.006 30.8641C64.0623 30.1913 65.2296 30.2232 66.37 30.494C68.1131 30.8854 69.6726 31.8546 70.7954 33.2441C70.9656 33.4941 71.1078 33.762 71.2193 34.0431C71.2306 34.0697 71.2365 34.0983 71.2365 34.1272C71.2365 34.1561 71.2306 34.1847 71.2193 34.2113C71.2068 34.2404 71.1887 34.2667 71.1661 34.2887C71.1434 34.3107 71.1166 34.328 71.0872 34.3396C71.0577 34.3512 71.0263 34.3568 70.9947 34.3561C70.9631 34.3555 70.9319 34.3486 70.903 34.3358C70.0974 33.9607 69.253 33.9556 68.3951 34.0532C68.0924 34.0868 67.7879 34.1154 67.4885 34.1693C65.8065 34.4687 64.3684 33.9792 63.1287 32.8371C63.1039 32.8174 63.0834 32.7929 63.0685 32.765C63.0535 32.737 63.0445 32.7063 63.042 32.6747C63.0395 32.6432 63.0435 32.6114 63.0538 32.5815C63.0641 32.5515 63.0804 32.524 63.1018 32.5007C63.1649 32.4052 63.2596 32.3349 63.3693 32.3022C64.4037 32.1861 65.4281 32.1626 66.4423 32.5091C67.0256 32.6866 67.6225 32.816 68.2269 32.896C68.5903 32.9666 68.9603 33.0322 69.3102 32.8539Z" fill="#808080"/>
<path d="M10.3444 33.4531C10.5328 33.549 10.7296 33.591 10.849 33.7189C11.6757 34.5901 12.5495 35.4155 13.4662 36.1914C13.7034 36.3985 13.9244 36.6235 14.1273 36.8643C14.5234 37.3004 14.7846 37.842 14.8791 38.4235C15.0272 39.4596 15.2038 40.4958 15.1802 41.5521C15.1802 41.5908 15.118 41.6597 15.086 41.6597C15.0242 41.6511 14.9659 41.6255 14.9178 41.5857C14.8623 41.5531 14.8174 41.5052 14.7883 41.4478C14.3106 40.0769 13.5436 38.8894 12.743 37.7221C12.3443 37.1418 11.9692 36.5447 11.579 35.9543C11.5538 35.919 11.4899 35.9139 11.4461 35.8937C11.4142 36.0132 11.3267 36.1595 11.362 36.247C11.9978 37.8197 12.7076 39.3436 13.6849 40.7144C14.2417 41.4999 14.7496 42.3241 15.3097 43.1029C15.6831 43.6226 16.1221 44.0869 16.5157 44.5898C16.9447 45.1398 17.4913 45.5855 17.8025 46.2415C17.8082 46.2707 17.8077 46.3008 17.801 46.3298C17.7944 46.3587 17.7817 46.386 17.7638 46.4097C17.7481 46.4273 17.7279 46.4403 17.7053 46.4471C17.6828 46.4539 17.6588 46.4544 17.636 46.4484C17.5273 46.3866 17.4272 46.3108 17.3382 46.223C16.2449 45.0725 15.1382 43.9372 14.0684 42.7614C12.6701 41.2367 11.5844 39.4526 10.8725 37.5102C10.4672 36.3983 10.1611 35.2647 10.2267 34.0536C10.2528 33.8511 10.2922 33.6505 10.3444 33.4531V33.4531Z" fill="#808080"/>
<path d="M0.83273 27.8398C0.942061 27.9223 1.0884 27.9727 1.11868 28.0669C1.20441 28.3116 1.25647 28.5668 1.27342 28.8255C1.41471 31.7371 2.41383 34.3257 3.87215 36.7192C5.08328 38.6812 6.43228 40.5547 7.90899 42.3254C8.51452 43.0605 9.11165 43.8006 9.68353 44.5036C9.67008 44.7526 9.60952 44.7761 9.48505 44.655C7.35056 42.5744 5.50371 40.2162 3.77795 37.7419C2.6663 36.1413 1.85996 34.349 1.39957 32.4553C1.36934 32.3308 1.33113 32.2083 1.28519 32.0886C1.27174 32.0567 1.21118 32.0466 1.15568 32.0163C0.998556 32.5881 1.00146 33.192 1.16408 33.7622C1.5644 35.4443 2.1733 37.0018 3.35071 38.2448C3.41074 38.3433 3.45128 38.4524 3.47014 38.5661C3.51051 38.6939 3.17242 38.7057 2.96553 38.593C2.51932 38.365 2.11541 38.0624 1.77129 37.6982C1.20392 37.0783 0.77452 36.345 0.511458 35.5469C0.0662676 34.3055 -0.091315 32.9793 0.050585 31.6681C0.188511 30.563 0.420627 29.4714 0.625834 28.3764C0.676911 28.1912 0.74622 28.0114 0.83273 27.8398Z" fill="#808080"/>
<path d="M65.2746 24.0472C65.1754 24.1161 65.0274 24.1548 64.9853 24.254C63.744 27.1354 61.6701 29.0461 59.322 30.6289C59.2008 30.7113 58.994 30.6289 58.708 30.6172C59.0915 30.2639 59.3707 29.9965 59.66 29.7425C62.3328 27.3977 64.0215 24.3045 64.8945 20.6125C65.2655 18.9981 65.75 17.4119 66.3444 15.8658C66.4918 15.417 66.7287 15.0027 67.0408 14.648C67.0902 14.6124 67.1483 14.5909 67.209 14.5858C67.3351 14.5521 67.4175 14.6295 67.4243 14.8145C67.4466 16.072 67.5347 17.3273 67.6883 18.5755C67.7421 19.0619 67.7337 19.5531 67.6631 20.0372C67.5201 21.2012 67.0088 22.1196 66.1392 22.7604C66.0955 22.7924 66.0198 22.7604 65.9575 22.7604L66.0063 22.8142C66.0164 22.6108 66.0479 22.4089 66.1005 22.2121C66.2199 21.8958 66.4083 21.615 66.526 21.2987C66.8625 20.3938 67.0542 19.462 66.7851 18.483C66.7523 18.3562 66.6868 18.2402 66.595 18.1466C66.5294 18.0861 66.4453 18.1937 66.4083 18.367C66.3124 18.8363 66.1762 19.3005 66.1241 19.7765C66.013 20.8059 65.5942 21.763 65.5942 22.8142L65.643 22.7402C65.5501 22.8162 65.4735 22.9102 65.418 23.0166C65.3625 23.123 65.3292 23.2396 65.32 23.3592C65.2915 23.6048 65.2612 23.8521 65.2326 24.0993L65.2746 24.0472Z" fill="#808080"/>
<path d="M61.1097 18.8465C60.7733 19.1358 60.6269 19.5361 60.4655 19.9011C59.8313 21.3359 59.0408 22.6782 58.5278 24.1836C58.4773 24.3316 58.1914 24.266 58.0703 24.0978C57.8781 23.8522 57.7503 23.5625 57.6983 23.255C57.6463 22.9475 57.6718 22.6319 57.7725 22.3367C57.9012 21.9489 58.0644 21.5734 58.2603 21.2148C58.4502 20.863 58.6756 20.5316 58.9331 20.2258C60.0096 18.9996 60.7833 17.538 61.1921 15.9585C61.2055 15.9013 61.2896 15.8189 61.3233 15.829C61.4158 15.8576 61.5403 15.9013 61.5823 15.9854C61.9032 16.6757 62.1067 17.4148 62.1845 18.172C62.3762 19.7548 62.0987 21.2434 61.2678 22.5537C60.5125 23.7429 59.7354 24.9085 58.9617 26.0859C58.0196 27.513 56.8879 28.8054 55.5977 29.9277C55.4588 30.058 55.3005 30.1658 55.1284 30.2473C55.0133 30.2737 54.8925 30.2538 54.792 30.1918C54.7662 30.172 54.7453 30.1465 54.7309 30.1173C54.7165 30.0882 54.709 30.0561 54.709 30.0236C54.709 29.991 54.7165 29.9589 54.7309 29.9298C54.7453 29.9006 54.7662 29.8751 54.792 29.8554C55.6448 28.9538 56.5346 28.0943 57.352 27.154C58.0012 26.3991 58.6002 25.6023 59.1451 24.7689C60.1946 23.1845 60.8405 21.3746 61.2106 19.4386C61.2375 19.2704 61.1517 19.0635 61.1097 18.8465Z" fill="#808080"/>
<path d="M45.7562 2.56055C45.7159 2.67829 45.7058 2.85322 45.6301 2.89695C45.1608 3.2199 44.6663 3.49407 44.1987 3.82206C43.1407 4.56215 42.3031 5.57136 41.605 6.737C41.2773 7.26241 41.0662 7.85208 40.986 8.46613C40.8868 9.29705 40.7657 10.1246 40.6698 10.9538C40.6025 11.5224 40.4713 12.0842 40.1232 12.4828C39.3419 13.3924 38.68 14.3979 38.1535 15.4751C38.1249 15.534 37.9416 15.5054 37.8322 15.4886C37.8019 15.4773 37.7746 15.4594 37.7521 15.4361C37.7297 15.4128 37.7128 15.3847 37.7027 15.354C37.1477 13.8251 37.2116 11.2835 37.8911 9.8538C38.2812 8.9967 38.7731 8.18968 39.3562 7.45018C39.6926 7.99515 39.2603 8.40221 39.2149 8.86308C39.1627 9.41647 39.0147 9.9564 38.9424 10.5064C38.8818 10.974 38.7742 11.4551 39.0467 11.9731C39.2283 11.1826 39.452 10.4593 39.5143 9.69233C39.599 8.86933 39.8612 8.07452 40.283 7.36273C41.4251 5.31066 42.9237 3.7077 44.9035 2.75903C45.1726 2.62952 45.4955 2.65306 45.7949 2.60596L45.7562 2.56055Z" fill="#808080"/>
<path d="M16.2701 31.0297C16.1927 31.1979 16.1019 31.3039 16.1019 31.4048C16.1019 32.2593 16.0867 33.1171 16.3155 33.9531C16.3204 34.0121 16.3108 34.0714 16.2877 34.1259C16.2645 34.1804 16.2285 34.2285 16.1826 34.2659C16.1265 34.2852 16.0666 34.2906 16.008 34.2815C15.9493 34.2724 15.8938 34.2492 15.8462 34.2138C15.6956 34.0982 15.5726 33.9505 15.4862 33.7815C15.2621 33.3058 15.1292 32.7924 15.0943 32.2677C15.0826 32.0692 15.0943 31.8707 15.0775 31.6739C15.0405 31.1508 15.0254 30.621 14.9446 30.1046C14.8589 29.5529 14.3341 29.3006 14.1171 28.8296C14.0977 28.7708 14.0852 28.7098 14.0801 28.648C14.1747 28.5677 14.2896 28.5152 14.4122 28.4962C14.5348 28.4772 14.6603 28.4925 14.7748 28.5403C15.4704 28.8158 16.119 29.1976 16.6973 29.6723C17.2642 30.1195 17.6747 30.7348 17.8699 31.4299C18.0652 32.125 18.0351 32.8641 17.7839 33.541C17.5668 34.0899 17.4445 34.6718 17.4223 35.2617C17.3886 35.9177 17.281 36.5703 17.2238 37.2263C17.0236 39.5542 17.0892 41.8384 18.2162 43.9393C18.233 43.9729 18.1859 44.0604 18.1506 44.1075C18.1152 44.1545 18.053 44.1731 18.0311 44.1579C17.9227 44.0948 17.8255 44.0141 17.7435 43.9191C16.9126 42.7921 16.5661 41.4633 16.4921 40.0622C16.4017 38.8117 16.448 37.5551 16.63 36.3146C16.7982 35.334 16.7696 34.345 16.7814 33.356C16.7965 32.5503 16.5863 31.8102 16.2701 31.0297Z" fill="#808080"/>
<path d="M44.7134 26.0782C43.6083 25.8932 42.6294 25.365 41.6151 24.9479C41.4545 24.8557 41.3069 24.7426 41.1761 24.6115C41.0584 24.5207 41.0651 24.1658 41.1896 24.117C41.6454 23.9488 42.0928 23.7402 42.5604 23.6124C42.8252 23.5324 43.1039 23.509 43.3783 23.5438C43.6528 23.5785 43.9168 23.6707 44.1533 23.8142C44.4799 23.988 44.7921 24.1877 45.0868 24.4113C45.731 24.9479 46.4324 25.2523 47.2734 25.2052C47.3282 25.2142 47.3799 25.2365 47.4239 25.2703C47.4679 25.304 47.5029 25.3481 47.5257 25.3987C47.5384 25.5198 47.5192 25.6421 47.4702 25.7536C47.4493 25.8125 47.4153 25.8659 47.371 25.91C46.7892 26.5601 45.9758 26.9562 45.1053 27.0134C43.3181 27.1644 41.534 26.6886 40.0592 25.6678C39.0565 25.0201 38.2585 24.1008 37.7582 23.0169C37.7401 22.8954 37.7689 22.7714 37.839 22.6704C37.8894 22.583 38.0189 22.6116 38.1266 22.7243C38.426 23.0405 38.7321 23.3516 39.0147 23.6864C40.1518 25.032 41.6218 25.7468 43.2584 26.1472C43.7396 26.2687 44.2459 26.2447 44.7134 26.0782V26.0782Z" fill="#808080"/>
<path d="M7.64442 57.1884C7.64528 57.3089 7.62942 57.4289 7.59732 57.545C7.5011 57.7693 7.38866 57.9863 7.26092 58.1942C6.39636 59.629 6.29712 61.2017 6.52419 62.7946C6.69239 63.9047 7.18523 64.8803 8.20621 65.4858C8.23286 65.4969 8.26145 65.5026 8.29032 65.5026C8.31919 65.5026 8.34777 65.4969 8.37442 65.4858C8.50393 65.4168 8.49215 65.3176 8.40973 65.183C7.93204 64.4043 7.43417 63.6389 7.12804 62.766C6.85933 62.0155 6.83693 61.1988 7.06412 60.4347C7.10449 60.2984 7.28111 60.2009 7.43922 60.0411C7.47118 60.2984 7.50313 60.4767 7.51322 60.6584C7.53306 61.2135 7.75916 61.7413 8.14735 62.1386C8.77474 62.7626 9.12628 63.533 9.36008 64.3572C9.59388 65.1814 9.96224 65.9484 10.7057 66.4715C10.7797 66.5236 10.7175 66.6699 10.5829 66.7271C10.4213 66.8105 10.2445 66.8603 10.0632 66.8735C9.0193 66.8644 8.00562 66.522 7.17009 65.8962C5.99268 65.0333 5.57217 63.792 5.5032 62.3942C5.48972 61.7828 5.58542 61.174 5.78579 60.5962C6.09644 59.5447 6.5336 58.5348 7.08768 57.5887C7.21046 57.3885 7.3568 57.18 7.64274 57.1817L7.64442 57.1884Z" fill="#808080"/>
<path d="M40.6851 61.9362C40.5825 61.8891 40.4345 61.869 40.3807 61.7882C39.6857 60.7109 39.1742 59.5259 38.8669 58.2812C38.1981 55.6676 38.2387 52.9229 38.9846 50.3303C39.3589 48.916 39.8698 47.5415 40.5102 46.2261C41.0838 45.084 41.6002 43.9167 42.2747 42.8217C43.5294 40.797 45.0576 38.9551 46.8161 37.3484C47.3981 36.8118 47.9935 36.2854 48.7286 35.9607C48.7832 35.9428 48.8422 35.9428 48.8968 35.9607C49.0751 36.0112 49.0953 36.1054 48.9573 36.2231C48.5436 36.5814 48.1365 36.9481 47.7126 37.2929C46.2813 38.4367 45.0201 39.7784 43.9668 41.2776C43.0988 42.5324 42.1922 43.7637 41.5362 45.1463C40.6481 47.015 39.7449 48.8888 39.3698 50.9459C39.1379 52.0801 38.9889 53.2297 38.9241 54.3856C38.8568 56.4175 39.2907 58.3821 40.0409 60.2727C40.1974 60.668 40.4261 61.0347 40.5876 61.4283C40.6346 61.6026 40.6567 61.7827 40.6532 61.9632L40.6851 61.9362Z" fill="#808080"/>
<path d="M7.29302 31.2139C7.19773 31.5304 7.2048 31.8689 7.3132 32.1811C8.34933 35.2878 9.58731 38.2801 11.5183 40.8839C12.1642 41.7535 12.7949 42.6382 13.429 43.5196C13.4506 43.5736 13.4506 43.6338 13.429 43.6878C13.3735 43.856 13.276 43.8678 13.1481 43.7399C13.0086 43.6139 12.8756 43.4808 12.7495 43.3413C11.5282 41.8568 10.4253 40.2787 9.45106 38.6216C8.70424 37.3382 7.97929 36.0514 7.45281 34.6402C7.00162 33.4144 6.64015 32.1574 6.37127 30.8792C6.1913 30.0382 6.23503 29.1972 6.18457 28.3242C6.38473 28.3612 6.51088 28.3478 6.58993 28.4066C6.93643 28.6707 7.24928 28.9953 7.61428 29.2275C8.18785 29.5908 8.47211 30.1644 8.62349 30.8052C8.83581 31.5655 8.88794 32.3617 8.77656 33.1432C8.76647 33.2021 8.69079 33.3114 8.67733 33.2963C8.58145 33.2542 8.45192 33.2155 8.40987 33.1281C8.12057 32.5528 7.85817 31.9607 7.56886 31.3855C7.52681 31.3014 7.36534 31.2879 7.25938 31.2425C7.25367 31.1298 7.24188 31.0175 7.22406 30.9061C7.21397 30.854 7.15677 30.7631 7.145 30.7682C7.11805 30.7749 7.09318 30.7881 7.07259 30.8067C7.05201 30.8254 7.03636 30.8488 7.02703 30.875C7.0177 30.9011 7.015 30.9291 7.01914 30.9566C7.02329 30.984 7.03417 31.01 7.05081 31.0323C7.10127 31.1181 7.2106 31.1551 7.29302 31.2139Z" fill="#808080"/>
<path d="M67.2462 78.2961C66.9098 77.9227 66.8206 77.4315 66.6339 76.9858C66.4712 76.5907 66.2107 76.2435 65.877 75.9766C65.0764 75.3183 64.1698 74.8007 63.1959 74.4459C62.5095 74.1903 61.7837 74.0565 61.0513 74.0507C60.0791 74.0608 59.1052 74.0708 58.1313 74.0675C58.059 74.0675 57.9883 73.9514 57.916 73.8993C57.9597 73.8572 57.9968 73.795 58.0472 73.7782C59.0332 73.4549 60.0706 73.3174 61.1068 73.3728C61.9557 73.4378 62.8093 73.4085 63.6517 73.2853C64.1815 73.1979 64.7433 73.2601 65.2866 73.3038C66.6777 73.4149 67.4581 74.2609 67.8803 75.5208C68.1932 76.4509 68.0098 77.3155 67.5321 78.138C67.4833 78.2086 67.3437 78.2406 67.2462 78.2961ZM66.8829 75.7831C66.9216 75.7344 66.9838 75.6906 66.9872 75.6419C67.0052 75.5291 66.9954 75.4136 66.9586 75.3054C66.776 74.9279 66.4976 74.6049 66.1512 74.3686C65.8125 74.1198 65.3895 74.0147 64.9738 74.0759C64.9449 74.0835 64.9178 74.0967 64.8941 74.1149C64.8704 74.1331 64.8506 74.1559 64.8359 74.1819C64.8295 74.2058 64.8292 74.231 64.8351 74.2551C64.8409 74.2792 64.8528 74.3015 64.8695 74.3198C65.5356 74.8109 66.2101 75.2954 66.8829 75.7831Z" fill="#808080"/>
<path d="M40.8678 38.0236C40.3645 38.7861 39.9444 39.6004 39.6146 40.4524C39.3522 41.0697 39.1218 41.7005 38.8645 42.3178C38.8091 42.4207 38.7294 42.5085 38.6323 42.5735C38.5752 42.6189 38.4456 42.3279 38.4355 42.1361C38.3934 41.0953 38.6254 40.0617 39.1083 39.1388C39.1622 39.0294 39.2177 38.9201 39.2765 38.8141C39.9105 37.7738 40.4828 36.6971 40.9905 35.5897C41.0124 35.5409 41.0931 35.4753 41.1285 35.4854C41.226 35.5123 41.3555 35.551 41.3993 35.6267C42.1814 36.9807 42.3311 38.3903 41.665 39.8318C41.0832 41.1079 40.3417 42.305 39.4582 43.3943C39.4403 43.4046 39.42 43.4101 39.3994 43.4101C39.3787 43.4101 39.3584 43.4046 39.3405 43.3943C39.3035 43.3522 39.2564 43.2849 39.2665 43.2379C39.4647 42.3468 39.7347 41.4732 40.0738 40.6257C40.3598 39.8873 40.6625 39.1556 40.9401 38.4138C40.9821 38.3179 40.9048 38.1834 40.8678 38.0236Z" fill="#808080"/>
<path d="M18.487 55.1609C18.4567 55.1979 18.4282 55.2652 18.3945 55.2669C18.2205 55.3009 18.0422 55.3065 17.8664 55.2837C17.2743 55.139 16.6889 55.0028 16.0817 54.9019C14.9947 54.729 13.8846 54.7667 12.8119 55.0129C12.7446 55.028 12.6992 55.1508 12.6437 55.2231C12.6958 55.2568 12.7446 55.3123 12.7984 55.3174C14.1317 55.4463 15.4661 55.5725 16.8016 55.6958C17.2541 55.7395 17.4021 55.8186 17.3533 55.9784C17.2726 56.2441 17.0539 56.3434 16.8302 56.4376C15.0742 57.1743 15.012 57.1911 13.1735 56.4847C12.4351 56.2004 11.6782 55.9632 10.9297 55.7042C10.8888 55.6911 10.8518 55.6679 10.8222 55.6369C10.7925 55.6058 10.7711 55.5678 10.7599 55.5263C10.7487 55.4848 10.748 55.4412 10.758 55.3994C10.768 55.3576 10.7883 55.319 10.817 55.2871C10.9793 55.1033 11.1578 54.9344 11.3502 54.7825C12.864 53.7732 14.5326 53.6051 16.2617 54.0155C16.9682 54.1837 17.6763 54.404 18.2667 54.8699C18.3513 54.9579 18.4252 55.0556 18.487 55.1609V55.1609Z" fill="#808080"/>
<path d="M42.1547 73.3255C41.8822 73.7796 41.4651 73.7931 41.0429 73.6316C40.7595 73.524 40.5 73.3617 40.2793 73.1539C39.968 72.8653 39.6985 72.5347 39.4786 72.1716C38.905 71.1624 38.6561 70.0321 38.5703 68.8749C38.5742 68.8446 38.5848 68.8155 38.6014 68.7899C38.618 68.7643 38.6401 68.7427 38.6662 68.7268C38.6923 68.7138 38.7211 68.707 38.7503 68.707C38.7795 68.707 38.8083 68.7138 38.8344 68.7268C39.0559 68.8199 39.2672 68.9355 39.4651 69.0717C40.864 70.154 42.006 71.5326 42.809 73.1085C43.1639 73.8116 43.4818 74.5382 43.7661 75.2733C44.3525 76.8142 44.5321 78.4803 44.2875 80.1108C44.2757 80.1915 44.163 80.2588 44.0991 80.3328C44.0588 80.2874 43.9881 80.2437 43.9831 80.1949C43.9578 79.8938 43.9376 79.591 43.9326 79.2883C43.8847 77.3384 43.4008 75.4239 42.5163 73.6854C42.4828 73.6019 42.4276 73.5288 42.3563 73.4738C42.285 73.4188 42.2003 73.3838 42.111 73.3726C42.115 73.2533 42.1003 73.1341 42.0672 73.0194C41.5442 71.9364 40.7876 70.9828 39.852 70.2272C39.8268 70.207 39.7292 70.2272 39.7259 70.239C39.6939 70.3466 39.6266 70.4846 39.6653 70.5653C40.2242 71.6976 41.0859 72.653 42.1547 73.3255V73.3255Z" fill="#808080"/>
<path d="M44.3484 46.1898C44.3618 46.0132 44.3214 45.8063 44.3955 45.66C45.4282 43.6415 47.0245 42.1782 48.9975 41.1185C49.8111 40.6887 50.7362 40.5163 51.65 40.624C51.7055 40.624 51.7913 40.6728 51.8014 40.7148C51.825 40.8124 51.8569 40.9722 51.8014 41.0159C51.2527 41.5029 50.7968 42.0853 50.4558 42.7349C50.0656 43.4313 49.4707 43.9908 48.7519 44.3379C47.9517 44.7774 47.0617 45.0282 46.1498 45.0712L46.1733 45.0999C46.1715 44.9848 46.1921 44.8706 46.2339 44.7634C46.5702 44.3337 46.9866 43.9732 47.4601 43.7021C47.8167 43.4733 48.1901 43.2748 48.5467 43.0461C49.266 42.6047 49.8978 42.0345 50.4104 41.3641C50.4166 41.3418 50.4172 41.3183 50.4122 41.2958C50.4072 41.2732 50.3968 41.2522 50.3818 41.2346C50.3618 41.2134 50.3379 41.1964 50.3113 41.1846C50.2847 41.1728 50.2561 41.1663 50.227 41.1656C49.7591 41.2872 49.315 41.4868 48.9134 41.756C47.5459 42.6676 46.313 43.7223 45.3963 45.1066L45.4299 45.0628C45.2045 45.3471 44.9791 45.633 44.7571 45.9173C44.7114 45.9944 44.6471 46.0587 44.5701 46.1046C44.4931 46.1504 44.4059 46.1762 44.3164 46.1797L44.3484 46.1898Z" fill="#808080"/>
<path d="M61.2264 11.0171C61.1272 11.6024 61.3391 12.1137 61.5275 12.6284C61.7394 13.2071 62.0153 13.7588 62.0321 14.4063C62.0299 14.4393 62.0206 14.4713 62.005 14.5003C61.9893 14.5293 61.9676 14.5546 61.9413 14.5746C61.9157 14.5893 61.8867 14.5971 61.8572 14.5971C61.8277 14.5971 61.7987 14.5893 61.7731 14.5746C61.5225 14.2718 61.2887 13.9539 61.038 13.6494C60.6919 13.2249 60.4602 12.7188 60.3652 12.1793C60.3265 11.9758 60.2475 11.7807 60.2189 11.5738C60.0439 10.4181 59.6561 9.3048 59.0751 8.2905C58.9691 8.11716 58.8774 7.93546 58.801 7.74721C58.7609 7.63083 58.7681 7.50338 58.8211 7.3923C58.8625 7.35168 58.9137 7.32243 58.9697 7.3074C59.0257 7.29237 59.0846 7.29207 59.1407 7.30652C59.7294 7.54873 60.1853 8.00961 60.5957 8.53272C61.8097 10.1002 62.6227 11.9403 62.964 13.8933C63.1306 14.7283 63.1111 15.5898 62.9068 16.4164C62.7167 16.1388 62.7655 15.826 62.7386 15.5434C62.5851 14.1014 62.2024 12.6933 61.6049 11.372C61.5208 11.1785 61.3946 11.0356 61.1894 11.0541C61.197 10.9252 61.197 10.796 61.1894 10.6672C61.1692 10.499 61.0616 10.3981 61.0212 10.4637C60.9915 10.5138 60.972 10.5694 60.964 10.6272C60.9559 10.6849 60.9593 10.7437 60.9741 10.8001C61.0145 10.8909 61.139 10.9447 61.2264 11.0171Z" fill="#808080"/>
<path d="M25.7565 77.1753C25.442 77.3906 25.1342 77.579 24.8499 77.7994C24.2564 78.2298 23.8025 78.8253 23.5447 79.5117C23.5393 79.5408 23.5399 79.5708 23.5466 79.5998C23.5532 79.6287 23.5658 79.656 23.5834 79.6799C23.6052 79.7118 23.6877 79.7438 23.7028 79.7303C24.1121 79.367 24.5169 79.0009 24.9172 78.632C25.5873 78.0079 26.4157 77.5797 27.3124 77.394C27.4116 77.3755 27.5327 77.4596 27.6488 77.505C27.6488 77.505 27.6354 77.6211 27.6017 77.6412C26.6043 78.2485 25.8255 79.1029 25.0366 79.9406C24.37 80.6637 23.4618 81.1178 22.4833 81.2172C22.3654 81.2281 22.2471 81.1997 22.1469 81.1365C22.0628 81.0759 21.9518 80.9044 21.9787 80.8539C22.3992 80.1183 22.8001 79.3721 23.1814 78.6151C23.4669 78.0733 23.8949 77.6196 24.4193 77.3032C24.7188 77.0905 25.0821 76.9866 25.4487 77.0088C25.5345 77.0088 25.6237 77.0996 25.7565 77.1753Z" fill="#808080"/>
<path d="M37.9139 51.2116C37.7455 50.7455 37.7325 50.2374 37.8769 49.7633C38.1093 48.8798 38.4004 48.0127 38.7482 47.168C39.4547 45.4159 40.2646 43.7073 41.1737 42.0513C42.0269 40.5025 43.1107 39.0926 44.388 37.8698C44.4081 37.8513 44.4323 37.8379 44.4587 37.8309C44.4851 37.8238 44.5128 37.8233 44.5394 37.8294C44.5689 37.8395 44.5954 37.8567 44.6166 37.8795C44.6378 37.9024 44.653 37.9302 44.6609 37.9603C44.6687 37.9905 44.6689 38.0221 44.6615 38.0524C44.6541 38.0827 44.6393 38.1107 44.6184 38.1338C44.4805 38.3323 44.3443 38.5341 44.1895 38.7209C42.9062 40.2735 41.8025 41.9663 40.8995 43.7669C40.0736 45.3968 39.2292 47.02 38.6725 48.7693C38.432 49.5144 38.2049 50.2696 37.9139 51.2116Z" fill="#808080"/>
<path d="M61.3604 71.0193C60.8928 71.1119 60.3512 71.2094 59.8213 71.3271C59.4059 71.418 58.9938 71.5374 58.5783 71.6333C58.538 71.6434 58.4639 71.5895 58.432 71.5441C58.4157 71.5196 58.4052 71.4918 58.4011 71.4627C58.3971 71.4336 58.3996 71.4039 58.4084 71.3759C58.4662 71.2734 58.5303 71.1745 58.6002 71.0799C59.4143 69.8201 60.5951 69.815 61.8431 70.2389C62.5344 70.4693 63.1888 70.7838 63.9272 70.8831C63.9675 70.8831 64.0365 70.9588 64.0298 70.9857C64.0187 71.1066 63.9764 71.2225 63.907 71.3221C63.4158 71.8099 62.817 72.1631 62.1324 72.1783C60.8423 72.2186 59.5892 72.4793 58.3243 72.6829C58.173 72.7081 58.0973 72.6206 58.1343 72.4877C58.1427 72.461 58.1565 72.4362 58.1747 72.4148C58.1929 72.3934 58.2152 72.3759 58.2402 72.3633C58.9172 72.0832 59.631 71.9019 60.3596 71.825C61.0879 71.7594 61.8078 71.6181 62.5294 71.5021C62.5849 71.4821 62.633 71.4457 62.6673 71.3978C62.7514 71.3002 62.7027 71.2178 62.5277 71.1909C62.161 71.1169 61.8044 71.0715 61.3604 71.0193Z" fill="#808080"/>
<path d="M65.9561 22.7657C66.0048 23.1021 66.0452 23.4385 66.1091 23.775C66.1117 23.8081 66.1215 23.8402 66.1379 23.8691C66.1543 23.898 66.1769 23.9229 66.2041 23.942C66.2312 23.9611 66.2623 23.974 66.295 23.9797C66.3278 23.9855 66.3613 23.9839 66.3934 23.9751C66.6238 23.9129 66.8475 23.8187 67.0763 23.743C67.1661 23.7173 67.2622 23.7256 67.3462 23.7662C67.4303 23.8069 67.4965 23.877 67.5321 23.9633C67.5944 24.0831 67.6413 24.2103 67.6717 24.3418C67.8248 25.4418 67.3673 26.5099 66.5414 26.9422C66.1562 27.144 65.7508 27.2904 65.3522 27.4468C64.8476 27.6571 64.3245 27.8555 63.8115 28.0658C63.4751 28.2004 63.2547 28.1919 63.3186 28.0658C63.3838 27.8951 63.4821 27.739 63.608 27.6066C63.992 27.2751 64.394 26.9652 64.8123 26.6781C65.2961 26.3642 65.7327 25.9831 66.1091 25.5461C66.1493 25.492 66.1716 25.4268 66.173 25.3594C66.173 25.1996 66.0906 25.1576 65.946 25.2013C65.8298 25.2319 65.7109 25.2511 65.5911 25.2585C65.3993 25.2719 65.2547 25.1122 65.2547 24.87C65.2547 24.5941 65.2681 24.3166 65.2748 24.039L65.2311 24.1013C65.581 23.7329 65.5675 23.2232 65.6415 22.7422L65.5927 22.8162H66.0048L65.9561 22.7657Z" fill="#808080"/>
<path d="M50.8924 77.4265L51.429 77.5023C51.3701 77.9631 50.9816 78.1751 50.7697 78.5115C50.5106 78.9185 50.2247 79.307 49.9656 79.7124C49.7386 80.0656 49.5317 80.4306 49.2928 80.8175C49.234 80.6678 49.1381 80.5501 49.1633 80.4677C49.424 79.5846 49.932 78.8411 50.5089 78.138C50.6956 77.911 50.9547 77.7243 50.9446 77.3828L50.8924 77.4265Z" fill="#808080"/>
<path d="M15.5152 45.6289C16.2283 46.3505 16.9735 47.1057 17.7152 47.8643C17.7522 47.9013 17.7926 47.9905 17.7775 48.0208C17.7669 48.0508 17.749 48.0777 17.7254 48.099C17.7017 48.1204 17.6731 48.1354 17.6421 48.1428C17.6111 48.1501 17.5788 48.1496 17.5481 48.1412C17.5173 48.1328 17.4892 48.1169 17.4663 48.0948C16.6085 47.4792 15.8852 46.697 15.1569 45.9233C15.0476 45.8056 15.0391 45.6592 15.14 45.6155C15.2649 45.5972 15.392 45.6018 15.5152 45.6289V45.6289Z" fill="#808080"/>
<path d="M41.029 67.8319C40.9684 67.8319 40.8927 67.8319 40.8507 67.8067C40.1238 67.2655 39.482 66.6186 38.9466 65.8875C38.9315 65.869 38.9719 65.7882 39.0055 65.763C39.0496 65.732 39.1032 65.7177 39.1569 65.7226C39.2185 65.7259 39.2775 65.7489 39.3251 65.7882C39.8768 66.3483 40.4285 66.9085 40.9651 67.4837C41.034 67.556 41.0172 67.7091 41.0391 67.8201L41.029 67.8319Z" fill="#808080"/>
<path d="M50.9471 77.3809C50.7789 77.2009 50.6107 77.0092 50.8075 76.7686C51.0004 76.5418 51.2089 76.3288 51.4315 76.1312C51.4514 76.1096 51.476 76.0928 51.5034 76.0822C51.5308 76.0717 51.5603 76.0675 51.5896 76.0701C51.6188 76.0727 51.6471 76.082 51.6722 76.0972C51.6973 76.1125 51.7185 76.1333 51.7343 76.1581C51.7562 76.1867 51.7343 76.2741 51.704 76.3078C51.5055 76.5281 51.2835 76.7266 51.1019 76.9587C51.0108 77.1045 50.9395 77.2618 50.8899 77.4263L50.9471 77.3809Z" fill="#808080"/>
<path d="M40.6514 61.9698C40.754 62.0203 40.897 62.0455 40.9541 62.1279C41.193 62.4812 41.4184 62.8462 41.6269 63.2213C41.6707 63.302 41.6118 63.4399 41.6017 63.5577C41.5613 63.5577 41.5008 63.5577 41.4823 63.5291C41.2334 63.1826 40.9777 62.8445 40.7557 62.4761C40.6732 62.3348 40.7069 62.1246 40.6884 61.9463L40.6514 61.9698Z" fill="#808080"/>
<path d="M46.429 36.0321C46.4408 36.0792 46.4795 36.1414 46.4626 36.17C46.1822 36.6382 45.7837 37.0245 45.3071 37.2903C45.2835 37.3037 45.2095 37.2566 45.1809 37.2196C45.1523 37.1826 45.1153 37.1052 45.1321 37.075C45.389 36.5916 45.7915 36.2014 46.2826 35.9598C46.3129 35.9514 46.3802 36.0119 46.429 36.0321Z" fill="#808080"/>
<path d="M7.64483 57.1875C7.59605 56.6829 7.98124 56.4676 8.29746 56.2136C8.31824 56.1909 8.34437 56.1736 8.37349 56.1635C8.40261 56.1534 8.43379 56.1508 8.4642 56.1558C8.49461 56.1608 8.52331 56.1733 8.54765 56.1922C8.57198 56.2112 8.5912 56.2359 8.60358 56.2641C8.62208 56.2944 8.5918 56.3701 8.56153 56.4071C8.30249 56.7199 8.10402 57.1085 7.64483 57.1875Z" fill="#808080"/>
<path d="M47.1078 35.4429C47.0741 35.4042 47.0035 35.3386 47.0102 35.3285C47.1784 35.0947 47.3466 34.8727 47.6746 34.8643C47.7015 34.8687 47.7271 34.8786 47.75 34.8933C47.7728 34.9081 47.7924 34.9274 47.8075 34.95C47.8178 34.9676 47.8233 34.9877 47.8233 35.0081C47.8233 35.0285 47.8178 35.0485 47.8075 35.0661C47.498 35.3789 47.4038 35.4277 47.1078 35.4429Z" fill="#808080"/>
<path d="M44.3311 46.1689C44.3765 46.5053 44.1965 46.7358 43.9812 46.9528C43.9392 46.9965 43.8786 47.084 43.8584 47.0756C43.8291 47.0678 43.8023 47.0528 43.7804 47.0318C43.7586 47.0108 43.7424 46.9846 43.7335 46.9556C43.7246 46.9267 43.7232 46.896 43.7294 46.8663C43.7357 46.8367 43.7494 46.8091 43.7693 46.7863C43.9375 46.5575 43.9728 46.2043 44.3546 46.1908L44.3311 46.1689Z" fill="#808080"/>
<path d="M50.186 38.0898C50.0178 38.5945 49.6208 38.7862 49.1516 38.8939L49.0557 38.7896C49.1543 38.5697 49.3197 38.3864 49.5283 38.2656C49.7368 38.1449 49.9781 38.0928 50.2179 38.1168L50.186 38.0898Z" fill="#808080"/>
<path d="M45.7943 5.08307C45.8575 4.97861 45.9496 4.89464 46.0594 4.84123C46.1692 4.78783 46.2921 4.76724 46.4133 4.78198C46.494 4.79207 46.5663 4.89131 46.642 4.95018C46.5908 4.9835 46.5337 5.0069 46.4738 5.01915C46.235 5.03092 45.9944 5.03092 45.7539 5.03596L45.7943 5.08307Z" fill="#808080"/>
<path d="M37.623 57.4925C37.6112 57.5278 37.5927 57.5783 37.5759 57.6287C37.5313 57.5539 37.5 57.472 37.4834 57.3865C37.4984 57.3061 37.5293 57.2295 37.5742 57.1611C37.5942 57.2113 37.61 57.2631 37.6213 57.3159C37.6262 57.3746 37.6267 57.4337 37.623 57.4925V57.4925Z" fill="#808080"/>
<path d="M42.2843 64.576C42.2732 64.5312 42.2653 64.4857 42.2607 64.4397C42.2607 64.4313 42.3095 64.4212 42.3364 64.4111C42.3489 64.4557 42.3574 64.5013 42.3617 64.5474C42.3617 64.5474 42.3129 64.5659 42.2843 64.576Z" fill="#808080"/>
<path d="M57.1685 30.3887C57.1197 30.4795 57.0894 30.604 57.0137 30.6494C56.9685 30.6667 56.9198 30.6731 56.8716 30.6681C56.8234 30.6632 56.777 30.647 56.7362 30.6208C56.6689 30.572 56.7362 30.461 56.8792 30.4307C56.9855 30.4206 57.0925 30.4206 57.1988 30.4307L57.1685 30.3887Z" fill="#808080"/>
<path d="M50.2186 38.1252C50.2657 38.0344 50.291 37.9049 50.3667 37.8594C50.4133 37.841 50.4635 37.8333 50.5136 37.8368C50.5636 37.8402 50.6123 37.8549 50.656 37.8796C50.7317 37.9267 50.6661 38.0344 50.518 38.0663C50.4067 38.0829 50.2942 38.0908 50.1816 38.0899L50.2186 38.1252Z" fill="#808080"/>
<path d="M46.1633 45.0696C46.1631 45.1114 46.1538 45.1528 46.1361 45.1907C46.1184 45.2287 46.0927 45.2623 46.0607 45.2894C46.0287 45.3164 45.9912 45.3361 45.9509 45.3473C45.9105 45.3584 45.8682 45.3606 45.8269 45.3538C45.741 45.3463 45.6592 45.3138 45.5917 45.2603C45.5241 45.2067 45.4737 45.1346 45.4467 45.0527L45.4131 45.0965H46.1818L46.1633 45.0696Z" fill="#808080"/>
<path d="M32.9817 56.8073C32.911 57.2682 33.2256 57.6029 33.3719 57.9847C33.3744 58.0114 33.3706 58.0383 33.3606 58.0632C33.3507 58.088 33.3349 58.1102 33.3147 58.1277C33.2888 58.1416 33.26 58.1488 33.2306 58.1488C33.2013 58.1488 33.1724 58.1416 33.1465 58.1277C31.4224 56.3179 30.679 54.1514 30.8169 51.6671C30.8321 51.3828 31.2324 51.1843 31.5049 51.3307C31.6167 51.3771 31.7242 51.4334 31.8261 51.4989C32.5163 52.0078 33.0151 52.7342 33.2424 53.561C33.5382 54.5562 33.5182 55.6187 33.1852 56.6021C33.1516 56.7014 33.017 56.7703 32.9346 56.8494C33.0272 56.498 33.0144 56.1271 32.8976 55.783C32.6486 54.979 32.3885 54.1783 32.1171 53.3811C32.0261 53.1596 31.9135 52.9478 31.7807 52.7486C31.7538 52.7015 31.6815 52.683 31.631 52.6511C31.5789 52.7486 31.4796 52.8479 31.4847 52.9437C31.5319 54.3255 31.9911 55.6616 32.8034 56.7804C32.8337 56.8073 32.9228 56.7956 32.9817 56.8073Z" fill="#808080"/>
<path d="M31.7152 59.7305C32.3426 60.1257 33.0204 60.6303 33.4998 61.357C33.4998 61.357 33.4023 61.473 33.3804 61.4629C32.564 61.0864 31.8486 60.5214 31.293 59.8146C31.2695 59.7843 31.293 59.7002 31.3149 59.6598C31.3317 59.6421 31.3521 59.6283 31.3747 59.6193C31.3974 59.6103 31.4217 59.6063 31.4461 59.6077C31.5396 59.6396 31.6298 59.6807 31.7152 59.7305V59.7305Z" fill="#808080"/>
<path d="M53.1755 24.763C52.8391 25.0254 52.5111 25.2928 52.1747 25.5519C52.0721 25.6309 51.8214 25.5249 51.7794 25.4055C51.6817 25.1275 51.6473 24.8311 51.6787 24.5381C51.7101 24.245 51.8066 23.9627 51.961 23.7117C52.1606 23.329 52.449 22.9997 52.8021 22.7513C53.5136 22.2803 54.2301 21.8195 54.9466 21.3569C55.0476 21.293 55.2645 21.4309 55.3184 21.5722C55.5404 22.1559 55.4513 22.7328 55.273 23.3013C55.0643 23.9089 54.7624 24.4803 54.3781 24.9951C53.7681 25.8801 52.9178 26.5722 51.9274 26.99C50.3211 27.6813 48.6777 28.0379 46.9318 27.7301C46.7779 27.6985 46.6321 27.6361 46.5029 27.5468C46.4541 27.5148 46.4709 27.3785 46.4541 27.2726C46.7787 27.2894 47.0983 27.3045 47.4179 27.323C48.5424 27.3746 49.6668 27.216 50.7332 26.8554C51.0403 26.7673 51.3291 26.6249 51.586 26.4349C52.1259 26.001 52.6271 25.5216 53.1301 25.0456C53.1805 24.9985 53.1301 24.8522 53.1301 24.7512C53.3612 24.6676 53.5589 24.5111 53.6935 24.3055C53.7355 24.2474 53.7567 24.1769 53.754 24.1052C53.7513 24.0336 53.7246 23.965 53.6784 23.9102C53.7541 23.848 53.8314 23.7841 53.9105 23.7218C54.0316 23.626 54.035 23.5536 53.9105 23.5435C53.8785 23.5435 53.8214 23.594 53.8062 23.6344C53.7732 23.7279 53.7463 23.8234 53.7255 23.9203C53.5987 24.0119 53.4769 24.1102 53.3605 24.2147C53.2158 24.3526 53.0964 24.5208 53.1755 24.763Z" fill="#808080"/>
</svg>
