<svg width="34" height="19" viewBox="0 0 34 19" fill="none" xmlns="http://www.w3.org/2000/svg">
<path fill-rule="evenodd" clip-rule="evenodd" d="M6.97264 0.27344C0.936488 2.00273 -1.84762 8.8947 1.32144 14.2633C2.45264 16.1796 4.31854 17.7044 6.43509 18.4418C7.80494 18.9192 10.4068 19.0247 11.8111 18.6599C15.3516 17.7403 18.0616 14.9364 18.806 11.4225C19.8616 6.43945 16.8055 1.51128 11.8658 0.231334C10.6107 -0.0938401 8.18175 -0.0729407 6.97264 0.27344ZM23.3315 0.750444C22.0436 1.43137 20.8844 3.25825 20.2365 5.62775C19.7605 7.36918 19.7605 11.5073 20.2365 13.2487C21.1209 16.4833 22.776 18.4282 24.6442 18.4282C26.1235 18.4282 27.2496 17.5012 28.2654 15.4478C29.912 12.1188 29.912 6.75771 28.2654 3.42867C27.5874 2.05836 26.67 1.00109 25.8673 0.66577C25.1483 0.365337 23.9863 0.404063 23.3315 0.750444ZM31.2488 1.8403C30.3955 3.4906 29.9298 8.06701 30.2283 11.8727C30.415 14.2532 30.7893 16.1476 31.2488 17.0362C31.6055 17.7257 32.158 17.6802 32.5375 16.9298C33.9635 14.1109 33.9635 4.76564 32.5375 1.94664C32.158 1.19625 31.6055 1.15076 31.2488 1.8403Z" fill="white"/>
</svg>
