<svg width="223" height="48" viewBox="0 0 223 48" fill="none" xmlns="http://www.w3.org/2000/svg">
<g clip-path="url(#clip0_97_116)">
<path d="M21.3276 35.1748L23.308 35.0758C23.7921 35.0538 24.1552 34.9768 24.3972 34.8448C24.6613 34.6907 24.7933 34.3827 24.7933 33.9206V11.9379H19.0501C18.764 11.9379 18.555 11.9709 18.4229 12.0369C18.3129 12.0809 18.2029 12.224 18.0929 12.466L15.1883 18.7043H14.5941L15.3863 10.9807H37.534L38.3592 18.7043H37.765L34.8274 12.466C34.7174 12.224 34.5964 12.0809 34.4643 12.0369C34.3543 11.9709 34.1673 11.9379 33.9032 11.9379H28.16V33.9206C28.16 34.3827 28.281 34.6797 28.5231 34.8117C28.7651 34.9438 29.1392 35.0318 29.6453 35.0758L31.6257 35.1748V36H21.3276V35.1748ZM39.8068 35.2408L40.9621 35.1748C41.5122 35.1528 41.8533 35.0758 41.9853 34.9438C42.1393 34.8117 42.2163 34.5257 42.2163 34.0856V13.5552L39.8068 12.202V12.0039L45.319 9.89147V23.4903C45.6711 21.95 46.3312 20.8058 47.2994 20.0576C48.2676 19.3095 49.4449 18.9354 50.8312 18.9354C52.4375 18.9354 53.6808 19.4305 54.561 20.4207C55.4631 21.4109 55.9142 23.1053 55.9142 25.5038V34.0856C55.9142 34.5257 55.9803 34.8117 56.1123 34.9438C56.2663 35.0758 56.6294 35.1528 57.2015 35.1748L58.3237 35.2408V36H50.4021V35.2408L51.5573 35.1748C52.1074 35.1528 52.4485 35.0758 52.5805 34.9438C52.7346 34.8117 52.8116 34.5257 52.8116 34.0856V26.0979C52.8116 25.1077 52.7346 24.2715 52.5805 23.5894C52.4265 22.9072 52.1955 22.3681 51.8874 21.972C51.6013 21.5539 51.2382 21.2569 50.7982 21.0808C50.3581 20.9048 49.852 20.8168 49.2798 20.8168C48.7517 20.8168 48.2456 20.9158 47.7615 21.1138C47.2774 21.2899 46.8483 21.5979 46.4742 22.038C46.1222 22.4561 45.8361 23.0062 45.6161 23.6884C45.418 24.3485 45.319 25.1517 45.319 26.0979V34.0856C45.319 34.5257 45.385 34.8117 45.517 34.9438C45.6711 35.0758 46.0341 35.1528 46.6063 35.1748L47.7285 35.2408V36H39.8068V35.2408ZM68.8646 36.3961C67.6763 36.3961 66.5651 36.198 65.5309 35.802C64.5187 35.4059 63.6385 34.8448 62.8903 34.1186C62.1642 33.3704 61.581 32.4572 61.1409 31.379C60.7229 30.3008 60.5138 29.0795 60.5138 27.7152C60.5138 26.395 60.7339 25.1957 61.174 24.1175C61.6361 23.0393 62.2522 22.1151 63.0223 21.3449C63.7925 20.5747 64.6727 19.9806 65.6629 19.5625C66.6751 19.1444 67.7313 18.9354 68.8316 18.9354C69.6017 18.9354 70.3829 19.0564 71.1751 19.2985C71.9892 19.5405 72.7484 19.9256 73.4526 20.4537C74.1567 20.9818 74.7728 21.675 75.3009 22.5331C75.8511 23.3913 76.2471 24.4365 76.4892 25.6688H63.8805V26.2959C63.8805 27.5062 64.0346 28.6064 64.3426 29.5966C64.6727 30.5869 65.1128 31.445 65.6629 32.1712C66.235 32.8753 66.9062 33.4255 67.6763 33.8215C68.4465 34.2176 69.2937 34.4157 70.2179 34.4157C70.746 34.4157 71.2961 34.3607 71.8682 34.2506C72.4403 34.1406 72.9905 33.9316 73.5186 33.6235C74.0467 33.2934 74.5418 32.8423 75.0039 32.2702C75.466 31.6761 75.8511 30.9059 76.1591 29.9597H76.9183C76.4122 32.1822 75.444 33.8105 74.0137 34.8448C72.6054 35.879 70.889 36.3961 68.8646 36.3961ZM68.7326 19.7276C67.5443 19.7276 66.5101 20.1456 65.6299 20.9818C64.7717 21.796 64.2216 23.0393 63.9795 24.7116H72.6604C72.6384 24.0295 72.5504 23.3913 72.3963 22.7972C72.2423 22.1811 72.0002 21.653 71.6702 21.2129C71.3621 20.7508 70.966 20.3877 70.4819 20.1236C69.9978 19.8596 69.4147 19.7276 68.7326 19.7276ZM87.8892 35.2078L89.3746 35.1088C89.8587 35.0648 90.2217 34.9768 90.4638 34.8448C90.7278 34.6907 90.8599 34.3827 90.8599 33.9206V13.0601C90.8599 12.598 90.7278 12.301 90.4638 12.1689C90.2217 12.0149 89.8587 11.9159 89.3746 11.8719L87.8892 11.7729V10.9807H97.1972V11.7729L95.7119 11.8719C95.2058 11.9159 94.8207 12.0149 94.5567 12.1689C94.3146 12.301 94.1936 12.598 94.1936 13.0601V22.2031H107.627V13.0601C107.627 12.598 107.495 12.301 107.231 12.1689C106.989 12.0149 106.626 11.9159 106.142 11.8719L104.657 11.7729V10.9807H113.965V11.7729L112.479 11.8719C111.995 11.9159 111.621 12.0149 111.357 12.1689C111.115 12.301 110.994 12.598 110.994 13.0601V33.9206C110.994 34.3827 111.115 34.6907 111.357 34.8448C111.621 34.9768 111.995 35.0648 112.479 35.1088L113.965 35.2078V36H104.657V35.2078L106.142 35.1088C106.626 35.0648 106.989 34.9768 107.231 34.8448C107.495 34.6907 107.627 34.3827 107.627 33.9206V23.5234H94.1936V33.9206C94.1936 34.3827 94.3146 34.6907 94.5567 34.8448C94.8207 34.9768 95.2058 35.0648 95.7119 35.1088L97.1972 35.2078V36H87.8892V35.2078ZM125.153 36.3961C123.965 36.3961 122.843 36.187 121.787 35.769C120.73 35.3289 119.795 34.7347 118.981 33.9866C118.189 33.2164 117.551 32.3032 117.067 31.247C116.605 30.1688 116.374 29.0025 116.374 27.7483C116.374 26.406 116.627 25.1957 117.133 24.1175C117.639 23.0172 118.299 22.0931 119.113 21.3449C119.949 20.5747 120.895 19.9806 121.952 19.5625C123.03 19.1444 124.13 18.9354 125.252 18.9354C126.441 18.9354 127.563 19.1554 128.619 19.5955C129.675 20.0136 130.6 20.6077 131.392 21.3779C132.206 22.1261 132.844 23.0283 133.306 24.0845C133.79 25.1407 134.032 26.2959 134.032 27.5502C134.032 28.8925 133.779 30.1138 133.273 31.214C132.789 32.2922 132.129 33.2164 131.293 33.9866C130.478 34.7567 129.532 35.3509 128.454 35.769C127.398 36.187 126.298 36.3961 125.153 36.3961ZM125.219 35.4389C125.902 35.4389 126.551 35.2959 127.167 35.0098C127.783 34.7237 128.333 34.2726 128.817 33.6565C129.301 33.0184 129.686 32.2042 129.972 31.214C130.258 30.2238 130.401 29.0355 130.401 27.6492C130.401 26.2409 130.258 25.0417 129.972 24.0515C129.686 23.0613 129.301 22.2581 128.817 21.642C128.333 21.0038 127.783 20.5417 127.167 20.2557C126.551 19.9696 125.902 19.8266 125.219 19.8266C124.515 19.8266 123.844 19.9696 123.206 20.2557C122.59 20.5417 122.04 21.0038 121.556 21.642C121.072 22.2581 120.686 23.0613 120.4 24.0515C120.114 25.0417 119.971 26.2409 119.971 27.6492C119.971 29.0355 120.114 30.2238 120.4 31.214C120.686 32.2042 121.072 33.0184 121.556 33.6565C122.04 34.2726 122.59 34.7237 123.206 35.0098C123.844 35.2959 124.515 35.4389 125.219 35.4389ZM143.675 36.3961C142.861 36.3961 142.135 36.2751 141.496 36.033C140.88 35.813 140.352 35.4389 139.912 34.9108C139.494 34.3827 139.164 33.7005 138.922 32.8643C138.702 32.0282 138.592 31.0049 138.592 29.7947V20.7508L136.215 20.1566V19.4305H141.695V29.2336C141.695 31.214 141.981 32.5893 142.553 33.3594C143.147 34.1296 144.027 34.5147 145.193 34.5147C145.743 34.5147 146.249 34.4267 146.712 34.2506C147.196 34.0526 147.614 33.7445 147.966 33.3264C148.34 32.8863 148.626 32.3362 148.824 31.6761C149.044 30.9939 149.154 30.1688 149.154 29.2006V20.7508L146.811 20.1566V19.4305H152.257V34.5477H154.798V35.2738L149.154 36.2971V31.8411C148.802 33.3594 148.142 34.5037 147.174 35.2738C146.205 36.022 145.039 36.3961 143.675 36.3961ZM162.632 36.3961C161.818 36.3961 161.047 36.3521 160.321 36.2641C159.595 36.176 158.88 36.033 158.176 35.835L157.483 29.9927H158.143L160.618 34.6797C160.86 35.1198 161.168 35.3839 161.543 35.4719C161.917 35.5599 162.412 35.6039 163.028 35.6039C163.446 35.6039 163.886 35.5379 164.348 35.4059C164.81 35.2738 165.228 35.0868 165.602 34.8448C165.998 34.5807 166.318 34.2616 166.56 33.8876C166.824 33.4915 166.956 33.0404 166.956 32.5343C166.956 32.0502 166.868 31.6321 166.692 31.28C166.516 30.9279 166.285 30.6309 165.998 30.3888C165.712 30.1248 165.371 29.9157 164.975 29.7617C164.601 29.5856 164.216 29.4426 163.82 29.3326L161.84 28.8045C160.607 28.4744 159.595 27.8803 158.803 27.0221C158.033 26.1419 157.648 25.0527 157.648 23.7544C157.648 22.9622 157.824 22.2691 158.176 21.675C158.528 21.0588 159.001 20.5527 159.595 20.1566C160.189 19.7606 160.871 19.4635 161.642 19.2655C162.434 19.0454 163.259 18.9354 164.117 18.9354C165.481 18.9354 166.791 19.1774 168.045 19.6615L168.837 24.8436H168.144L165.503 20.5197C165.305 20.1896 165.008 19.9806 164.612 19.8926C164.238 19.8046 163.82 19.7606 163.358 19.7606C162.94 19.7606 162.533 19.8266 162.137 19.9586C161.741 20.0686 161.389 20.2447 161.08 20.4867C160.772 20.7068 160.519 20.9928 160.321 21.3449C160.145 21.675 160.057 22.071 160.057 22.5331C160.057 23.4353 160.299 24.1175 160.783 24.5796C161.267 25.0417 161.851 25.3607 162.533 25.5368L164.546 26.0649C165.228 26.2409 165.877 26.472 166.494 26.758C167.132 27.0441 167.682 27.3962 168.144 27.8143C168.606 28.2103 168.969 28.6945 169.233 29.2666C169.519 29.8387 169.662 30.4988 169.662 31.247C169.662 31.9952 169.486 32.6883 169.134 33.3264C168.782 33.9426 168.287 34.4817 167.649 34.9438C167.033 35.4059 166.296 35.7579 165.437 36C164.579 36.2641 163.644 36.3961 162.632 36.3961ZM180.94 36.3961C179.752 36.3961 178.641 36.198 177.606 35.802C176.594 35.4059 175.714 34.8448 174.966 34.1186C174.24 33.3704 173.657 32.4572 173.216 31.379C172.798 30.3008 172.589 29.0795 172.589 27.7152C172.589 26.395 172.809 25.1957 173.249 24.1175C173.712 23.0393 174.328 22.1151 175.098 21.3449C175.868 20.5747 176.748 19.9806 177.738 19.5625C178.751 19.1444 179.807 18.9354 180.907 18.9354C181.677 18.9354 182.458 19.0564 183.251 19.2985C184.065 19.5405 184.824 19.9256 185.528 20.4537C186.232 20.9818 186.848 21.675 187.376 22.5331C187.927 23.3913 188.323 24.4365 188.565 25.6688H175.956V26.2959C175.956 27.5062 176.11 28.6064 176.418 29.5966C176.748 30.5869 177.188 31.445 177.738 32.1712C178.311 32.8753 178.982 33.4255 179.752 33.8215C180.522 34.2176 181.369 34.4157 182.293 34.4157C182.821 34.4157 183.372 34.3607 183.944 34.2506C184.516 34.1406 185.066 33.9316 185.594 33.6235C186.122 33.2934 186.617 32.8423 187.079 32.2702C187.541 31.6761 187.927 30.9059 188.235 29.9597H188.994C188.488 32.1822 187.519 33.8105 186.089 34.8448C184.681 35.879 182.965 36.3961 180.94 36.3961ZM180.808 19.7276C179.62 19.7276 178.586 20.1456 177.705 20.9818C176.847 21.796 176.297 23.0393 176.055 24.7116H184.736C184.714 24.0295 184.626 23.3913 184.472 22.7972C184.318 22.1811 184.076 21.653 183.746 21.2129C183.438 20.7508 183.042 20.3877 182.557 20.1236C182.073 19.8596 181.49 19.7276 180.808 19.7276Z" fill="white"/>
<path d="M196.236 16.7483L196.84 16.718C196.987 16.7113 197.098 16.6878 197.172 16.6476C197.253 16.6006 197.293 16.5066 197.293 16.3656V9.65902H195.541C195.453 9.65902 195.39 9.66909 195.349 9.68923C195.316 9.70266 195.282 9.74629 195.249 9.82014L194.363 11.7234H194.181L194.423 9.36699H201.18L201.432 11.7234H201.25L200.354 9.82014C200.321 9.74629 200.284 9.70266 200.243 9.68923C200.21 9.66909 200.153 9.65902 200.072 9.65902H198.32V16.3656C198.32 16.5066 198.357 16.5972 198.431 16.6375C198.505 16.6778 198.619 16.7046 198.773 16.718L199.377 16.7483V17H196.236V16.7483ZM201.964 16.7583L202.407 16.7281C202.555 16.7147 202.665 16.6878 202.739 16.6476C202.813 16.6006 202.857 16.5066 202.87 16.3656L203.273 10.0014C203.286 9.86042 203.249 9.76979 203.162 9.72951C203.082 9.68252 202.968 9.65231 202.82 9.63888L202.367 9.60867V9.36699H204.612L206.868 14.1401L209.124 9.36699H211.269V9.60867L210.815 9.63888C210.661 9.65231 210.54 9.68252 210.453 9.72951C210.372 9.76979 210.339 9.86042 210.352 10.0014L210.755 16.3656C210.768 16.5066 210.809 16.6006 210.876 16.6476C210.95 16.6878 211.064 16.7147 211.218 16.7281L211.671 16.7583V17H208.832V16.7583L209.275 16.7281C209.429 16.7147 209.547 16.6878 209.627 16.6476C209.714 16.6006 209.751 16.5066 209.738 16.3656L209.335 9.78993L206.536 15.711H206.475L203.666 9.8L203.263 16.3656C203.249 16.5066 203.283 16.6006 203.364 16.6476C203.444 16.6878 203.558 16.7147 203.706 16.7281L204.169 16.7583V17H201.964V16.7583Z" fill="white"/>
</g>
<defs>
<clipPath id="clip0_97_116">
<rect width="223" height="48" fill="white"/>
</clipPath>
</defs>
</svg>
