<svg width="604" height="604" viewBox="0 0 604 604" fill="none" xmlns="http://www.w3.org/2000/svg">
<path d="M21.578 0H0V21.578H21.578V0Z" fill="#121212"/>
<path d="M53.9451 0H32.3672V21.578H53.9451V0Z" fill="#121212"/>
<path d="M86.283 0H64.7051V21.578H86.283V0Z" fill="#121212"/>
<path d="M21.578 32.3672H0V53.9451H21.578V32.3672Z" fill="#121212"/>
<path d="M53.9451 32.3672H32.3672V53.9451H53.9451V32.3672Z" fill="#121212"/>
<path d="M86.283 32.3672H64.7051V53.9451H86.283V32.3672Z" fill="#121212"/>
<path d="M21.578 64.7051H0V86.283H21.578V64.7051Z" fill="#121212"/>
<path d="M53.9451 64.7051H32.3672V86.283H53.9451V64.7051Z" fill="#121212"/>
<path d="M86.2831 64.7051H64.7052V86.283H86.2831V64.7051Z" fill="#121212"/>
<path d="M21.578 97.0703H0V118.648H21.578V97.0703Z" fill="#121212"/>
<path d="M53.9451 97.0703H32.3672V118.648H53.9451V97.0703Z" fill="#121212"/>
<path d="M86.283 97.0703H64.7051V118.648H86.283V97.0703Z" fill="#121212"/>
<path d="M21.578 129.438H0V151.015H21.578V129.438Z" fill="#121212"/>
<path d="M53.9451 129.438H32.3672V151.015H53.9451V129.438Z" fill="#121212"/>
<path d="M21.578 161.773H0V183.351H21.578V161.773Z" fill="#121212"/>
<path d="M53.9451 161.773H32.3672V183.351H53.9451V161.773Z" fill="#121212"/>
<path d="M86.283 161.773H64.7051V183.351H86.283V161.773Z" fill="#121212"/>
<path d="M21.578 194.141H0V215.719H21.578V194.141Z" fill="#121212"/>
<path d="M86.283 194.141H64.7051V215.719H86.283V194.141Z" fill="#121212"/>
<path d="M21.578 226.51H0V248.088H21.578V226.51Z" fill="#121212"/>
<path d="M53.9451 226.51H32.3672V248.088H53.9451V226.51Z" fill="#121212"/>
<path d="M86.283 226.51H64.7051V248.088H86.283V226.51Z" fill="#121212"/>
<path d="M21.578 258.844H0V280.422H21.578V258.844Z" fill="#121212"/>
<path d="M53.9451 258.844H32.3672V280.422H53.9451V258.844Z" fill="#121212"/>
<path d="M86.283 258.844H64.7051V280.422H86.283V258.844Z" fill="#121212"/>
<path d="M21.578 291.211H0V312.789H21.578V291.211Z" fill="#121212"/>
<path d="M53.9451 291.211H32.3672V312.789H53.9451V291.211Z" fill="#121212"/>
<path d="M86.283 291.211H64.7051V312.789H86.283V291.211Z" fill="#121212"/>
<path d="M53.9451 323.578H32.3672V345.156H53.9451V323.578Z" fill="#121212"/>
<path d="M86.2831 323.578H64.7052V345.156H86.2831V323.578Z" fill="#121212"/>
<path d="M151.014 0H129.437V21.578H151.014V0Z" fill="#121212"/>
<path d="M183.352 0H161.774V21.578H183.352V0Z" fill="#121212"/>
<path d="M118.647 32.3672H97.0693V53.9451H118.647V32.3672Z" fill="#121212"/>
<path d="M151.014 32.3672H129.437V53.9451H151.014V32.3672Z" fill="#121212"/>
<path d="M183.352 32.3672H161.774V53.9451H183.352V32.3672Z" fill="#121212"/>
<path d="M118.647 64.7051H97.0693V86.283H118.647V64.7051Z" fill="#121212"/>
<path d="M151.014 64.7051H129.437V86.283H151.014V64.7051Z" fill="#121212"/>
<path d="M183.352 64.7051H161.774V86.283H183.352V64.7051Z" fill="#121212"/>
<path d="M118.647 97.0703H97.0693V118.648H118.647V97.0703Z" fill="#121212"/>
<path d="M151.014 97.0703H129.437V118.648H151.014V97.0703Z" fill="#121212"/>
<path d="M118.647 129.438H97.0693V151.015H118.647V129.438Z" fill="#121212"/>
<path d="M151.014 129.438H129.437V151.015H151.014V129.438Z" fill="#121212"/>
<path d="M183.352 129.438H161.774V151.015H183.352V129.438Z" fill="#121212"/>
<path d="M118.647 161.773H97.0693V183.351H118.647V161.773Z" fill="#121212"/>
<path d="M151.014 161.773H129.437V183.351H151.014V161.773Z" fill="#121212"/>
<path d="M183.352 161.773H161.774V183.351H183.352V161.773Z" fill="#121212"/>
<path d="M118.647 194.141H97.0693V215.719H118.647V194.141Z" fill="#121212"/>
<path d="M151.014 194.141H129.437V215.719H151.014V194.141Z" fill="#121212"/>
<path d="M183.352 194.141H161.774V215.719H183.352V194.141Z" fill="#121212"/>
<path d="M118.647 226.51H97.0693V248.088H118.647V226.51Z" fill="#121212"/>
<path d="M151.014 226.51H129.437V248.088H151.014V226.51Z" fill="#121212"/>
<path d="M183.352 226.51H161.774V248.088H183.352V226.51Z" fill="#121212"/>
<path d="M118.647 258.844H97.0693V280.422H118.647V258.844Z" fill="#121212"/>
<path d="M151.014 258.844H129.437V280.422H151.014V258.844Z" fill="#121212"/>
<path d="M183.352 258.844H161.774V280.422H183.352V258.844Z" fill="#121212"/>
<path d="M118.647 291.211H97.0693V312.789H118.647V291.211Z" fill="#121212"/>
<path d="M183.352 291.211H161.774V312.789H183.352V291.211Z" fill="#121212"/>
<path d="M118.647 323.578H97.0693V345.156H118.647V323.578Z" fill="#121212"/>
<path d="M151.014 323.578H129.437V345.156H151.014V323.578Z" fill="#121212"/>
<path d="M183.352 323.578H161.774V345.156H183.352V323.578Z" fill="#121212"/>
<path d="M215.72 0H194.142V21.578H215.72V0Z" fill="#121212"/>
<path d="M248.087 0H226.509V21.578H248.087V0Z" fill="#121212"/>
<path d="M280.422 0H258.844V21.578H280.422V0Z" fill="#121212"/>
<path d="M215.72 32.3672H194.142V53.9451H215.72V32.3672Z" fill="#121212"/>
<path d="M248.087 32.3672H226.509V53.9451H248.087V32.3672Z" fill="#121212"/>
<path d="M215.72 64.7051H194.142V86.283H215.72V64.7051Z" fill="#121212"/>
<path d="M248.087 64.7051H226.509V86.283H248.087V64.7051Z" fill="#121212"/>
<path d="M280.422 64.7051H258.844V86.283H280.422V64.7051Z" fill="#121212"/>
<path d="M215.72 97.0703H194.142V118.648H215.72V97.0703Z" fill="#121212"/>
<path d="M248.087 97.0703H226.509V118.648H248.087V97.0703Z" fill="#121212"/>
<path d="M280.422 97.0703H258.844V118.648H280.422V97.0703Z" fill="#121212"/>
<path d="M248.087 129.438H226.509V151.015H248.087V129.438Z" fill="#121212"/>
<path d="M280.422 129.438H258.844V151.015H280.422V129.438Z" fill="#121212"/>
<path d="M215.72 161.773H194.142V183.351H215.72V161.773Z" fill="#121212"/>
<path d="M248.087 161.773H226.509V183.351H248.087V161.773Z" fill="#121212"/>
<path d="M215.72 194.141H194.142V215.719H215.72V194.141Z" fill="#121212"/>
<path d="M248.087 194.141H226.509V215.719H248.087V194.141Z" fill="#121212"/>
<path d="M280.422 194.141H258.844V215.719H280.422V194.141Z" fill="#121212"/>
<path d="M215.72 226.51H194.142V248.088H215.72V226.51Z" fill="#121212"/>
<path d="M248.087 226.51H226.509V248.088H248.087V226.51Z" fill="#121212"/>
<path d="M280.422 226.51H258.844V248.088H280.422V226.51Z" fill="#121212"/>
<path d="M215.72 258.844H194.142V280.422H215.72V258.844Z" fill="#121212"/>
<path d="M248.087 258.844H226.509V280.422H248.087V258.844Z" fill="#121212"/>
<path d="M280.422 258.844H258.844V280.422H280.422V258.844Z" fill="#121212"/>
<path d="M215.72 291.211H194.142V312.789H215.72V291.211Z" fill="#121212"/>
<path d="M248.087 291.211H226.509V312.789H248.087V291.211Z" fill="#121212"/>
<path d="M280.422 291.211H258.844V312.789H280.422V291.211Z" fill="#121212"/>
<path d="M215.72 323.578H194.142V345.156H215.72V323.578Z" fill="#121212"/>
<path d="M280.422 323.578H258.844V345.156H280.422V323.578Z" fill="#121212"/>
<path d="M312.789 0H291.211V21.578H312.789V0Z" fill="#121212"/>
<path d="M345.156 0H323.578V21.578H345.156V0Z" fill="#121212"/>
<path d="M312.789 32.3672H291.211V53.9451H312.789V32.3672Z" fill="#121212"/>
<path d="M345.156 32.3672H323.578V53.9451H345.156V32.3672Z" fill="#121212"/>
<path d="M377.523 32.3672H355.945V53.9451H377.523V32.3672Z" fill="#121212"/>
<path d="M312.789 64.7051H291.211V86.283H312.789V64.7051Z" fill="#121212"/>
<path d="M345.156 64.7051H323.578V86.283H345.156V64.7051Z" fill="#121212"/>
<path d="M377.523 64.7051H355.945V86.283H377.523V64.7051Z" fill="#121212"/>
<path d="M312.789 97.0703H291.211V118.648H312.789V97.0703Z" fill="#121212"/>
<path d="M345.156 97.0703H323.578V118.648H345.156V97.0703Z" fill="#121212"/>
<path d="M377.523 97.0703H355.945V118.648H377.523V97.0703Z" fill="#121212"/>
<path d="M312.789 129.438H291.211V151.015H312.789V129.438Z" fill="#121212"/>
<path d="M345.156 129.438H323.578V151.015H345.156V129.438Z" fill="#121212"/>
<path d="M377.523 129.438H355.945V151.015H377.523V129.438Z" fill="#121212"/>
<path d="M312.789 161.773H291.211V183.351H312.789V161.773Z" fill="#121212"/>
<path d="M345.156 161.773H323.578V183.351H345.156V161.773Z" fill="#121212"/>
<path d="M377.523 161.773H355.945V183.351H377.523V161.773Z" fill="#121212"/>
<path d="M345.156 194.141H323.578V215.719H345.156V194.141Z" fill="#121212"/>
<path d="M377.523 194.141H355.945V215.719H377.523V194.141Z" fill="#121212"/>
<path d="M312.789 226.51H291.211V248.088H312.789V226.51Z" fill="#121212"/>
<path d="M345.156 226.51H323.578V248.088H345.156V226.51Z" fill="#121212"/>
<path d="M377.523 226.51H355.945V248.088H377.523V226.51Z" fill="#121212"/>
<path d="M312.789 258.844H291.211V280.422H312.789V258.844Z" fill="#121212"/>
<path d="M345.156 258.844H323.578V280.422H345.156V258.844Z" fill="#121212"/>
<path d="M312.789 291.211H291.211V312.789H312.789V291.211Z" fill="#121212"/>
<path d="M345.156 291.211H323.578V312.789H345.156V291.211Z" fill="#121212"/>
<path d="M377.523 291.211H355.945V312.789H377.523V291.211Z" fill="#121212"/>
<path d="M312.789 323.578H291.211V345.156H312.789V323.578Z" fill="#121212"/>
<path d="M345.156 323.578H323.578V345.156H345.156V323.578Z" fill="#121212"/>
<path d="M377.523 323.578H355.945V345.156H377.523V323.578Z" fill="#121212"/>
<path d="M409.861 0H388.283V21.578H409.861V0Z" fill="#121212"/>
<path d="M442.225 0H420.647V21.578H442.225V0Z" fill="#121212"/>
<path d="M474.593 0H453.015V21.578H474.593V0Z" fill="#121212"/>
<path d="M409.861 32.3672H388.283V53.9451H409.861V32.3672Z" fill="#121212"/>
<path d="M442.225 32.3672H420.647V53.9451H442.225V32.3672Z" fill="#121212"/>
<path d="M474.593 32.3672H453.015V53.9451H474.593V32.3672Z" fill="#121212"/>
<path d="M442.225 64.7051H420.647V86.283H442.225V64.7051Z" fill="#121212"/>
<path d="M474.593 64.7051H453.015V86.283H474.593V64.7051Z" fill="#121212"/>
<path d="M409.861 97.0703H388.283V118.648H409.861V97.0703Z" fill="#121212"/>
<path d="M442.225 97.0703H420.647V118.648H442.225V97.0703Z" fill="#121212"/>
<path d="M474.593 97.0703H453.015V118.648H474.593V97.0703Z" fill="#121212"/>
<path d="M442.225 129.438H420.647V151.015H442.225V129.438Z" fill="#121212"/>
<path d="M474.593 129.438H453.015V151.015H474.593V129.438Z" fill="#121212"/>
<path d="M409.861 161.773H388.283V183.351H409.861V161.773Z" fill="#121212"/>
<path d="M442.225 161.773H420.647V183.351H442.225V161.773Z" fill="#121212"/>
<path d="M474.593 161.773H453.015V183.351H474.593V161.773Z" fill="#121212"/>
<path d="M409.861 194.141H388.283V215.719H409.861V194.141Z" fill="#121212"/>
<path d="M442.225 194.141H420.647V215.719H442.225V194.141Z" fill="#121212"/>
<path d="M474.593 194.141H453.015V215.719H474.593V194.141Z" fill="#121212"/>
<path d="M409.861 226.51H388.283V248.088H409.861V226.51Z" fill="#121212"/>
<path d="M442.225 226.51H420.647V248.088H442.225V226.51Z" fill="#121212"/>
<path d="M474.593 226.51H453.015V248.088H474.593V226.51Z" fill="#121212"/>
<path d="M409.861 258.844H388.283V280.422H409.861V258.844Z" fill="#121212"/>
<path d="M442.225 258.844H420.647V280.422H442.225V258.844Z" fill="#121212"/>
<path d="M474.593 258.844H453.015V280.422H474.593V258.844Z" fill="#121212"/>
<path d="M409.861 291.211H388.283V312.789H409.861V291.211Z" fill="#121212"/>
<path d="M442.225 291.211H420.647V312.789H442.225V291.211Z" fill="#121212"/>
<path d="M474.593 291.211H453.015V312.789H474.593V291.211Z" fill="#121212"/>
<path d="M409.861 323.578H388.283V345.156H409.861V323.578Z" fill="#121212"/>
<path d="M442.225 323.578H420.647V345.156H442.225V323.578Z" fill="#121212"/>
<path d="M474.593 323.578H453.015V345.156H474.593V323.578Z" fill="#121212"/>
<path d="M506.93 0H485.352V21.578H506.93V0Z" fill="#121212"/>
<path d="M539.298 0H517.72V21.578H539.298V0Z" fill="#121212"/>
<path d="M571.665 0H550.087V21.578H571.665V0Z" fill="#121212"/>
<path d="M539.298 32.3672H517.72V53.9451H539.298V32.3672Z" fill="#121212"/>
<path d="M571.665 32.3672H550.087V53.9451H571.665V32.3672Z" fill="#121212"/>
<path d="M506.93 64.7051H485.352V86.283H506.93V64.7051Z" fill="#121212"/>
<path d="M571.665 64.7051H550.087V86.283H571.665V64.7051Z" fill="#121212"/>
<path d="M506.93 97.0703H485.352V118.648H506.93V97.0703Z" fill="#121212"/>
<path d="M539.298 97.0703H517.72V118.648H539.298V97.0703Z" fill="#121212"/>
<path d="M571.665 97.0703H550.087V118.648H571.665V97.0703Z" fill="#121212"/>
<path d="M506.93 129.438H485.352V151.015H506.93V129.438Z" fill="#121212"/>
<path d="M539.298 129.438H517.72V151.015H539.298V129.438Z" fill="#121212"/>
<path d="M571.665 129.438H550.087V151.015H571.665V129.438Z" fill="#121212"/>
<path d="M506.93 161.773H485.352V183.351H506.93V161.773Z" fill="#121212"/>
<path d="M539.298 161.773H517.72V183.351H539.298V161.773Z" fill="#121212"/>
<path d="M571.665 161.773H550.087V183.351H571.665V161.773Z" fill="#121212"/>
<path d="M506.93 194.141H485.352V215.719H506.93V194.141Z" fill="#121212"/>
<path d="M539.298 194.141H517.72V215.719H539.298V194.141Z" fill="#121212"/>
<path d="M571.665 194.141H550.087V215.719H571.665V194.141Z" fill="#121212"/>
<path d="M506.93 226.51H485.352V248.088H506.93V226.51Z" fill="#121212"/>
<path d="M539.298 226.51H517.72V248.088H539.298V226.51Z" fill="#121212"/>
<path d="M571.665 226.51H550.087V248.088H571.665V226.51Z" fill="#121212"/>
<path d="M539.298 258.844H517.72V280.422H539.298V258.844Z" fill="#121212"/>
<path d="M571.665 258.844H550.087V280.422H571.665V258.844Z" fill="#121212"/>
<path d="M506.93 291.211H485.352V312.789H506.93V291.211Z" fill="#121212"/>
<path d="M539.298 291.211H517.72V312.789H539.298V291.211Z" fill="#121212"/>
<path d="M571.665 291.211H550.087V312.789H571.665V291.211Z" fill="#121212"/>
<path d="M506.93 323.578H485.352V345.156H506.93V323.578Z" fill="#121212"/>
<path d="M571.665 323.578H550.087V345.156H571.665V323.578Z" fill="#121212"/>
<path d="M603.999 0H582.421V21.578H603.999V0Z" fill="#121212"/>
<path d="M603.999 32.3672H582.421V53.9451H603.999V32.3672Z" fill="#121212"/>
<path d="M603.999 64.7051H582.421V86.283H603.999V64.7051Z" fill="#121212"/>
<path d="M603.999 97.0703H582.421V118.648H603.999V97.0703Z" fill="#121212"/>
<path d="M603.999 161.773H582.421V183.351H603.999V161.773Z" fill="#121212"/>
<path d="M603.999 226.51H582.421V248.088H603.999V226.51Z" fill="#121212"/>
<path d="M603.999 258.844H582.421V280.422H603.999V258.844Z" fill="#121212"/>
<path d="M603.999 323.578H582.421V345.156H603.999V323.578Z" fill="#121212"/>
<path d="M21.578 355.945H0V377.523H21.578V355.945Z" fill="#121212"/>
<path d="M86.2831 355.945H64.7052V377.523H86.2831V355.945Z" fill="#121212"/>
<path d="M21.578 388.283H0V409.861H21.578V388.283Z" fill="#121212"/>
<path d="M53.9451 388.283H32.3672V409.861H53.9451V388.283Z" fill="#121212"/>
<path d="M86.283 388.283H64.7051V409.861H86.283V388.283Z" fill="#121212"/>
<path d="M21.578 420.646H0V442.224H21.578V420.646Z" fill="#121212"/>
<path d="M53.9451 420.646H32.3672V442.224H53.9451V420.646Z" fill="#121212"/>
<path d="M86.283 420.646H64.7051V442.224H86.283V420.646Z" fill="#121212"/>
<path d="M21.578 453.014H0V474.592H21.578V453.014Z" fill="#121212"/>
<path d="M86.283 453.014H64.7051V474.592H86.283V453.014Z" fill="#121212"/>
<path d="M21.578 485.352H0V506.93H21.578V485.352Z" fill="#121212"/>
<path d="M53.9451 485.352H32.3672V506.93H53.9451V485.352Z" fill="#121212"/>
<path d="M86.283 485.352H64.7051V506.93H86.283V485.352Z" fill="#121212"/>
<path d="M21.578 517.719H0V539.297H21.578V517.719Z" fill="#121212"/>
<path d="M53.9451 517.719H32.3672V539.297H53.9451V517.719Z" fill="#121212"/>
<path d="M86.283 517.719H64.7051V539.297H86.283V517.719Z" fill="#121212"/>
<path d="M53.9451 550.086H32.3672V571.664H53.9451V550.086Z" fill="#121212"/>
<path d="M86.283 550.086H64.7051V571.664H86.283V550.086Z" fill="#121212"/>
<path d="M21.578 582.422H0V604H21.578V582.422Z" fill="#121212"/>
<path d="M53.9451 582.422H32.3672V604H53.9451V582.422Z" fill="#121212"/>
<path d="M86.283 582.422H64.7051V604H86.283V582.422Z" fill="#121212"/>
<path d="M118.647 355.945H97.0693V377.523H118.647V355.945Z" fill="#121212"/>
<path d="M151.014 355.945H129.437V377.523H151.014V355.945Z" fill="#121212"/>
<path d="M183.352 355.945H161.774V377.523H183.352V355.945Z" fill="#121212"/>
<path d="M118.647 388.283H97.0693V409.861H118.647V388.283Z" fill="#121212"/>
<path d="M151.014 388.283H129.437V409.861H151.014V388.283Z" fill="#121212"/>
<path d="M183.352 388.283H161.774V409.861H183.352V388.283Z" fill="#121212"/>
<path d="M118.647 420.646H97.0693V442.224H118.647V420.646Z" fill="#121212"/>
<path d="M183.352 420.646H161.774V442.224H183.352V420.646Z" fill="#121212"/>
<path d="M151.014 453.014H129.437V474.592H151.014V453.014Z" fill="#121212"/>
<path d="M183.352 453.014H161.774V474.592H183.352V453.014Z" fill="#121212"/>
<path d="M118.647 485.352H97.0693V506.93H118.647V485.352Z" fill="#121212"/>
<path d="M151.014 485.352H129.437V506.93H151.014V485.352Z" fill="#121212"/>
<path d="M183.352 485.352H161.774V506.93H183.352V485.352Z" fill="#121212"/>
<path d="M118.647 517.719H97.0693V539.297H118.647V517.719Z" fill="#121212"/>
<path d="M151.014 517.719H129.437V539.297H151.014V517.719Z" fill="#121212"/>
<path d="M118.647 550.086H97.0693V571.664H118.647V550.086Z" fill="#121212"/>
<path d="M151.014 550.086H129.437V571.664H151.014V550.086Z" fill="#121212"/>
<path d="M183.352 550.086H161.774V571.664H183.352V550.086Z" fill="#121212"/>
<path d="M118.647 582.422H97.0693V604H118.647V582.422Z" fill="#121212"/>
<path d="M151.014 582.422H129.437V604H151.014V582.422Z" fill="#121212"/>
<path d="M215.72 355.945H194.142V377.523H215.72V355.945Z" fill="#121212"/>
<path d="M248.087 355.945H226.509V377.523H248.087V355.945Z" fill="#121212"/>
<path d="M280.422 355.945H258.844V377.523H280.422V355.945Z" fill="#121212"/>
<path d="M215.72 388.283H194.142V409.861H215.72V388.283Z" fill="#121212"/>
<path d="M280.422 388.283H258.844V409.861H280.422V388.283Z" fill="#121212"/>
<path d="M215.72 420.646H194.142V442.224H215.72V420.646Z" fill="#121212"/>
<path d="M248.087 420.646H226.509V442.224H248.087V420.646Z" fill="#121212"/>
<path d="M280.422 420.646H258.844V442.224H280.422V420.646Z" fill="#121212"/>
<path d="M248.087 453.014H226.509V474.592H248.087V453.014Z" fill="#121212"/>
<path d="M280.422 453.014H258.844V474.592H280.422V453.014Z" fill="#121212"/>
<path d="M215.72 485.352H194.142V506.93H215.72V485.352Z" fill="#121212"/>
<path d="M248.087 485.352H226.509V506.93H248.087V485.352Z" fill="#121212"/>
<path d="M215.72 517.719H194.142V539.297H215.72V517.719Z" fill="#121212"/>
<path d="M280.422 517.719H258.844V539.297H280.422V517.719Z" fill="#121212"/>
<path d="M215.72 550.086H194.142V571.664H215.72V550.086Z" fill="#121212"/>
<path d="M248.087 550.086H226.509V571.664H248.087V550.086Z" fill="#121212"/>
<path d="M280.422 550.086H258.844V571.664H280.422V550.086Z" fill="#121212"/>
<path d="M215.72 582.422H194.142V604H215.72V582.422Z" fill="#121212"/>
<path d="M248.087 582.422H226.509V604H248.087V582.422Z" fill="#121212"/>
<path d="M280.422 582.422H258.844V604H280.422V582.422Z" fill="#121212"/>
<path d="M312.789 355.945H291.211V377.523H312.789V355.945Z" fill="#121212"/>
<path d="M345.156 355.945H323.578V377.523H345.156V355.945Z" fill="#121212"/>
<path d="M377.523 355.945H355.945V377.523H377.523V355.945Z" fill="#121212"/>
<path d="M312.789 388.283H291.211V409.861H312.789V388.283Z" fill="#121212"/>
<path d="M345.156 388.283H323.578V409.861H345.156V388.283Z" fill="#121212"/>
<path d="M377.523 388.283H355.945V409.861H377.523V388.283Z" fill="#121212"/>
<path d="M345.156 420.646H323.578V442.224H345.156V420.646Z" fill="#121212"/>
<path d="M377.523 420.646H355.945V442.224H377.523V420.646Z" fill="#121212"/>
<path d="M312.789 453.014H291.211V474.592H312.789V453.014Z" fill="#121212"/>
<path d="M345.156 453.014H323.578V474.592H345.156V453.014Z" fill="#121212"/>
<path d="M377.523 453.014H355.945V474.592H377.523V453.014Z" fill="#121212"/>
<path d="M312.789 485.352H291.211V506.93H312.789V485.352Z" fill="#121212"/>
<path d="M345.156 485.352H323.578V506.93H345.156V485.352Z" fill="#121212"/>
<path d="M312.789 517.719H291.211V539.297H312.789V517.719Z" fill="#121212"/>
<path d="M345.156 517.719H323.578V539.297H345.156V517.719Z" fill="#121212"/>
<path d="M377.523 517.719H355.945V539.297H377.523V517.719Z" fill="#121212"/>
<path d="M312.789 550.086H291.211V571.664H312.789V550.086Z" fill="#121212"/>
<path d="M345.156 550.086H323.578V571.664H345.156V550.086Z" fill="#121212"/>
<path d="M377.523 550.086H355.945V571.664H377.523V550.086Z" fill="#121212"/>
<path d="M345.156 582.422H323.578V604H345.156V582.422Z" fill="#121212"/>
<path d="M377.523 582.422H355.945V604H377.523V582.422Z" fill="#121212"/>
<path d="M442.225 355.945H420.647V377.523H442.225V355.945Z" fill="#121212"/>
<path d="M474.593 355.945H453.015V377.523H474.593V355.945Z" fill="#121212"/>
<path d="M442.225 388.283H420.647V409.861H442.225V388.283Z" fill="#121212"/>
<path d="M474.593 388.283H453.015V409.861H474.593V388.283Z" fill="#121212"/>
<path d="M409.861 420.646H388.283V442.224H409.861V420.646Z" fill="#121212"/>
<path d="M442.225 420.646H420.647V442.224H442.225V420.646Z" fill="#121212"/>
<path d="M474.593 420.646H453.015V442.224H474.593V420.646Z" fill="#121212"/>
<path d="M409.861 453.014H388.283V474.592H409.861V453.014Z" fill="#121212"/>
<path d="M442.225 453.014H420.647V474.592H442.225V453.014Z" fill="#121212"/>
<path d="M474.593 453.014H453.015V474.592H474.593V453.014Z" fill="#121212"/>
<path d="M409.861 485.352H388.283V506.93H409.861V485.352Z" fill="#121212"/>
<path d="M442.225 485.352H420.647V506.93H442.225V485.352Z" fill="#121212"/>
<path d="M474.593 485.352H453.015V506.93H474.593V485.352Z" fill="#121212"/>
<path d="M409.861 517.719H388.283V539.297H409.861V517.719Z" fill="#121212"/>
<path d="M442.225 517.719H420.647V539.297H442.225V517.719Z" fill="#121212"/>
<path d="M474.593 517.719H453.015V539.297H474.593V517.719Z" fill="#121212"/>
<path d="M409.861 550.086H388.283V571.664H409.861V550.086Z" fill="#121212"/>
<path d="M442.225 550.086H420.647V571.664H442.225V550.086Z" fill="#121212"/>
<path d="M474.593 550.086H453.015V571.664H474.593V550.086Z" fill="#121212"/>
<path d="M409.861 582.422H388.283V604H409.861V582.422Z" fill="#121212"/>
<path d="M474.593 582.422H453.015V604H474.593V582.422Z" fill="#121212"/>
<path d="M506.93 355.945H485.352V377.523H506.93V355.945Z" fill="#121212"/>
<path d="M539.298 355.945H517.72V377.523H539.298V355.945Z" fill="#121212"/>
<path d="M571.665 355.945H550.087V377.523H571.665V355.945Z" fill="#121212"/>
<path d="M539.298 388.283H517.72V409.861H539.298V388.283Z" fill="#121212"/>
<path d="M571.665 388.283H550.087V409.861H571.665V388.283Z" fill="#121212"/>
<path d="M506.93 420.646H485.352V442.224H506.93V420.646Z" fill="#121212"/>
<path d="M539.298 420.646H517.72V442.224H539.298V420.646Z" fill="#121212"/>
<path d="M571.665 420.646H550.087V442.224H571.665V420.646Z" fill="#121212"/>
<path d="M506.93 453.014H485.352V474.592H506.93V453.014Z" fill="#121212"/>
<path d="M571.665 453.014H550.087V474.592H571.665V453.014Z" fill="#121212"/>
<path d="M539.298 485.352H517.72V506.93H539.298V485.352Z" fill="#121212"/>
<path d="M571.665 485.352H550.087V506.93H571.665V485.352Z" fill="#121212"/>
<path d="M506.93 517.719H485.352V539.297H506.93V517.719Z" fill="#121212"/>
<path d="M539.298 517.719H517.72V539.297H539.298V517.719Z" fill="#121212"/>
<path d="M571.665 517.719H550.087V539.297H571.665V517.719Z" fill="#121212"/>
<path d="M506.93 550.086H485.352V571.664H506.93V550.086Z" fill="#121212"/>
<path d="M539.298 550.086H517.72V571.664H539.298V550.086Z" fill="#121212"/>
<path d="M571.665 550.086H550.087V571.664H571.665V550.086Z" fill="#121212"/>
<path d="M539.298 582.422H517.72V604H539.298V582.422Z" fill="#121212"/>
<path d="M571.665 582.422H550.087V604H571.665V582.422Z" fill="#121212"/>
<path d="M603.999 355.945H582.421V377.523H603.999V355.945Z" fill="#121212"/>
<path d="M603.999 420.646H582.421V442.224H603.999V420.646Z" fill="#121212"/>
<path d="M603.999 453.014H582.421V474.592H603.999V453.014Z" fill="#121212"/>
<path d="M603.999 485.352H582.421V506.93H603.999V485.352Z" fill="#121212"/>
<path d="M603.999 517.719H582.421V539.297H603.999V517.719Z" fill="#121212"/>
<path d="M603.999 550.086H582.421V571.664H603.999V550.086Z" fill="#121212"/>
<path d="M603.999 582.422H582.421V604H603.999V582.422Z" fill="#121212"/>
</svg>
