<?xml version="1.0" encoding="utf-8"?>
<!-- Generator: Adobe Illustrator 26.0.2, SVG Export Plug-In . SVG Version: 6.00 Build 0)  -->
<svg version="1.1" id="Layer_1" xmlns="http://www.w3.org/2000/svg" xmlns:xlink="http://www.w3.org/1999/xlink" x="0px" y="0px"
	 viewBox="0 0 864 216" style="enable-background:new 0 0 864 216;" xml:space="preserve">
<style type="text/css">
	.st0{fill:#FFFFFF;}
</style>
<path class="st0" d="M14,202.45c2.38-0.65,4.86-1.07,7.11-2.02c1.33-0.56,2.32-1.95,3.46-2.97c-1-0.92-2.01-1.85-3.35-3.09
	c0.08-2.33,5.48-6.34-1.98-8.6c10.44-4.08,20.83-8.34,31.37-12.16c3.93-1.42,6.9-2.71,4.87-7.62c9.51-3.51,18.99-6.63,28.15-10.49
	c12.53-5.28,24.96-10.86,37.13-16.92c2.61-1.3,3.9-5.22,5.79-7.93c-0.3-0.56-0.6-1.13-0.9-1.69c-4.9-0.77-9.78-2.01-14.7-2.22
	c-12.72-0.55-25.51-0.09-38.18-1.11c-10.58-0.85-20.73-3.51-29.37-10.81c-7.95-6.71-9.86-15.03-7.87-24.19
	c2.96-13.59,12.17-23.15,23.6-30.15c9.75-5.96,20.29-10.63,30.49-15.85c0.88-0.45,1.8-0.87,2.76-1.09
	c15.28-3.45,30.52-7.16,45.89-10.14c5.11-0.99,10.59-0.29,15.88,0c2.01,0.11,4.29-0.14,5.33,3.14c0.49,1.55,4.39,2.03,7.46,3.28
	c-1.9,1.58-2.87,2.39-4.25,3.54c1.31,0.79,2.33,1.41,3.68,2.21c-0.28,1.04-0.64,2.37-0.76,2.81c3.48,3.29,6.53,6.17,10.58,9.99
	c-13.29,4.2-25.32,8.3-37.53,11.75c-9.24,2.61-18.97,3.67-28.03,6.73c-10.82,3.65-21.18,8.66-31.7,13.19
	c-1.29,0.56-2.29,1.81-3.42,2.74c0.05,0.48,0.11,0.96,0.16,1.44c3.25,0,6.51,0.18,9.75-0.03c16.5-1.07,32.97-1.09,49.16,2.68
	c11.13,2.6,21.16,7.44,26.98,17.98c8.04,14.56,3.11,33.79-11.22,45.51c-10.96,8.97-23.54,15.24-36.64,19.95
	c-20.92,7.53-42.13,14.4-63.55,20.37c-10.6,2.95-21.93,3.3-32.95,4.71c-1,0.13-2.12-0.62-3.18-0.96C14,203.78,14,203.12,14,202.45z"
	/>
<path class="st0" d="M625.23,66.8c-3.32-2.65-6.03-4.35-8.05-6.65c-0.9-1.03-1.16-4.27-0.44-4.82c6.67-5.03,12.31-11.68,20.86-13.86
	c1.19-0.3,2.49-0.17,4.58-0.29c0.19-0.31,0.95-1.53,1.86-3c0.83,0.63,1.54,1.17,2.05,1.56c3.49-3.18,6.94-6.34,10.73-9.8
	c1.8,4.81,5.36,3.8,9.21,3.05c11.11-2.18,22.2-4.01,33.67-2.18c16.26,2.6,24.72,17.56,16.64,31.74
	c-3.85,6.76-9.98,12.26-15.28,18.15c-1.85,2.06-4.3,3.58-6.61,5.46c0.68,0.5,1.03,0.97,1.43,1.03c13.31,1.8,20.34,11.16,25.78,21.93
	c3.23,6.39,2.04,13.31-0.33,19.87c-3.02,8.38-8.65,15.03-15.47,20.41c-24.83,19.6-52.5,33.62-83.38,41.13
	c-5.32,1.29-10.51,3.15-15.83,4.41c-3.89,0.92-7.57,2.93-12.03,1.08c-1.85-0.77-4.69,0.99-7.12,1.36c-0.75,0.11-1.61-0.55-2.42-0.86
	c0.31-0.65,0.46-1.49,0.95-1.92c4.94-4.34,9.28-9.03,10.59-15.81c0.59-3.04,3.2-6.18-1.09-8.76c-0.45-0.27,0.18-2.72,0.64-4.04
	c1.68-4.86,4.86-9.22,0.45-14.81c-1.33-1.69,1.06-6.51,2.09-9.78c3.29-10.47,6.49-20.98,10.2-31.3
	C614.16,95.55,619.81,81.15,625.23,66.8z M689.19,121.97c-1.81-3.96-5.23-4.98-8.79-4.37c-11.73,2-23.38,4.4-35.09,6.55
	c-6.06,1.11-10.07,4.48-12.31,10.16c-2.82,7.14-6.13,14.01-11.1,19.98c-0.9,1.08-1.18,2.68-1.74,4.04
	c16.59-6.18,32.26-12.93,47.69-20.18C675.93,134.34,684.01,130.22,689.19,121.97z M646.03,87.85c0.32,0.38,0.64,0.76,0.96,1.14
	c7.18-4,14.88-7.33,21.36-12.25c3.79-2.88,5.99-8.13,8.23-12.64c1.27-2.55-0.2-5.13-3.43-5.17c-3.09-0.03-6.25,0.38-9.25,1.11
	c-2.84,0.69-5.52,2.04-7.95,2.98C652.63,71.35,649.33,79.6,646.03,87.85z"/>
<path class="st0" d="M511.19,69.33c-0.63-0.5-1.11-0.96-1.67-1.3c-7.35-4.49-7.44-7.22-0.49-11.58c1.81-1.13,3.24-2.89,5.08-3.95
	c3.97-2.28,8.05-4.38,12.16-6.4c2.57-1.26,5.48-1.92,7.82-3.47c0.88-0.58,0.59-2.92,0.97-5.38c1.92,5.18,5.01,3.65,8.51,2.95
	c13.02-2.61,26.09-5.12,39.24-6.89c4.61-0.62,9.68,0.45,14.27,1.72c11.1,3.07,15.41,15.19,9.62,26.34
	c-5.04,9.69-13.1,16.63-21.69,23.03c-2.51,1.87-5.17,3.53-8.64,5.88c2.56,0.55,4.21,0.91,5.87,1.26
	c10.38,2.19,16.68,8.78,19.09,18.76c0.75,3.11,0.14,6.94-0.96,10.05c-6.1,17.23-18.38,29.01-33.64,38.63
	c-28.86,18.19-59.93,30.64-93.18,37.96c-3.89,0.86-7.67,2.47-11.59,2.89c-4.8,0.51-9.69,0.12-15.48,0.12
	c5.14-3.75,11.23-5.96,12.88-9.97c1.99-4.84,7.91-9.55,4.03-16.18c-0.44-0.76,0.43-2.47,1-3.59c1.42-2.8,3.1-5.47,4.51-8.28
	c0.49-0.97,1.05-2.69,0.59-3.22c-3.8-4.38-0.54-8,1.23-11.57c5.61-11.34,10.55-23.15,17.45-33.67c8.92-13.62,15.08-28.54,22.8-42.7
	C511.11,70.5,511.07,70.12,511.19,69.33z M500.35,163.17c0.33,0.3,0.66,0.59,0.98,0.89c1.8-0.79,3.67-1.44,5.38-2.4
	c13.34-7.43,26.84-14.61,39.89-22.52c7.19-4.36,13.85-9.71,20.24-15.21c1.8-1.55,3.12-5.78,2.25-7.7c-0.87-1.93-4.96-3.87-7.25-3.48
	c-11.72,1.98-23.36,4.51-34.94,7.25c-10.32,2.44-12.62,11.68-15.97,19.9c-1.68,4.12-3.33,8.25-5.17,12.29
	C504.09,155.91,502.17,159.52,500.35,163.17z M524.47,91.94c0.37,0.17,0.74,0.34,1.11,0.51c6.53-3.57,13.13-7,19.56-10.74
	c5.46-3.18,8.37-8.37,10.05-14.27c0.81-2.86-0.14-5.12-3.38-5.27c-2.58-0.12-5.29,0.1-7.78,0.76c-3.31,0.88-6.47,2.34-9.51,3.48
	C531.18,74.9,527.82,83.42,524.47,91.94z"/>
<path class="st0" d="M756.94,89.16c8.24-0.37,15.66-0.8,23.09-1c14.18-0.39,28.28,0.27,41.93,4.66
	c33.85,10.87,29.77,45.56,12.36,59.88c-7.86,6.47-16.89,11.81-26.03,16.39c-25.86,12.93-53.55,20.75-81.65,27.03
	c-8.7,1.94-17.73,2.46-26.63,3.46c-1.15,0.13-2.42-0.75-4.65-1.52c4.85-2.13,8.32-3.65,12.75-5.59c-2.27-1.69-3.4-2.54-4.84-3.61
	c0.95-2.92,4.74-7.27-2.81-8.18c11.21-4.33,22.34-8.91,33.68-12.87c4.31-1.5,5.69-3.47,3.92-7.77c8.33-3.14,16.65-5.97,24.72-9.38
	c13.28-5.61,26.53-11.31,39.48-17.63c2.74-1.34,4.11-5.49,6.38-8.71c-12.11-4.38-23.37-3.28-34.49-3.08
	c-12.57,0.23-25.04-0.9-36.91-4.71c-12.2-3.93-25.57-19.85-18.61-35.97c5.1-11.82,13.26-20.52,24.2-26.72
	c8.52-4.83,17.35-9.11,26.11-13.52c2.48-1.25,5.09-2.42,7.78-3.03c14.78-3.36,29.54-6.87,44.44-9.61
	c5.23-0.96,10.96-0.49,16.23,0.53c2.4,0.46,4.23,3.85,6.36,5.96c-1.93,2.09-7.28,0.66-5.45,5.49c1.71,4.52,4.79,5.22,11.11,3.01
	c0.21,0.56,0.77,1.43,0.59,1.64c-2.58,2.9-3.24,6.41-4.05,10.08c-1.19,5.37-6.7,5.4-10.66,6.49c-9.76,2.68-19.88,4.09-29.59,6.93
	c-11.58,3.39-23.04,7.36-34.24,11.85C766.45,81.64,760.41,82.76,756.94,89.16z"/>
<path class="st0" d="M390,115.54c2.91,5.13,5.91,10,8.5,15.09c4.85,9.54,9.91,19.01,13.95,28.89c1.99,4.88,1.94,10.6,2.72,15.96
	c0.37,2.54,0.53,5.11,0.8,7.84c-0.36,0.27-1.29,0.71-1.82,1.43c-1.98,2.72-3.73,2.69-6.4,0.55c-9.33-7.45-18.26-15.02-24.64-25.5
	c-3.45-5.67-9.51-9.7-13.77-14.97c-4.39-5.41-8.03-11.43-12.7-18.21c-4.2,0.52-10.25,1.11-16.21,2.16c-1.2,0.21-2.43,2.04-3.07,3.39
	c-7.23,15.26-14.21,30.63-21.61,45.8c-1.51,3.09-4.7,5.32-6.71,8.23c-2.08,3.01-3.67,6.35-6.05,10.59c-0.63-1.71-1.1-3.17-1.7-4.58
	c-2.82-6.67,0.74-12.94,1.08-19.41c0.05-0.96-0.67-2.75-1.25-2.84c-4.96-0.77-3.58-3.93-3.02-7.01c2.4-13.21,7.47-25.84,8-39.51
	c0.15-3.88,3.27-7.63,4.98-11.46c0.9-2,1.8-4.02,2.51-6.09c3.94-11.57,8-23.1,11.6-34.78c0.86-2.8,0.13-6.09,0.13-9.87
	c0.47-0.51,3.12-2.74,2.83-3.22c-1.26-2.11-3.42-5.25-5.16-5.2c-4.43,0.13-2.34-4.26-4.61-5.22c1.13-1.9,1.82-4.82,3.46-5.52
	c5.8-2.46,11.39-5.97,18.37-4.49c1.86,0.39,4.8-1.01,6.21-2.54c1.92-2.09,4.11,2.38,6.19-1.24c1.38-2.41,5.66-3.27,8.76-4.54
	c0.87-0.36,3.02,0.08,3.12,0.5c1.04,4.37,4.41,3.13,7.22,3.2c11.79,0.3,23.68-0.23,35.34,1.14c6.86,0.81,13.81,3.85,19.94,7.27
	c12.06,6.71,16.4,22.16,11.17,35.31c-5.44,13.69-16.44,21.84-28.5,28.87C403.64,109.06,397.23,111.9,390,115.54z M351.65,97.75
	c11.76-5.43,22.86-10.24,33.64-15.66c5.12-2.57,9.75-6.19,14.36-9.64c1.07-0.8,1.17-2.88,1.71-4.37c-1.32-0.47-2.63-1.29-3.98-1.35
	c-9.54-0.43-19.08-0.91-28.63-0.9c-2.35,0-6.14,1.16-6.79,2.79C358.16,78.07,355.08,87.82,351.65,97.75z"/>
<path class="st0" d="M219.83,83.27c28.68-16.95,55.58-36.32,88.15-48.6c-2.43,1.91-3.78,2.83-4.94,3.94
	c-1.12,1.07-2.04,2.34-3.04,3.52c1.41,0.82,2.82,1.64,4.54,2.63c0.64,5.26,0.64,5.26,6.42,5.05c-8.05,6.33-15.99,12.81-24.19,18.94
	c-4.41,3.29-4.95,4.15-2.17,9.49c-10.75,7.26-21.58,14.57-32.2,21.75c9.34,13.37,16.36,27.9,22.49,42.93
	c1.43,3.52,3.55,6.75,5,10.26c1.89,4.56,4.59,9.08,2.3,14.35c-0.19,0.43-0.23,1-0.14,1.47c1.4,7.59,2.82,15.17,4.28,22.94
	c-1.08-0.81-2.26-1.68-3.89-2.9c-0.21,2.03-0.37,3.58-0.65,6.25c-8.09-7.23-15.67-13.83-23.01-20.68c-1.74-1.63-2.59-4.18-4.01-6.19
	c-5.35-7.55-10.44-15.3-16.23-22.49c-6.75-8.37-14.35-16.09-18.1-27.29c-7.09,4.06-15.76,3.36-19.63,13.32
	c-5.01,12.9-12.38,24.89-18.73,37.27c-0.38,0.74-0.58,1.91-1.16,2.15c-5.82,2.38-7.65,7.52-8.69,13.31
	c-2.98-1.23-5.08-1.86-3.84-5.48c0.5-1.47-1.04-3.63-1.65-5.47c0.54-6.09,1.12-12.5,1.73-19.35c-1.54,0.41-2.42,0.64-3.46,0.91
	c0.04-0.75-0.04-1.42,0.12-2.02c2.13-8.16,4.53-16.27,6.37-24.5c0.94-4.22,0.49-8.75,1.42-12.97c1.53-6.95,3.64-13.77,5.56-20.63
	c2.5-8.88,4.94-17.78,7.62-26.61c3.21-10.57,8.32-20.21,15.46-28.65c1.06-1.25,3.62-2.26,5.14-1.9c5.09,1.18,8.67-0.43,12.01-4.18
	c1.28-1.44,3.88-1.63,5.62-2.78c1.49-0.99,2.6-2.54,5.03-3.55c-0.33,3.15-0.19,6.45-1.09,9.44c-2.07,6.88,0.25,13.81-0.64,20.57
	c-0.8,6.14-2.98,12.11-4.75,18.1C222.12,78.24,220.87,80.72,219.83,83.27z"/>
<path class="st0" d="M444.42,187.32c-5.82-0.46-8.21,2.25-9.76,11.84c-1.58-2.78-2.49-6.74-4.89-8.09
	c-4.87-2.74-3.73-6.68-3.75-10.55c-0.03-5.69,0.1-11.38,0.17-17.07c0.01-0.83,0.45-2,0.05-2.42c-4.54-4.84-1.78-9.98-0.66-14.96
	c4.4-19.65,7.69-39.63,16.39-58.07c3.81-8.07,3.9-8.28,12.86-6.18c5.45,1.28,10.75,3.28,16.04,5.15c3.17,1.12,4.95,3.35,3.96,6.93
	c-2.64,9.54-5.16,19.12-8.03,28.59c-3.23,10.7-6.79,21.3-10.21,31.93c-0.51,1.58-1,3.17-1.58,4.72
	C451.54,168.45,448.03,177.74,444.42,187.32z"/>
<path class="st0" d="M480.66,9.44c4.59,13.02,2.68,25.63-0.04,38.26c-0.36,1.69,0.26,3.59,0.43,5.4c1.46-1.06,3.05-1.98,4.34-3.2
	c7.03-6.66,15.44-10.59,25.85-13.66c-6.76,7.57-12.63,14.1-18.46,20.67c-2.98,3.36-6.19,6.56-8.72,10.23
	c-3.3,4.77-7.25,6.53-13.42,4.05c-0.14-2.78-0.11-6.05-0.56-9.25c-0.2-1.4-1.19-3.51-2.19-3.75c-1.13-0.27-2.98,0.94-3.95,2.01
	c-1.06,1.17-1.25,3.09-2.2,4.39c-0.98,1.34-2.91,3.53-3.6,3.26c-2.4-0.95-5.91-2.46-6.36-4.37c-2.18-9.31-3.53-18.81-5.11-28.26
	c-0.21-1.23-0.03-2.52,1.17-4.44c4.4,5.02,8.79,10.04,13.54,15.46C465.32,32.53,472.55,20.8,480.66,9.44z"/>
</svg>
