<svg width="54" height="54" viewBox="0 0 54 54" fill="none" xmlns="http://www.w3.org/2000/svg">
<g clip-path="url(#clip0_10_13525)">
<path d="M31.6302 26.8704L53.6902 0.410416C53.7331 0.364187 53.7569 0.303467 53.7569 0.240417C53.7569 0.177368 53.7331 0.116648 53.6902 0.0704193C53.6456 0.0282207 53.5866 0.00469971 53.5252 0.00469971C53.4638 0.00469971 53.4048 0.0282207 53.3602 0.0704193L26.8902 22.0704L0.420181 0.0704193C0.375094 0.0253325 0.313945 -8.07611e-09 0.250183 0C0.186421 8.07617e-09 0.125272 0.0253325 0.0801849 0.0704193C0.0350981 0.115506 0.00976563 0.176655 0.00976562 0.240417C0.00976562 0.30418 0.0350982 0.365329 0.0801849 0.410416L22.1302 26.8704L0.0801849 53.3404C0.0350982 53.3855 0.00976562 53.4466 0.00976562 53.5104C0.00976563 53.5742 0.0350981 53.6353 0.0801849 53.6804C0.125272 53.7255 0.186421 53.7508 0.250183 53.7508C0.313945 53.7508 0.375094 53.7255 0.420181 53.6804L26.8902 31.6204L53.3602 53.6804C53.4048 53.7226 53.4638 53.7461 53.5252 53.7461C53.5866 53.7461 53.6456 53.7226 53.6902 53.6804C53.7331 53.6342 53.7569 53.5735 53.7569 53.5104C53.7569 53.4474 53.7331 53.3866 53.6902 53.3404L31.6302 26.8704Z" fill="white"/>
</g>
<defs>
<clipPath id="clip0_10_13525">
<rect width="53.74" height="53.74" fill="white"/>
</clipPath>
</defs>
</svg>
