<svg width="48" height="56" viewBox="0 0 48 56" fill="none" xmlns="http://www.w3.org/2000/svg">
<path d="M23.9491 54.7877C30.2688 54.7877 35.8477 50.9416 39.793 45.4581C43.7466 39.9632 46.1811 32.6763 46.1811 25.4237C46.1811 18.1463 43.7276 12.2013 39.6777 8.07055C35.6307 3.94279 30.0568 1.69636 23.9491 1.69636C17.8415 1.69636 12.2675 3.94279 8.22055 8.07055C4.17063 12.2013 1.71718 18.1463 1.71718 25.4237C1.71718 32.6763 4.15164 39.9632 8.10519 45.4581C12.0505 50.9416 17.6295 54.7877 23.9491 54.7877Z" fill="#121212" stroke="#F2BF63" stroke-width="2.36216"/>
<circle cx="23.9491" cy="45.3237" r="4.60128" fill="#F2BF63"/>
<circle cx="23.9491" cy="12.7698" r="7.27778" fill="#121212" stroke="#F2BF63" stroke-width="2.36216"/>
<circle cx="33.1518" cy="36.8119" r="4.60128" fill="#F2BF63"/>
<circle cx="32.1156" cy="25.309" r="4.60128" fill="#F2BF63"/>
<circle cx="14.7465" cy="36.8119" r="4.60128" fill="#F2BF63"/>
<circle cx="15.7818" cy="25.309" r="4.60128" fill="#F2BF63"/>
<rect x="22.5686" y="13.6902" width="2.5307" height="0.805224" rx="0.402612" fill="#F2BF63"/>
<path d="M23.4311 13.4027H23.8912H24.2938C24.4664 12.9234 24.8115 11.8268 24.8115 11.2746C24.8115 10.5844 24.3513 8.974 23.8912 8.974C23.4311 8.974 22.9709 10.2969 22.9709 11.2746C22.9709 12.0569 23.2777 13.0193 23.4311 13.4027Z" fill="#F2BF63"/>
<path d="M23.4311 14.7831H23.8912H24.2938C24.5239 15.3966 24.7654 16.6236 23.8912 16.6236C23.017 16.6236 23.2202 15.3966 23.4311 14.7831Z" fill="#F2BF63"/>
<path d="M25.2716 15.6459C24.8115 15.6459 24.6197 15.0707 24.5814 14.7831C24.6581 14.7448 24.8345 14.6911 24.9265 14.7831C25.0415 14.8982 25.2716 15.1282 25.6167 15.1282C25.9618 15.1282 25.8467 15.6459 25.2716 15.6459Z" fill="#F2BF63"/>
<path d="M25.8467 12.4825C25.3866 12.4825 24.984 13.1152 24.869 13.4027H24.5814C24.5862 13.3879 24.5912 13.3728 24.5964 13.3573C24.8003 12.75 25.3336 11.6197 25.9618 11.6197C26.767 11.6197 27.0546 12.1949 27.0546 12.4825C27.0546 12.7701 26.9396 13.5753 26.3644 13.5753C26.5945 13.2302 26.4219 12.4825 25.8467 12.4825Z" fill="#F2BF63"/>
<path d="M24.3517 13.4027H23.8916H23.489C23.3164 12.9234 22.9713 11.8268 22.9713 11.2746C22.9713 10.5844 23.4314 8.974 23.8916 8.974C24.3517 8.974 24.8118 10.2969 24.8118 11.2746C24.8118 12.0569 24.5051 13.0193 24.3517 13.4027Z" fill="#F2BF63"/>
<path d="M24.3517 14.7831H23.8916H23.489C23.2589 15.3966 23.0173 16.6236 23.8916 16.6236C24.7658 16.6236 24.5626 15.3966 24.3517 14.7831Z" fill="#F2BF63"/>
<path d="M22.5112 15.6459C22.9713 15.6459 23.163 15.0707 23.2014 14.7831C23.1247 14.7448 22.9483 14.6911 22.8563 14.7831C22.7413 14.8982 22.5112 15.1282 22.1661 15.1282C21.821 15.1282 21.936 15.6459 22.5112 15.6459Z" fill="#F2BF63"/>
<path d="M21.936 12.4825C22.3962 12.4825 22.7988 13.1152 22.9138 13.4027H23.2014C23.1966 13.3879 23.1916 13.3728 23.1864 13.3573C22.9825 12.75 22.4491 11.6197 21.821 11.6197C21.0158 11.6197 20.7282 12.1949 20.7282 12.4825C20.7282 12.7701 20.8432 13.5753 21.4184 13.5753C21.1883 13.2302 21.3609 12.4825 21.936 12.4825Z" fill="#F2BF63"/>
</svg>
