<svg width="48" height="48" viewBox="0 0 48 48" fill="none" xmlns="http://www.w3.org/2000/svg">
<g clip-path="url(#clip0_10_13527)">
<path d="M47.8544 23.8512L28.5999 22.072L40.9782 7.24337C41.0054 7.2141 41.0205 7.17566 41.0205 7.13574C41.0205 7.09582 41.0054 7.05737 40.9782 7.0281C40.95 7.00138 40.9126 6.98649 40.8738 6.98649C40.8349 6.98649 40.7975 7.00138 40.7693 7.0281L25.909 19.3938L24.1488 0.151962C24.1497 0.132312 24.1465 0.11269 24.1396 0.0942845C24.1326 0.0758789 24.1221 0.0590676 24.1084 0.0448671C24.0948 0.0306665 24.0785 0.0193724 24.0604 0.0116612C24.0423 0.00395005 24.0228 -1.85346e-05 24.0032 6.50766e-08C23.9832 6.50766e-08 23.9635 0.00392797 23.945 0.0115646C23.9266 0.0192013 23.9098 0.0303989 23.8957 0.0445096C23.8816 0.0586203 23.8704 0.0753746 23.8628 0.0938111C23.8551 0.112248 23.8512 0.132007 23.8512 0.151962L22.0973 19.4001L7.24337 7.0281C7.21483 6.99955 7.17611 6.98351 7.13574 6.98351C7.09537 6.98351 7.05665 6.99955 7.0281 7.0281C6.99955 7.05665 6.98351 7.09537 6.98351 7.13574C6.98351 7.17611 6.99955 7.21483 7.0281 7.24337L19.4064 22.072L0.151962 23.8259C0.11166 23.8259 0.0730074 23.8419 0.0445096 23.8704C0.0160118 23.8989 6.50766e-08 23.9375 6.50766e-08 23.9778C-1.85346e-05 23.9975 0.00395005 24.017 0.0116612 24.0351C0.0193724 24.0532 0.0306665 24.0695 0.0448671 24.0831C0.0590676 24.0967 0.0758789 24.1073 0.0942845 24.1143C0.11269 24.1212 0.132312 24.1243 0.151962 24.1235L19.4127 25.871L7.0281 40.7313C6.99955 40.7599 6.98351 40.7986 6.98351 40.839C6.98351 40.8793 6.99955 40.918 7.0281 40.9466C7.05665 40.9751 7.09537 40.9912 7.13574 40.9912C7.17611 40.9912 7.21483 40.9751 7.24337 40.9466L22.1037 28.5619L23.8829 47.848C23.8829 47.8883 23.8989 47.927 23.9274 47.9555C23.9559 47.984 23.9945 48 24.0348 48C24.0545 48 24.074 47.9961 24.0921 47.9883C24.1101 47.9806 24.1265 47.9693 24.1401 47.9551C24.1537 47.9409 24.1643 47.9241 24.1712 47.9057C24.1782 47.8873 24.1813 47.8677 24.1805 47.848L25.9406 28.5873L40.7946 40.9719C40.8228 40.9986 40.8602 41.0135 40.8991 41.0135C40.938 41.0135 40.9753 40.9986 41.0036 40.9719C41.0307 40.9426 41.0458 40.9042 41.0458 40.8643C41.0458 40.8243 41.0307 40.7859 41.0036 40.7566L28.6316 25.9027L47.886 24.1488C47.9052 24.1488 47.9241 24.145 47.9418 24.1377C47.9594 24.1304 47.9755 24.1197 47.989 24.1061C48.0025 24.0926 48.0133 24.0766 48.0206 24.0589C48.0279 24.0412 48.0317 24.0223 48.0317 24.0032C48.0332 23.9805 48.0294 23.9579 48.0207 23.937C48.0119 23.916 47.9984 23.8975 47.9811 23.8827C47.9639 23.868 47.9435 23.8574 47.9215 23.852C47.8995 23.8465 47.8765 23.8462 47.8544 23.8512Z" fill="white"/>
</g>
<defs>
<clipPath id="clip0_10_13527">
<rect width="48" height="48" fill="white"/>
</clipPath>
</defs>
</svg>
