<svg width="49" height="49" viewBox="0 0 49 49" fill="none" xmlns="http://www.w3.org/2000/svg">
<path d="M24.6117 24.4073L40.9559 8.06302C40.9706 8.04971 40.9822 8.03349 40.9902 8.01542C40.9982 7.99734 41.0023 7.97781 41.0023 7.95805C41.0023 7.93829 40.9982 7.91874 40.9902 7.90067C40.9822 7.88259 40.9706 7.86639 40.9559 7.85308C40.9284 7.82702 40.892 7.8125 40.8541 7.8125C40.8162 7.8125 40.7797 7.82702 40.7522 7.85308L24.4079 24.1974L8.06361 7.85308C8.03608 7.82702 7.99962 7.8125 7.96172 7.8125C7.92382 7.8125 7.88736 7.82702 7.85984 7.85308C7.84524 7.86639 7.83357 7.88259 7.82558 7.90067C7.8176 7.91874 7.81348 7.93829 7.81348 7.95805C7.81348 7.97781 7.8176 7.99734 7.82558 8.01542C7.83357 8.03349 7.84524 8.04971 7.85984 8.06302L24.2041 24.4073L7.85984 40.7454C7.84524 40.7587 7.83357 40.7749 7.82558 40.793C7.8176 40.8111 7.81348 40.8306 7.81348 40.8504C7.81348 40.8701 7.8176 40.8897 7.82558 40.9078C7.83357 40.9258 7.84524 40.9421 7.85984 40.9554C7.88736 40.9814 7.92382 40.9959 7.96172 40.9959C7.99962 40.9959 8.03608 40.9814 8.06361 40.9554L24.4079 24.6111L40.7522 40.9554C40.7797 40.9814 40.8162 40.9959 40.8541 40.9959C40.892 40.9959 40.9284 40.9814 40.9559 40.9554C40.9706 40.9421 40.9822 40.9258 40.9902 40.9078C40.9982 40.8897 41.0023 40.8701 41.0023 40.8504C41.0023 40.8306 40.9982 40.8111 40.9902 40.793C40.9822 40.7749 40.9706 40.7587 40.9559 40.7454L24.6117 24.4073Z" fill="#808080" stroke="#808080" stroke-width="0.617465" stroke-miterlimit="10"/>
<path d="M24.5563 24.5501H47.668C47.6872 24.5509 47.7063 24.5479 47.7242 24.5411C47.7422 24.5344 47.7586 24.524 47.7724 24.5108C47.7863 24.4975 47.7973 24.4816 47.8048 24.4639C47.8123 24.4463 47.8162 24.4273 47.8162 24.4081C47.8162 24.3688 47.8006 24.3311 47.7728 24.3033C47.745 24.2755 47.7073 24.2599 47.668 24.2599H24.5563V1.14819C24.5563 1.10889 24.5407 1.0712 24.5129 1.04341C24.4851 1.01561 24.4474 1 24.4081 1C24.3688 1 24.3311 1.01561 24.3033 1.04341C24.2755 1.0712 24.2599 1.10889 24.2599 1.14819V24.2599H1.14819C1.10889 24.2599 1.07119 24.2755 1.0434 24.3033C1.01561 24.3311 1 24.3688 1 24.4081C0.999982 24.4273 1.00385 24.4463 1.01137 24.4639C1.01889 24.4816 1.02991 24.4975 1.04375 24.5108C1.0576 24.524 1.074 24.5344 1.09195 24.5411C1.1099 24.5479 1.12903 24.5509 1.14819 24.5501H24.2599V47.6618C24.2599 47.7011 24.2755 47.7388 24.3033 47.7666C24.3311 47.7944 24.3688 47.81 24.4081 47.81C24.4474 47.81 24.4851 47.7944 24.5129 47.7666C24.5407 47.7388 24.5563 47.7011 24.5563 47.6618V24.5501Z" fill="#808080" stroke="#808080" stroke-width="0.617465" stroke-miterlimit="10"/>
</svg>
