<svg width="48" height="377" viewBox="0 0 48 377" fill="none" xmlns="http://www.w3.org/2000/svg">
<path d="M33.0413 4.06115L33.0962 5.15876C33.1084 5.42706 33.1511 5.62829 33.2243 5.76244C33.3096 5.90879 33.4804 5.98196 33.7365 5.98196L45.9199 5.98196L45.9199 2.7989C45.9199 2.64036 45.9016 2.5245 45.865 2.45132C45.8406 2.39035 45.7614 2.32937 45.6272 2.26839L42.1698 0.658564L42.1698 0.329282L46.4504 0.768325L46.4504 13.0432L42.1698 13.5006L42.1698 13.1713L45.6272 11.5432C45.7614 11.4822 45.8406 11.4151 45.865 11.3419C45.9016 11.281 45.9199 11.1773 45.9199 11.031L45.9199 7.8479L33.7365 7.8479C33.4804 7.8479 33.3157 7.91497 33.2425 8.04912C33.1694 8.18328 33.1206 8.3906 33.0962 8.6711L33.0413 9.76871L32.584 9.76871L32.584 4.06115L33.0413 4.06115ZM33.0047 14.3029L33.0413 14.9432C33.0535 15.2481 33.0962 15.4371 33.1694 15.5103C33.2425 15.5957 33.4011 15.6383 33.645 15.6383L45.0235 15.6383L45.7736 14.3029L45.8833 14.3029L47.0541 17.3579L39.5172 17.3579C40.3709 17.5531 41.0051 17.9189 41.4197 18.4555C41.8344 18.9921 42.0417 19.6446 42.0417 20.4129C42.0417 21.3032 41.7673 21.9923 41.2185 22.4801C40.6697 22.9801 39.7306 23.2301 38.4013 23.2301L33.645 23.2301C33.4011 23.2301 33.2425 23.2667 33.1694 23.3399C33.0962 23.4253 33.0535 23.6265 33.0413 23.9436L33.0047 24.5655L32.584 24.5655L32.584 20.1751L33.0047 20.1751L33.0413 20.8154C33.0535 21.1203 33.0962 21.3093 33.1694 21.3825C33.2425 21.4679 33.4011 21.5105 33.645 21.5105L38.072 21.5105C38.6208 21.5105 39.0843 21.4679 39.4623 21.3825C39.8404 21.2971 40.1392 21.1691 40.3587 20.9983C40.5904 20.8398 40.7551 20.6386 40.8526 20.3946C40.9502 20.1507 40.999 19.8702 40.999 19.5531C40.999 19.2604 40.9441 18.9799 40.8343 18.7116C40.7368 18.4433 40.566 18.2055 40.3221 17.9982C40.0904 17.8031 39.7855 17.6445 39.4074 17.5226C39.0416 17.4128 38.5964 17.3579 38.072 17.3579L33.645 17.3579C33.4011 17.3579 33.2425 17.3945 33.1694 17.4677C33.0962 17.5531 33.0535 17.7543 33.0413 18.0714L33.0047 18.6933L32.584 18.6933L32.584 14.3029L33.0047 14.3029ZM32.3645 30.4076C32.3645 29.749 32.4742 29.1331 32.6937 28.56C32.9133 27.999 33.2243 27.5111 33.6267 27.0965C34.0414 26.694 34.5475 26.3708 35.1451 26.1269C35.7427 25.8952 36.4195 25.7793 37.1756 25.7793C37.9074 25.7793 38.572 25.9013 39.1696 26.1452C39.7672 26.4013 40.2794 26.7428 40.7063 27.1697C41.1331 27.5965 41.4624 28.0843 41.6941 28.6331C41.9258 29.1941 42.0417 29.7795 42.0417 30.3893C42.0417 30.8161 41.9746 31.2491 41.8405 31.6881C41.7063 32.1394 41.4929 32.5601 41.2002 32.9504C40.9075 33.3406 40.5233 33.6821 40.0477 33.9748C39.5721 34.2797 38.9928 34.4992 38.3098 34.6334L38.3098 27.6453L37.9623 27.6453C37.2915 27.6453 36.6817 27.7307 36.1329 27.9014C35.5841 28.0843 35.1085 28.3282 34.706 28.6331C34.3158 28.9502 34.0109 29.3222 33.7914 29.749C33.5718 30.1759 33.4621 30.6454 33.4621 31.1576C33.4621 31.4503 33.4926 31.7552 33.5535 32.0723C33.6145 32.3894 33.7304 32.6943 33.9011 32.987C34.084 33.2797 34.3341 33.5541 34.6511 33.8102C34.9804 34.0663 35.4073 34.2797 35.9317 34.4504L35.9317 34.8712C34.6999 34.5907 33.7974 34.0541 33.2243 33.2614C32.6511 32.4809 32.3645 31.5296 32.3645 30.4076ZM41.6027 30.3344C41.6027 29.6759 41.3709 29.1027 40.9075 28.6148C40.4563 28.1392 39.7672 27.8343 38.8403 27.7002L38.8403 32.5113C39.2184 32.4991 39.5721 32.4504 39.9014 32.365C40.2428 32.2796 40.5355 32.1455 40.7795 31.9625C41.0356 31.7918 41.2368 31.5723 41.3831 31.304C41.5295 31.0357 41.6027 30.7125 41.6027 30.3344ZM33.023 40.9516L33.0779 41.7748C33.1023 42.0431 33.1511 42.2444 33.2243 42.3785C33.3096 42.5249 33.4804 42.598 33.7365 42.598L45.2979 42.598C45.554 42.598 45.7187 42.5249 45.7919 42.3785C45.8772 42.2444 45.9321 42.0431 45.9565 41.7748L46.0114 40.9516L46.4504 40.9516L46.4504 46.1104L46.0114 46.1104L45.9565 45.2872C45.9321 45.0067 45.8772 44.7933 45.7919 44.6469C45.7187 44.5128 45.554 44.4457 45.2979 44.4457L40.2307 44.4457L40.2306 51.8911L45.2979 51.8911C45.554 51.8911 45.7187 51.8179 45.7919 51.6716C45.8772 51.5374 45.9321 51.3362 45.9565 51.0679L46.0114 50.2447L46.4504 50.2447L46.4504 55.4035L46.0114 55.4035L45.9565 54.5803C45.9321 54.312 45.8772 54.1046 45.7919 53.9583C45.7187 53.8241 45.554 53.7571 45.2979 53.7571L33.7365 53.7571C33.4804 53.7571 33.3096 53.8241 33.2243 53.9583C33.1511 54.1046 33.1023 54.312 33.0779 54.5803L33.023 55.4035L32.584 55.4035L32.584 50.2447L33.023 50.2447L33.0779 51.0679C33.1023 51.3362 33.1511 51.5374 33.2243 51.6716C33.3096 51.8179 33.4804 51.8911 33.7365 51.8911L39.4989 51.8911L39.4989 44.4457L33.7365 44.4457C33.4804 44.4457 33.3096 44.5128 33.2243 44.6469C33.1511 44.7933 33.1023 45.0067 33.0779 45.2872L33.023 46.1104L32.584 46.1104L32.584 40.9516L33.023 40.9516ZM32.3645 61.6045C32.3645 60.946 32.4803 60.324 32.712 59.7386C32.9559 59.1532 33.2852 58.6349 33.6999 58.1836C34.1267 57.7446 34.6328 57.3909 35.2182 57.1226C35.8158 56.8665 36.4622 56.7385 37.1573 56.7385C37.9013 56.7385 38.572 56.8787 39.1696 57.1592C39.7794 57.4397 40.2916 57.8056 40.7063 58.2568C41.1331 58.7203 41.4624 59.2447 41.6941 59.8301C41.9258 60.4276 42.0417 61.0374 42.0417 61.6594C42.0417 62.318 41.9197 62.9399 41.6758 63.5253C41.4441 64.1107 41.1148 64.6229 40.688 65.062C40.2733 65.5132 39.7733 65.8669 39.1879 66.123C38.6025 66.3913 37.9623 66.5255 37.2671 66.5255C36.5232 66.5255 35.8463 66.3852 35.2365 66.1047C34.6389 65.8364 34.1267 65.4705 33.6999 65.0071C33.273 64.5559 32.9438 64.0315 32.712 63.4339C32.4803 62.8485 32.3645 62.2387 32.3645 61.6045ZM32.895 61.6411C32.895 62.0192 32.9742 62.3789 33.1328 62.7204C33.2913 63.0619 33.5413 63.3668 33.8828 63.6351C34.2365 63.9034 34.6877 64.1168 35.2365 64.2754C35.7853 64.4339 36.4439 64.5132 37.2122 64.5132C37.9927 64.5132 38.6574 64.4339 39.2062 64.2754C39.755 64.1168 40.2002 63.9034 40.5416 63.6351C40.8953 63.3668 41.1514 63.0619 41.31 62.7204C41.4685 62.3789 41.5478 62.0192 41.5478 61.6411C41.5478 61.2508 41.4685 60.8789 41.31 60.5252C41.1514 60.1837 40.8953 59.8788 40.5416 59.6105C40.2002 59.3422 39.755 59.1288 39.2062 58.9703C38.6574 58.8117 37.9927 58.7324 37.2122 58.7324C36.4439 58.7324 35.7853 58.8117 35.2365 58.9703C34.6877 59.1288 34.2365 59.3422 33.8828 59.6105C33.5413 59.8788 33.2913 60.1837 33.1328 60.5252C32.9742 60.8789 32.895 61.2508 32.895 61.6411ZM32.3645 71.8697C32.3645 71.4185 32.4315 71.016 32.5657 70.6624C32.6876 70.3209 32.895 70.0282 33.1877 69.7843C33.4804 69.5526 33.8584 69.3696 34.3219 69.2355C34.7853 69.1135 35.3524 69.0525 36.0232 69.0525L41.0356 69.0525L41.3648 67.7354L41.7673 67.7354L41.7673 70.7721L36.3341 70.7721C35.2365 70.7721 34.4743 70.9307 34.0475 71.2478C33.6206 71.577 33.4072 72.0649 33.4072 72.7112C33.4072 73.0161 33.456 73.2966 33.5535 73.5527C33.6633 73.821 33.834 74.0527 34.0658 74.2479C34.3097 74.4552 34.6146 74.6137 34.9804 74.7235C35.3585 74.8455 35.8158 74.9064 36.3524 74.9064L41.0356 74.9064L41.3648 73.6076L41.7673 73.6076L41.7673 76.626L33.3889 76.626L33.3889 78.0346L32.9864 78.0346L32.4193 74.9064L34.889 74.9064C34.0475 74.7113 33.4133 74.3454 32.9864 73.8088C32.5718 73.2722 32.3645 72.6259 32.3645 71.8697ZM32.3645 82.3762C32.3645 81.9249 32.3889 81.4981 32.4376 81.0956C32.4864 80.6932 32.5657 80.2968 32.6754 79.9066L35.9134 79.5224L35.9134 79.8883L33.3157 81.2603C33.0718 81.3944 32.9255 81.5652 32.8767 81.7725C32.8279 81.9798 32.8035 82.2542 32.8035 82.5957C32.8035 82.8274 32.8401 83.0713 32.9133 83.3274C32.9864 83.5835 33.0901 83.8153 33.2243 84.0226C33.3706 84.2421 33.5474 84.4189 33.7548 84.5531C33.9743 84.6994 34.2243 84.7726 34.5048 84.7726C34.7731 84.7726 35.0048 84.7238 35.1999 84.6263C35.3951 84.5287 35.5597 84.4007 35.6939 84.2421C35.8402 84.0836 35.9561 83.8945 36.0414 83.675C36.139 83.4677 36.2183 83.2543 36.2793 83.0347L36.572 81.9371C36.7549 81.2542 37.0842 80.6932 37.5598 80.2541C38.0476 79.8273 38.6513 79.6139 39.3709 79.6139C39.8099 79.6139 40.1941 79.7114 40.5233 79.9066C40.8648 80.1017 41.1453 80.3639 41.3648 80.6932C41.5844 81.0225 41.749 81.4005 41.8588 81.8274C41.9807 82.2664 42.0417 82.7238 42.0417 83.1994C42.0417 83.9555 41.9075 84.6812 41.6392 85.3763L38.7672 85.8153L38.7672 85.4312L41.1636 83.9677C41.3465 83.8579 41.4624 83.6933 41.5112 83.4738C41.56 83.2665 41.5844 83.0347 41.5844 82.7786C41.5844 82.5469 41.5478 82.3213 41.4746 82.1018C41.4136 81.8823 41.3161 81.6871 41.1819 81.5164C41.06 81.3456 40.9014 81.2054 40.7063 81.0956C40.5233 80.9981 40.3038 80.9493 40.0477 80.9493C39.5477 80.9493 39.1696 81.0834 38.9135 81.3517C38.6574 81.62 38.4806 81.9432 38.383 82.3213L38.0903 83.4372C37.9927 83.8153 37.8647 84.175 37.7062 84.5165C37.5476 84.8702 37.3525 85.1751 37.1208 85.4312C36.9012 85.6873 36.6329 85.8885 36.3158 86.0349C35.9988 86.1934 35.6329 86.2727 35.2182 86.2727C34.8036 86.2727 34.4194 86.1751 34.0658 85.98C33.7243 85.7849 33.4255 85.5105 33.1694 85.1568C32.9133 84.8153 32.7181 84.4067 32.584 83.9311C32.4376 83.4555 32.3645 82.9372 32.3645 82.3762ZM32.3645 92.5232C32.3645 91.8646 32.4742 91.2487 32.6937 90.6755C32.9133 90.1145 33.2243 89.6267 33.6267 89.2121C34.0414 88.8096 34.5475 88.4864 35.1451 88.2425C35.7427 88.0108 36.4195 87.8949 37.1756 87.8949C37.9074 87.8949 38.572 88.0169 39.1696 88.2608C39.7672 88.5169 40.2794 88.8584 40.7063 89.2852C41.1331 89.7121 41.4624 90.1999 41.6941 90.7487C41.9258 91.3097 42.0417 91.8951 42.0417 92.5049C42.0417 92.9317 41.9746 93.3647 41.8405 93.8037C41.7063 94.255 41.4929 94.6757 41.2002 95.066C40.9075 95.4562 40.5233 95.7977 40.0477 96.0904C39.5721 96.3953 38.9928 96.6148 38.3098 96.749L38.3098 89.7609L37.9623 89.7609C37.2915 89.7609 36.6817 89.8462 36.1329 90.017C35.5841 90.1999 35.1085 90.4438 34.706 90.7487C34.3158 91.0658 34.0109 91.4378 33.7913 91.8646C33.5718 92.2915 33.4621 92.761 33.4621 93.2732C33.4621 93.5659 33.4926 93.8708 33.5535 94.1879C33.6145 94.505 33.7304 94.8099 33.9011 95.1026C34.084 95.3953 34.3341 95.6697 34.6511 95.9258C34.9804 96.1819 35.4073 96.3953 35.9317 96.566L35.9317 96.9868C34.6999 96.7063 33.7974 96.1697 33.2243 95.377C32.6511 94.5964 32.3645 93.6452 32.3645 92.5232ZM41.6027 92.45C41.6027 91.7914 41.3709 91.2183 40.9075 90.7304C40.4563 90.2548 39.7672 89.9499 38.8403 89.8158L38.8403 94.6269C39.2184 94.6147 39.5721 94.566 39.9014 94.4806C40.2428 94.3952 40.5355 94.2611 40.7795 94.0781C41.0356 93.9074 41.2368 93.6879 41.3831 93.4196C41.5295 93.1513 41.6027 92.8281 41.6027 92.45ZM32.3645 100.099C32.3645 99.7701 32.4803 99.4896 32.712 99.2579C32.9559 99.0262 33.2486 98.9103 33.5901 98.9103C33.9194 98.9103 34.1999 99.0262 34.4316 99.2579C34.6755 99.4896 34.7975 99.7701 34.7975 100.099C34.7975 100.453 34.6755 100.746 34.4316 100.977C34.1999 101.209 33.9194 101.325 33.5901 101.325C33.2486 101.325 32.9559 101.209 32.712 100.977C32.4803 100.746 32.3645 100.453 32.3645 100.099ZM39.627 100.099C39.627 99.7701 39.7428 99.4896 39.9745 99.2579C40.2185 99.0262 40.5111 98.9103 40.8526 98.9103C41.1819 98.9103 41.4624 99.0262 41.6941 99.2579C41.938 99.4896 42.06 99.7701 42.06 100.099C42.06 100.453 41.938 100.746 41.6941 100.977C41.4624 101.209 41.1819 101.325 40.8526 101.325C40.5111 101.325 40.2185 101.209 39.9745 100.977C39.7428 100.746 39.627 100.453 39.627 100.099ZM33.023 107.962L33.0779 108.785C33.1023 109.054 33.1511 109.255 33.2243 109.389C33.3096 109.535 33.4804 109.609 33.7365 109.609L45.2979 109.609C45.554 109.609 45.7187 109.535 45.7919 109.389C45.8772 109.255 45.9321 109.054 45.9565 108.785L46.0114 107.962L46.4504 107.962L46.4504 118.755L42.3893 119.377L42.3893 119.048L45.5723 117.164C45.7065 117.091 45.7858 117.024 45.8102 116.963C45.8467 116.902 45.865 116.798 45.865 116.652L45.865 111.456L40.1392 111.456L40.1392 114.347C40.1392 114.493 40.1514 114.59 40.1758 114.639C40.2124 114.688 40.2794 114.725 40.377 114.749L42.5356 115.462L42.5356 115.792L37.1025 115.792L37.1025 115.462L39.2428 114.749C39.3404 114.712 39.4013 114.67 39.4257 114.621C39.4623 114.584 39.4806 114.493 39.4806 114.347L39.4806 111.456L33.7365 111.456C33.4804 111.456 33.3096 111.523 33.2243 111.657C33.1511 111.804 33.1084 112.017 33.0962 112.298L33.0596 113.871L32.584 113.871L32.584 107.962L33.023 107.962ZM33.0047 120.246L33.0413 120.886C33.0657 121.167 33.1084 121.35 33.1694 121.435C33.2425 121.533 33.4011 121.582 33.645 121.582L40.0294 121.582L40.7795 120.246L40.8892 120.246L42.06 123.301L33.645 123.301C33.4011 123.301 33.2425 123.344 33.1694 123.429C33.1084 123.527 33.0657 123.722 33.0413 124.015L33.0047 124.637L32.584 124.637L32.584 120.246L33.0047 120.246ZM45.7919 121.271C46.0968 121.271 46.3651 121.387 46.5968 121.618C46.8285 121.85 46.9443 122.124 46.9443 122.441C46.9443 122.759 46.8285 123.033 46.5968 123.265C46.3651 123.496 46.0968 123.612 45.7919 123.612C45.4748 123.612 45.1943 123.496 44.9504 123.265C44.7186 123.033 44.6028 122.759 44.6028 122.441C44.6028 122.124 44.7186 121.85 44.9504 121.618C45.1943 121.387 45.4748 121.271 45.7919 121.271ZM33.0047 125.818L33.0413 126.459C33.0535 126.763 33.0962 126.952 33.1694 127.026C33.2425 127.111 33.4011 127.154 33.645 127.154L40.0294 127.154L40.7795 125.818L40.8892 125.818L42.06 128.873L39.5172 128.873C40.3709 129.068 41.0051 129.434 41.4197 129.971C41.8344 130.508 42.0417 131.16 42.0417 131.928C42.0417 132.819 41.7673 133.508 41.2185 133.995C40.6697 134.495 39.7306 134.746 38.4013 134.746L33.645 134.746C33.4011 134.746 33.2425 134.782 33.1694 134.855C33.0962 134.941 33.0535 135.142 33.0413 135.459L33.0047 136.081L32.584 136.081L32.584 131.69L33.0047 131.69L33.0413 132.331C33.0535 132.636 33.0962 132.825 33.1694 132.898C33.2425 132.983 33.4011 133.026 33.645 133.026L38.072 133.026C38.6208 133.026 39.0843 132.983 39.4623 132.898C39.8404 132.812 40.1392 132.684 40.3587 132.514C40.5904 132.355 40.7551 132.154 40.8526 131.91C40.9502 131.666 40.999 131.386 40.999 131.069C40.999 130.776 40.9441 130.495 40.8343 130.227C40.7368 129.959 40.566 129.721 40.3221 129.514C40.0904 129.318 39.7855 129.16 39.4074 129.038C39.0416 128.928 38.5964 128.873 38.072 128.873L33.645 128.873C33.4011 128.873 33.2425 128.91 33.1694 128.983C33.0962 129.068 33.0535 129.27 33.0413 129.587L33.0047 130.209L32.584 130.209L32.584 125.818L33.0047 125.818ZM32.3645 141.919C32.3645 141.261 32.4742 140.645 32.6937 140.071C32.9133 139.51 33.2242 139.023 33.6267 138.608C34.0414 138.206 34.5475 137.882 35.1451 137.638C35.7426 137.407 36.4195 137.291 37.1756 137.291C37.9074 137.291 38.572 137.413 39.1696 137.657C39.7672 137.913 40.2794 138.254 40.7063 138.681C41.1331 139.108 41.4624 139.596 41.6941 140.145C41.9258 140.706 42.0417 141.291 42.0417 141.901C42.0417 142.328 41.9746 142.761 41.8405 143.2C41.7063 143.651 41.4929 144.072 41.2002 144.462C40.9075 144.852 40.5233 145.194 40.0477 145.486C39.5721 145.791 38.9928 146.011 38.3098 146.145L38.3098 139.157L37.9623 139.157C37.2915 139.157 36.6817 139.242 36.1329 139.413C35.5841 139.596 35.1085 139.84 34.706 140.145C34.3158 140.462 34.0109 140.834 33.7913 141.261C33.5718 141.687 33.4621 142.157 33.4621 142.669C33.4621 142.962 33.4926 143.267 33.5535 143.584C33.6145 143.901 33.7304 144.206 33.9011 144.498C34.084 144.791 34.3341 145.066 34.6511 145.322C34.9804 145.578 35.4073 145.791 35.9317 145.962L35.9317 146.383C34.6999 146.102 33.7974 145.566 33.2242 144.773C32.6511 143.992 32.3645 143.041 32.3645 141.919ZM41.6027 141.846C41.6027 141.187 41.3709 140.614 40.9075 140.126C40.4563 139.651 39.7672 139.346 38.8403 139.212L38.8403 144.023C39.2184 144.011 39.5721 143.962 39.9014 143.877C40.2428 143.791 40.5355 143.657 40.7794 143.474C41.0356 143.303 41.2368 143.084 41.3831 142.815C41.5295 142.547 41.6027 142.224 41.6027 141.846ZM33.6999 163.97C33.4682 164.067 33.3096 164.177 33.2242 164.299C33.1511 164.433 33.1023 164.641 33.0779 164.921L33.023 165.726L32.584 165.726L32.584 160.439L33.023 160.439L33.0779 161.354C33.1023 161.646 33.1511 161.842 33.2242 161.939C33.3096 162.049 33.4682 162.055 33.6999 161.957L37.6879 160.384L37.6879 155.207L33.6999 153.634C33.4682 153.536 33.3096 153.536 33.2242 153.634C33.1511 153.744 33.1023 153.945 33.0779 154.238L33.023 155.152L32.584 155.152L32.584 151.164L33.023 151.164L33.0779 151.969C33.1023 152.238 33.1511 152.433 33.2242 152.555C33.3096 152.689 33.4682 152.805 33.6999 152.902L47.109 158.299L47.109 158.591L33.6999 163.97ZM38.4196 160.11L44.2735 157.805L38.4196 155.5L38.4196 160.11ZM33.0047 166.067L33.0413 166.708C33.0535 167.013 33.0962 167.202 33.1694 167.275C33.2425 167.36 33.4011 167.403 33.645 167.403L40.0294 167.403L40.7794 166.067L40.8892 166.067L42.06 169.122L39.1696 169.122C40.1575 169.354 40.8648 169.775 41.2917 170.385C41.7185 170.995 41.9319 171.696 41.9319 172.488L41.9319 172.653L40.1941 172.653L40.2672 171.94C40.3038 171.403 40.2733 170.952 40.1758 170.586C40.0904 170.232 39.9501 169.946 39.755 169.726C39.5721 169.507 39.3404 169.348 39.0599 169.251C38.7916 169.165 38.4928 169.122 38.1635 169.122L33.645 169.122C33.4011 169.122 33.2425 169.159 33.1694 169.232C33.1084 169.318 33.0718 169.519 33.0596 169.836L33.0047 170.824L32.584 170.824L32.584 166.067L33.0047 166.067ZM34.7609 176.788C34.2121 176.788 33.834 176.891 33.6267 177.099C33.4316 177.318 33.334 177.629 33.334 178.032C33.334 178.629 33.4682 179.196 33.7365 179.733L33.4072 179.898C33.2974 179.763 33.1816 179.587 33.0596 179.367C32.9498 179.148 32.8462 178.91 32.7486 178.654C32.6632 178.398 32.5901 178.123 32.5291 177.83C32.4681 177.55 32.4376 177.269 32.4376 176.989C32.4376 176.343 32.5657 175.861 32.8218 175.544C33.0779 175.227 33.5657 175.068 34.2853 175.068L40.8343 175.068L40.8343 173.092L40.9441 173.092L43.743 176.678L43.743 176.788L41.7673 176.788L41.7673 180.337L40.8343 179.751L40.8343 176.788L34.7609 176.788ZM29.4558 180.913C29.907 181.498 30.3522 181.925 30.7912 182.193C31.2303 182.461 31.6449 182.596 32.0352 182.596C32.7059 182.596 33.1511 182.193 33.3706 181.388C33.7365 181.376 34.0536 181.486 34.3219 181.718C34.6024 181.961 34.7426 182.285 34.7426 182.687C34.7426 183.053 34.6206 183.358 34.3767 183.602C34.1328 183.846 33.767 183.968 33.2791 183.968C32.6206 183.968 31.9193 183.736 31.1754 183.272C30.4192 182.821 29.7119 182.114 29.0533 181.15L29.4558 180.913ZM32.3645 198.271C32.3645 197.125 32.5291 196.07 32.8584 195.107C33.1999 194.143 33.6816 193.308 34.3036 192.6C34.9255 191.905 35.6756 191.363 36.5537 190.972C37.4439 190.582 38.444 190.387 39.5538 190.387C40.6636 190.387 41.6636 190.582 42.5539 190.972C43.4442 191.375 44.2003 191.924 44.8223 192.619C45.4443 193.326 45.9199 194.168 46.2492 195.143C46.5907 196.119 46.7614 197.192 46.7614 198.363C46.7614 198.741 46.7431 199.131 46.7065 199.534C46.6821 199.936 46.6334 200.326 46.5602 200.704C46.4992 201.095 46.4138 201.461 46.3041 201.802C46.2065 202.156 46.0846 202.473 45.9382 202.753L41.9685 203.522L41.9685 203.192L45.2979 201.125C45.5053 200.991 45.6516 200.869 45.737 200.759C45.8345 200.65 45.9138 200.485 45.9748 200.265C46.0602 199.985 46.115 199.686 46.1394 199.369C46.1638 199.052 46.176 198.692 46.176 198.29C46.176 197.546 46.0602 196.826 45.8284 196.131C45.5967 195.436 45.2309 194.814 44.7308 194.265C44.2308 193.729 43.5844 193.296 42.7917 192.966C41.999 192.649 41.0417 192.491 39.9197 192.491C38.9074 192.491 37.9744 192.625 37.1208 192.893C36.2671 193.161 35.5292 193.546 34.9072 194.046C34.2975 194.558 33.8157 195.18 33.4621 195.912C33.1206 196.655 32.9498 197.497 32.9498 198.436C32.9498 198.839 32.962 199.198 32.9864 199.515C33.0108 199.832 33.0657 200.131 33.1511 200.412C33.2121 200.631 33.2852 200.796 33.3706 200.906C33.4682 201.015 33.6206 201.137 33.8279 201.272L37.1573 203.339L37.1573 203.668L33.1877 202.9C33.0413 202.619 32.9133 202.29 32.8035 201.912C32.7059 201.546 32.6267 201.156 32.5657 200.741C32.4925 200.339 32.4437 199.918 32.4193 199.479C32.3827 199.052 32.3645 198.649 32.3645 198.271ZM32.3645 209.071C32.3645 208.619 32.4315 208.217 32.5657 207.863C32.6876 207.522 32.895 207.229 33.1877 206.985C33.4804 206.754 33.8584 206.571 34.3219 206.436C34.7853 206.314 35.3524 206.254 36.0231 206.254L41.0356 206.254L41.3648 204.936L41.7673 204.936L41.7673 207.973L36.3341 207.973C35.2365 207.973 34.4743 208.132 34.0475 208.449C33.6206 208.778 33.4072 209.266 33.4072 209.912C33.4072 210.217 33.456 210.498 33.5535 210.754C33.6633 211.022 33.834 211.254 34.0657 211.449C34.3097 211.656 34.6145 211.815 34.9804 211.924C35.3585 212.046 35.8158 212.107 36.3524 212.107L41.0356 212.107L41.3648 210.809L41.7673 210.809L41.7673 213.827L33.3889 213.827L33.3889 215.236L32.9864 215.236L32.4193 212.107L34.889 212.107C34.0475 211.912 33.4133 211.546 32.9864 211.01C32.5718 210.473 32.3645 209.827 32.3645 209.071ZM33.0047 216.229L33.0413 216.87C33.0535 217.175 33.0962 217.364 33.1694 217.437C33.2425 217.522 33.4011 217.565 33.645 217.565L45.0235 217.565L45.7736 216.229L45.8833 216.229L47.0541 219.284L33.645 219.284C33.4011 219.284 33.2425 219.321 33.1694 219.394C33.0962 219.48 33.0535 219.681 33.0413 219.998L33.0047 220.62L32.584 220.62L32.584 216.229L33.0047 216.229ZM34.7609 224.915C34.2121 224.915 33.834 225.019 33.6267 225.226C33.4316 225.446 33.334 225.757 33.334 226.159C33.334 226.757 33.4682 227.324 33.7365 227.861L33.4072 228.025C33.2974 227.891 33.1816 227.714 33.0596 227.495C32.9498 227.275 32.8462 227.037 32.7486 226.781C32.6632 226.525 32.5901 226.251 32.5291 225.958C32.4681 225.678 32.4376 225.397 32.4376 225.117C32.4376 224.47 32.5657 223.988 32.8218 223.671C33.0779 223.354 33.5657 223.196 34.2853 223.196L40.8343 223.196L40.8343 221.22L40.9441 221.22L43.743 224.806L43.743 224.915L41.7673 224.915L41.7673 228.464L40.8343 227.879L40.8343 224.915L34.7609 224.915ZM32.3645 232.992C32.3645 232.54 32.4315 232.138 32.5657 231.784C32.6876 231.443 32.895 231.15 33.1877 230.906C33.4804 230.674 33.8584 230.491 34.3219 230.357C34.7853 230.235 35.3524 230.174 36.0231 230.174L41.0356 230.174L41.3648 228.857L41.7673 228.857L41.7673 231.894L36.3341 231.894C35.2365 231.894 34.4743 232.052 34.0475 232.37C33.6206 232.699 33.4072 233.187 33.4072 233.833C33.4072 234.138 33.456 234.418 33.5535 234.675C33.6633 234.943 33.834 235.175 34.0657 235.37C34.3097 235.577 34.6145 235.736 34.9804 235.845C35.3585 235.967 35.8158 236.028 36.3524 236.028L41.0356 236.028L41.3648 234.729L41.7673 234.729L41.7673 237.748L33.3889 237.748L33.3889 239.156L32.9864 239.156L32.4193 236.028L34.889 236.028C34.0475 235.833 33.4133 235.467 32.9864 234.931C32.5718 234.394 32.3645 233.748 32.3645 232.992ZM33.0047 240.242L33.0413 240.882C33.0535 241.187 33.0962 241.376 33.1694 241.449C33.2425 241.534 33.4011 241.577 33.645 241.577L40.0294 241.577L40.7794 240.242L40.8892 240.242L42.06 243.297L39.1696 243.297C40.1575 243.528 40.8648 243.949 41.2917 244.559C41.7185 245.169 41.9319 245.87 41.9319 246.663L41.9319 246.827L40.1941 246.827L40.2672 246.114C40.3038 245.577 40.2733 245.126 40.1758 244.76C40.0904 244.407 39.9501 244.12 39.755 243.9C39.5721 243.681 39.3404 243.522 39.0599 243.425C38.7916 243.339 38.4928 243.297 38.1635 243.297L33.645 243.297C33.4011 243.297 33.2425 243.333 33.1694 243.407C33.1084 243.492 33.0718 243.693 33.0596 244.01L33.0047 244.998L32.584 244.998L32.584 240.242L33.0047 240.242ZM32.3645 250.855C32.3645 250.428 32.4315 250.032 32.5657 249.666C32.6998 249.312 32.8767 249.007 33.0962 248.751C33.3279 248.495 33.5901 248.294 33.8828 248.147C34.1877 248.013 34.5048 247.946 34.8341 247.946C35.2609 247.946 35.6146 248.056 35.8951 248.275C36.1878 248.495 36.4317 248.769 36.6268 249.099C36.822 249.428 36.9866 249.782 37.1208 250.16C37.2671 250.55 37.4074 250.916 37.5415 251.257C37.761 251.83 37.9623 252.27 38.1452 252.574C38.3281 252.891 38.4989 253.123 38.6574 253.27C38.8281 253.416 38.9989 253.501 39.1696 253.526C39.3404 253.55 39.5233 253.562 39.7184 253.562C40.2306 253.562 40.6575 253.41 40.999 253.105C41.3526 252.8 41.5295 252.33 41.5295 251.696C41.5295 250.965 41.2795 250.416 40.7794 250.05C40.2916 249.684 39.6209 249.593 38.7672 249.776C38.7184 249.544 38.694 249.312 38.694 249.08C38.694 248.678 38.7733 248.367 38.9318 248.147C39.0903 247.94 39.2916 247.836 39.5355 247.836C39.694 247.836 39.8465 247.879 39.9928 247.964C40.1392 248.062 40.2794 248.19 40.4136 248.349C40.5477 248.507 40.6758 248.684 40.7977 248.879C40.9197 249.074 41.0356 249.282 41.1453 249.501C41.4136 250.001 41.6331 250.513 41.8039 251.038C41.9746 251.562 42.06 252.08 42.06 252.593C42.06 253.483 41.8466 254.154 41.4197 254.605C41.0051 255.056 40.2489 255.276 39.1513 255.264L33.3889 255.209L33.3889 256.599L32.9864 256.599L32.4559 253.709L34.5048 253.581C33.6999 253.337 33.1389 252.977 32.8218 252.501C32.5169 252.038 32.3645 251.489 32.3645 250.855ZM33.1145 251.587C33.1145 251.818 33.1633 252.05 33.2608 252.282C33.3584 252.513 33.5108 252.721 33.7182 252.904C33.9255 253.087 34.1999 253.233 34.5414 253.343C34.8829 253.465 35.2914 253.526 35.767 253.526L38.383 253.562C38.2001 253.318 38.0354 253.087 37.8891 252.867C37.7549 252.648 37.5964 252.361 37.4134 252.007C37.2427 251.69 37.0781 251.404 36.9195 251.148C36.761 250.891 36.5902 250.672 36.4073 250.489C36.2244 250.306 36.017 250.166 35.7853 250.068C35.5536 249.971 35.2853 249.922 34.9804 249.922C34.7365 249.922 34.5048 249.952 34.2853 250.013C34.0657 250.086 33.8645 250.19 33.6816 250.324C33.5108 250.471 33.3706 250.647 33.2608 250.855C33.1633 251.062 33.1145 251.306 33.1145 251.587ZM33.0047 257.533L33.0413 258.173C33.0535 258.478 33.0962 258.667 33.1694 258.74C33.2425 258.825 33.4011 258.868 33.645 258.868L45.0235 258.868L45.7736 257.533L45.8833 257.533L47.0541 260.588L33.645 260.588C33.4011 260.588 33.2425 260.624 33.1694 260.697C33.0962 260.783 33.0535 260.984 33.0413 261.301L33.0047 261.923L32.584 261.923L32.584 257.533L33.0047 257.533ZM33.023 267.869L33.0779 268.692C33.1023 268.961 33.1511 269.162 33.2242 269.296C33.3096 269.442 33.4804 269.516 33.7365 269.516L45.2979 269.516C45.554 269.516 45.7187 269.442 45.7919 269.296C45.8772 269.162 45.9321 268.961 45.9565 268.692L46.0114 267.869L46.4504 267.869L46.4504 278.059L42.3893 278.662L42.3893 278.333L45.5723 276.467C45.7065 276.394 45.7858 276.327 45.8101 276.266C45.8467 276.205 45.865 276.095 45.865 275.937L45.865 271.363L40.1392 271.363L40.1392 274.107C40.1392 274.266 40.1514 274.363 40.1758 274.4C40.2123 274.449 40.2794 274.485 40.377 274.51L42.5356 275.241L42.5356 275.571L37.1025 275.571L37.1025 275.241L39.2428 274.51C39.3404 274.473 39.4013 274.437 39.4257 274.4C39.4623 274.363 39.4806 274.266 39.4806 274.107L39.4806 271.363L33.1694 271.363L33.1694 276.833C33.1694 276.979 33.1816 277.077 33.206 277.126C33.2425 277.187 33.3157 277.26 33.4255 277.345L36.6817 279.851L36.6817 280.181L32.584 278.937L32.584 267.869L33.023 267.869ZM33.0047 280.656L33.023 281.223C33.0352 281.492 33.1206 281.754 33.2791 282.01C33.4377 282.278 33.6877 282.577 34.0292 282.906L36.9378 285.522L40.6331 282.65C40.8404 282.504 41.0051 282.351 41.127 282.193C41.249 282.047 41.3161 281.845 41.3282 281.589L41.3465 281.059L41.7673 281.059L41.7673 285.65L41.3465 285.65L41.3282 285.065C41.3161 284.772 41.249 284.595 41.127 284.535C41.0173 284.474 40.8709 284.51 40.688 284.644L38.1635 286.602L40.377 288.596C40.6453 288.864 40.8648 288.974 41.0356 288.925C41.2185 288.876 41.3161 288.712 41.3282 288.431L41.3465 287.754L41.7673 287.754L41.7673 291.541L41.3465 291.541L41.3282 290.974C41.3161 290.706 41.2307 290.443 41.0721 290.187C40.9136 289.931 40.6758 289.644 40.3587 289.327L37.7244 286.949L33.7182 290.059C33.5108 290.218 33.3462 290.37 33.2242 290.516C33.1023 290.663 33.0352 290.864 33.023 291.12L33.0047 291.632L32.584 291.632L32.584 287.059L33.0047 287.059L33.023 287.644C33.0352 287.937 33.0962 288.114 33.2059 288.175C33.3279 288.236 33.4804 288.199 33.6633 288.065L36.4988 285.852L33.9743 283.583C33.706 283.327 33.4804 283.223 33.2974 283.272C33.1267 283.321 33.0352 283.486 33.023 283.766L33.0047 284.443L32.584 284.443L32.584 280.656L33.0047 280.656ZM28.4679 292.314L28.5045 292.954C28.5167 293.259 28.5594 293.448 28.6326 293.521C28.7058 293.606 28.8643 293.649 29.1082 293.649L40.0294 293.649L40.7794 292.314L40.8892 292.314L42.06 295.369L40.7063 295.369C41.1087 295.661 41.4319 296.051 41.6758 296.539C41.9197 297.027 42.0417 297.564 42.0417 298.149C42.0417 298.735 41.9258 299.277 41.6941 299.777C41.4746 300.277 41.1514 300.71 40.7246 301.076C40.3099 301.442 39.8038 301.729 39.2062 301.936C38.6086 302.155 37.9379 302.265 37.1939 302.265C36.4866 302.265 35.8341 302.155 35.2365 301.936C34.6511 301.716 34.145 301.411 33.7182 301.021C33.2913 300.631 32.9559 300.168 32.712 299.631C32.4803 299.106 32.3644 298.533 32.3644 297.911C32.3644 297.375 32.4681 296.887 32.6754 296.448C32.895 296.009 33.1877 295.649 33.5535 295.369L29.1082 295.369C28.8643 295.369 28.7119 295.405 28.6509 295.478C28.5777 295.564 28.535 295.765 28.5228 296.082L28.4679 297.18L28.0472 297.18L28.0472 292.314L28.4679 292.314ZM41.2185 297.308C41.2185 296.978 41.1575 296.643 41.0356 296.301C40.9258 295.96 40.7124 295.649 40.3953 295.369L33.8828 295.369C33.5657 295.649 33.3523 295.954 33.2425 296.283C33.1328 296.625 33.0779 296.954 33.0779 297.271C33.0779 297.722 33.1755 298.137 33.3706 298.515C33.5779 298.893 33.8584 299.216 34.2121 299.485C34.578 299.753 35.0109 299.96 35.5109 300.107C36.0231 300.253 36.5841 300.326 37.1939 300.326C37.7671 300.326 38.2976 300.253 38.7855 300.107C39.2855 299.96 39.7123 299.753 40.066 299.485C40.4319 299.216 40.7124 298.899 40.9075 298.533C41.1148 298.167 41.2185 297.759 41.2185 297.308ZM33.0047 303.624L33.0413 304.264C33.0535 304.569 33.0962 304.758 33.1694 304.831C33.2425 304.916 33.4011 304.959 33.645 304.959L45.0235 304.959L45.7736 303.624L45.8833 303.624L47.0541 306.679L33.645 306.679C33.4011 306.679 33.2425 306.715 33.1694 306.788C33.0962 306.874 33.0535 307.075 33.0413 307.392L33.0047 308.014L32.584 308.014L32.584 303.624L33.0047 303.624ZM32.3644 314.194C32.3644 313.535 32.4803 312.913 32.712 312.328C32.9559 311.742 33.2852 311.224 33.6999 310.773C34.1267 310.334 34.6328 309.98 35.2182 309.712C35.8158 309.456 36.4622 309.328 37.1573 309.328C37.9013 309.328 38.572 309.468 39.1696 309.748C39.7794 310.029 40.2916 310.395 40.7063 310.846C41.1331 311.309 41.4624 311.834 41.6941 312.419C41.9258 313.017 42.0417 313.627 42.0417 314.249C42.0417 314.907 41.9197 315.529 41.6758 316.114C41.4441 316.7 41.1148 317.212 40.688 317.651C40.2733 318.102 39.7733 318.456 39.1879 318.712C38.6025 318.98 37.9622 319.115 37.2671 319.115C36.5232 319.115 35.8463 318.974 35.2365 318.694C34.6389 318.426 34.1267 318.06 33.6999 317.596C33.273 317.145 32.9437 316.621 32.712 316.023C32.4803 315.438 32.3644 314.828 32.3644 314.194ZM32.895 314.23C32.895 314.608 32.9742 314.968 33.1328 315.31C33.2913 315.651 33.5413 315.956 33.8828 316.224C34.2365 316.493 34.6877 316.706 35.2365 316.864C35.7853 317.023 36.4439 317.102 37.2122 317.102C37.9927 317.102 38.6574 317.023 39.2062 316.864C39.755 316.706 40.2001 316.493 40.5416 316.224C40.8953 315.956 41.1514 315.651 41.31 315.31C41.4685 314.968 41.5478 314.608 41.5478 314.23C41.5478 313.84 41.4685 313.468 41.31 313.114C41.1514 312.773 40.8953 312.468 40.5416 312.2C40.2001 311.931 39.755 311.718 39.2062 311.559C38.6574 311.401 37.9927 311.322 37.2122 311.322C36.4439 311.322 35.7853 311.401 35.2365 311.559C34.6877 311.718 34.2365 311.931 33.8828 312.2C33.5413 312.468 33.2913 312.773 33.1328 313.114C32.9742 313.468 32.895 313.84 32.895 314.23ZM33.0047 320.526L33.0413 321.166C33.0535 321.471 33.0962 321.66 33.1694 321.733C33.2425 321.819 33.4011 321.861 33.645 321.861L40.0294 321.861L40.7794 320.526L40.8892 320.526L42.06 323.581L39.1696 323.581C40.1575 323.812 40.8648 324.233 41.2917 324.843C41.7185 325.453 41.9319 326.154 41.9319 326.947L41.9319 327.111L40.1941 327.111L40.2672 326.398C40.3038 325.861 40.2733 325.41 40.1758 325.044C40.0904 324.691 39.9501 324.404 39.755 324.184C39.5721 323.965 39.3404 323.806 39.0599 323.709C38.7916 323.623 38.4928 323.581 38.1635 323.581L33.645 323.581C33.4011 323.581 33.2425 323.617 33.1694 323.691C33.1084 323.776 33.0718 323.977 33.0596 324.294L33.0047 325.282L32.584 325.282L32.584 320.526L33.0047 320.526ZM32.3644 331.139C32.3644 330.712 32.4315 330.316 32.5657 329.95C32.6998 329.596 32.8767 329.291 33.0962 329.035C33.3279 328.779 33.5901 328.578 33.8828 328.431C34.1877 328.297 34.5048 328.23 34.8341 328.23C35.2609 328.23 35.6146 328.34 35.8951 328.559C36.1878 328.779 36.4317 329.053 36.6268 329.383C36.822 329.712 36.9866 330.066 37.1207 330.444C37.2671 330.834 37.4073 331.2 37.5415 331.541C37.761 332.114 37.9622 332.554 38.1452 332.858C38.3281 333.176 38.4989 333.407 38.6574 333.554C38.8281 333.7 38.9989 333.785 39.1696 333.81C39.3404 333.834 39.5233 333.846 39.7184 333.846C40.2306 333.846 40.6575 333.694 40.999 333.389C41.3526 333.084 41.5295 332.615 41.5295 331.98C41.5295 331.249 41.2795 330.7 40.7794 330.334C40.2916 329.968 39.6209 329.877 38.7672 330.06C38.7184 329.828 38.694 329.596 38.694 329.364C38.694 328.962 38.7733 328.651 38.9318 328.431C39.0903 328.224 39.2916 328.12 39.5355 328.12C39.694 328.12 39.8465 328.163 39.9928 328.248C40.1392 328.346 40.2794 328.474 40.4136 328.633C40.5477 328.791 40.6758 328.968 40.7977 329.163C40.9197 329.358 41.0356 329.566 41.1453 329.785C41.4136 330.285 41.6331 330.797 41.8039 331.322C41.9746 331.846 42.06 332.364 42.06 332.877C42.06 333.767 41.8466 334.438 41.4197 334.889C41.0051 335.34 40.2489 335.56 39.1513 335.548L33.3889 335.493L33.3889 336.883L32.9864 336.883L32.4559 333.993L34.5048 333.865C33.6999 333.621 33.1389 333.261 32.8218 332.785C32.5169 332.322 32.3644 331.773 32.3644 331.139ZM33.1145 331.871C33.1145 332.102 33.1633 332.334 33.2608 332.566C33.3584 332.797 33.5108 333.005 33.7182 333.188C33.9255 333.371 34.1999 333.517 34.5414 333.627C34.8828 333.749 35.2914 333.81 35.767 333.81L38.383 333.846C38.2001 333.602 38.0354 333.371 37.8891 333.151C37.7549 332.932 37.5964 332.645 37.4134 332.291C37.2427 331.974 37.0781 331.688 36.9195 331.432C36.761 331.175 36.5902 330.956 36.4073 330.773C36.2244 330.59 36.017 330.45 35.7853 330.352C35.5536 330.255 35.2853 330.206 34.9804 330.206C34.7365 330.206 34.5048 330.236 34.2853 330.297C34.0657 330.371 33.8645 330.474 33.6816 330.608C33.5108 330.755 33.3706 330.932 33.2608 331.139C33.1633 331.346 33.1145 331.59 33.1145 331.871ZM34.7609 341.018C34.2121 341.018 33.834 341.122 33.6267 341.329C33.4316 341.549 33.334 341.86 33.334 342.262C33.334 342.86 33.4682 343.427 33.7365 343.963L33.4072 344.128C33.2974 343.994 33.1816 343.817 33.0596 343.597C32.9498 343.378 32.8462 343.14 32.7486 342.884C32.6632 342.628 32.5901 342.353 32.5291 342.061C32.4681 341.78 32.4376 341.5 32.4376 341.219C32.4376 340.573 32.5657 340.091 32.8218 339.774C33.0779 339.457 33.5657 339.298 34.2853 339.298L40.8343 339.298L40.8343 337.323L40.9441 337.323L43.743 340.908L43.743 341.018L41.7673 341.018L41.7673 344.567L40.8343 343.982L40.8343 341.018L34.7609 341.018ZM33.0047 345.234L33.0413 345.875C33.0657 346.155 33.1084 346.338 33.1694 346.423C33.2425 346.521 33.4011 346.57 33.645 346.57L40.0294 346.57L40.7794 345.234L40.8892 345.234L42.06 348.289L33.645 348.289C33.4011 348.289 33.2425 348.332 33.1694 348.417C33.1084 348.515 33.0657 348.71 33.0413 349.003L33.0047 349.625L32.584 349.625L32.584 345.234L33.0047 345.234ZM45.7919 346.259C46.0967 346.259 46.365 346.375 46.5968 346.606C46.8285 346.838 46.9443 347.113 46.9443 347.43C46.9443 347.747 46.8285 348.021 46.5968 348.253C46.365 348.485 46.0967 348.6 45.7919 348.6C45.4748 348.6 45.1943 348.485 44.9504 348.253C44.7186 348.021 44.6028 347.747 44.6028 347.43C44.6028 347.113 44.7186 346.838 44.9504 346.606C45.1943 346.375 45.4748 346.259 45.7919 346.259ZM32.3644 355.801C32.3644 355.142 32.4803 354.52 32.712 353.935C32.9559 353.349 33.2852 352.831 33.6999 352.38C34.1267 351.941 34.6328 351.587 35.2182 351.319C35.8158 351.063 36.4622 350.934 37.1573 350.934C37.9013 350.934 38.572 351.075 39.1696 351.355C39.7794 351.636 40.2916 352.002 40.7063 352.453C41.1331 352.916 41.4624 353.441 41.6941 354.026C41.9258 354.624 42.0417 355.233 42.0417 355.855C42.0417 356.514 41.9197 357.136 41.6758 357.721C41.4441 358.307 41.1148 358.819 40.688 359.258C40.2733 359.709 39.7733 360.063 39.1879 360.319C38.6025 360.587 37.9622 360.721 37.2671 360.721C36.5232 360.721 35.8463 360.581 35.2365 360.301C34.6389 360.032 34.1267 359.667 33.6999 359.203C33.273 358.752 32.9437 358.227 32.712 357.63C32.4803 357.045 32.3644 356.435 32.3644 355.801ZM32.895 355.837C32.895 356.215 32.9742 356.575 33.1328 356.916C33.2913 357.258 33.5413 357.563 33.8828 357.831C34.2365 358.099 34.6877 358.313 35.2365 358.471C35.7853 358.63 36.4439 358.709 37.2122 358.709C37.9927 358.709 38.6574 358.63 39.2062 358.471C39.755 358.313 40.2001 358.099 40.5416 357.831C40.8953 357.563 41.1514 357.258 41.31 356.916C41.4685 356.575 41.5478 356.215 41.5478 355.837C41.5478 355.447 41.4685 355.075 41.31 354.721C41.1514 354.38 40.8953 354.075 40.5416 353.807C40.2001 353.538 39.755 353.325 39.2062 353.166C38.6574 353.008 37.9927 352.928 37.2122 352.928C36.4439 352.928 35.7853 353.008 35.2365 353.166C34.6877 353.325 34.2365 353.538 33.8828 353.807C33.5413 354.075 33.2913 354.38 33.1328 354.721C32.9742 355.075 32.895 355.447 32.895 355.837ZM33.0047 362.133L33.0413 362.773C33.0535 363.078 33.0962 363.267 33.1694 363.34C33.2425 363.425 33.4011 363.468 33.645 363.468L40.0294 363.468L40.7794 362.133L40.8892 362.133L42.06 365.188L39.5172 365.188C40.3709 365.383 41.0051 365.749 41.4197 366.285C41.8344 366.822 42.0417 367.474 42.0417 368.243C42.0417 369.133 41.7673 369.822 41.2185 370.31C40.6697 370.81 39.7306 371.06 38.4013 371.06L33.645 371.06C33.4011 371.06 33.2425 371.096 33.1694 371.17C33.0962 371.255 33.0535 371.456 33.0413 371.773L33.0047 372.395L32.584 372.395L32.584 368.005L33.0047 368.005L33.0413 368.645C33.0535 368.95 33.0962 369.139 33.1694 369.212C33.2425 369.298 33.4011 369.34 33.645 369.34L38.072 369.34C38.6208 369.34 39.0842 369.298 39.4623 369.212C39.8404 369.127 40.1392 368.999 40.3587 368.828C40.5904 368.67 40.755 368.468 40.8526 368.224C40.9502 367.98 40.999 367.7 40.999 367.383C40.999 367.09 40.9441 366.81 40.8343 366.541C40.7368 366.273 40.566 366.035 40.3221 365.828C40.0904 365.633 39.7855 365.474 39.4074 365.352C39.0416 365.243 38.5964 365.188 38.072 365.188L33.645 365.188C33.4011 365.188 33.2425 365.224 33.1694 365.297C33.0962 365.383 33.0535 365.584 33.0413 365.901L33.0047 366.523L32.584 366.523L32.584 362.133L33.0047 362.133ZM29.4558 373.441C29.907 374.026 30.3522 374.453 30.7912 374.721C31.2303 374.989 31.6449 375.124 32.0352 375.124C32.7059 375.124 33.1511 374.721 33.3706 373.916C33.7365 373.904 34.0535 374.014 34.3218 374.246C34.6023 374.489 34.7426 374.813 34.7426 375.215C34.7426 375.581 34.6206 375.886 34.3767 376.13C34.1328 376.374 33.7669 376.496 33.2791 376.496C32.6206 376.496 31.9193 376.264 31.1754 375.8C30.4192 375.349 29.7119 374.642 29.0533 373.678L29.4558 373.441ZM5.36446 3.75016C5.36446 3.32331 5.43154 2.92695 5.56569 2.56108C5.69984 2.20741 5.87668 1.90252 6.0962 1.64641C6.32792 1.3903 6.59012 1.18907 6.88282 1.04273C7.18771 0.908573 7.5048 0.841497 7.83408 0.841497C8.26093 0.841497 8.6146 0.951258 8.8951 1.17078C9.1878 1.3903 9.43171 1.6647 9.62684 1.99399C9.82197 2.32327 9.98661 2.67694 10.1208 3.05501C10.2671 3.44527 10.4074 3.81114 10.5415 4.15261C10.761 4.72581 10.9623 5.16485 11.1452 5.46974C11.3281 5.78683 11.4989 6.01855 11.6574 6.1649C11.8282 6.31124 11.9989 6.39661 12.1696 6.421C12.3404 6.4454 12.5233 6.45759 12.7184 6.45759C13.2307 6.45759 13.6575 6.30515 13.999 6.00025C14.3527 5.69536 14.5295 5.22583 14.5295 4.59166C14.5295 3.85992 14.2795 3.31112 13.7795 2.94525C13.2916 2.57938 12.6209 2.48791 11.7672 2.67084C11.7184 2.43913 11.694 2.20741 11.694 1.97569C11.694 1.57324 11.7733 1.26225 11.9318 1.04273C12.0904 0.8354 12.2916 0.731737 12.5355 0.731737C12.694 0.731737 12.8465 0.774422 12.9928 0.859791C13.1392 0.957356 13.2794 1.08541 13.4136 1.24395C13.5477 1.4025 13.6758 1.57933 13.7977 1.77446C13.9197 1.96959 14.0356 2.17692 14.1453 2.39644C14.4136 2.89646 14.6332 3.40868 14.8039 3.93309C14.9746 4.45751 15.06 4.97582 15.06 5.48804C15.06 6.37832 14.8466 7.04908 14.4197 7.50032C14.0051 7.95156 13.2489 8.17108 12.1513 8.15888L6.3889 8.104L6.3889 9.49431L5.98644 9.49431L5.45593 6.60394L7.5048 6.47588C6.69989 6.23197 6.13889 5.8722 5.8218 5.39657C5.51691 4.93314 5.36446 4.38433 5.36446 3.75016ZM6.11449 4.4819C6.11449 4.71361 6.16328 4.94533 6.26084 5.17705C6.35841 5.40877 6.51085 5.61609 6.71818 5.79903C6.9255 5.98196 7.19991 6.12831 7.54138 6.23807C7.88286 6.36003 8.29142 6.421 8.76705 6.421L11.383 6.45759C11.2001 6.21368 11.0354 5.98196 10.8891 5.76244C10.7549 5.54292 10.5964 5.25632 10.4135 4.90265C10.2427 4.58556 10.0781 4.29896 9.91954 4.04285C9.76099 3.78675 9.59025 3.56722 9.40732 3.38429C9.22438 3.20135 9.01706 3.0611 8.78534 2.96354C8.55362 2.86597 8.28532 2.81719 7.98043 2.81719C7.73652 2.81719 7.5048 2.84768 7.28528 2.90866C7.06575 2.98183 6.86453 3.0855 6.68159 3.21965C6.51085 3.366 6.3706 3.54283 6.26084 3.75016C6.16328 3.95748 6.11449 4.2014 6.11449 4.4819ZM6.00473 10.5195L6.04132 11.1597C6.05352 11.4646 6.0962 11.6536 6.16937 11.7268C6.24255 11.8122 6.40109 11.8549 6.645 11.8549L13.0294 11.8549L13.7795 10.5195L13.8892 10.5195L15.06 13.5745L12.5172 13.5745C13.3709 13.7696 14.0051 14.1355 14.4197 14.6721C14.8344 15.2087 15.0417 15.8611 15.0417 16.6295C15.0417 17.5198 14.7673 18.2088 14.2185 18.6966C13.6697 19.1967 12.7306 19.4467 11.4013 19.4467L6.645 19.4467C6.40109 19.4467 6.24255 19.4833 6.16937 19.5564C6.0962 19.6418 6.05352 19.843 6.04132 20.1601L6.00473 20.7821L5.58398 20.7821L5.58398 16.3917L6.00473 16.3917L6.04132 17.0319C6.05352 17.3368 6.0962 17.5259 6.16937 17.599C6.24255 17.6844 6.40109 17.7271 6.645 17.7271L11.072 17.7271C11.6208 17.7271 12.0843 17.6844 12.4623 17.599C12.8404 17.5137 13.1392 17.3856 13.3587 17.2149C13.5904 17.0563 13.7551 16.8551 13.8526 16.6112C13.9502 16.3673 13.999 16.0868 13.999 15.7697C13.999 15.477 13.9441 15.1965 13.8343 14.9282C13.7368 14.6599 13.566 14.4221 13.3221 14.2147C13.0904 14.0196 12.7855 13.8611 12.4074 13.7391C12.0416 13.6293 11.5964 13.5745 11.072 13.5745L6.645 13.5745C6.40109 13.5745 6.24255 13.611 6.16937 13.6842C6.0962 13.7696 6.05352 13.9708 6.04132 14.2879L6.00473 14.9099L5.58398 14.9099L5.58398 10.5195L6.00473 10.5195ZM5.36446 26.1263C5.36446 25.541 5.47422 24.9983 5.69374 24.4982C5.92546 23.9982 6.24865 23.5653 6.6633 23.1994C7.09015 22.8335 7.60236 22.5408 8.19995 22.3213C8.79754 22.114 9.4683 22.0103 10.2122 22.0103C10.9196 22.0103 11.5659 22.1201 12.1513 22.3396C12.7489 22.5591 13.2611 22.864 13.688 23.2543C14.1148 23.6445 14.4441 24.1019 14.6758 24.6263C14.9197 25.1629 15.0417 25.7422 15.0417 26.3642C15.0417 26.9008 14.9319 27.3886 14.7124 27.8276C14.5051 28.2667 14.2246 28.6265 13.8709 28.907L18.0235 28.907L18.7736 27.2057L18.8833 27.2057L20.0541 30.6265L6.3889 30.6265L6.3889 32.0351L5.98644 32.0351L5.41934 28.907L6.69988 28.907C6.30962 28.6021 5.98644 28.2057 5.73033 27.7179C5.48642 27.2423 5.36446 26.7117 5.36446 26.1263ZM10.2305 23.9494C9.64513 23.9494 9.10852 24.0226 8.6207 24.1689C8.13287 24.3153 7.70603 24.5226 7.34016 24.7909C6.98648 25.0592 6.70598 25.3763 6.49866 25.7422C6.30353 26.1203 6.20596 26.5349 6.20596 26.9861C6.20596 27.3032 6.26084 27.6325 6.3706 27.974C6.49256 28.3277 6.71208 28.6387 7.02917 28.907L13.5233 28.907C13.8404 28.6265 14.0539 28.3155 14.1636 27.974C14.2856 27.6447 14.3466 27.3215 14.3466 27.0044C14.3466 26.5532 14.2429 26.1385 14.0356 25.7605C13.8404 25.3824 13.5599 25.0592 13.1941 24.7909C12.8404 24.5226 12.4074 24.3153 11.8952 24.1689C11.3952 24.0226 10.8403 23.9494 10.2305 23.9494ZM6.04132 40.9339L6.0962 42.0315C6.1084 42.2998 6.15108 42.501 6.22425 42.6352C6.30962 42.7815 6.48036 42.8547 6.73647 42.8547L18.9199 42.8547L18.9199 39.6717C18.9199 39.5131 18.9016 39.3973 18.865 39.3241C18.8406 39.2631 18.7614 39.2021 18.6272 39.1411L15.1698 37.5313L15.1698 37.202L19.4504 37.6411L19.4504 49.916L15.1698 50.3733L15.1698 50.0441L18.6272 48.4159C18.7614 48.355 18.8406 48.2879 18.865 48.2147C18.9016 48.1537 18.9199 48.0501 18.9199 47.9037L18.9199 44.7207L6.73647 44.7207C6.48036 44.7207 6.31572 44.7877 6.24255 44.9219C6.16937 45.056 6.12059 45.2634 6.0962 45.5439L6.04132 46.6415L5.58398 46.6415L5.58398 40.9339L6.04132 40.9339ZM5.36446 54.4714C5.36446 53.8128 5.47422 53.1969 5.69374 52.6237C5.91326 52.0627 6.22425 51.5749 6.62671 51.1602C7.04136 50.7578 7.54748 50.4346 8.14507 50.1907C8.74265 49.959 9.41951 49.8431 10.1756 49.8431C10.9074 49.8431 11.572 49.9651 12.1696 50.209C12.7672 50.4651 13.2794 50.8066 13.7063 51.2334C14.1331 51.6603 14.4624 52.1481 14.6941 52.6969C14.9258 53.2579 15.0417 53.8433 15.0417 54.4531C15.0417 54.8799 14.9746 55.3129 14.8405 55.7519C14.7063 56.2031 14.4929 56.6239 14.2002 57.0141C13.9075 57.4044 13.5233 57.7459 13.0477 58.0386C12.5721 58.3435 11.9928 58.563 11.3098 58.6971L11.3098 51.709L10.9623 51.709C10.2915 51.709 9.68172 51.7944 9.13291 51.9652C8.58411 52.1481 8.10848 52.392 7.70602 52.6969C7.31576 53.014 7.01087 53.3859 6.79135 53.8128C6.57183 54.2396 6.46207 54.7092 6.46207 55.2214C6.46207 55.5141 6.49256 55.819 6.55354 56.1361C6.61451 56.4531 6.73037 56.758 6.90111 57.0507C7.08405 57.3434 7.33406 57.6178 7.65114 57.8739C7.98043 58.13 8.40727 58.3435 8.93169 58.5142L8.93169 58.935C7.69993 58.6545 6.79745 58.1179 6.22425 57.3251C5.65106 56.5446 5.36446 55.5934 5.36446 54.4714ZM14.6027 54.3982C14.6027 53.7396 14.3709 53.1664 13.9075 52.6786C13.4563 52.203 12.7672 51.8981 11.8403 51.7639L11.8403 56.5751C12.2184 56.5629 12.5721 56.5141 12.9014 56.4288C13.2428 56.3434 13.5355 56.2092 13.7795 56.0263C14.0356 55.8556 14.2368 55.636 14.3831 55.3677C14.5295 55.0994 14.6027 54.7762 14.6027 54.3982ZM5.36446 65.0111C5.36446 64.3525 5.48032 63.7367 5.71204 63.1635C5.94375 62.6025 6.26694 62.1146 6.68159 61.7C7.10844 61.2853 7.61456 60.9622 8.19995 60.7304C8.79753 60.4987 9.4561 60.3829 10.1756 60.3829C10.883 60.3829 11.5355 60.5109 12.133 60.767C12.7306 61.0353 13.2428 61.3951 13.6697 61.8463C14.1087 62.2976 14.4441 62.822 14.6758 63.4196C14.9197 64.0172 15.0417 64.6574 15.0417 65.3404C15.0417 65.7428 14.9929 66.1392 14.8954 66.5295C14.81 66.9197 14.6819 67.2673 14.5112 67.5722C14.3405 67.8893 14.1331 68.1454 13.8892 68.3405C13.6453 68.5356 13.3709 68.6332 13.066 68.6332C12.7489 68.6332 12.505 68.5174 12.3343 68.2856C12.1635 68.0661 12.0782 67.7856 12.0782 67.4441C12.0782 67.3832 12.0782 67.3161 12.0782 67.2429C12.0904 67.1819 12.1026 67.1149 12.1147 67.0417C12.9928 66.9685 13.6209 66.7246 13.999 66.3099C14.377 65.8953 14.5661 65.3892 14.5661 64.7916C14.5661 64.4623 14.499 64.1452 14.3648 63.8403C14.2307 63.5354 14.0234 63.2671 13.7429 63.0354C13.4746 62.8037 13.127 62.6147 12.7001 62.4683C12.2733 62.3342 11.7733 62.261 11.2001 62.2488C10.5659 62.2366 9.96222 62.3098 9.38902 62.4683C8.81583 62.6269 8.30971 62.8586 7.87066 63.1635C7.44382 63.4684 7.10234 63.8403 6.84623 64.2794C6.59012 64.7184 6.46207 65.2123 6.46207 65.7611C6.46207 66.0416 6.49865 66.3282 6.57183 66.6209C6.645 66.9258 6.77306 67.2124 6.95599 67.4807C7.13893 67.7612 7.38894 68.0173 7.70602 68.249C8.02311 68.4808 8.43166 68.6637 8.93169 68.7979L8.93169 69.2186C8.29751 69.0966 7.75481 68.9015 7.30357 68.6332C6.85233 68.3771 6.48036 68.0661 6.18767 67.7002C5.90717 67.3344 5.69984 66.9197 5.56569 66.4563C5.43154 66.0051 5.36446 65.5233 5.36446 65.0111ZM6.00473 70.2195L6.04132 70.8597C6.05351 71.1646 6.0962 71.3537 6.16937 71.4268C6.24255 71.5122 6.40109 71.5549 6.645 71.5549L18.0235 71.5549L18.7736 70.2195L18.8833 70.2195L20.0541 73.2745L12.5172 73.2745C13.3709 73.4696 14.0051 73.8355 14.4197 74.3721C14.8344 74.9087 15.0417 75.5611 15.0417 76.3295C15.0417 77.2198 14.7673 77.9088 14.2185 78.3966C13.6697 78.8967 12.7306 79.1467 11.4013 79.1467L6.645 79.1467C6.40109 79.1467 6.24255 79.1833 6.16937 79.2564C6.0962 79.3418 6.05351 79.543 6.04132 79.8601L6.00473 80.4821L5.58398 80.4821L5.58398 76.0917L6.00473 76.0917L6.04132 76.7319C6.05351 77.0368 6.0962 77.2259 6.16937 77.299C6.24255 77.3844 6.40109 77.4271 6.645 77.4271L11.072 77.4271C11.6208 77.4271 12.0843 77.3844 12.4623 77.299C12.8404 77.2137 13.1392 77.0856 13.3587 76.9149C13.5904 76.7563 13.7551 76.5551 13.8526 76.3112C13.9502 76.0673 13.999 75.7868 13.999 75.4697C13.999 75.177 13.9441 74.8965 13.8343 74.6282C13.7368 74.3599 13.566 74.1221 13.3221 73.9147C13.0904 73.7196 12.7855 73.5611 12.4074 73.4391C12.0416 73.3293 11.5964 73.2745 11.072 73.2745L6.645 73.2745C6.40109 73.2745 6.24255 73.3111 6.16937 73.3842C6.0962 73.4696 6.05351 73.6708 6.04132 73.9879L6.00473 74.6099L5.58398 74.6099L5.58398 70.2195L6.00473 70.2195ZM6.00473 81.5495L6.04132 82.1898C6.05351 82.4947 6.0962 82.6837 6.16937 82.7569C6.24255 82.8423 6.40109 82.885 6.645 82.885L13.0294 82.885L13.7795 81.5495L13.8892 81.5495L15.06 84.6045L12.5172 84.6045C13.3709 84.7997 14.0051 85.1655 14.4197 85.7022C14.8344 86.2388 15.0417 86.8912 15.0417 87.6596C15.0417 88.5498 14.7673 89.2389 14.2185 89.7267C13.6697 90.2267 12.7306 90.4768 11.4013 90.4768L6.645 90.4768C6.40109 90.4768 6.24255 90.5133 6.16937 90.5865C6.0962 90.6719 6.05351 90.8731 6.04132 91.1902L6.00473 91.8122L5.58398 91.8122L5.58398 87.4217L6.00473 87.4217L6.04132 88.062C6.05351 88.3669 6.0962 88.5559 6.16937 88.6291C6.24255 88.7145 6.40109 88.7572 6.645 88.7572L11.072 88.7572C11.6208 88.7572 12.0843 88.7145 12.4623 88.6291C12.8404 88.5437 13.1392 88.4157 13.3587 88.2449C13.5904 88.0864 13.7551 87.8852 13.8526 87.6413C13.9502 87.3974 13.999 87.1169 13.999 86.7998C13.999 86.5071 13.9441 86.2266 13.8343 85.9583C13.7368 85.69 13.566 85.4521 13.3221 85.2448C13.0904 85.0497 12.7855 84.8911 12.4074 84.7692C12.0416 84.6594 11.5964 84.6045 11.072 84.6045L6.645 84.6045C6.40109 84.6045 6.24255 84.6411 6.16937 84.7143C6.0962 84.7997 6.05351 85.0009 6.04132 85.318L6.00473 85.94L5.58398 85.94L5.58398 81.5495L6.00473 81.5495ZM5.36446 97.8699C5.36446 97.2113 5.48032 96.5893 5.71203 96.0039C5.95595 95.4186 6.28523 94.9002 6.69988 94.449C7.12673 94.01 7.63285 93.6563 8.21824 93.388C8.81583 93.1319 9.46219 93.0038 10.1573 93.0038C10.9013 93.0038 11.572 93.1441 12.1696 93.4246C12.7794 93.7051 13.2916 94.0709 13.7063 94.5222C14.1331 94.9856 14.4624 95.51 14.6941 96.0954C14.9258 96.693 15.0417 97.3028 15.0417 97.9248C15.0417 98.5833 14.9197 99.2053 14.6758 99.7907C14.4441 100.376 14.1148 100.888 13.688 101.327C13.2733 101.779 12.7733 102.132 12.1879 102.388C11.6025 102.657 10.9623 102.791 10.2671 102.791C9.52317 102.791 8.84631 102.651 8.23653 102.37C7.63895 102.102 7.12673 101.736 6.69988 101.272C6.27303 100.821 5.94375 100.297 5.71203 99.6992C5.48032 99.1138 5.36446 98.5041 5.36446 97.8699ZM5.89497 97.9065C5.89497 98.2845 5.97424 98.6443 6.13278 98.9858C6.29133 99.3273 6.54134 99.6322 6.88282 99.9005C7.23649 100.169 7.68773 100.382 8.23653 100.541C8.78534 100.699 9.4439 100.779 10.2122 100.779C10.9927 100.779 11.6574 100.699 12.2062 100.541C12.755 100.382 13.2002 100.169 13.5416 99.9005C13.8953 99.6322 14.1514 99.3273 14.31 98.9858C14.4685 98.6443 14.5478 98.2845 14.5478 97.9065C14.5478 97.5162 14.4685 97.1442 14.31 96.7906C14.1514 96.4491 13.8953 96.1442 13.5416 95.8759C13.2002 95.6076 12.755 95.3942 12.2062 95.2356C11.6574 95.0771 10.9927 94.9978 10.2122 94.9978C9.4439 94.9978 8.78534 95.0771 8.23653 95.2356C7.68773 95.3942 7.23649 95.6076 6.88282 95.8759C6.54134 96.1442 6.29133 96.4491 6.13278 96.7906C5.97424 97.1442 5.89497 97.5162 5.89497 97.9065ZM6.00473 104.111L6.04132 104.751C6.05351 105.056 6.0962 105.245 6.16937 105.318C6.24254 105.403 6.40109 105.446 6.645 105.446L18.0235 105.446L18.7736 104.111L18.8833 104.111L20.0541 107.166L6.645 107.166C6.40109 107.166 6.24254 107.202 6.16937 107.275C6.0962 107.361 6.05351 107.562 6.04132 107.879L6.00473 108.501L5.58398 108.501L5.58398 104.111L6.00473 104.111ZM5.36446 114.681C5.36446 114.022 5.48032 113.4 5.71203 112.815C5.95595 112.229 6.28523 111.711 6.69988 111.26C7.12673 110.821 7.63285 110.467 8.21824 110.199C8.81582 109.943 9.46219 109.815 10.1573 109.815C10.9013 109.815 11.572 109.955 12.1696 110.235C12.7794 110.516 13.2916 110.882 13.7063 111.333C14.1331 111.796 14.4624 112.321 14.6941 112.906C14.9258 113.504 15.0417 114.113 15.0417 114.735C15.0417 115.394 14.9197 116.016 14.6758 116.601C14.4441 117.187 14.1148 117.699 13.688 118.138C13.2733 118.589 12.7733 118.943 12.1879 119.199C11.6025 119.467 10.9623 119.602 10.2671 119.602C9.52317 119.602 8.84631 119.461 8.23653 119.181C7.63894 118.912 7.12673 118.547 6.69988 118.083C6.27303 117.632 5.94375 117.108 5.71203 116.51C5.48032 115.925 5.36446 115.315 5.36446 114.681ZM5.89497 114.717C5.89497 115.095 5.97424 115.455 6.13278 115.796C6.29133 116.138 6.54134 116.443 6.88282 116.711C7.23649 116.979 7.68773 117.193 8.23653 117.351C8.78534 117.51 9.4439 117.589 10.2122 117.589C10.9927 117.589 11.6574 117.51 12.2062 117.351C12.755 117.193 13.2002 116.979 13.5416 116.711C13.8953 116.443 14.1514 116.138 14.31 115.796C14.4685 115.455 14.5478 115.095 14.5478 114.717C14.5478 114.327 14.4685 113.955 14.31 113.601C14.1514 113.26 13.8953 112.955 13.5416 112.687C13.2002 112.418 12.755 112.205 12.2062 112.046C11.6574 111.888 10.9927 111.808 10.2122 111.808C9.4439 111.808 8.78534 111.888 8.23653 112.046C7.68773 112.205 7.23649 112.418 6.88282 112.687C6.54134 112.955 6.29133 113.26 6.13278 113.601C5.97424 113.955 5.89497 114.327 5.89497 114.717ZM8.58411 125.22C8.58411 124.757 8.65118 124.306 8.78534 123.866L7.17551 122.458L6.73647 127.013C6.61451 128.233 6.39499 129.111 6.0779 129.647C5.76082 130.196 5.27299 130.47 4.61443 130.47C4.10221 130.47 3.62048 130.306 3.16924 129.976C2.70581 129.659 2.30335 129.22 1.96187 128.659C1.6082 128.098 1.3338 127.44 1.13867 126.684C0.931341 125.94 0.827678 125.141 0.827678 124.287C0.827678 123.214 1.02891 122.36 1.43136 121.726C1.82162 121.092 2.33384 120.775 2.96801 120.775C3.2729 120.775 3.5595 120.86 3.82781 121.031C4.08392 121.202 4.31563 121.433 4.52296 121.726C4.73028 122.031 4.90102 122.379 5.03518 122.769C5.16933 123.171 5.26079 123.598 5.30958 124.049C5.37056 123.805 5.44983 123.537 5.54739 123.244C5.63276 122.964 5.72423 122.69 5.82179 122.421C5.93155 122.165 6.03522 121.921 6.13278 121.69C6.23035 121.47 6.31572 121.293 6.38889 121.159L8.94998 123.427C9.20608 122.83 9.58415 122.348 10.0842 121.982C10.5842 121.629 11.1574 121.452 11.8038 121.452C12.2672 121.452 12.694 121.549 13.0843 121.744C13.4868 121.94 13.8282 122.202 14.1087 122.531C14.4014 122.873 14.627 123.275 14.7856 123.738C14.9563 124.202 15.0417 124.708 15.0417 125.257C15.0417 125.72 14.9807 126.159 14.8588 126.574C14.7368 126.989 14.5661 127.354 14.3465 127.672L15.371 128.22L15.371 131.33L14.2002 130.69L14.2002 127.854C13.9197 128.22 13.5721 128.507 13.1575 128.714C12.755 128.922 12.316 129.025 11.8403 129.025C11.3769 129.025 10.944 128.928 10.5415 128.733C10.1512 128.537 9.80977 128.269 9.51707 127.928C9.22438 127.598 8.99266 127.202 8.82192 126.739C8.66338 126.275 8.58411 125.769 8.58411 125.22ZM9.04144 125.549C9.04144 126.062 9.23048 126.489 9.60854 126.83C9.9988 127.171 10.572 127.342 11.3281 127.342C11.7672 127.342 12.1879 127.287 12.5904 127.178C12.9928 127.068 13.3404 126.909 13.6331 126.702C13.938 126.495 14.1758 126.245 14.3465 125.952C14.5295 125.659 14.6209 125.336 14.6209 124.982C14.6209 124.458 14.4258 124.025 14.0356 123.684C13.6575 123.342 13.0904 123.171 12.3343 123.171C11.8952 123.171 11.4745 123.226 11.072 123.336C10.6696 123.446 10.3159 123.604 10.011 123.812C9.7183 124.019 9.48049 124.269 9.29755 124.562C9.12681 124.854 9.04144 125.184 9.04144 125.549ZM1.43136 124.891C1.43136 125.428 1.49234 125.946 1.6143 126.446C1.73625 126.946 1.90089 127.385 2.10822 127.763C2.31555 128.153 2.55946 128.464 2.83996 128.696C3.12046 128.928 3.41925 129.044 3.73634 129.044C4.28514 129.044 4.66931 128.714 4.88883 128.056C5.10835 127.409 5.21811 126.476 5.21811 125.257C5.21811 124.708 5.16323 124.232 5.05347 123.83C4.94371 123.427 4.79736 123.092 4.61443 122.824C4.43149 122.555 4.22416 122.354 3.99245 122.22C3.76073 122.098 3.52292 122.037 3.279 122.037C2.7302 122.037 2.28506 122.275 1.94358 122.751C1.6021 123.238 1.43136 123.952 1.43136 124.891ZM6.00473 131.858L6.04132 132.499C6.06571 132.779 6.10839 132.962 6.16937 133.047C6.24254 133.145 6.40109 133.194 6.645 133.194L13.0294 133.194L13.7795 131.858L13.8892 131.858L15.06 134.913L6.645 134.913C6.40109 134.913 6.24254 134.956 6.16937 135.041C6.10839 135.139 6.06571 135.334 6.04132 135.627L6.00473 136.249L5.58398 136.249L5.58398 131.858L6.00473 131.858ZM18.7919 132.883C19.0968 132.883 19.3651 132.999 19.5968 133.23C19.8285 133.462 19.9443 133.736 19.9443 134.053C19.9443 134.371 19.8285 134.645 19.5968 134.877C19.3651 135.108 19.0968 135.224 18.7919 135.224C18.4748 135.224 18.1943 135.108 17.9504 134.877C17.7186 134.645 17.6028 134.371 17.6028 134.053C17.6028 133.736 17.7186 133.462 17.9504 133.23C18.1943 132.999 18.4748 132.883 18.7919 132.883ZM5.36446 142.187C5.36446 141.528 5.48032 140.912 5.71203 140.339C5.94375 139.778 6.26693 139.29 6.68159 138.876C7.10843 138.461 7.61455 138.138 8.19994 137.906C8.79753 137.674 9.45609 137.558 10.1756 137.558C10.883 137.558 11.5355 137.686 12.133 137.943C12.7306 138.211 13.2428 138.571 13.6697 139.022C14.1087 139.473 14.4441 139.998 14.6758 140.595C14.9197 141.193 15.0417 141.833 15.0417 142.516C15.0417 142.918 14.9929 143.315 14.8954 143.705C14.81 144.095 14.6819 144.443 14.5112 144.748C14.3404 145.065 14.1331 145.321 13.8892 145.516C13.6453 145.711 13.3709 145.809 13.066 145.809C12.7489 145.809 12.505 145.693 12.3343 145.461C12.1635 145.242 12.0782 144.961 12.0782 144.62C12.0782 144.559 12.0782 144.492 12.0782 144.418C12.0904 144.357 12.1025 144.29 12.1147 144.217C12.9928 144.144 13.6209 143.9 13.999 143.485C14.377 143.071 14.5661 142.565 14.5661 141.967C14.5661 141.638 14.499 141.321 14.3648 141.016C14.2307 140.711 14.0234 140.443 13.7429 140.211C13.4746 139.979 13.127 139.79 12.7001 139.644C12.2733 139.51 11.7733 139.437 11.2001 139.424C10.5659 139.412 9.96221 139.485 9.38902 139.644C8.81582 139.802 8.3097 140.034 7.87066 140.339C7.44381 140.644 7.10234 141.016 6.84623 141.455C6.59012 141.894 6.46206 142.388 6.46206 142.937C6.46206 143.217 6.49865 143.504 6.57183 143.796C6.645 144.101 6.77305 144.388 6.95599 144.656C7.13892 144.937 7.38893 145.193 7.70602 145.425C8.02311 145.656 8.43166 145.839 8.93168 145.973L8.93168 146.394C8.29751 146.272 7.7548 146.077 7.30356 145.809C6.85232 145.553 6.48036 145.242 6.18766 144.876C5.90716 144.51 5.69984 144.095 5.56568 143.632C5.43153 143.181 5.36446 142.699 5.36446 142.187ZM5.36446 150.67C5.36446 150.243 5.43153 149.846 5.56568 149.48C5.69984 149.127 5.87667 148.822 6.09619 148.566C6.32791 148.31 6.59012 148.108 6.88281 147.962C7.1877 147.828 7.50479 147.761 7.83407 147.761C8.26092 147.761 8.6146 147.871 8.89509 148.09C9.18779 148.31 9.4317 148.584 9.62683 148.913C9.82196 149.243 9.9866 149.596 10.1208 149.974C10.2671 150.365 10.4074 150.731 10.5415 151.072C10.761 151.645 10.9623 152.084 11.1452 152.389C11.3281 152.706 11.4989 152.938 11.6574 153.084C11.8281 153.231 11.9989 153.316 12.1696 153.34C12.3404 153.365 12.5233 153.377 12.7184 153.377C13.2306 153.377 13.6575 153.225 13.999 152.92C14.3526 152.615 14.5295 152.145 14.5295 151.511C14.5295 150.779 14.2795 150.23 13.7794 149.865C13.2916 149.499 12.6209 149.407 11.7672 149.59C11.7184 149.358 11.694 149.127 11.694 148.895C11.694 148.493 11.7733 148.182 11.9318 147.962C12.0904 147.755 12.2916 147.651 12.5355 147.651C12.694 147.651 12.8465 147.694 12.9928 147.779C13.1392 147.877 13.2794 148.005 13.4136 148.163C13.5477 148.322 13.6758 148.499 13.7977 148.694C13.9197 148.889 14.0356 149.096 14.1453 149.316C14.4136 149.816 14.6331 150.328 14.8039 150.852C14.9746 151.377 15.06 151.895 15.06 152.407C15.06 153.298 14.8466 153.968 14.4197 154.42C14.0051 154.871 13.2489 155.09 12.1513 155.078L6.38889 155.023L6.38889 156.414L5.98643 156.414L5.45592 153.523L7.50479 153.395C6.69988 153.151 6.13888 152.792 5.82179 152.316C5.5169 151.853 5.36446 151.304 5.36446 150.67ZM6.11449 151.401C6.11449 151.633 6.16327 151.865 6.26084 152.096C6.3584 152.328 6.51085 152.535 6.71817 152.718C6.9255 152.901 7.1999 153.048 7.54138 153.157C7.88286 153.279 8.29141 153.34 8.76704 153.34L11.383 153.377C11.2001 153.133 11.0354 152.901 10.8891 152.682C10.7549 152.462 10.5964 152.176 10.4135 151.822C10.2427 151.505 10.0781 151.218 9.91953 150.962C9.76099 150.706 9.59025 150.487 9.40731 150.304C9.22438 150.121 9.01705 149.98 8.78533 149.883C8.55362 149.785 8.28531 149.737 7.98042 149.737C7.73651 149.737 7.50479 149.767 7.28527 149.828C7.06575 149.901 6.86452 150.005 6.68159 150.139C6.51085 150.285 6.3706 150.462 6.26084 150.67C6.16327 150.877 6.11449 151.121 6.11449 151.401ZM6.00473 157.347L6.04131 157.988C6.05351 158.293 6.09619 158.482 6.16937 158.555C6.24254 158.64 6.40109 158.683 6.645 158.683L18.0235 158.683L18.7736 157.347L18.8833 157.347L20.0541 160.402L6.645 160.402C6.40109 160.402 6.24254 160.439 6.16937 160.512C6.09619 160.597 6.05351 160.799 6.04131 161.116L6.00473 161.738L5.58398 161.738L5.58398 157.347L6.00473 157.347ZM6.02302 167.684L6.0779 168.507C6.10229 168.775 6.15107 168.977 6.22425 169.111C6.30962 169.257 6.48036 169.33 6.73647 169.33L18.2979 169.33C18.554 169.33 18.7187 169.257 18.7919 169.111C18.8772 168.977 18.9321 168.775 18.9565 168.507L19.0114 167.684L19.4504 167.684L19.4504 172.843L19.0114 172.843L18.9565 172.019C18.9321 171.739 18.8772 171.526 18.7919 171.379C18.7187 171.245 18.554 171.178 18.2979 171.178L6.73647 171.178C6.48036 171.178 6.30962 171.245 6.22425 171.379C6.15107 171.526 6.10229 171.739 6.0779 172.019L6.02302 172.843L5.58398 172.843L5.58398 167.684L6.02302 167.684ZM6.00473 174.464L6.04131 175.104C6.05351 175.409 6.09619 175.598 6.16937 175.671C6.24254 175.757 6.40108 175.799 6.645 175.799L13.0294 175.799L13.7794 174.464L13.8892 174.464L15.06 177.519L12.5172 177.519C13.3709 177.714 14.0051 178.08 14.4197 178.617C14.8344 179.153 15.0417 179.806 15.0417 180.574C15.0417 181.464 14.7673 182.153 14.2185 182.641C13.6697 183.141 12.7306 183.391 11.4013 183.391L6.645 183.391C6.40108 183.391 6.24254 183.428 6.16937 183.501C6.09619 183.586 6.05351 183.787 6.04131 184.105L6.00473 184.727L5.58398 184.727L5.58398 180.336L6.00473 180.336L6.04131 180.976C6.05351 181.281 6.09619 181.47 6.16937 181.543C6.24254 181.629 6.40108 181.672 6.645 181.672L11.072 181.672C11.6208 181.672 12.0843 181.629 12.4623 181.543C12.8404 181.458 13.1392 181.33 13.3587 181.159C13.5904 181.001 13.7551 180.8 13.8526 180.556C13.9502 180.312 13.999 180.031 13.999 179.714C13.999 179.421 13.9441 179.141 13.8343 178.873C13.7368 178.604 13.566 178.366 13.3221 178.159C13.0904 177.964 12.7855 177.805 12.4074 177.684C12.0416 177.574 11.5964 177.519 11.072 177.519L6.645 177.519C6.40108 177.519 6.24254 177.555 6.16937 177.629C6.09619 177.714 6.05351 177.915 6.04131 178.232L6.00473 178.854L5.58398 178.854L5.58398 174.464L6.00473 174.464ZM6.00473 185.79L6.04131 186.43C6.05351 186.735 6.09619 186.924 6.16937 186.997C6.24254 187.083 6.40108 187.126 6.645 187.126L13.0294 187.126L13.7794 185.79L13.8892 185.79L15.06 188.845L12.5172 188.845C13.3709 189.04 14.0051 189.406 14.4197 189.943C14.8344 190.479 15.0417 191.132 15.0417 191.9C15.0417 192.79 14.7673 193.479 14.2185 193.967C13.6697 194.467 12.7306 194.717 11.4013 194.717L6.645 194.717C6.40108 194.717 6.24254 194.754 6.16937 194.827C6.09619 194.912 6.05351 195.114 6.04131 195.431L6.00473 196.053L5.58398 196.053L5.58398 191.662L6.00473 191.662L6.04131 192.303C6.05351 192.607 6.09619 192.797 6.16937 192.87C6.24254 192.955 6.40108 192.998 6.645 192.998L11.072 192.998C11.6208 192.998 12.0843 192.955 12.4623 192.87C12.8404 192.784 13.1392 192.656 13.3587 192.486C13.5904 192.327 13.7551 192.126 13.8526 191.882C13.9502 191.638 13.999 191.357 13.999 191.04C13.999 190.748 13.9441 190.467 13.8343 190.199C13.7368 189.931 13.566 189.693 13.3221 189.485C13.0904 189.29 12.7855 189.132 12.4074 189.01C12.0416 188.9 11.5964 188.845 11.072 188.845L6.645 188.845C6.40108 188.845 6.24254 188.882 6.16937 188.955C6.09619 189.04 6.05351 189.241 6.04131 189.559L6.00473 190.181L5.58398 190.181L5.58398 185.79L6.00473 185.79ZM5.36445 202.11C5.36445 201.452 5.48031 200.83 5.71203 200.245C5.95594 199.659 6.28523 199.141 6.69988 198.69C7.12672 198.251 7.63284 197.897 8.21823 197.629C8.81582 197.372 9.46219 197.244 10.1573 197.244C10.9013 197.244 11.572 197.385 12.1696 197.665C12.7794 197.946 13.2916 198.312 13.7063 198.763C14.1331 199.226 14.4624 199.751 14.6941 200.336C14.9258 200.934 15.0417 201.543 15.0417 202.165C15.0417 202.824 14.9197 203.446 14.6758 204.031C14.4441 204.617 14.1148 205.129 13.688 205.568C13.2733 206.019 12.7733 206.373 12.1879 206.629C11.6025 206.897 10.9623 207.031 10.2671 207.031C9.52317 207.031 8.84631 206.891 8.23653 206.611C7.63894 206.342 7.12672 205.976 6.69988 205.513C6.27303 205.062 5.94375 204.537 5.71203 203.94C5.48031 203.354 5.36445 202.745 5.36445 202.11ZM5.89496 202.147C5.89496 202.525 5.97424 202.885 6.13278 203.226C6.29132 203.568 6.54133 203.873 6.88281 204.141C7.23648 204.409 7.68772 204.623 8.23653 204.781C8.78533 204.94 9.4439 205.019 10.2122 205.019C10.9927 205.019 11.6574 204.94 12.2062 204.781C12.755 204.623 13.2002 204.409 13.5416 204.141C13.8953 203.873 14.1514 203.568 14.31 203.226C14.4685 202.885 14.5478 202.525 14.5478 202.147C14.5478 201.757 14.4685 201.385 14.31 201.031C14.1514 200.69 13.8953 200.385 13.5416 200.116C13.2002 199.848 12.755 199.635 12.2062 199.476C11.6574 199.318 10.9927 199.238 10.2122 199.238C9.4439 199.238 8.78533 199.318 8.23653 199.476C7.68772 199.635 7.23649 199.848 6.88281 200.116C6.54133 200.385 6.29132 200.69 6.13278 201.031C5.97424 201.385 5.89496 201.757 5.89496 202.147ZM13.6148 208.852C13.8587 208.743 14.0356 208.633 14.1453 208.523C14.2551 208.425 14.3161 208.236 14.3283 207.956L14.3465 207.425L14.7673 207.425L14.7673 211.871L14.3465 211.871L14.3283 211.267C14.3039 210.694 14.0843 210.499 13.6697 210.682L7.61455 213.279L13.377 215.731C13.7063 215.865 13.9441 215.877 14.0904 215.767C14.2368 215.67 14.3161 215.481 14.3283 215.2L14.3465 214.523L14.7673 214.523L14.7673 217.999L14.3465 217.999L14.3283 217.414C14.3161 217.133 14.249 216.926 14.127 216.792C14.0173 216.67 13.8282 216.548 13.5599 216.426L5.38275 212.895L5.38275 212.401L13.6148 208.852ZM5.36445 221.217C5.36445 220.79 5.43153 220.394 5.56568 220.028C5.69983 219.675 5.87667 219.37 6.09619 219.114C6.32791 218.857 6.59012 218.656 6.88281 218.51C7.1877 218.376 7.50479 218.309 7.83407 218.309C8.26092 218.309 8.61459 218.418 8.89509 218.638C9.18779 218.857 9.4317 219.132 9.62683 219.461C9.82196 219.79 9.9866 220.144 10.1208 220.522C10.2671 220.912 10.4074 221.278 10.5415 221.62C10.761 222.193 10.9623 222.632 11.1452 222.937C11.3281 223.254 11.4989 223.486 11.6574 223.632C11.8281 223.778 11.9989 223.864 12.1696 223.888C12.3404 223.913 12.5233 223.925 12.7184 223.925C13.2306 223.925 13.6575 223.772 13.999 223.467C14.3526 223.162 14.5295 222.693 14.5295 222.059C14.5295 221.327 14.2795 220.778 13.7794 220.412C13.2916 220.046 12.6209 219.955 11.7672 220.138C11.7184 219.906 11.694 219.675 11.694 219.443C11.694 219.04 11.7733 218.729 11.9318 218.51C12.0903 218.303 12.2916 218.199 12.5355 218.199C12.694 218.199 12.8465 218.242 12.9928 218.327C13.1392 218.424 13.2794 218.553 13.4136 218.711C13.5477 218.87 13.6758 219.046 13.7977 219.242C13.9197 219.437 14.0356 219.644 14.1453 219.864C14.4136 220.364 14.6331 220.876 14.8039 221.4C14.9746 221.925 15.06 222.443 15.06 222.955C15.06 223.845 14.8466 224.516 14.4197 224.967C14.0051 225.419 13.2489 225.638 12.1513 225.626L6.38889 225.571L6.38889 226.961L5.98643 226.961L5.45592 224.071L7.50479 223.943C6.69988 223.699 6.13888 223.339 5.82179 222.864C5.5169 222.4 5.36445 221.851 5.36445 221.217ZM6.11449 221.949C6.11449 222.181 6.16327 222.412 6.26083 222.644C6.3584 222.876 6.51084 223.083 6.71817 223.266C6.9255 223.449 7.1999 223.595 7.54138 223.705C7.88285 223.827 8.29141 223.888 8.76704 223.888L11.383 223.925C11.2001 223.681 11.0354 223.449 10.8891 223.23C10.7549 223.01 10.5964 222.723 10.4134 222.37C10.2427 222.053 10.0781 221.766 9.91953 221.51C9.76098 221.254 9.59024 221.034 9.40731 220.851C9.22437 220.668 9.01705 220.528 8.78533 220.431C8.55361 220.333 8.28531 220.284 7.98042 220.284C7.73651 220.284 7.50479 220.315 7.28527 220.376C7.06575 220.449 6.86452 220.553 6.68158 220.687C6.51084 220.833 6.37059 221.01 6.26083 221.217C6.16327 221.425 6.11449 221.669 6.11449 221.949ZM7.7609 231.096C7.21209 231.096 6.83403 231.2 6.6267 231.407C6.43157 231.627 6.33401 231.938 6.33401 232.34C6.33401 232.938 6.46816 233.505 6.73646 234.042L6.40718 234.206C6.29742 234.072 6.18156 233.895 6.0596 233.676C5.94984 233.456 5.84618 233.218 5.74862 232.962C5.66325 232.706 5.59007 232.432 5.52909 232.139C5.46812 231.859 5.43763 231.578 5.43763 231.298C5.43763 230.651 5.56568 230.17 5.82179 229.853C6.0779 229.535 6.56572 229.377 7.28527 229.377L13.8343 229.377L13.8343 227.401L13.9441 227.401L16.743 230.987L16.743 231.096L14.7673 231.096L14.7673 234.645L13.8343 234.06L13.8343 231.096L7.7609 231.096ZM6.00472 235.313L6.04131 235.953C6.0657 236.234 6.10839 236.417 6.16936 236.502C6.24254 236.599 6.40108 236.648 6.64499 236.648L13.0294 236.648L13.7794 235.313L13.8892 235.313L15.06 238.368L6.64499 238.368C6.40108 238.368 6.24254 238.411 6.16936 238.496C6.10839 238.593 6.0657 238.789 6.04131 239.081L6.00472 239.703L5.58397 239.703L5.58397 235.313L6.00472 235.313ZM18.7919 236.337C19.0967 236.337 19.365 236.453 19.5968 236.685C19.8285 236.917 19.9443 237.191 19.9443 237.508C19.9443 237.825 19.8285 238.1 19.5968 238.331C19.365 238.563 19.0967 238.679 18.7919 238.679C18.4748 238.679 18.1943 238.563 17.9504 238.331C17.7186 238.1 17.6028 237.825 17.6028 237.508C17.6028 237.191 17.7186 236.917 17.9504 236.685C18.1943 236.453 18.4748 236.337 18.7919 236.337ZM5.36445 245.879C5.36445 245.22 5.48031 244.598 5.71203 244.013C5.95594 243.428 6.28522 242.909 6.69988 242.458C7.12672 242.019 7.63284 241.665 8.21823 241.397C8.81582 241.141 9.46219 241.013 10.1573 241.013C10.9013 241.013 11.572 241.153 12.1696 241.434C12.7794 241.714 13.2916 242.08 13.7063 242.531C14.1331 242.995 14.4624 243.519 14.6941 244.105C14.9258 244.702 15.0417 245.312 15.0417 245.934C15.0417 246.592 14.9197 247.214 14.6758 247.8C14.4441 248.385 14.1148 248.897 13.688 249.336C13.2733 249.788 12.7733 250.141 12.1879 250.397C11.6025 250.666 10.9623 250.8 10.2671 250.8C9.52317 250.8 8.84631 250.66 8.23653 250.379C7.63894 250.111 7.12672 249.745 6.69987 249.282C6.27303 248.83 5.94374 248.306 5.71203 247.708C5.48031 247.123 5.36445 246.513 5.36445 245.879ZM5.89496 245.916C5.89496 246.294 5.97423 246.653 6.13278 246.995C6.29132 247.336 6.54133 247.641 6.88281 247.91C7.23648 248.178 7.68772 248.391 8.23653 248.55C8.78533 248.708 9.44389 248.788 10.2122 248.788C10.9927 248.788 11.6574 248.708 12.2062 248.55C12.755 248.391 13.2002 248.178 13.5416 247.91C13.8953 247.641 14.1514 247.336 14.31 246.995C14.4685 246.653 14.5478 246.294 14.5478 245.916C14.5478 245.525 14.4685 245.153 14.31 244.8C14.1514 244.458 13.8953 244.153 13.5416 243.885C13.2002 243.617 12.755 243.403 12.2062 243.245C11.6574 243.086 10.9927 243.007 10.2122 243.007C9.44389 243.007 8.78533 243.086 8.23653 243.245C7.68772 243.403 7.23648 243.617 6.88281 243.885C6.54133 244.153 6.29132 244.458 6.13278 244.8C5.97423 245.153 5.89496 245.525 5.89496 245.916ZM6.00472 252.211L6.04131 252.851C6.05351 253.156 6.09619 253.345 6.16936 253.418C6.24254 253.504 6.40108 253.547 6.64499 253.547L13.0294 253.547L13.7794 252.211L13.8892 252.211L15.06 255.266L12.5172 255.266C13.3709 255.461 14.0051 255.827 14.4197 256.364C14.8344 256.9 15.0417 257.553 15.0417 258.321C15.0417 259.211 14.7673 259.9 14.2185 260.388C13.6697 260.888 12.7306 261.138 11.4013 261.138L6.64499 261.138C6.40108 261.138 6.24254 261.175 6.16936 261.248C6.09619 261.333 6.05351 261.535 6.04131 261.852L6.00472 262.474L5.58397 262.474L5.58397 258.083L6.00472 258.083L6.04131 258.724C6.05351 259.028 6.09619 259.218 6.16936 259.291C6.24254 259.376 6.40108 259.419 6.64499 259.419L11.072 259.419C11.6208 259.419 12.0843 259.376 12.4623 259.291C12.8404 259.205 13.1392 259.077 13.3587 258.907C13.5904 258.748 13.7551 258.547 13.8526 258.303C13.9502 258.059 13.999 257.778 13.999 257.461C13.999 257.169 13.9441 256.888 13.8343 256.62C13.7368 256.352 13.566 256.114 13.3221 255.906C13.0904 255.711 12.7855 255.553 12.4074 255.431C12.0416 255.321 11.5964 255.266 11.072 255.266L6.64499 255.266C6.40108 255.266 6.24254 255.303 6.16936 255.376C6.09619 255.461 6.05351 255.662 6.04131 255.98L6.00472 256.602L5.58397 256.602L5.58397 252.211L6.00472 252.211Z" fill="#808080"/>
</svg>
