<svg width="106" height="128" viewBox="0 0 106 128" fill="none" xmlns="http://www.w3.org/2000/svg">
<g clip-path="url(#clip0_99_121)">
<path d="M99.4859 0H6.51411C4.78646 0 3.12958 0.689401 1.90795 1.91654C0.686325 3.14369 2.37716e-08 4.80805 2.37716e-08 6.54349V63.8233C-0.000206889 70.3354 1.35034 76.7761 3.96553 82.7348C6.58072 88.6935 10.4032 94.0395 15.1893 98.432L43.2714 124.21C45.9289 126.649 49.3984 128.001 52.9981 128.001C56.5978 128.001 60.0673 126.649 62.7248 124.21L90.8069 98.432C95.594 94.0402 99.4175 88.6944 102.033 82.7356C104.649 76.7768 106 70.3358 106 63.8233V6.54349C105.999 4.80836 105.312 3.1446 104.091 1.91768C102.87 0.690759 101.213 0.00102883 99.4859 0ZM96.6986 63.0738C96.7051 71.0106 94.3608 78.7699 89.9641 85.3644C92.3932 80.0071 93.647 74.1877 93.6406 68.3008V22.6207C93.6406 19.6421 91.4061 17.2267 88.6458 17.2267H17.3503C14.59 17.2267 12.3555 19.6421 12.3555 22.6207V68.3008C12.3491 74.1877 13.603 80.0071 16.032 85.3644C11.6373 78.769 9.29321 71.0103 9.29759 63.0738V16.2286C9.2884 15.5121 9.42033 14.8007 9.68578 14.1356C9.95124 13.4704 10.345 12.8645 10.8444 12.3528C11.3438 11.841 11.939 11.4335 12.5957 11.1536C13.2525 10.8737 13.9578 10.7271 14.6712 10.722H91.3288C92.0419 10.7276 92.7468 10.8746 93.4031 11.1547C94.0594 11.4348 94.6541 11.8424 95.1531 12.3541C95.6521 12.8658 96.0455 13.4716 96.3108 14.1365C96.576 14.8014 96.7078 15.5124 96.6986 16.2286V63.0738Z" fill="#F2BF63"/>
<path d="M35.7402 57.5997C35.7402 51.1282 35.7402 42.3033 35.7402 35.8406C35.7402 35.3081 35.7198 34.7728 35.6994 34.2403C35.6919 34.1748 35.6711 34.1115 35.6385 34.0543C35.6059 33.9971 35.5621 33.9472 35.5098 33.9077C35.4574 33.8682 35.3977 33.8399 35.3341 33.8245C35.2706 33.8091 35.2046 33.807 35.1402 33.8182C33.1587 34.247 31.3551 35.2794 29.9729 36.776C29.6482 37.1246 29.319 37.4746 28.9651 37.7938C27.8495 38.7984 25.3941 38.7028 24.395 36.9452C24.1494 36.5299 24.0137 36.0579 24.001 35.5744C23.9882 35.0909 24.0988 34.6123 24.3222 34.1844C24.4884 33.8502 24.709 33.5464 24.9746 33.2858C26.297 31.9768 27.8408 31.0987 29.7151 30.9134C30.6633 30.8207 31.6084 30.6339 32.5624 30.706C34.093 30.8192 35.6295 30.8942 37.1485 31.0957C38.4085 31.257 39.6767 31.3444 40.9467 31.3576C42.3759 31.3811 43.8047 31.3649 45.2329 31.309C48.5671 31.1768 51.8755 30.6611 55.094 29.772C56.2163 29.4585 57.3168 29.0703 58.3884 28.6101C59.5637 28.1085 60.6618 27.4717 61.5822 26.551C61.8464 26.2885 62.1341 26.0511 62.4415 25.842C63.6066 25.0537 64.8736 24.7801 66.2208 25.1875C67.5679 25.5949 68.5379 26.4583 68.8947 27.8879C69.1743 29.0131 68.8656 30.0029 68.117 30.8575C67.581 31.4679 66.8965 31.8753 66.1698 32.2121C65.102 32.6879 63.9751 33.0149 62.8201 33.1843C60.5089 33.5608 58.183 33.5844 55.8528 33.5417C53.9479 33.5064 52.0444 33.4387 50.1409 33.3946C50.0365 33.3973 49.9365 33.4376 49.859 33.5083C49.7816 33.579 49.7317 33.6754 49.7185 33.78C49.7054 33.9403 49.685 34.0991 49.685 34.2595C49.685 36.451 49.685 40.9958 49.685 43.1873C49.685 43.4005 49.72 43.6123 49.7404 43.8241C49.7603 43.8988 49.8069 43.9634 49.8711 44.0055C49.9354 44.0476 50.0128 44.0642 50.0884 44.0521C50.2851 43.9742 50.4831 43.905 50.671 43.8138C52.225 43.119 53.8799 42.6819 55.5717 42.5195C57.735 42.2957 59.9206 42.4955 62.0089 43.1078C64.157 43.7244 66.1302 44.8452 67.7674 46.3789C69.5245 48.0146 70.9578 49.9727 71.9909 52.1489C73.103 54.4598 73.8804 56.9201 74.2993 59.4544C74.5396 60.8796 74.6678 62.3151 74.7858 63.7506C74.9183 65.3567 74.7959 66.954 74.5935 68.5484C74.525 69.0838 74.4362 69.1691 73.9221 69.2632C71.4681 69.7045 69.6986 71.137 68.3981 73.2197C67.1051 75.2661 66.5046 77.681 66.6868 80.1016C66.7873 81.9844 67.4302 83.7966 68.5364 85.3156C69.7438 86.957 71.3764 87.8395 73.3716 88.0513C74.2833 88.1484 75.1615 87.9263 76.0251 87.6557C76.529 87.4983 77.0271 87.3144 77.5237 87.1321C78.1776 86.9015 78.8748 86.8241 79.5627 86.9056C81.4749 87.0968 82.5832 88.3852 82.9051 89.8472C83.3289 91.7754 82.3065 93.7007 80.3812 94.4861C79.9902 94.652 79.5802 94.7677 79.1607 94.8303C77.3679 95.0627 75.5809 95.1024 73.7998 94.6538C72.201 94.2503 70.7095 93.4971 69.4306 92.4476C67.7228 91.078 66.357 89.3229 65.4431 87.3233C64.8191 85.9635 64.3647 84.5307 64.0901 83.0579C63.4682 79.7391 63.5178 76.3275 64.2357 73.0285C64.4873 71.8804 64.8014 70.7471 65.1765 69.6339C65.6936 68.0613 66.1119 66.4574 66.429 64.8317C66.9288 62.3653 67.089 59.8411 66.9053 57.3305C66.7305 55.139 66.3431 52.9887 65.4343 50.962C64.799 49.4873 63.8706 48.1602 62.7065 47.0628C61.154 45.6288 59.3321 44.8713 57.2349 44.8566C54.8596 44.836 52.6153 45.367 50.572 46.6363C50.4365 46.7201 50.304 46.8084 50.1729 46.8996C50.0363 46.9824 49.9225 47.0985 49.8418 47.2373C49.7612 47.376 49.7163 47.533 49.7113 47.6938C49.7025 48.1213 49.6981 48.5489 49.6981 48.9764C49.6981 51.3826 49.6981 53.7884 49.6981 56.1936V77.2041C49.6981 77.6321 49.7171 78.0601 49.6981 78.4867C49.6676 79.075 49.835 79.5162 50.3637 79.8221C50.8712 80.1179 51.3165 80.5112 51.6744 80.9797C51.9121 81.2691 52.0753 81.6134 52.1494 81.9818C52.2236 82.3503 52.2066 82.7316 52.0997 83.0917C52.0295 83.3789 51.8995 83.6477 51.7185 83.8803C51.5374 84.1128 51.3094 84.3038 51.0497 84.4405C50.0302 84.97 49.0107 84.9685 48.0451 84.3037C47.7461 84.083 47.4592 83.8458 47.1859 83.5933C45.6494 82.2504 43.8362 81.5798 41.8381 81.3871C41.0997 81.318 40.3613 81.2606 39.6229 81.1988C39.5182 81.1844 39.4125 81.178 39.3069 81.1797C37.5111 81.2871 35.7154 81.3768 33.9896 81.9857C32.5829 82.466 31.2746 83.2012 30.1288 84.1551C29.8509 84.4046 29.5591 84.6378 29.2549 84.8538C27.9442 85.7363 25.9941 84.9258 25.7174 83.2079C25.6392 82.7851 25.6629 82.3494 25.7866 81.9377C25.9103 81.5261 26.1304 81.1506 26.4281 80.8429C27.1445 80.0434 28.0881 79.487 29.1297 79.25C29.9527 79.0419 30.7978 78.9357 31.6463 78.9338C32.7036 78.9622 33.7615 78.9931 34.8198 79.0264C34.9246 79.0264 35.0295 79.0456 35.1343 79.0514C35.2136 79.0533 35.2923 79.0388 35.3658 79.0088C35.4393 78.9789 35.5059 78.9341 35.5617 78.8772C35.6174 78.8204 35.6611 78.7527 35.6901 78.6782C35.719 78.6037 35.7326 78.524 35.73 78.444C35.7446 77.9645 35.7504 77.4821 35.7504 77.0011C35.7446 70.5355 35.7412 64.0683 35.7402 57.5997ZM48.134 63.8521V51.0296C48.134 50.6031 48.134 50.1751 48.134 49.7471C48.134 49.5897 48.0947 49.4323 48.0772 49.2749C48.0626 49.1455 47.9927 49.069 47.866 49.0764C47.767 49.0764 47.6315 49.0764 47.5747 49.1396C47.1842 49.573 46.8162 50.0267 46.4723 50.4986C45.3785 52.093 44.6197 53.8506 44.0445 55.6965C43.837 56.3577 43.7318 57.0473 43.7328 57.7409C43.7415 64.3105 43.7415 70.8801 43.7328 77.4497C43.7328 77.7689 43.7634 78.0881 43.7852 78.4058C43.8064 78.5091 43.8607 78.6025 43.9397 78.6716C44.0186 78.7407 44.1179 78.7816 44.2221 78.7882C45.3319 78.7823 46.4417 78.7735 47.5514 78.7617C47.6833 78.7554 47.8088 78.7026 47.9061 78.6126C48.0035 78.5226 48.0666 78.401 48.0845 78.269C48.1063 77.7895 48.1238 77.31 48.1238 76.8291C48.1374 72.5059 48.1408 68.1782 48.134 63.8462V63.8521ZM43.7925 42.7695H43.775C43.775 44.7948 43.775 46.8216 43.775 48.8469C43.7853 49.1111 43.8116 49.3744 43.8537 49.6353C43.8537 49.6632 43.9192 49.7015 43.9556 49.7059C44.0069 49.7131 44.0589 49.7004 44.1013 49.6706C44.2169 49.5646 44.3213 49.4468 44.4129 49.3191C45.2984 47.9836 46.2975 46.7496 47.5281 45.7185C47.6097 45.6509 47.6869 45.5714 47.7626 45.5038C47.9585 45.3214 48.08 45.0718 48.1034 44.8037C48.1223 44.5919 48.1267 44.3772 48.1267 44.1639C48.1267 41.7121 48.1267 36.9069 48.1267 34.4566C48.1267 34.2433 48.1136 34.03 48.099 33.8182C48.083 33.6855 48.0241 33.5618 47.9314 33.4663C47.8387 33.3709 47.7175 33.309 47.5864 33.2902C46.5859 33.2431 45.5839 33.1975 44.5819 33.1725C43.928 33.1549 43.7488 33.349 43.7343 34.0227C43.7343 34.2889 43.7343 34.5551 43.7343 34.8213C43.7561 36.6848 43.775 40.9016 43.7925 42.7695Z" fill="black"/>
</g>
<defs>
<clipPath id="clip0_99_121">
<rect width="106" height="128" fill="white"/>
</clipPath>
</defs>
</svg>
