<svg width="42" height="39" viewBox="0 0 42 39" fill="none" xmlns="http://www.w3.org/2000/svg">
<g clip-path="url(#clip0_10_13769)">
<path d="M35.017 32.1986C33.1173 34.0969 30.2859 34.8045 27.6503 34.4565C27.5722 34.4464 27.497 34.4203 27.4294 34.3798C27.3618 34.3394 27.3032 34.2854 27.2574 34.2213C27.2116 34.1572 27.1794 34.0844 27.163 34.0073C27.1466 33.9303 27.1462 33.8507 27.1619 33.7735L27.4261 32.4847C27.4545 32.3449 27.5344 32.2208 27.6499 32.137C27.7654 32.0533 27.9081 32.0159 28.0499 32.0323C28.9708 32.1432 29.905 32.0431 30.7815 31.7397C31.6581 31.4362 32.4542 30.9374 33.1096 30.2809C33.7661 29.6255 34.2649 28.8294 34.5684 27.9528C34.8718 27.0762 34.9719 26.1421 34.861 25.2211C34.8446 25.0794 34.882 24.9367 34.9657 24.8212C35.0495 24.7057 35.1736 24.6258 35.3134 24.5974L36.6022 24.3396C36.6793 24.3239 36.7588 24.3243 36.8358 24.3407C36.9128 24.3572 36.9856 24.3893 37.0495 24.4352C37.1135 24.481 37.1674 24.5396 37.2077 24.6072C37.248 24.6748 37.274 24.75 37.2839 24.8281C37.6229 27.4675 36.9153 30.2989 35.017 32.1986Z" fill="#F2BF63"/>
<path d="M39.7769 35.2167L38.0357 36.9578L32.7969 32.0824L34.9014 29.9766L39.7769 35.2167Z" fill="#F2BF63"/>
<path d="M39.4446 38.5865C40.5272 38.5865 41.4048 37.7088 41.4048 36.6262C41.4048 35.5436 40.5272 34.666 39.4446 34.666C38.362 34.666 37.4844 35.5436 37.4844 36.6262C37.4844 37.7088 38.362 38.5865 39.4446 38.5865Z" fill="#F2BF63"/>
<path d="M6.38567 32.1989C4.48602 30.2993 3.77977 27.4678 4.12903 24.8259C4.13915 24.7479 4.16522 24.6728 4.2056 24.6053C4.24598 24.5378 4.29981 24.4793 4.36376 24.4335C4.4277 24.3877 4.50038 24.3555 4.57729 24.339C4.65419 24.3224 4.73367 24.3219 4.81079 24.3374L6.09957 24.5952C6.23929 24.6236 6.36322 24.7035 6.44678 24.8191C6.53033 24.9346 6.5674 25.0773 6.55064 25.2189C6.44005 26.14 6.54038 27.0742 6.84403 27.9508C7.14769 28.8273 7.64672 29.6234 8.30337 30.2787C8.95872 30.9352 9.75482 31.434 10.6314 31.7374C11.508 32.0409 12.4421 32.141 13.3631 32.0301C13.5048 32.0137 13.6476 32.0511 13.7631 32.1348C13.8786 32.2186 13.9584 32.3427 13.9869 32.4825L14.2446 33.7712C14.2605 33.8483 14.2603 33.9278 14.244 34.0048C14.2278 34.0818 14.1957 34.1545 14.15 34.2186C14.1043 34.2826 14.0458 34.3365 13.9782 34.3768C13.9107 34.4171 13.8355 34.4431 13.7575 34.453C11.1181 34.8048 8.28662 34.0973 6.38567 32.1989Z" fill="#F2BF63"/>
<path d="M3.36711 36.9578L1.62598 35.2167L6.50141 29.9766L8.60727 32.0824L3.36711 36.9578Z" fill="#F2BF63"/>
<path d="M1.96023 38.5865C3.04283 38.5865 3.92045 37.7088 3.92045 36.6262C3.92045 35.5436 3.04283 34.666 1.96023 34.666C0.877623 34.666 0 35.5436 0 36.6262C0 37.7088 0.877623 38.5865 1.96023 38.5865Z" fill="#F2BF63"/>
<path d="M37.6627 4.99855C37.9532 4.70871 38.1571 4.34365 38.2517 3.94434C38.494 2.91976 38.8613 0.941493 38.2517 0.335769C37.6421 -0.269955 35.6651 0.0921902 34.6431 0.335769C34.2436 0.431586 33.8784 0.635843 33.5876 0.926026L8.70524 25.802C8.51203 25.9922 8.40022 26.25 8.39335 26.5211C8.38329 27.0055 8.4714 27.4868 8.65236 27.9362C8.83332 28.3857 9.10338 28.7938 9.44628 29.136C9.78857 29.4793 10.1968 29.7497 10.6465 29.9309C11.0961 30.1121 11.5778 30.2003 12.0625 30.1902C12.3333 30.1823 12.5908 30.0707 12.7816 29.8783L37.6627 4.99855Z" fill="#F2BF63"/>
<path d="M25.9377 19.043L21.8613 23.1155L28.621 29.8751C28.8118 30.0674 29.0693 30.1791 29.3401 30.187C29.8246 30.1971 30.3061 30.1089 30.7555 29.9277C31.205 29.7465 31.613 29.4761 31.955 29.1328C32.2984 28.7909 32.5688 28.3828 32.7498 27.9334C32.9308 27.4839 33.0186 27.0023 33.0079 26.5179C33.0017 26.2469 32.8903 25.989 32.6973 25.7987L25.9377 19.043Z" fill="#F2BF63"/>
<path d="M22.3771 15.4801L7.81398 0.916996C7.52389 0.626587 7.15897 0.422268 6.75977 0.326735C5.73519 0.0844456 3.75692 -0.281566 3.1512 0.326735C2.54547 0.935037 2.90762 2.91331 3.1512 3.9353C3.24673 4.33451 3.45105 4.69942 3.74146 4.98952L18.3046 19.5527L22.3771 15.4801Z" fill="#F2BF63"/>
</g>
<defs>
<clipPath id="clip0_10_13769">
<rect width="41.4032" height="38.5846" fill="white"/>
</clipPath>
</defs>
</svg>
