<svg width="137" height="48" viewBox="0 0 137 48" fill="none" xmlns="http://www.w3.org/2000/svg">
<g clip-path="url(#clip0_10_13529)">
<path d="M21.7671 13.3066C22.3812 13.2606 22.998 13.3464 23.5761 13.5583C24.1542 13.7702 24.6804 14.1033 25.1193 14.5352C25.5581 14.9671 25.8996 15.4879 26.1207 16.0626C26.3418 16.6373 26.4374 17.2526 26.4012 17.8673C26.4252 18.4862 26.3188 19.1032 26.0889 19.6784C25.859 20.2535 25.5107 20.7739 25.0667 21.2057C24.5896 21.645 24.0303 21.9857 23.4211 22.208C22.8118 22.4304 22.1646 22.53 21.5167 22.5013C20.3061 22.5428 19.1214 22.1438 18.1825 21.3784C17.7486 21.0046 17.396 20.5457 17.1464 20.0302C16.8968 19.5147 16.7556 18.9535 16.7314 18.3812H18.7138C18.7795 19.0532 19.1049 19.673 19.6207 20.1087C20.1535 20.547 20.8271 20.7771 21.5167 20.7565C21.8964 20.7719 22.275 20.7077 22.6284 20.5678C22.9817 20.428 23.3018 20.2157 23.5681 19.9446C24.0797 19.3659 24.362 18.6202 24.362 17.8478C24.362 17.0755 24.0797 16.3297 23.5681 15.7511C23.2365 15.4405 22.8387 15.2092 22.4048 15.0747C21.9708 14.9402 21.512 14.906 21.0629 14.9746C20.6138 15.0432 20.1861 15.2129 19.8121 15.4708C19.4381 15.7288 19.1275 16.0683 18.9038 16.4637H17.0338L18.2387 8.60352H25.6022V10.3785H19.8237L19.2104 14.2654C19.9088 13.6309 20.8237 13.2878 21.7671 13.3066Z" fill="#808080"/>
<path d="M30.353 8.61133H31.9941V22.1982H29.9513V12.5025H26.8418V10.9953H27.1484C27.9257 10.9935 28.6876 10.7784 29.351 10.3734C29.8971 9.93496 30.2554 9.3048 30.353 8.61133Z" fill="#808080"/>
<path d="M36.131 13.4228C35.7909 13.4296 35.4531 13.3668 35.1383 13.2384C34.8234 13.1099 34.538 12.9184 34.2998 12.6757C34.054 12.4556 33.8588 12.185 33.7276 11.8823C33.5964 11.5796 33.5323 11.2521 33.5397 10.9223C33.532 10.5934 33.5943 10.2667 33.7223 9.96364C33.8504 9.66062 34.0413 9.38825 34.2825 9.16454C34.528 8.92972 34.818 8.74645 35.1355 8.62554C35.453 8.50463 35.7915 8.44855 36.131 8.46058C36.8222 8.44242 37.4933 8.69503 38.001 9.16454C38.2373 9.39181 38.4253 9.66445 38.5537 9.96611C38.6821 10.2678 38.7483 10.5923 38.7483 10.9201C38.7483 11.248 38.6821 11.5725 38.5537 11.8741C38.4253 12.1758 38.2373 12.4484 38.001 12.6757C37.7549 12.9187 37.4627 13.11 37.1415 13.2384C36.8204 13.3667 36.4767 13.4294 36.131 13.4228ZM36.131 12.1272C36.2907 12.1328 36.4498 12.1054 36.5984 12.0467C36.747 11.988 36.8819 11.8993 36.9947 11.786C37.1079 11.673 37.1969 11.5382 37.2563 11.3897C37.3156 11.2412 37.3442 11.0822 37.3402 10.9223C37.3466 10.7621 37.3191 10.6024 37.2596 10.4536C37.2 10.3047 37.1098 10.1701 36.9947 10.0585C36.7599 9.84058 36.4513 9.71947 36.131 9.71947C35.8106 9.71947 35.502 9.84058 35.2672 10.0585C35.1521 10.1701 35.0619 10.3047 35.0023 10.4536C34.9428 10.6024 34.9153 10.7621 34.9217 10.9223C34.9172 11.083 34.9465 11.2428 35.0075 11.3916C35.0684 11.5403 35.1599 11.6747 35.2758 11.786C35.3896 11.8941 35.5239 11.9781 35.6708 12.033C35.8178 12.0879 35.9743 12.1126 36.131 12.1056V12.1272Z" fill="#808080"/>
<path d="M42.5058 20.4243H49.6015V22.1993H40.2168L40.2729 21.3355C40.3219 20.4139 40.5355 19.5085 40.9035 18.6622C41.3354 17.6862 42.1991 16.857 43.4948 16.1832L45.0366 15.3195C45.7059 15.0007 46.3038 14.5497 46.7943 13.9936C47.157 13.5216 47.3462 12.939 47.3298 12.3439C47.3443 12.0363 47.2928 11.7292 47.1789 11.4432C47.0649 11.1571 46.8911 10.8988 46.6691 10.6855C46.1641 10.2525 45.5106 10.0326 44.8466 10.0722C43.119 10.0722 42.2553 10.982 42.2553 12.8016H40.2514C40.2514 11.3621 40.6515 10.255 41.452 9.48052C42.2524 8.70602 43.404 8.31301 44.907 8.3015C46.102 8.23821 47.2761 8.63369 48.1893 9.4071C48.5923 9.76498 48.9122 10.2068 49.1263 10.7014C49.3404 11.1961 49.4437 11.7316 49.4288 12.2704C49.4438 13.173 49.1631 14.0557 48.6298 14.784C47.949 15.6299 47.0891 16.3143 46.1119 16.7879L44.7558 17.5523C44.1238 17.8758 43.5583 18.3153 43.0888 18.8479C42.738 19.3015 42.5346 19.8516 42.5058 20.4243Z" fill="#808080"/>
<path d="M58.2039 14.9473C59.7328 15.6872 60.4958 16.8187 60.4929 18.3418C60.5146 18.914 60.4057 19.4836 60.1745 20.0074C59.9432 20.5312 59.5958 20.9955 59.1584 21.365C58.1598 22.1615 56.906 22.5683 55.63 22.5094C54.0407 22.5094 52.8098 22.1035 51.9374 21.2915C51.4951 20.8557 51.1509 20.3306 50.9274 19.7512C50.704 19.1718 50.6066 18.5515 50.6418 17.9315H52.6241C52.6759 19.803 53.675 20.7373 55.6213 20.7344C56.3531 20.7739 57.0735 20.5399 57.6425 20.078C57.8891 19.8567 58.0838 19.5836 58.2122 19.2782C58.3407 18.9727 58.3998 18.6426 58.3853 18.3116C58.4031 17.9705 58.3435 17.6299 58.2112 17.315C58.0788 17.0002 57.877 16.7193 57.6209 16.4934C57.0201 16.0217 56.2672 15.7866 55.5047 15.8326H54.4941V14.2476H55.4486C56.1436 14.2937 56.8336 14.1018 57.405 13.7035C57.6328 13.5125 57.8128 13.2709 57.9306 12.9979C58.0483 12.7249 58.1005 12.4282 58.083 12.1314C58.096 11.8421 58.0416 11.5538 57.9239 11.2891C57.8062 11.0245 57.6286 10.791 57.405 10.6069C56.8691 10.2086 56.2102 10.0114 55.5436 10.0498C53.8506 10.0498 52.9523 10.8531 52.8918 12.4553H50.888C50.8723 11.8901 50.9775 11.328 51.1964 10.8067C51.4154 10.2853 51.7431 9.81674 52.1577 9.4322C52.9782 8.69801 54.1141 8.33523 55.5608 8.33523C56.7394 8.27288 57.9028 8.62254 58.8517 9.32423C59.2549 9.64838 59.5764 10.0627 59.7901 10.5338C60.0039 11.0048 60.1041 11.5195 60.0826 12.0364C60.0907 12.6526 59.9167 13.2576 59.5825 13.7754C59.2484 14.2932 58.7688 14.7008 58.2039 14.9473Z" fill="#808080"/>
<path d="M63.3778 13.8802H61.9052L61.6201 8.61133H63.6629L63.3778 13.8802Z" fill="#808080"/>
<path d="M72.8962 17.1409H74.7057V18.9159H72.8962V22.1982H70.8534V18.9159H64.1377V16.9681L70.6633 8.61133H72.8962V17.1409ZM70.875 17.1409V11.0169L66.1243 17.1409H70.875Z" fill="#808080"/>
<path d="M83.4733 9.39417C84.861 10.4767 85.5549 12.4807 85.5549 15.4059C85.5549 17.7092 85.123 19.4828 84.2593 20.7266C83.8427 21.3418 83.2744 21.8392 82.6094 22.1705C81.9444 22.5019 81.2051 22.6561 80.4631 22.6182C79.3245 22.6651 78.2047 22.3172 77.2931 21.6336C76.4536 20.956 75.9026 19.9852 75.7513 18.917H77.7164C77.8116 19.5135 78.1353 20.0495 78.619 20.4114C79.1542 20.778 79.7932 20.9627 80.4415 20.9382C82.4943 20.9382 83.551 19.228 83.6114 15.8075C83.2306 16.3614 82.7227 16.816 82.1301 17.1334C81.5359 17.4542 80.8706 17.6205 80.1953 17.6171C79.2811 17.6164 78.3874 17.3455 77.6266 16.8385C76.8658 16.3315 76.2718 15.6109 75.9193 14.7674C75.5667 13.9238 75.4713 12.9949 75.6451 12.0973C75.8188 11.1997 76.2539 10.3735 76.8958 9.7224C77.8034 8.94314 78.9444 8.48796 80.1391 8.42853C81.3339 8.36911 82.5145 8.70882 83.4949 9.39417H83.4733ZM80.381 15.9371C80.7569 15.9515 81.1316 15.888 81.4817 15.7505C81.8318 15.613 82.1496 15.4045 82.4152 15.1381C82.6802 14.863 82.8868 14.5372 83.0226 14.1802C83.1584 13.8232 83.2206 13.4424 83.2055 13.0608C83.2229 12.6764 83.1627 12.2924 83.0284 11.9317C82.8941 11.5711 82.6884 11.2413 82.4238 10.9619C82.1577 10.6935 81.8387 10.4834 81.487 10.3451C81.1353 10.2068 80.7586 10.1433 80.381 10.1586C80.0061 10.1456 79.6327 10.2111 79.2846 10.3509C78.9365 10.4907 78.6215 10.7018 78.3599 10.9705C78.0977 11.2498 77.8936 11.5784 77.7594 11.9373C77.6252 12.2961 77.5636 12.678 77.5781 13.0608C77.5648 13.4413 77.6283 13.8206 77.7648 14.1761C77.9014 14.5315 78.1081 14.8558 78.3728 15.1295C78.6322 15.3949 78.9438 15.6038 79.288 15.7428C79.6321 15.8818 80.0014 15.9479 80.3724 15.9371H80.381Z" fill="#808080"/>
<path d="M88.7291 22.1975H86.4229V19.9258H88.7291V22.1975Z" fill="#808080"/>
<path d="M97.5653 14.9473C99.0912 15.6872 99.8528 16.8188 99.8499 18.3418C99.8716 18.914 99.7627 19.4836 99.5315 20.0074C99.3003 20.5312 98.9528 20.9955 98.5154 21.365C97.5168 22.1616 96.263 22.5683 94.987 22.5094C93.3977 22.5094 92.1668 22.1035 91.2944 21.2916C90.8531 20.855 90.5094 20.3298 90.286 19.7506C90.0627 19.1714 89.9648 18.5514 89.9988 17.9315H91.9811C92.0329 19.803 93.032 20.7373 94.9783 20.7344C95.7102 20.7739 96.4305 20.5399 96.9995 20.078C97.2469 19.8572 97.4423 19.5842 97.5715 19.2787C97.7007 18.9733 97.7606 18.643 97.7467 18.3116C97.7644 17.9705 97.7049 17.6299 97.5725 17.315C97.4401 17.0002 97.2384 16.7193 96.9822 16.4934C96.3795 16.0221 95.6255 15.7872 94.8617 15.8326H93.8382V14.2476H94.7926C95.4876 14.2937 96.1776 14.1018 96.749 13.7035C96.9769 13.5125 97.1569 13.2709 97.2746 12.9979C97.3924 12.725 97.4446 12.4282 97.4271 12.1314C97.4401 11.8421 97.3857 11.5538 97.268 11.2892C97.1503 11.0246 96.9726 10.791 96.749 10.6069C96.2131 10.2086 95.5543 10.0114 94.8877 10.0498C93.1947 10.0498 92.2964 10.8531 92.2359 12.4554H90.232C90.2163 11.8901 90.3215 11.328 90.5405 10.8067C90.7594 10.2854 91.0871 9.81675 91.5017 9.43221C92.3223 8.69802 93.4581 8.33524 94.9092 8.33524C96.0864 8.27282 97.2485 8.62253 98.1958 9.32425C98.6003 9.64749 98.9229 10.0615 99.1375 10.5327C99.3521 11.0039 99.4526 11.5191 99.431 12.0364C99.439 12.651 99.2665 13.2544 98.9349 13.7718C98.6032 14.2892 98.127 14.6979 97.5653 14.9473Z" fill="#808080"/>
<path d="M102.735 13.8802H101.263L100.978 8.61133H103.02L102.735 13.8802ZM106.531 13.8802H105.067L104.782 8.61133H106.804L106.531 13.8802Z" fill="#808080"/>
<path d="M118.3 12.7314V8.61133H120.269V22.1982H117.919L113.743 15.612C112.521 13.7075 111.636 12.2477 111.091 11.2458C111.139 12.7573 111.169 15.0377 111.169 18.0738V22.1982H109.183V8.61133H111.545L115.743 15.1931C116.874 16.9897 117.758 18.4524 118.395 19.581C118.33 18.0565 118.3 15.7719 118.3 12.7314Z" fill="#808080"/>
<path d="M22.8418 25.0625H24.4873V38.6493H22.4445V28.9494H19.335V27.4421H19.6373C20.4151 27.4388 21.1776 27.2254 21.8442 26.8246C22.3873 26.3843 22.7437 25.7548 22.8418 25.0625Z" fill="#808080"/>
<path d="M28.6251 29.8679C28.2856 29.8751 27.9483 29.8125 27.6341 29.684C27.3198 29.5555 27.0353 29.3638 26.7982 29.1208C26.5514 28.9013 26.3553 28.6308 26.2233 28.3281C26.0913 28.0253 26.0266 27.6975 26.0338 27.3673C26.0264 27.0385 26.0888 26.7118 26.2168 26.4089C26.3449 26.1059 26.5356 25.8335 26.7766 25.6096C27.0227 25.3756 27.3128 25.1928 27.6301 25.072C27.9475 24.9511 28.2857 24.8946 28.6251 24.9057C29.3174 24.8887 29.9894 25.141 30.4994 25.6096C30.7346 25.8375 30.9216 26.1103 31.0494 26.4119C31.1771 26.7135 31.2429 27.0377 31.2429 27.3652C31.2429 27.6927 31.1771 28.0169 31.0494 28.3185C30.9216 28.62 30.7346 28.8929 30.4994 29.1208C30.2528 29.3643 29.9599 29.5559 29.6379 29.6843C29.316 29.8126 28.9716 29.8751 28.6251 29.8679ZM28.6251 28.5723C28.784 28.5764 28.9422 28.5482 29.09 28.4894C29.2378 28.4306 29.3721 28.3424 29.4847 28.2301C29.5974 28.1179 29.6861 27.9839 29.7454 27.8363C29.8048 27.6888 29.8336 27.5307 29.83 27.3717C29.8375 27.2114 29.8105 27.0513 29.7509 26.9023C29.6913 26.7533 29.6005 26.6188 29.4845 26.5079C29.2497 26.29 28.9411 26.1689 28.6207 26.1689C28.3003 26.1689 27.9918 26.29 27.757 26.5079C27.6419 26.6195 27.5516 26.7541 27.4921 26.903C27.4326 27.0518 27.4051 27.2115 27.4115 27.3717C27.4097 27.5298 27.4396 27.6867 27.4993 27.8332C27.5591 27.9796 27.6474 28.1127 27.7592 28.2245C27.8711 28.3363 28.0041 28.4247 28.1506 28.4844C28.297 28.5442 28.4539 28.574 28.6121 28.5723H28.6251Z" fill="#808080"/>
<path d="M36.1606 25.0625H37.8017V38.6493H35.759V28.9494H32.6494V27.4421H32.9561C33.7324 27.438 34.4933 27.2246 35.1586 26.8246C35.7031 26.3847 36.061 25.7553 36.1606 25.0625Z" fill="#808080"/>
<path d="M47.701 25.8437C49.0888 26.9234 49.7827 28.9259 49.7827 31.8511C49.7827 34.1401 49.3508 35.9151 48.487 37.1762C48.0681 37.7888 47.4993 38.2839 46.8348 38.6143C46.1702 38.9446 45.4321 39.0993 44.6908 39.0635C43.5535 39.1111 42.4348 38.7631 41.5252 38.0788C40.6831 37.4029 40.1302 36.4315 39.9791 35.3623H41.9441C42.0389 35.9612 42.3644 36.4991 42.851 36.8609C43.386 37.2277 44.0255 37.4111 44.6736 37.3835C46.7207 37.3835 47.7759 35.6732 47.8392 32.2528C47.4614 32.8077 46.9545 33.2626 46.3622 33.5786C45.7667 33.9008 45.1001 34.0686 44.4231 34.0667C43.5088 34.0648 42.6155 33.793 41.8552 33.2854C41.0948 32.7778 40.5011 32.057 40.1487 31.2135C39.7964 30.3699 39.7009 29.441 39.8743 28.5434C40.0477 27.6457 40.4823 26.8193 41.1235 26.1676C42.0309 25.3876 43.1724 24.9323 44.3675 24.8737C45.5626 24.815 46.7432 25.1563 47.7226 25.8437H47.701ZM44.6045 32.4039C44.9799 32.4172 45.354 32.3526 45.7034 32.2144C46.0527 32.0762 46.3696 31.8672 46.6343 31.6006C46.9003 31.3263 47.1076 31.0006 47.2434 30.6434C47.3793 30.2862 47.441 29.9051 47.4246 29.5233C47.4412 29.1393 47.3809 28.7559 47.2475 28.3955C47.114 28.0351 46.9099 27.7049 46.6472 27.4244C46.3807 27.1569 46.0614 26.9478 45.7098 26.8103C45.3581 26.6728 44.9817 26.6098 44.6045 26.6254C44.2298 26.6107 43.8562 26.6751 43.508 26.8142C43.1597 26.9533 42.8447 27.1642 42.5833 27.433C42.3209 27.7122 42.1167 28.0408 41.9825 28.3996C41.8483 28.7585 41.7868 29.1405 41.8016 29.5233C41.7882 29.9035 41.8512 30.2824 41.987 30.6378C42.1227 30.9931 42.3284 31.3176 42.5919 31.592C42.8526 31.8596 43.1662 32.0701 43.5127 32.2099C43.8592 32.3497 44.231 32.4157 44.6045 32.4039Z" fill="#808080"/>
<path d="M53.0644 30.3255H51.5917L51.3066 25.0566H53.3494L53.0644 30.3255Z" fill="#808080"/>
<path d="M62.5662 31.3938C64.0893 32.1309 64.8523 33.2624 64.8552 34.7884C64.877 35.361 64.7678 35.931 64.5357 36.4549C64.3037 36.9789 63.9551 37.4429 63.5164 37.8115C62.5179 38.6081 61.2639 39.0148 59.9879 38.956C58.3986 38.956 57.1692 38.55 56.2997 37.7381C55.8574 37.3022 55.5132 36.7771 55.2898 36.1977C55.0663 35.6184 54.9689 34.9981 55.0041 34.3781H56.9864C57.0382 36.2467 58.0373 37.1824 59.9836 37.1853C60.7162 37.2253 61.4373 36.9895 62.0048 36.5245C62.2517 36.3042 62.4468 36.0319 62.5759 35.7273C62.7051 35.4226 62.7652 35.0931 62.752 34.7625C62.7701 34.4207 62.7107 34.0793 62.5783 33.7637C62.4459 33.4481 62.244 33.1665 61.9875 32.9399C61.3848 32.4687 60.6307 32.2337 59.867 32.2792H58.8564V30.6769H59.8109C60.506 30.724 61.1963 30.532 61.7673 30.1327C61.9963 29.9418 62.177 29.6996 62.2948 29.4257C62.4126 29.1518 62.4642 28.854 62.4453 28.5564C62.4594 28.267 62.4054 27.9783 62.2876 27.7135C62.1699 27.4487 61.9916 27.2153 61.7673 27.0319C61.2301 26.6364 60.5718 26.4409 59.9059 26.4791C58.2173 26.4791 57.3146 27.278 57.2542 28.8846H55.2546C55.2344 28.316 55.337 27.7497 55.5554 27.2243C55.7737 26.6989 56.1027 26.2267 56.52 25.8399C57.3405 25.1057 58.4764 24.7429 59.9275 24.7429C61.1064 24.6829 62.2696 25.034 63.2184 25.7362C63.6217 26.0593 63.9434 26.4727 64.1572 26.9432C64.371 27.4136 64.4711 27.9278 64.4492 28.4441C64.4635 29.0671 64.2921 29.6803 63.9568 30.2056C63.6215 30.7309 63.1374 31.1445 62.5662 31.3938Z" fill="#808080"/>
<path d="M73.8377 31.3935C75.4702 32.0283 76.2821 33.1642 76.2821 34.788C76.3079 35.3667 76.1946 35.9431 75.952 36.4691C75.7093 36.995 75.3442 37.4552 74.8872 37.8112C73.7969 38.5569 72.5069 38.9559 71.186 38.9559C69.8651 38.9559 68.575 38.5569 67.4848 37.8112C67.0297 37.4538 66.6662 36.9932 66.4244 36.4676C66.1825 35.9419 66.0694 35.3661 66.0942 34.788C66.0942 33.1642 66.9104 32.0283 68.5343 31.3935C67.9614 31.1655 67.4718 30.7678 67.1314 30.2536C66.791 29.7395 66.6159 29.1336 66.6297 28.5172C66.6088 27.9889 66.7157 27.4633 66.9412 26.9852C67.1668 26.507 67.5044 26.0903 67.9253 25.7704C68.865 25.073 70.0171 24.722 71.186 24.7771C72.3611 24.7262 73.5186 25.0765 74.4683 25.7704C74.8824 26.0945 75.2129 26.5129 75.4323 26.9907C75.6517 27.4685 75.7535 27.9919 75.7293 28.5172C75.7441 29.1321 75.5709 29.7369 75.2329 30.2509C74.8949 30.7648 74.4082 31.1634 73.8377 31.3935ZM68.9748 36.576C69.6305 37.0124 70.4005 37.2452 71.1882 37.2452C71.9758 37.2452 72.7459 37.0124 73.4015 36.576C73.654 36.3393 73.8552 36.0533 73.9928 35.7358C74.1304 35.4182 74.2014 35.0758 74.2014 34.7297C74.2014 34.3836 74.1304 34.0412 73.9928 33.7237C73.8552 33.4061 73.654 33.1201 73.4015 32.8834C72.7396 32.4551 71.968 32.2272 71.1795 32.2272C70.3911 32.2272 69.6194 32.4551 68.9575 32.8834C68.69 33.1077 68.4782 33.3909 68.3388 33.7109C68.1994 34.031 68.1362 34.379 68.1542 34.7276C68.1362 35.0766 68.2012 35.4249 68.3438 35.744C68.4864 36.063 68.7027 36.3437 68.9748 36.563V36.576ZM73.8032 28.5647C73.8183 28.2647 73.7602 27.9656 73.6338 27.6932C73.5074 27.4208 73.3165 27.1833 73.0776 27.0013C72.5135 26.6405 71.8578 26.4487 71.1882 26.4487C70.5185 26.4487 69.8629 26.6405 69.2987 27.0013C69.0714 27.1934 68.8887 27.4329 68.7634 27.7029C68.638 27.9729 68.5731 28.267 68.5731 28.5647C68.5731 28.8623 68.638 29.1564 68.7634 29.4265C68.8887 29.6965 69.0714 29.9359 69.2987 30.1281C69.8629 30.4889 70.5185 30.6806 71.1882 30.6806C71.8578 30.6806 72.5135 30.4889 73.0776 30.1281C73.3184 29.9448 73.5104 29.7052 73.6369 29.4303C73.7634 29.1555 73.8205 28.8538 73.8032 28.5517V28.5647Z" fill="#808080"/>
<path d="M79.7546 38.6447H77.4268V36.373H79.7373L79.7546 38.6447Z" fill="#808080"/>
<path d="M88.815 25.8437C90.2057 26.9234 90.8995 28.9259 90.8966 31.8511C90.8966 34.1401 90.4648 35.9151 89.601 37.1762C89.1821 37.7888 88.6133 38.2839 87.9487 38.6143C87.2842 38.9446 86.5461 39.0993 85.8048 39.0635C84.6675 39.1111 83.5488 38.7631 82.6391 38.0788C81.7971 37.4029 81.2442 36.4315 81.093 35.3623H83.0408C83.1356 35.9612 83.4612 36.4991 83.9477 36.8609C84.4814 37.2271 85.1194 37.4104 85.766 37.3835C87.8188 37.3835 88.8755 35.6732 88.9359 32.2528C88.5591 32.8086 88.052 33.2638 87.4589 33.5786C86.8635 33.9008 86.1968 34.0686 85.5198 34.0667C84.6056 34.0648 83.7122 33.793 82.9518 33.2854C82.1914 32.7778 81.5978 32.057 81.2455 31.2135C80.8931 30.3699 80.7976 29.441 80.971 28.5434C81.1444 27.6457 81.579 26.8193 82.2202 26.1676C83.1276 25.3876 84.2691 24.9323 85.4642 24.8737C86.6593 24.815 87.8399 25.1563 88.8193 25.8437H88.815ZM85.7271 32.4039C86.1025 32.4172 86.4767 32.3526 86.826 32.2144C87.1753 32.0762 87.4922 31.8672 87.7569 31.6006C88.0229 31.326 88.2304 31.0004 88.3669 30.6433C88.5035 30.2863 88.5663 29.9053 88.5516 29.5233C88.5674 29.1387 88.5061 28.7548 88.3711 28.3943C88.2361 28.0338 88.0301 27.704 87.7655 27.4244C87.2148 26.9082 86.4883 26.621 85.7336 26.621C84.9788 26.621 84.2523 26.9082 83.7016 27.4244C83.44 27.7041 83.2363 28.0328 83.1021 28.3915C82.968 28.7502 82.906 29.1319 82.9199 29.5147C82.9073 29.8951 82.9711 30.2742 83.1076 30.6295C83.2441 30.9849 83.4505 31.3092 83.7146 31.5834C83.9745 31.8526 84.2877 32.0646 84.6343 32.2059C84.9808 32.3472 85.353 32.4146 85.7271 32.4039Z" fill="#808080"/>
<path d="M94.1796 30.3255H92.7113L92.4219 25.0566H94.4646L94.1796 30.3255ZM97.9715 30.3255H96.5247L96.2397 25.0566H98.2609L97.9715 30.3255Z" fill="#808080"/>
<path d="M113.886 31.2195L115.544 25.0566H117.661L113.847 38.6435H111.545L109.818 32.2906C109.487 31.0554 109.091 29.4848 108.63 27.5788C108.172 29.4848 107.779 31.0554 107.451 32.2906L105.724 38.6435H103.435L99.6514 25.061H101.772L103.43 31.2238C104.006 33.4523 104.425 35.1251 104.687 36.2423C105.43 33.2191 105.84 31.5305 105.931 31.1893L107.572 25.061H109.731L111.373 31.1893C111.463 31.5305 111.878 33.2191 112.612 36.2423C112.888 35.1223 113.313 33.448 113.886 31.2195Z" fill="#808080"/>
<path d="M114.136 47.3733H22.8636C16.8019 47.3664 10.9904 44.9554 6.70416 40.6691C2.4179 36.3829 0.00685841 30.5714 0 24.5097V22.8643C0.0102858 16.8048 2.42285 10.9967 6.70875 6.71325C10.9946 2.42978 16.8041 0.0205229 22.8636 0.0136719H114.136C120.198 0.0205303 126.01 2.43157 130.296 6.71783C134.582 11.0041 136.993 16.8155 137 22.8772V24.5227C136.99 30.5821 134.577 36.3903 130.291 40.6737C126.005 44.9572 120.196 47.3664 114.136 47.3733ZM22.8636 2.60493C17.4891 2.61179 12.3368 4.74981 8.53648 8.55012C4.73617 12.3504 2.59812 17.5028 2.59126 22.8772V24.5227C2.59812 29.8971 4.73617 35.0495 8.53648 38.8498C12.3368 42.6501 17.4891 44.7881 22.8636 44.795H114.136C119.511 44.7881 124.663 42.6501 128.464 38.8498C132.264 35.0495 134.402 29.8971 134.409 24.5227V22.8772C134.402 17.5028 132.264 12.3504 128.464 8.55012C124.663 4.74981 119.511 2.61179 114.136 2.60493H22.8636Z" fill="#808080"/>
</g>
<defs>
<clipPath id="clip0_10_13529">
<rect width="137" height="47.3769" fill="white"/>
</clipPath>
</defs>
</svg>
