<svg width="28" height="21" viewBox="0 0 28 21" fill="none" xmlns="http://www.w3.org/2000/svg">
<path d="M22.9453 1.81044C21.2178 1.04298 19.3652 0.477548 17.4283 0.153702C17.393 0.147452 17.3577 0.163071 17.3396 0.194311C17.1013 0.604583 16.8374 1.13982 16.6526 1.56051C14.5693 1.25853 12.4966 1.25853 10.456 1.56051C10.2712 1.13046 9.99769 0.604583 9.75837 0.194311C9.74019 0.164114 9.70496 0.148494 9.66968 0.153702C7.73379 0.476513 5.88124 1.04194 4.1526 1.81044C4.13764 1.81668 4.12481 1.82711 4.1163 1.84063C0.602394 6.9233 -0.360211 11.881 0.112011 16.7773C0.114147 16.8012 0.128036 16.8242 0.147267 16.8387C2.46564 18.4871 4.71138 19.4878 6.91542 20.1511C6.95069 20.1616 6.98807 20.1491 7.01052 20.1209C7.53188 19.4316 7.99663 18.7048 8.39511 17.9404C8.41863 17.8957 8.39618 17.8426 8.34812 17.8248C7.61094 17.5541 6.90901 17.224 6.23379 16.8491C6.18038 16.819 6.17611 16.745 6.22524 16.7096C6.36733 16.6065 6.50946 16.4992 6.64514 16.3909C6.66968 16.3712 6.70389 16.367 6.73275 16.3795C11.1686 18.3403 15.971 18.3403 20.3545 16.3795C20.3834 16.366 20.4176 16.3701 20.4432 16.3899C20.5789 16.4982 20.721 16.6065 20.8641 16.7096C20.9133 16.745 20.9101 16.819 20.8567 16.8491C20.1814 17.2313 19.4795 17.5541 18.7413 17.8238C18.6932 17.8415 18.6718 17.8957 18.6953 17.9404C19.1024 18.7037 19.5671 19.4305 20.0789 20.1199C20.1002 20.1491 20.1387 20.1616 20.174 20.1511C22.3887 19.4878 24.6344 18.4871 26.9528 16.8387C26.9731 16.8242 26.9859 16.8023 26.9881 16.7783C27.5532 11.1177 26.0415 6.20063 22.9806 1.84167C22.9731 1.82711 22.9603 1.81668 22.9453 1.81044ZM9.05754 13.796C7.72203 13.796 6.62162 12.6089 6.62162 11.151C6.62162 9.69319 7.70069 8.50612 9.05754 8.50612C10.425 8.50612 11.5148 9.70362 11.4934 11.151C11.4934 12.6089 10.4143 13.796 9.05754 13.796ZM18.0639 13.796C16.7285 13.796 15.628 12.6089 15.628 11.151C15.628 9.69319 16.7071 8.50612 18.0639 8.50612C19.4314 8.50612 20.5212 9.70362 20.4998 11.151C20.4998 12.6089 19.4314 13.796 18.0639 13.796Z" fill="white"/>
</svg>
