<svg width="26" height="21" viewBox="0 0 26 21" fill="none" xmlns="http://www.w3.org/2000/svg">
<path fill-rule="evenodd" clip-rule="evenodd" d="M25.1197 2.40621C24.2001 2.81475 23.2104 3.08989 22.1724 3.21412C23.2321 2.5788 24.0459 1.57329 24.4286 0.375187C23.4381 0.963816 22.3383 1.38987 21.1702 1.62082C20.2339 0.623648 18.8991 0 17.4242 0C14.5903 0 12.2924 2.29782 12.2924 5.13175C12.2924 5.53362 12.3383 5.92548 12.4258 6.30151C8.16036 6.08807 4.37929 4.04454 1.84801 0.939639C1.40612 1.69752 1.1535 2.57881 1.1535 3.51928C1.1535 5.29934 2.05812 6.87014 3.43631 7.7906C2.59422 7.76392 1.80382 7.53297 1.11097 7.14861V7.2128C1.11097 9.69989 2.88103 11.7734 5.22721 12.2462C4.797 12.3629 4.34344 12.4263 3.8757 12.4263C3.5447 12.4263 3.22287 12.3937 2.90938 12.3337C3.56221 14.3722 5.45817 15.8563 7.70346 15.898C5.94758 17.2737 3.7348 18.095 1.33025 18.095C0.915042 18.095 0.506504 18.0708 0.105469 18.0224C2.37661 19.4781 5.0738 20.3286 7.97193 20.3286C17.4109 20.3286 22.5726 12.5088 22.5726 5.72788C22.5726 5.50527 22.5685 5.2835 22.5576 5.06422C23.5615 4.33886 24.4319 3.43507 25.1197 2.40621Z" fill="white"/>
</svg>
